<svg width="1260" height="126" viewBox="0 0 1260 126" fill="none" xmlns="http://www.w3.org/2000/svg">
<g filter="url(#filter0_ii_582_5713)">
<path d="M419.419 8.1V45.8C419.419 66 405.519 76.1 377.719 76.1C345.519 76.1 331.619 66 331.619 45.8V8.1H352.219V45.8C352.219 55.7 356.419 58.9 377.719 58.9C393.619 58.9 398.619 55.2 398.619 45.8V8.1H419.419ZM506.652 40.6C512.452 42.3 517.152 47.5 517.152 55.5C517.152 66.6 511.052 75 489.952 75H431.152V34.3H490.352C493.352 34.3 496.152 33.2 496.152 29.8C496.152 26.5 493.252 25.5 490.352 25.5H431.152L445.152 8.1H489.452C505.452 8.1 515.752 14.3 515.752 26.6C515.752 34.5 511.252 38.9 506.652 40.6ZM490.052 48.6H451.952V57.8H490.052C494.552 57.8 496.452 56.2 496.452 53.1C496.452 50.2 494.552 48.6 490.052 48.6ZM548.538 8.1V75H527.838V8.1H548.538ZM587.025 34.8H623.425C639.725 34.8 648.525 40.9 648.525 53.1C648.525 66.8 640.225 75 619.825 75H557.525L570.825 57.8H621.425C626.325 57.8 628.525 56.4 628.525 52.9C628.525 49.5 626.325 48.1 621.425 48.1H585.025C567.825 48.1 559.925 40.4 559.925 28.9C559.925 16.3 568.325 8.1 588.625 8.1H646.725L633.425 25.5H587.025C582.225 25.5 579.925 26.7 579.925 30.1C579.925 33.5 582.225 34.8 587.025 34.8ZM704.514 7C737.014 7 753.414 17.6 753.414 41.5C753.414 65.4 737.014 76.1 704.514 76.1C671.914 76.1 655.614 65.4 655.614 41.5C655.614 17.6 671.914 7 704.514 7ZM704.514 58.7C725.314 58.7 732.814 55.9 732.814 41.5C732.814 27.1 725.314 24.4 704.514 24.4C683.714 24.4 676.214 27.1 676.214 41.5C676.214 55.9 683.714 58.7 704.514 58.7ZM763.866 8.1H838.866L825.466 25.5H784.666V34.2H835.066L822.466 50.5H784.666V75H763.866V8.1ZM852.998 8.1H928.998L915.598 25.5H891.698V75H870.998V25.5H839.598L852.998 8.1Z" fill="url(#paint0_linear_582_5713)"/>
</g>
<g filter="url(#filter1_ii_582_5713)">
<path d="M339.658 93.24H349.818L361.858 111L374.418 93.24H384.178L367.058 117.44C365.898 119 364.258 120.44 361.698 120.44C359.218 120.44 357.578 119.12 356.418 117.44L339.658 93.24ZM418.605 114.8L423.525 120H412.445L406.485 112.92H393.765V120H385.485V106.32H408.765C411.325 106.32 413.325 105.16 413.325 103.32C413.325 101.24 411.605 100.2 408.765 100.2H385.485L390.885 93.24H408.085C414.165 93.24 421.845 95.16 421.845 102.8C421.845 106.96 419.245 110.4 414.845 111.28C415.765 111.96 416.765 112.92 418.605 114.8ZM453.335 113.12H476.095L470.775 120H445.015V93.24H476.015L470.655 100.2H453.335V103.4H474.535L469.775 109.48H453.335V113.12ZM490.761 103.92H505.321C511.841 103.92 515.361 106.36 515.361 111.24C515.361 116.72 512.041 120 503.881 120H478.961L484.281 113.12H504.521C506.481 113.12 507.361 112.56 507.361 111.16C507.361 109.8 506.481 109.24 504.521 109.24H489.961C483.081 109.24 479.921 106.16 479.921 101.56C479.921 96.52 483.281 93.24 491.401 93.24H514.641L509.321 100.2H490.761C488.841 100.2 487.921 100.68 487.921 102.04C487.921 103.4 488.841 103.92 490.761 103.92ZM535.916 113.12H554.676L549.356 120H535.916C526.636 120 519.796 114.12 519.796 106.36C519.796 98.52 526.636 93.24 535.916 93.24H554.676L549.356 100.2H535.916C531.436 100.2 528.076 102.88 528.076 106.72C528.076 110.52 531.396 113.12 535.916 113.12ZM600.223 120H569.103L574.103 113.12H580.823C582.423 113.12 584.303 113.12 585.583 113.2C584.863 112.24 583.743 110.6 582.863 109.32L578.063 102.24L565.503 120H555.703L572.863 95.8C573.983 94.24 575.623 92.8 578.223 92.8C580.703 92.8 582.343 94.12 583.503 95.8L600.223 120ZM640.094 103.28C640.094 109.2 635.254 113.16 626.934 113.16H612.934V120H604.694V106.32H627.734C630.294 106.32 631.774 105.08 631.774 103.24C631.774 101.36 630.294 100.2 627.734 100.2H604.694L610.174 93.24H626.974C635.254 93.24 640.094 97.32 640.094 103.28ZM654.225 113.12H676.985L671.665 120H645.905V93.24H676.905L671.545 100.2H654.225V103.4H675.425L670.665 109.48H654.225V113.12ZM731.364 114.8L736.284 120H725.204L719.244 112.92H706.524V120H698.244V106.32H721.524C724.084 106.32 726.084 105.16 726.084 103.32C726.084 101.24 724.364 100.2 721.524 100.2H698.244L703.644 93.24H720.844C726.924 93.24 734.604 95.16 734.604 102.8C734.604 106.96 732.004 110.4 727.604 111.28C728.524 111.96 729.524 112.92 731.364 114.8ZM758.605 92.8C771.605 92.8 778.165 97.04 778.165 106.6C778.165 116.16 771.605 120.44 758.605 120.44C745.565 120.44 739.045 116.16 739.045 106.6C739.045 97.04 745.565 92.8 758.605 92.8ZM758.605 113.48C766.925 113.48 769.925 112.36 769.925 106.6C769.925 100.84 766.925 99.76 758.605 99.76C750.285 99.76 747.285 100.84 747.285 106.6C747.285 112.36 750.285 113.48 758.605 113.48ZM802.666 92.8C815.666 92.8 822.226 97.04 822.226 106.6C822.226 116.16 815.666 120.44 802.666 120.44C789.626 120.44 783.106 116.16 783.106 106.6C783.106 97.04 789.626 92.8 802.666 92.8ZM802.666 113.48C810.986 113.48 813.986 112.36 813.986 106.6C813.986 100.84 810.986 99.76 802.666 99.76C794.346 99.76 791.346 100.84 791.346 106.6C791.346 112.36 794.346 113.48 802.666 113.48ZM841.035 95.64L845.315 103.2C847.675 107.32 848.715 109.32 849.635 111.2C850.515 109.32 851.555 107.36 853.915 103.24L858.195 95.64C859.155 93.92 860.595 92.8 862.755 92.8C864.835 92.8 866.675 94 867.395 96.48L874.155 120H865.915L863.395 110.68C862.555 107.64 861.995 105.48 861.555 103.32C860.675 105.2 859.675 107.24 857.835 110.72L854.235 117.44C852.835 120.08 851.475 120.44 849.475 120.44C847.475 120.44 846.115 120.08 844.715 117.44L841.115 110.68C839.155 107 838.195 105.12 837.355 103.32C836.955 105.44 836.355 107.68 835.555 110.68L833.035 120H824.915L831.835 96.48C832.555 94 834.435 92.8 836.515 92.8C838.635 92.8 840.075 93.88 841.035 95.64ZM889.026 103.92H903.586C910.106 103.92 913.626 106.36 913.626 111.24C913.626 116.72 910.306 120 902.146 120H877.226L882.546 113.12H902.786C904.746 113.12 905.626 112.56 905.626 111.16C905.626 109.8 904.746 109.24 902.786 109.24H888.226C881.346 109.24 878.186 106.16 878.186 101.56C878.186 96.52 881.546 93.24 889.666 93.24H912.906L907.586 100.2H889.026C887.106 100.2 886.186 100.68 886.186 102.04C886.186 103.4 887.106 103.92 889.026 103.92Z" fill="url(#paint1_linear_582_5713)"/>
</g>
<defs>
<filter id="filter0_ii_582_5713" x="331.619" y="6" width="598.379" height="71.1" filterUnits="userSpaceOnUse" color-interpolation-filters="sRGB">
<feFlood flood-opacity="0" result="BackgroundImageFix"/>
<feBlend mode="normal" in="SourceGraphic" in2="BackgroundImageFix" result="shape"/>
<feColorMatrix in="SourceAlpha" type="matrix" values="0 0 0 0 0 0 0 0 0 0 0 0 0 0 0 0 0 0 127 0" result="hardAlpha"/>
<feOffset dx="1" dy="1"/>
<feGaussianBlur stdDeviation="0.5"/>
<feComposite in2="hardAlpha" operator="arithmetic" k2="-1" k3="1"/>
<feColorMatrix type="matrix" values="0 0 0 0 1 0 0 0 0 1 0 0 0 0 1 0 0 0 0.3 0"/>
<feBlend mode="normal" in2="shape" result="effect1_innerShadow_582_5713"/>
<feColorMatrix in="SourceAlpha" type="matrix" values="0 0 0 0 0 0 0 0 0 0 0 0 0 0 0 0 0 0 127 0" result="hardAlpha"/>
<feOffset dy="-3"/>
<feGaussianBlur stdDeviation="0.5"/>
<feComposite in2="hardAlpha" operator="arithmetic" k2="-1" k3="1"/>
<feColorMatrix type="matrix" values="0 0 0 0 0 0 0 0 0 0 0 0 0 0 0 0 0 0 0.3 0"/>
<feBlend mode="normal" in2="effect1_innerShadow_582_5713" result="effect2_innerShadow_582_5713"/>
</filter>
<filter id="filter1_ii_582_5713" x="339.658" y="91.8" width="574.969" height="29.6399" filterUnits="userSpaceOnUse" color-interpolation-filters="sRGB">
<feFlood flood-opacity="0" result="BackgroundImageFix"/>
<feBlend mode="normal" in="SourceGraphic" in2="BackgroundImageFix" result="shape"/>
<feColorMatrix in="SourceAlpha" type="matrix" values="0 0 0 0 0 0 0 0 0 0 0 0 0 0 0 0 0 0 127 0" result="hardAlpha"/>
<feOffset dx="1" dy="1"/>
<feGaussianBlur stdDeviation="0.5"/>
<feComposite in2="hardAlpha" operator="arithmetic" k2="-1" k3="1"/>
<feColorMatrix type="matrix" values="0 0 0 0 1 0 0 0 0 1 0 0 0 0 1 0 0 0 0.5 0"/>
<feBlend mode="normal" in2="shape" result="effect1_innerShadow_582_5713"/>
<feColorMatrix in="SourceAlpha" type="matrix" values="0 0 0 0 0 0 0 0 0 0 0 0 0 0 0 0 0 0 127 0" result="hardAlpha"/>
<feOffset dy="-1"/>
<feGaussianBlur stdDeviation="0.5"/>
<feComposite in2="hardAlpha" operator="arithmetic" k2="-1" k3="1"/>
<feColorMatrix type="matrix" values="0 0 0 0 0 0 0 0 0 0 0 0 0 0 0 0 0 0 0.5 0"/>
<feBlend mode="normal" in2="effect1_innerShadow_582_5713" result="effect2_innerShadow_582_5713"/>
</filter>
<linearGradient id="paint0_linear_582_5713" x1="624.313" y1="18.209" x2="624.295" y2="63.2836" gradientUnits="userSpaceOnUse">
<stop stop-color="#B5A978"/>
<stop offset="1" stop-color="#75654E"/>
</linearGradient>
<linearGradient id="paint1_linear_582_5713" x1="623.874" y1="95.1045" x2="623.869" y2="117.642" gradientUnits="userSpaceOnUse">
<stop stop-color="#B5A978"/>
<stop offset="1" stop-color="#75654E"/>
</linearGradient>
</defs>
</svg>
