<svg width="640" height="132" viewBox="0 0 640 132" fill="none" xmlns="http://www.w3.org/2000/svg">
<g filter="url(#filter0_ii_582_5721)">
<path d="M111.833 11.1V48.8C111.833 69 97.9328 79.1 70.1328 79.1C37.9328 79.1 24.0328 69 24.0328 48.8V11.1H44.6328V48.8C44.6328 58.7 48.8328 61.9 70.1328 61.9C86.0328 61.9 91.0328 58.2 91.0328 48.8V11.1H111.833ZM199.066 43.6C204.866 45.3 209.566 50.5 209.566 58.5C209.566 69.6 203.466 78 182.366 78H123.566V37.3H182.766C185.766 37.3 188.566 36.2 188.566 32.8C188.566 29.5 185.666 28.5 182.766 28.5H123.566L137.566 11.1H181.866C197.866 11.1 208.166 17.3 208.166 29.6C208.166 37.5 203.666 41.9 199.066 43.6ZM182.466 51.6H144.366V60.8H182.466C186.966 60.8 188.866 59.2 188.866 56.1C188.866 53.2 186.966 51.6 182.466 51.6ZM240.952 11.1V78H220.252V11.1H240.952ZM279.439 37.8H315.839C332.139 37.8 340.939 43.9 340.939 56.1C340.939 69.8 332.639 78 312.239 78H249.939L263.239 60.8H313.839C318.739 60.8 320.939 59.4 320.939 55.9C320.939 52.5 318.739 51.1 313.839 51.1H277.439C260.239 51.1 252.339 43.4 252.339 31.9C252.339 19.3 260.739 11.1 281.039 11.1H339.139L325.839 28.5H279.439C274.639 28.5 272.339 29.7 272.339 33.1C272.339 36.5 274.639 37.8 279.439 37.8ZM396.928 10C429.428 10 445.828 20.6 445.828 44.5C445.828 68.4 429.428 79.1 396.928 79.1C364.328 79.1 348.028 68.4 348.028 44.5C348.028 20.6 364.328 10 396.928 10ZM396.928 61.7C417.728 61.7 425.228 58.9 425.228 44.5C425.228 30.1 417.728 27.4 396.928 27.4C376.128 27.4 368.628 30.1 368.628 44.5C368.628 58.9 376.128 61.7 396.928 61.7ZM456.28 11.1H531.28L517.88 28.5H477.08V37.2H527.48L514.88 53.5H477.08V78H456.28V11.1ZM545.412 11.1H621.412L608.012 28.5H584.112V78H563.412V28.5H532.012L545.412 11.1Z" fill="url(#paint0_linear_582_5721)"/>
</g>
<g filter="url(#filter1_ii_582_5721)">
<path d="M32.658 96.24H42.818L54.858 114L67.418 96.24H77.178L60.058 120.44C58.898 122 57.258 123.44 54.698 123.44C52.218 123.44 50.578 122.12 49.418 120.44L32.658 96.24ZM111.605 117.8L116.525 123H105.445L99.4845 115.92H86.7645V123H78.4845V109.32H101.765C104.325 109.32 106.325 108.16 106.325 106.32C106.325 104.24 104.605 103.2 101.765 103.2H78.4845L83.8845 96.24H101.085C107.165 96.24 114.845 98.16 114.845 105.8C114.845 109.96 112.245 113.4 107.845 114.28C108.765 114.96 109.765 115.92 111.605 117.8ZM146.335 116.12H169.095L163.775 123H138.015V96.24H169.015L163.655 103.2H146.335V106.4H167.535L162.775 112.48H146.335V116.12ZM183.761 106.92H198.321C204.841 106.92 208.361 109.36 208.361 114.24C208.361 119.72 205.041 123 196.881 123H171.961L177.281 116.12H197.521C199.481 116.12 200.361 115.56 200.361 114.16C200.361 112.8 199.481 112.24 197.521 112.24H182.961C176.081 112.24 172.921 109.16 172.921 104.56C172.921 99.52 176.281 96.24 184.401 96.24H207.641L202.321 103.2H183.761C181.841 103.2 180.921 103.68 180.921 105.04C180.921 106.4 181.841 106.92 183.761 106.92ZM228.916 116.12H247.676L242.356 123H228.916C219.636 123 212.796 117.12 212.796 109.36C212.796 101.52 219.636 96.24 228.916 96.24H247.676L242.356 103.2H228.916C224.436 103.2 221.076 105.88 221.076 109.72C221.076 113.52 224.396 116.12 228.916 116.12ZM293.223 123H262.103L267.103 116.12H273.823C275.423 116.12 277.303 116.12 278.583 116.2C277.863 115.24 276.743 113.6 275.863 112.32L271.063 105.24L258.503 123H248.703L265.863 98.8C266.983 97.24 268.623 95.8 271.223 95.8C273.703 95.8 275.343 97.12 276.503 98.8L293.223 123ZM333.094 106.28C333.094 112.2 328.254 116.16 319.934 116.16H305.934V123H297.694V109.32H320.734C323.294 109.32 324.774 108.08 324.774 106.24C324.774 104.36 323.294 103.2 320.734 103.2H297.694L303.174 96.24H319.974C328.254 96.24 333.094 100.32 333.094 106.28ZM347.225 116.12H369.985L364.665 123H338.905V96.24H369.905L364.545 103.2H347.225V106.4H368.425L363.665 112.48H347.225V116.12ZM424.364 117.8L429.284 123H418.204L412.244 115.92H399.524V123H391.244V109.32H414.524C417.084 109.32 419.084 108.16 419.084 106.32C419.084 104.24 417.364 103.2 414.524 103.2H391.244L396.644 96.24H413.844C419.924 96.24 427.604 98.16 427.604 105.8C427.604 109.96 425.004 113.4 420.604 114.28C421.524 114.96 422.524 115.92 424.364 117.8ZM451.605 95.8C464.605 95.8 471.165 100.04 471.165 109.6C471.165 119.16 464.605 123.44 451.605 123.44C438.565 123.44 432.045 119.16 432.045 109.6C432.045 100.04 438.565 95.8 451.605 95.8ZM451.605 116.48C459.925 116.48 462.925 115.36 462.925 109.6C462.925 103.84 459.925 102.76 451.605 102.76C443.285 102.76 440.285 103.84 440.285 109.6C440.285 115.36 443.285 116.48 451.605 116.48ZM495.666 95.8C508.666 95.8 515.226 100.04 515.226 109.6C515.226 119.16 508.666 123.44 495.666 123.44C482.626 123.44 476.106 119.16 476.106 109.6C476.106 100.04 482.626 95.8 495.666 95.8ZM495.666 116.48C503.986 116.48 506.986 115.36 506.986 109.6C506.986 103.84 503.986 102.76 495.666 102.76C487.346 102.76 484.346 103.84 484.346 109.6C484.346 115.36 487.346 116.48 495.666 116.48ZM534.035 98.64L538.315 106.2C540.675 110.32 541.715 112.32 542.635 114.2C543.515 112.32 544.555 110.36 546.915 106.24L551.195 98.64C552.155 96.92 553.595 95.8 555.755 95.8C557.835 95.8 559.675 97 560.395 99.48L567.155 123H558.915L556.395 113.68C555.555 110.64 554.995 108.48 554.555 106.32C553.675 108.2 552.675 110.24 550.835 113.72L547.235 120.44C545.835 123.08 544.475 123.44 542.475 123.44C540.475 123.44 539.115 123.08 537.715 120.44L534.115 113.68C532.155 110 531.195 108.12 530.355 106.32C529.955 108.44 529.355 110.68 528.555 113.68L526.035 123H517.915L524.835 99.48C525.555 97 527.435 95.8 529.515 95.8C531.635 95.8 533.075 96.88 534.035 98.64ZM582.026 106.92H596.586C603.106 106.92 606.626 109.36 606.626 114.24C606.626 119.72 603.306 123 595.146 123H570.226L575.546 116.12H595.786C597.746 116.12 598.626 115.56 598.626 114.16C598.626 112.8 597.746 112.24 595.786 112.24H581.226C574.346 112.24 571.186 109.16 571.186 104.56C571.186 99.52 574.546 96.24 582.666 96.24H605.906L600.586 103.2H582.026C580.106 103.2 579.186 103.68 579.186 105.04C579.186 106.4 580.106 106.92 582.026 106.92Z" fill="url(#paint1_linear_582_5721)"/>
</g>
<defs>
<filter id="filter0_ii_582_5721" x="24.0327" y="8.5" width="598.379" height="71.6" filterUnits="userSpaceOnUse" color-interpolation-filters="sRGB">
<feFlood flood-opacity="0" result="BackgroundImageFix"/>
<feBlend mode="normal" in="SourceGraphic" in2="BackgroundImageFix" result="shape"/>
<feColorMatrix in="SourceAlpha" type="matrix" values="0 0 0 0 0 0 0 0 0 0 0 0 0 0 0 0 0 0 127 0" result="hardAlpha"/>
<feOffset dx="1" dy="1"/>
<feGaussianBlur stdDeviation="0.5"/>
<feComposite in2="hardAlpha" operator="arithmetic" k2="-1" k3="1"/>
<feColorMatrix type="matrix" values="0 0 0 0 1 0 0 0 0 1 0 0 0 0 1 0 0 0 0.3 0"/>
<feBlend mode="normal" in2="shape" result="effect1_innerShadow_582_5721"/>
<feColorMatrix in="SourceAlpha" type="matrix" values="0 0 0 0 0 0 0 0 0 0 0 0 0 0 0 0 0 0 127 0" result="hardAlpha"/>
<feOffset dy="-3"/>
<feGaussianBlur stdDeviation="0.75"/>
<feComposite in2="hardAlpha" operator="arithmetic" k2="-1" k3="1"/>
<feColorMatrix type="matrix" values="0 0 0 0 0 0 0 0 0 0 0 0 0 0 0 0 0 0 0.3 0"/>
<feBlend mode="normal" in2="effect1_innerShadow_582_5721" result="effect2_innerShadow_582_5721"/>
</filter>
<filter id="filter1_ii_582_5721" x="32.6577" y="94.8" width="574.969" height="29.6399" filterUnits="userSpaceOnUse" color-interpolation-filters="sRGB">
<feFlood flood-opacity="0" result="BackgroundImageFix"/>
<feBlend mode="normal" in="SourceGraphic" in2="BackgroundImageFix" result="shape"/>
<feColorMatrix in="SourceAlpha" type="matrix" values="0 0 0 0 0 0 0 0 0 0 0 0 0 0 0 0 0 0 127 0" result="hardAlpha"/>
<feOffset dx="1" dy="1"/>
<feGaussianBlur stdDeviation="0.5"/>
<feComposite in2="hardAlpha" operator="arithmetic" k2="-1" k3="1"/>
<feColorMatrix type="matrix" values="0 0 0 0 1 0 0 0 0 1 0 0 0 0 1 0 0 0 0.5 0"/>
<feBlend mode="normal" in2="shape" result="effect1_innerShadow_582_5721"/>
<feColorMatrix in="SourceAlpha" type="matrix" values="0 0 0 0 0 0 0 0 0 0 0 0 0 0 0 0 0 0 127 0" result="hardAlpha"/>
<feOffset dy="-1"/>
<feGaussianBlur stdDeviation="0.5"/>
<feComposite in2="hardAlpha" operator="arithmetic" k2="-1" k3="1"/>
<feColorMatrix type="matrix" values="0 0 0 0 0 0 0 0 0 0 0 0 0 0 0 0 0 0 0.5 0"/>
<feBlend mode="normal" in2="effect1_innerShadow_582_5721" result="effect2_innerShadow_582_5721"/>
</filter>
<linearGradient id="paint0_linear_582_5721" x1="316.727" y1="21.209" x2="316.709" y2="66.2836" gradientUnits="userSpaceOnUse">
<stop stop-color="#B5A978"/>
<stop offset="1" stop-color="#75654E"/>
</linearGradient>
<linearGradient id="paint1_linear_582_5721" x1="316.874" y1="98.1045" x2="316.869" y2="120.642" gradientUnits="userSpaceOnUse">
<stop stop-color="#B5A978"/>
<stop offset="1" stop-color="#75654E"/>
</linearGradient>
</defs>
</svg>
