<svg width="2112" height="148" viewBox="0 0 2112 148" fill="none" xmlns="http://www.w3.org/2000/svg">
<g opacity="0.25" filter="url(#filter0_b_431_418)">
<path d="M358.65 72.52C358.65 92.44 341.25 106.48 313.41 106.48H271.41L267.81 127H243.09L250.29 85.96H319.41C328.05 85.96 333.33 81.52 333.33 75.28C333.33 70.6 329.61 67.6 322.65 67.6H253.53L273.69 46.72H324.09C346.41 46.72 358.65 57.16 358.65 72.52ZM475.059 127H381.699L400.419 106.36H420.459C425.379 106.36 430.899 106.36 434.739 106.6C433.059 103.72 430.539 98.8 428.619 94.96L417.939 73.72L370.899 127H341.499L405.819 54.4C410.019 49.72 415.659 45.4 423.459 45.4C430.899 45.4 435.099 49.36 437.739 54.4L475.059 127ZM590.471 111.4L602.591 127H569.351L555.191 105.76H517.031L513.311 127H488.471L495.671 85.96H565.511C573.791 85.96 580.991 82 580.991 75.52C580.991 70.24 576.431 67.6 568.751 67.6H498.911L518.831 46.72H570.431C587.231 46.72 607.151 51.88 607.151 71.08C607.151 85.6 596.711 97.84 581.231 100.84C583.511 102.88 586.031 105.76 590.471 111.4ZM639.123 46.72H730.323L710.403 67.6H681.843L671.283 127H646.443L656.883 67.6H619.203L639.123 46.72ZM767.71 46.72L753.55 127H728.71L742.99 46.72H767.71ZM802.374 106.36H870.774L851.094 127H773.814L788.094 46.72H880.974L861.174 67.6H809.214L807.534 77.2H871.014L853.734 95.44H804.294L802.374 106.36ZM919.573 78.76H963.253C980.653 78.76 989.893 85 989.893 97C989.893 114.4 978.973 127 950.413 127H875.653L895.213 106.36H956.053C962.773 106.36 965.653 104.2 965.653 99.52C965.653 96.28 963.133 94.72 958.093 94.72H914.293C896.053 94.72 887.893 87.04 887.893 75.4C887.893 59.08 899.053 46.72 927.133 46.72H996.853L977.173 67.6H921.493C914.773 67.6 911.893 69.4 911.893 74.2C911.893 77.44 914.413 78.76 919.573 78.76ZM1151.14 106.36L1131.7 127H1081.42C1059.58 127 1052.5 118.84 1052.5 107.92C1052.5 95.56 1060.18 88 1068.7 85.72C1064.26 83.92 1060.3 79.48 1060.3 72.16C1060.3 55.6 1074.7 46.72 1096.18 46.72H1129.78L1110.1 67.6H1091.5C1087.54 67.6 1083.46 68.92 1083.46 73.6C1083.46 77.08 1086.34 78.16 1089.58 78.16H1154.74L1138.78 95.32H1125.58L1123.66 106.36H1151.14ZM1078.18 101.8C1078.18 104.8 1080.34 106.36 1085.02 106.36H1103.62L1105.54 95.32H1086.94C1080.82 95.32 1078.18 97.72 1078.18 101.8ZM1240.28 106.36H1308.68L1289 127H1211.72L1226 46.72H1318.88L1299.08 67.6H1247.12L1245.44 77.2H1308.92L1291.64 95.44H1242.2L1240.28 106.36ZM1326.28 46.72H1356.64L1383.4 100L1430.44 46.72H1459.84L1395.52 119.32C1391.32 124 1385.68 128.32 1377.88 128.32C1370.44 128.32 1366.24 124.36 1363.6 119.32L1326.28 46.72ZM1487.77 106.36H1556.17L1536.49 127H1459.21L1473.49 46.72H1566.37L1546.57 67.6H1494.61L1492.93 77.2H1556.41L1539.13 95.44H1489.69L1487.77 106.36ZM1646.85 128.32C1643.49 128.32 1640.97 127.6 1637.61 124L1596.21 79.84L1587.93 127H1565.37L1577.01 60.4C1578.81 49.72 1585.89 45.4 1593.33 45.4C1596.33 45.4 1599.33 46.12 1602.57 49.72L1643.97 93.88L1652.37 46.72H1674.93L1663.05 113.2C1661.13 123.88 1654.05 128.32 1646.85 128.32ZM1703.02 46.72H1794.22L1774.3 67.6H1745.74L1735.18 127H1710.34L1720.78 67.6H1683.1L1703.02 46.72ZM1831.48 78.76H1875.16C1892.56 78.76 1901.8 85 1901.8 97C1901.8 114.4 1890.88 127 1862.32 127H1787.56L1807.12 106.36H1867.96C1874.68 106.36 1877.56 104.2 1877.56 99.52C1877.56 96.28 1875.04 94.72 1870 94.72H1826.2C1807.96 94.72 1799.8 87.04 1799.8 75.4C1799.8 59.08 1810.96 46.72 1839.04 46.72H1908.76L1889.08 67.6H1833.4C1826.68 67.6 1823.8 69.4 1823.8 74.2C1823.8 77.44 1826.32 78.76 1831.48 78.76Z" fill="url(#paint0_linear_431_418)" fill-opacity="0.35"/>
<path d="M271.41 106.48V105.73H270.78L270.671 106.35L271.41 106.48ZM267.81 127V127.75H268.439L268.548 127.13L267.81 127ZM243.09 127L242.351 126.87L242.196 127.75H243.09V127ZM250.29 85.96V85.21H249.66L249.551 85.8304L250.29 85.96ZM253.53 67.6L252.99 67.079L251.763 68.35H253.53V67.6ZM273.69 46.72V45.97H273.371L273.15 46.1991L273.69 46.72ZM357.9 72.52C357.9 82.2393 353.664 90.5121 346.013 96.3747C338.347 102.249 327.211 105.73 313.41 105.73V107.23C327.448 107.23 338.932 103.691 346.926 97.5653C354.935 91.4279 359.4 82.7207 359.4 72.52H357.9ZM313.41 105.73H271.41V107.23H313.41V105.73ZM270.671 106.35L267.071 126.87L268.548 127.13L272.148 106.61L270.671 106.35ZM267.81 126.25H243.09V127.75H267.81V126.25ZM243.828 127.13L251.028 86.0896L249.551 85.8304L242.351 126.87L243.828 127.13ZM250.29 86.71H319.41V85.21H250.29V86.71ZM319.41 86.71C323.851 86.71 327.509 85.569 330.074 83.5492C332.653 81.5179 334.08 78.6313 334.08 75.28H332.58C332.58 78.1687 331.366 80.6221 329.146 82.3708C326.91 84.131 323.608 85.21 319.41 85.21V86.71ZM334.08 75.28C334.08 72.7174 333.049 70.5677 331.046 69.0826C329.072 67.6185 326.224 66.85 322.65 66.85V68.35C326.035 68.35 328.527 69.0815 330.153 70.2874C331.75 71.4723 332.58 73.1626 332.58 75.28H334.08ZM322.65 66.85H253.53V68.35H322.65V66.85ZM254.069 68.1209L274.229 47.2409L273.15 46.1991L252.99 67.079L254.069 68.1209ZM273.69 47.47H324.09V45.97H273.69V47.47ZM324.09 47.47C335.143 47.47 343.602 50.0561 349.28 54.453C354.937 58.8335 357.9 65.0595 357.9 72.52H359.4C359.4 64.6205 356.242 57.9465 350.199 53.267C344.177 48.6039 335.356 45.97 324.09 45.97V47.47ZM475.059 127V127.75H476.288L475.726 126.657L475.059 127ZM381.699 127L381.143 126.496L380.006 127.75H381.699V127ZM400.419 106.36V105.61H400.087L399.863 105.856L400.419 106.36ZM434.739 106.6L434.692 107.349L436.095 107.436L435.387 106.222L434.739 106.6ZM428.619 94.96L429.29 94.6246L429.289 94.6231L428.619 94.96ZM417.939 73.72L418.609 73.3831L418.111 72.3922L417.377 73.2236L417.939 73.72ZM370.899 127V127.75H371.237L371.461 127.496L370.899 127ZM341.499 127L340.938 126.503L339.832 127.75H341.499V127ZM405.819 54.4L405.261 53.8991L405.258 53.9026L405.819 54.4ZM437.739 54.4L438.406 54.0571L438.403 54.052L437.739 54.4ZM475.059 126.25H381.699V127.75H475.059V126.25ZM382.254 127.504L400.974 106.864L399.863 105.856L381.143 126.496L382.254 127.504ZM400.419 107.11H420.459V105.61H400.419V107.11ZM420.459 107.11C425.388 107.11 430.881 107.11 434.692 107.349L434.786 105.851C430.917 105.61 425.37 105.61 420.459 105.61V107.11ZM435.387 106.222C433.721 103.366 431.211 98.4667 429.29 94.6246L427.948 95.2954C429.867 99.1333 432.397 104.074 434.091 106.978L435.387 106.222ZM429.289 94.6231L418.609 73.3831L417.269 74.0569L427.949 95.2969L429.289 94.6231ZM417.377 73.2236L370.337 126.504L371.461 127.496L418.501 74.2164L417.377 73.2236ZM370.899 126.25H341.499V127.75H370.899V126.25ZM342.06 127.497L406.38 54.8973L405.258 53.9026L340.938 126.503L342.06 127.497ZM406.377 54.9009C410.516 50.289 415.969 46.15 423.459 46.15V44.65C415.349 44.65 409.522 49.151 405.261 53.8991L406.377 54.9009ZM423.459 46.15C427.036 46.15 429.794 47.099 431.968 48.624C434.152 50.1554 435.791 52.2984 437.075 54.748L438.403 54.052C437.046 51.4616 435.266 49.1046 432.83 47.3959C430.384 45.681 427.321 44.65 423.459 44.65V46.15ZM437.072 54.7429L474.392 127.343L475.726 126.657L438.406 54.0571L437.072 54.7429ZM590.471 111.4L591.063 110.94L591.06 110.936L590.471 111.4ZM602.591 127V127.75H604.123L603.183 126.54L602.591 127ZM569.351 127L568.727 127.416L568.949 127.75H569.351V127ZM555.191 105.76L555.815 105.344L555.592 105.01H555.191V105.76ZM517.031 105.76V105.01H516.401L516.292 105.631L517.031 105.76ZM513.311 127V127.75H513.941L514.05 127.129L513.311 127ZM488.471 127L487.732 126.87L487.578 127.75H488.471V127ZM495.671 85.96V85.21H495.041L494.932 85.8304L495.671 85.96ZM498.911 67.6L498.368 67.0823L497.159 68.35H498.911V67.6ZM518.831 46.72V45.97H518.51L518.288 46.2023L518.831 46.72ZM581.231 100.84L581.088 100.104L579.604 100.391L580.731 101.399L581.231 100.84ZM589.879 111.86L601.999 127.46L603.183 126.54L591.063 110.94L589.879 111.86ZM602.591 126.25H569.351V127.75H602.591V126.25ZM569.975 126.584L555.815 105.344L554.567 106.176L568.727 127.416L569.975 126.584ZM555.191 105.01H517.031V106.51H555.191V105.01ZM516.292 105.631L512.572 126.871L514.05 127.129L517.77 105.889L516.292 105.631ZM513.311 126.25H488.471V127.75H513.311V126.25ZM489.21 127.13L496.41 86.0896L494.932 85.8304L487.732 126.87L489.21 127.13ZM495.671 86.71H565.511V85.21H495.671V86.71ZM565.511 86.71C569.759 86.71 573.776 85.6961 576.758 83.8032C579.751 81.9026 581.741 79.079 581.741 75.52H580.241C580.241 78.441 578.63 80.8374 575.954 82.5368C573.265 84.2439 569.543 85.21 565.511 85.21V86.71ZM581.741 75.52C581.741 72.6217 580.468 70.4021 578.15 68.945C575.88 67.5179 572.657 66.85 568.751 66.85V68.35C572.525 68.35 575.422 69.0021 577.352 70.215C579.234 71.3979 580.241 73.1383 580.241 75.52H581.741ZM568.751 66.85H498.911V68.35H568.751V66.85ZM499.453 68.1177L519.373 47.2377L518.288 46.2023L498.368 67.0823L499.453 68.1177ZM518.831 47.47H570.431V45.97H518.831V47.47ZM570.431 47.47C578.776 47.47 587.817 48.7548 594.744 52.3651C601.624 55.9508 606.401 61.8096 606.401 71.08H607.901C607.901 61.1504 602.718 54.8292 595.437 51.0349C588.204 47.2652 578.886 45.97 570.431 45.97V47.47ZM606.401 71.08C606.401 85.2103 596.246 97.1661 581.088 100.104L581.373 101.576C597.175 98.5139 607.901 85.9897 607.901 71.08H606.401ZM580.731 101.399C582.957 103.391 585.442 106.225 589.881 111.864L591.06 110.936C586.619 105.295 584.064 102.369 581.731 100.281L580.731 101.399ZM639.123 46.72V45.97H638.802L638.581 46.2023L639.123 46.72ZM730.323 46.72L730.866 47.2377L732.075 45.97H730.323V46.72ZM710.403 67.6V68.35H710.724L710.946 68.1177L710.403 67.6ZM681.843 67.6V66.85H681.215L681.105 67.4687L681.843 67.6ZM671.283 127V127.75H671.912L672.022 127.131L671.283 127ZM646.443 127L645.705 126.87L645.55 127.75H646.443V127ZM656.883 67.6L657.622 67.7298L657.777 66.85H656.883V67.6ZM619.203 67.6L618.661 67.0823L617.451 68.35H619.203V67.6ZM639.123 47.47H730.323V45.97H639.123V47.47ZM729.781 46.2023L709.861 67.0823L710.946 68.1177L730.866 47.2377L729.781 46.2023ZM710.403 66.85H681.843V68.35H710.403V66.85ZM681.105 67.4687L670.545 126.869L672.022 127.131L682.582 67.7313L681.105 67.4687ZM671.283 126.25H646.443V127.75H671.283V126.25ZM647.182 127.13L657.622 67.7298L656.145 67.4702L645.705 126.87L647.182 127.13ZM656.883 66.85H619.203V68.35H656.883V66.85ZM619.746 68.1177L639.666 47.2377L638.581 46.2023L618.661 67.0823L619.746 68.1177ZM767.71 46.72L768.448 46.8503L768.604 45.97H767.71V46.72ZM753.55 127V127.75H754.179L754.288 127.13L753.55 127ZM728.71 127L727.971 126.869L727.815 127.75H728.71V127ZM742.99 46.72V45.97H742.361L742.251 46.5887L742.99 46.72ZM766.971 46.5897L752.811 126.87L754.288 127.13L768.448 46.8503L766.971 46.5897ZM753.55 126.25H728.71V127.75H753.55V126.25ZM729.448 127.131L743.728 46.8513L742.251 46.5887L727.971 126.869L729.448 127.131ZM742.99 47.47H767.71V45.97H742.99V47.47ZM802.374 106.36L801.635 106.23L801.481 107.11H802.374V106.36ZM870.774 106.36L871.317 106.878L872.525 105.61H870.774V106.36ZM851.094 127V127.75H851.415L851.637 127.518L851.094 127ZM773.814 127L773.075 126.869L772.919 127.75H773.814V127ZM788.094 46.72V45.97H787.466L787.355 46.5887L788.094 46.72ZM880.974 46.72L881.518 47.2361L882.719 45.97H880.974V46.72ZM861.174 67.6V68.35H861.496L861.718 68.1161L861.174 67.6ZM809.214 67.6V66.85H808.584L808.475 67.4707L809.214 67.6ZM807.534 77.2L806.795 77.0707L806.641 77.95H807.534V77.2ZM871.014 77.2L871.558 77.7158L872.758 76.45H871.014V77.2ZM853.734 95.44V96.19H854.057L854.278 95.9558L853.734 95.44ZM804.294 95.44V94.69H803.664L803.555 95.3101L804.294 95.44ZM802.374 107.11H870.774V105.61H802.374V107.11ZM870.231 105.842L850.551 126.482L851.637 127.518L871.317 106.878L870.231 105.842ZM851.094 126.25H773.814V127.75H851.094V126.25ZM774.552 127.131L788.832 46.8513L787.355 46.5887L773.075 126.869L774.552 127.131ZM788.094 47.47H880.974V45.97H788.094V47.47ZM880.43 46.2039L860.63 67.0839L861.718 68.1161L881.518 47.2361L880.43 46.2039ZM861.174 66.85H809.214V68.35H861.174V66.85ZM808.475 67.4707L806.795 77.0707L808.273 77.3293L809.953 67.7293L808.475 67.4707ZM807.534 77.95H871.014V76.45H807.534V77.95ZM870.469 76.6842L853.189 94.9242L854.278 95.9558L871.558 77.7158L870.469 76.6842ZM853.734 94.69H804.294V96.19H853.734V94.69ZM803.555 95.3101L801.635 106.23L803.113 106.49L805.033 95.5699L803.555 95.3101ZM875.653 127L875.108 126.484L873.909 127.75H875.653V127ZM895.213 106.36V105.61H894.89L894.668 105.844L895.213 106.36ZM996.853 46.72L997.398 47.2344L998.59 45.97H996.853V46.72ZM977.173 67.6V68.35H977.496L977.718 68.1144L977.173 67.6ZM919.573 79.51H963.253V78.01H919.573V79.51ZM963.253 79.51C971.884 79.51 978.368 81.0612 982.675 83.9995C986.935 86.9063 989.143 91.2228 989.143 97H990.643C990.643 90.7772 988.23 85.9737 983.52 82.7605C978.857 79.5788 972.022 78.01 963.253 78.01V79.51ZM989.143 97C989.143 105.537 986.47 112.803 980.378 117.952C974.265 123.119 964.597 126.25 950.413 126.25V127.75C964.788 127.75 974.86 124.581 981.347 119.098C987.855 113.597 990.643 105.863 990.643 97H989.143ZM950.413 126.25H875.653V127.75H950.413V126.25ZM876.197 127.516L895.757 106.876L894.668 105.844L875.108 126.484L876.197 127.516ZM895.213 107.11H956.053V105.61H895.213V107.11ZM956.053 107.11C959.463 107.11 962.058 106.568 963.811 105.303C965.62 103.999 966.403 102.027 966.403 99.52H964.903C964.903 101.693 964.245 103.141 962.934 104.087C961.567 105.072 959.362 105.61 956.053 105.61V107.11ZM966.403 99.52C966.403 97.6679 965.661 96.2161 964.163 95.2707C962.725 94.3635 960.665 93.97 958.093 93.97V95.47C960.56 95.47 962.28 95.8565 963.362 96.5393C964.384 97.1839 964.903 98.1321 964.903 99.52H966.403ZM958.093 93.97H914.293V95.47H958.093V93.97ZM914.293 93.97C905.262 93.97 898.852 92.0666 894.714 88.834C890.606 85.624 888.643 81.0291 888.643 75.4H887.143C887.143 81.4109 889.26 86.476 893.791 90.016C898.293 93.5334 905.083 95.47 914.293 95.47V93.97ZM888.643 75.4C888.643 67.4223 891.362 60.4839 897.456 55.5216C903.573 50.5405 913.189 47.47 927.133 47.47V45.97C912.996 45.97 902.992 49.0795 896.509 54.3584C890.003 59.6561 887.143 67.0577 887.143 75.4H888.643ZM927.133 47.47H996.853V45.97H927.133V47.47ZM996.307 46.2056L976.627 67.0856L977.718 68.1144L997.398 47.2344L996.307 46.2056ZM977.173 66.85H921.493V68.35H977.173V66.85ZM921.493 66.85C918.102 66.85 915.509 67.2965 913.754 68.4778C911.925 69.709 911.143 71.6361 911.143 74.2H912.643C912.643 71.9639 913.301 70.591 914.591 69.7222C915.956 68.8035 918.163 68.35 921.493 68.35V66.85ZM911.143 74.2C911.143 75.1077 911.32 75.9273 911.709 76.6393C912.1 77.3546 912.682 77.9177 913.423 78.3448C914.874 79.1813 916.959 79.51 919.573 79.51V78.01C917.026 78.01 915.271 77.6787 914.172 77.0452C913.638 76.7373 913.268 76.3629 913.025 75.9195C912.781 75.4727 912.643 74.9123 912.643 74.2H911.143ZM1151.14 106.36L1151.68 106.874L1152.87 105.61H1151.14V106.36ZM1131.7 127V127.75H1132.02L1132.24 127.514L1131.7 127ZM1068.7 85.72L1068.89 86.4445L1071.05 85.8659L1068.98 85.0249L1068.7 85.72ZM1129.78 46.72L1130.32 47.2344L1131.51 45.97H1129.78V46.72ZM1110.1 67.6V68.35H1110.42L1110.64 68.1144L1110.1 67.6ZM1154.74 78.16L1155.29 78.6708L1156.46 77.41H1154.74V78.16ZM1138.78 95.32V96.07H1139.1L1139.33 95.8308L1138.78 95.32ZM1125.58 95.32V94.57H1124.95L1124.84 95.1915L1125.58 95.32ZM1123.66 106.36L1122.92 106.231L1122.77 107.11H1123.66V106.36ZM1103.62 106.36V107.11H1104.25L1104.36 106.489L1103.62 106.36ZM1105.54 95.32L1106.28 95.4485L1106.43 94.57H1105.54V95.32ZM1150.59 105.846L1131.15 126.486L1132.24 127.514L1151.68 106.874L1150.59 105.846ZM1131.7 126.25H1081.42V127.75H1131.7V126.25ZM1081.42 126.25C1070.57 126.25 1063.53 124.219 1059.22 120.957C1054.95 117.725 1053.25 113.203 1053.25 107.92H1051.75C1051.75 113.557 1053.59 118.575 1058.31 122.153C1063 125.701 1070.43 127.75 1081.42 127.75V126.25ZM1053.25 107.92C1053.25 95.9263 1060.67 88.6439 1068.89 86.4445L1068.5 84.9955C1059.68 87.3561 1051.75 95.1937 1051.75 107.92H1053.25ZM1068.98 85.0249C1064.81 83.3356 1061.05 79.1639 1061.05 72.16H1059.55C1059.55 79.7961 1063.7 84.5044 1068.42 86.4151L1068.98 85.0249ZM1061.05 72.16C1061.05 64.1323 1064.52 58.0022 1070.6 53.8494C1076.72 49.6739 1085.53 47.47 1096.18 47.47V45.97C1085.35 45.97 1076.21 48.206 1069.76 52.6105C1063.27 57.0378 1059.55 63.6277 1059.55 72.16H1061.05ZM1096.18 47.47H1129.78V45.97H1096.18V47.47ZM1129.23 46.2056L1109.55 67.0856L1110.64 68.1144L1130.32 47.2344L1129.23 46.2056ZM1110.1 66.85H1091.5V68.35H1110.1V66.85ZM1091.5 66.85C1089.46 66.85 1087.29 67.1865 1085.6 68.203C1083.87 69.252 1082.71 70.9938 1082.71 73.6H1084.21C1084.21 71.5262 1085.09 70.268 1086.38 69.487C1087.73 68.6735 1089.58 68.35 1091.5 68.35V66.85ZM1082.71 73.6C1082.71 75.5889 1083.55 76.9735 1084.9 77.8205C1086.2 78.6337 1087.9 78.91 1089.58 78.91V77.41C1088.02 77.41 1086.65 77.1463 1085.7 76.5495C1084.8 75.9865 1084.21 75.0911 1084.21 73.6H1082.71ZM1089.58 78.91H1154.74V77.41H1089.58V78.91ZM1154.19 77.6492L1138.23 94.8092L1139.33 95.8308L1155.29 78.6708L1154.19 77.6492ZM1138.78 94.57H1125.58V96.07H1138.78V94.57ZM1124.84 95.1915L1122.92 106.231L1124.4 106.489L1126.32 95.4485L1124.84 95.1915ZM1123.66 107.11H1151.14V105.61H1123.66V107.11ZM1077.43 101.8C1077.43 103.507 1078.06 104.899 1079.42 105.825C1080.73 106.715 1082.62 107.11 1085.02 107.11V105.61C1082.74 105.61 1081.21 105.225 1080.26 104.585C1079.38 103.981 1078.93 103.093 1078.93 101.8H1077.43ZM1085.02 107.11H1103.62V105.61H1085.02V107.11ZM1104.36 106.489L1106.28 95.4485L1104.8 95.1915L1102.88 106.231L1104.36 106.489ZM1105.54 94.57H1086.94V96.07H1105.54V94.57ZM1086.94 94.57C1083.8 94.57 1081.41 95.1819 1079.8 96.4383C1078.15 97.7221 1077.43 99.5857 1077.43 101.8H1078.93C1078.93 99.9343 1079.52 98.5579 1080.72 97.6217C1081.96 96.6581 1083.95 96.07 1086.94 96.07V94.57ZM1240.28 106.36L1239.54 106.23L1239.39 107.11H1240.28V106.36ZM1308.68 106.36L1309.22 106.878L1310.43 105.61H1308.68V106.36ZM1289 127V127.75H1289.32L1289.54 127.518L1289 127ZM1211.72 127L1210.98 126.869L1210.82 127.75H1211.72V127ZM1226 46.72V45.97H1225.37L1225.26 46.5887L1226 46.72ZM1318.88 46.72L1319.42 47.2361L1320.62 45.97H1318.88V46.72ZM1299.08 67.6V68.35H1299.4L1299.62 68.1161L1299.08 67.6ZM1247.12 67.6V66.85H1246.49L1246.38 67.4707L1247.12 67.6ZM1245.44 77.2L1244.7 77.0707L1244.55 77.95H1245.44V77.2ZM1308.92 77.2L1309.46 77.7158L1310.66 76.45H1308.92V77.2ZM1291.64 95.44V96.19H1291.96L1292.18 95.9558L1291.64 95.44ZM1242.2 95.44V94.69H1241.57L1241.46 95.3101L1242.2 95.44ZM1240.28 107.11H1308.68V105.61H1240.28V107.11ZM1308.14 105.842L1288.46 126.482L1289.54 127.518L1309.22 106.878L1308.14 105.842ZM1289 126.25H1211.72V127.75H1289V126.25ZM1212.46 127.131L1226.74 46.8513L1225.26 46.5887L1210.98 126.869L1212.46 127.131ZM1226 47.47H1318.88V45.97H1226V47.47ZM1318.34 46.2039L1298.54 67.0839L1299.62 68.1161L1319.42 47.2361L1318.34 46.2039ZM1299.08 66.85H1247.12V68.35H1299.08V66.85ZM1246.38 67.4707L1244.7 77.0707L1246.18 77.3293L1247.86 67.7293L1246.38 67.4707ZM1245.44 77.95H1308.92V76.45H1245.44V77.95ZM1308.38 76.6842L1291.1 94.9242L1292.18 95.9558L1309.46 77.7158L1308.38 76.6842ZM1291.64 94.69H1242.2V96.19H1291.64V94.69ZM1241.46 95.3101L1239.54 106.23L1241.02 106.49L1242.94 95.5699L1241.46 95.3101ZM1326.28 46.72V45.97H1325.05L1325.61 47.0629L1326.28 46.72ZM1356.64 46.72L1357.31 46.3834L1357.1 45.97H1356.64V46.72ZM1383.4 100L1382.73 100.337L1383.23 101.328L1383.96 100.496L1383.4 100ZM1430.44 46.72V45.97H1430.1L1429.88 46.2236L1430.44 46.72ZM1459.84 46.72L1460.4 47.2173L1461.51 45.97H1459.84V46.72ZM1395.52 119.32L1396.08 119.821L1396.08 119.817L1395.52 119.32ZM1363.6 119.32L1362.93 119.663L1362.93 119.668L1363.6 119.32ZM1326.28 47.47H1356.64V45.97H1326.28V47.47ZM1355.97 47.0566L1382.73 100.337L1384.07 99.6634L1357.31 46.3834L1355.97 47.0566ZM1383.96 100.496L1431 47.2164L1429.88 46.2236L1382.84 99.5036L1383.96 100.496ZM1430.44 47.47H1459.84V45.97H1430.44V47.47ZM1459.28 46.2226L1394.96 118.823L1396.08 119.817L1460.4 47.2173L1459.28 46.2226ZM1394.96 118.819C1390.82 123.431 1385.37 127.57 1377.88 127.57V129.07C1385.99 129.07 1391.82 124.569 1396.08 119.821L1394.96 118.819ZM1377.88 127.57C1374.3 127.57 1371.54 126.621 1369.37 125.096C1367.19 123.565 1365.55 121.422 1364.26 118.972L1362.93 119.668C1364.29 122.258 1366.07 124.615 1368.51 126.324C1370.95 128.039 1374.02 129.07 1377.88 129.07V127.57ZM1364.27 118.977L1326.95 46.3771L1325.61 47.0629L1362.93 119.663L1364.27 118.977ZM1487.77 106.36L1487.03 106.23L1486.88 107.11H1487.77V106.36ZM1556.17 106.36L1556.71 106.878L1557.92 105.61H1556.17V106.36ZM1536.49 127V127.75H1536.81L1537.03 127.518L1536.49 127ZM1459.21 127L1458.47 126.869L1458.32 127.75H1459.21V127ZM1473.49 46.72V45.97H1472.86L1472.75 46.5887L1473.49 46.72ZM1566.37 46.72L1566.91 47.2361L1568.12 45.97H1566.37V46.72ZM1546.57 67.6V68.35H1546.89L1547.11 68.1161L1546.57 67.6ZM1494.61 67.6V66.85H1493.98L1493.87 67.4707L1494.61 67.6ZM1492.93 77.2L1492.19 77.0707L1492.04 77.95H1492.93V77.2ZM1556.41 77.2L1556.96 77.7158L1558.15 76.45H1556.41V77.2ZM1539.13 95.44V96.19H1539.45L1539.68 95.9558L1539.13 95.44ZM1489.69 95.44V94.69H1489.06L1488.95 95.3101L1489.69 95.44ZM1487.77 107.11H1556.17V105.61H1487.77V107.11ZM1555.63 105.842L1535.95 126.482L1537.03 127.518L1556.71 106.878L1555.63 105.842ZM1536.49 126.25H1459.21V127.75H1536.49V126.25ZM1459.95 127.131L1474.23 46.8513L1472.75 46.5887L1458.47 126.869L1459.95 127.131ZM1473.49 47.47H1566.37V45.97H1473.49V47.47ZM1565.83 46.2039L1546.03 67.0839L1547.11 68.1161L1566.91 47.2361L1565.83 46.2039ZM1546.57 66.85H1494.61V68.35H1546.57V66.85ZM1493.87 67.4707L1492.19 77.0707L1493.67 77.3293L1495.35 67.7293L1493.87 67.4707ZM1492.93 77.95H1556.41V76.45H1492.93V77.95ZM1555.87 76.6842L1538.59 94.9242L1539.68 95.9558L1556.96 77.7158L1555.87 76.6842ZM1539.13 94.69H1489.69V96.19H1539.13V94.69ZM1488.95 95.3101L1487.03 106.23L1488.51 106.49L1490.43 95.5699L1488.95 95.3101ZM1637.61 124L1638.16 123.488L1638.16 123.487L1637.61 124ZM1596.21 79.84L1596.76 79.327L1595.73 78.2323L1595.47 79.7103L1596.21 79.84ZM1587.93 127V127.75H1588.56L1588.67 127.13L1587.93 127ZM1565.37 127L1564.63 126.871L1564.48 127.75H1565.37V127ZM1577.01 60.4L1577.75 60.5291L1577.75 60.5246L1577.01 60.4ZM1602.57 49.72L1602.01 50.2217L1602.02 50.2274L1602.02 50.2329L1602.57 49.72ZM1643.97 93.88L1643.42 94.393L1644.45 95.4844L1644.71 94.0115L1643.97 93.88ZM1652.37 46.72V45.97H1651.74L1651.63 46.5885L1652.37 46.72ZM1674.93 46.72L1675.67 46.8519L1675.83 45.97H1674.93V46.72ZM1663.05 113.2L1663.79 113.333L1663.79 113.332L1663.05 113.2ZM1646.85 127.57C1645.22 127.57 1643.87 127.396 1642.53 126.821C1641.18 126.244 1639.79 125.239 1638.16 123.488L1637.06 124.512C1638.79 126.361 1640.34 127.516 1641.93 128.199C1643.53 128.884 1645.11 129.07 1646.85 129.07V127.57ZM1638.16 123.487L1596.76 79.327L1595.66 80.353L1637.06 124.513L1638.16 123.487ZM1595.47 79.7103L1587.19 126.87L1588.67 127.13L1596.95 79.9697L1595.47 79.7103ZM1587.93 126.25H1565.37V127.75H1587.93V126.25ZM1566.11 127.129L1577.75 60.5291L1576.27 60.2709L1564.63 126.871L1566.11 127.129ZM1577.75 60.5246C1578.62 55.3327 1580.77 51.7557 1583.53 49.4733C1586.3 47.187 1589.75 46.15 1593.33 46.15V44.65C1589.47 44.65 1585.66 45.773 1582.58 48.3166C1579.49 50.8643 1577.19 54.7873 1576.27 60.2754L1577.75 60.5246ZM1593.33 46.15C1594.77 46.15 1596.16 46.3224 1597.57 46.9035C1598.98 47.4841 1600.45 48.4912 1602.01 50.2217L1603.13 49.2183C1601.44 47.3487 1599.8 46.1959 1598.15 45.5165C1596.5 44.8376 1594.89 44.65 1593.33 44.65V46.15ZM1602.02 50.2329L1643.42 94.393L1644.52 93.367L1603.12 49.207L1602.02 50.2329ZM1644.71 94.0115L1653.11 46.8515L1651.63 46.5885L1643.23 93.7485L1644.71 94.0115ZM1652.37 47.47H1674.93V45.97H1652.37V47.47ZM1674.19 46.5881L1662.31 113.068L1663.79 113.332L1675.67 46.8519L1674.19 46.5881ZM1662.31 113.067C1661.38 118.263 1659.2 121.875 1656.45 124.191C1653.69 126.509 1650.3 127.57 1646.85 127.57V129.07C1650.6 129.07 1654.35 127.911 1657.41 125.339C1660.48 122.765 1662.8 118.817 1663.79 113.333L1662.31 113.067ZM1703.02 46.72V45.97H1702.7L1702.47 46.2023L1703.02 46.72ZM1794.22 46.72L1794.76 47.2377L1795.97 45.97H1794.22V46.72ZM1774.3 67.6V68.35H1774.62L1774.84 68.1177L1774.3 67.6ZM1745.74 67.6V66.85H1745.11L1745 67.4687L1745.74 67.6ZM1735.18 127V127.75H1735.81L1735.92 127.131L1735.18 127ZM1710.34 127L1709.6 126.87L1709.44 127.75H1710.34V127ZM1720.78 67.6L1721.52 67.7298L1721.67 66.85H1720.78V67.6ZM1683.1 67.6L1682.55 67.0823L1681.34 68.35H1683.1V67.6ZM1703.02 47.47H1794.22V45.97H1703.02V47.47ZM1793.67 46.2023L1773.75 67.0823L1774.84 68.1177L1794.76 47.2377L1793.67 46.2023ZM1774.3 66.85H1745.74V68.35H1774.3V66.85ZM1745 67.4687L1734.44 126.869L1735.92 127.131L1746.48 67.7313L1745 67.4687ZM1735.18 126.25H1710.34V127.75H1735.18V126.25ZM1711.08 127.13L1721.52 67.7298L1720.04 67.4702L1709.6 126.87L1711.08 127.13ZM1720.78 66.85H1683.1V68.35H1720.78V66.85ZM1683.64 68.1177L1703.56 47.2377L1702.47 46.2023L1682.55 67.0823L1683.64 68.1177ZM1787.56 127L1787.02 126.484L1785.82 127.75H1787.56V127ZM1807.12 106.36V105.61H1806.8L1806.58 105.844L1807.12 106.36ZM1908.76 46.72L1909.31 47.2344L1910.5 45.97H1908.76V46.72ZM1889.08 67.6V68.35H1889.41L1889.63 68.1144L1889.08 67.6ZM1831.48 79.51H1875.16V78.01H1831.48V79.51ZM1875.16 79.51C1883.79 79.51 1890.28 81.0612 1894.59 83.9995C1898.85 86.9063 1901.05 91.2228 1901.05 97H1902.55C1902.55 90.7772 1900.14 85.9737 1895.43 82.7605C1890.77 79.5788 1883.93 78.01 1875.16 78.01V79.51ZM1901.05 97C1901.05 105.537 1898.38 112.803 1892.29 117.952C1886.18 123.119 1876.51 126.25 1862.32 126.25V127.75C1876.7 127.75 1886.77 124.581 1893.26 119.098C1899.77 113.597 1902.55 105.863 1902.55 97H1901.05ZM1862.32 126.25H1787.56V127.75H1862.32V126.25ZM1788.11 127.516L1807.67 106.876L1806.58 105.844L1787.02 126.484L1788.11 127.516ZM1807.12 107.11H1867.96V105.61H1807.12V107.11ZM1867.96 107.11C1871.37 107.11 1873.97 106.568 1875.72 105.303C1877.53 103.999 1878.31 102.027 1878.31 99.52H1876.81C1876.81 101.693 1876.16 103.141 1874.84 104.087C1873.48 105.072 1871.27 105.61 1867.96 105.61V107.11ZM1878.31 99.52C1878.31 97.6679 1877.57 96.2161 1876.07 95.2707C1874.64 94.3635 1872.58 93.97 1870 93.97V95.47C1872.47 95.47 1874.19 95.8565 1875.27 96.5393C1876.3 97.1839 1876.81 98.1321 1876.81 99.52H1878.31ZM1870 93.97H1826.2V95.47H1870V93.97ZM1826.2 93.97C1817.17 93.97 1810.76 92.0666 1806.63 88.834C1802.52 85.624 1800.55 81.0291 1800.55 75.4H1799.05C1799.05 81.4109 1801.17 86.476 1805.7 90.016C1810.2 93.5334 1816.99 95.47 1826.2 95.47V93.97ZM1800.55 75.4C1800.55 67.4223 1803.27 60.4839 1809.37 55.5216C1815.48 50.5405 1825.1 47.47 1839.04 47.47V45.97C1824.91 45.97 1814.9 49.0795 1808.42 54.3584C1801.91 59.6561 1799.05 67.0577 1799.05 75.4H1800.55ZM1839.04 47.47H1908.76V45.97H1839.04V47.47ZM1908.22 46.2056L1888.54 67.0856L1889.63 68.1144L1909.31 47.2344L1908.22 46.2056ZM1889.08 66.85H1833.4V68.35H1889.08V66.85ZM1833.4 66.85C1830.01 66.85 1827.42 67.2965 1825.66 68.4778C1823.84 69.709 1823.05 71.6361 1823.05 74.2H1824.55C1824.55 71.9639 1825.21 70.591 1826.5 69.7222C1827.87 68.8035 1830.07 68.35 1833.4 68.35V66.85ZM1823.05 74.2C1823.05 75.1077 1823.23 75.9273 1823.62 76.6393C1824.01 77.3546 1824.59 77.9177 1825.33 78.3448C1826.79 79.1813 1828.87 79.51 1831.48 79.51V78.01C1828.94 78.01 1827.18 77.6787 1826.08 77.0452C1825.55 76.7373 1825.18 76.3629 1824.94 75.9195C1824.69 75.4727 1824.55 74.9123 1824.55 74.2H1823.05Z" fill="url(#paint1_linear_431_418)"/>
</g>
<g opacity="0.6" filter="url(#filter1_b_431_418)">
<path d="M346.65 65.52C346.65 85.44 329.25 99.48 301.41 99.48H259.41L255.81 120H231.09L238.29 78.96H307.41C316.05 78.96 321.33 74.52 321.33 68.28C321.33 63.6 317.61 60.6 310.65 60.6H241.53L261.69 39.72H312.09C334.41 39.72 346.65 50.16 346.65 65.52ZM463.059 120H369.699L388.419 99.36H408.459C413.379 99.36 418.899 99.36 422.739 99.6C421.059 96.72 418.539 91.8 416.619 87.96L405.939 66.72L358.899 120H329.499L393.819 47.4C398.019 42.72 403.659 38.4 411.459 38.4C418.899 38.4 423.099 42.36 425.739 47.4L463.059 120ZM578.471 104.4L590.591 120H557.351L543.191 98.76H505.031L501.311 120H476.471L483.671 78.96H553.511C561.791 78.96 568.991 75 568.991 68.52C568.991 63.24 564.431 60.6 556.751 60.6H486.911L506.831 39.72H558.431C575.231 39.72 595.151 44.88 595.151 64.08C595.151 78.6 584.711 90.84 569.231 93.84C571.511 95.88 574.031 98.76 578.471 104.4ZM627.123 39.72H718.323L698.403 60.6H669.843L659.283 120H634.443L644.883 60.6H607.203L627.123 39.72ZM755.71 39.72L741.55 120H716.71L730.99 39.72H755.71ZM790.374 99.36H858.774L839.094 120H761.814L776.094 39.72H868.974L849.174 60.6H797.214L795.534 70.2H859.014L841.734 88.44H792.294L790.374 99.36ZM907.573 71.76H951.253C968.653 71.76 977.893 78 977.893 90C977.893 107.4 966.973 120 938.413 120H863.653L883.213 99.36H944.053C950.773 99.36 953.653 97.2 953.653 92.52C953.653 89.28 951.133 87.72 946.093 87.72H902.293C884.053 87.72 875.893 80.04 875.893 68.4C875.893 52.08 887.053 39.72 915.133 39.72H984.853L965.173 60.6H909.493C902.773 60.6 899.893 62.4 899.893 67.2C899.893 70.44 902.413 71.76 907.573 71.76ZM1139.14 99.36L1119.7 120H1069.42C1047.58 120 1040.5 111.84 1040.5 100.92C1040.5 88.56 1048.18 81 1056.7 78.72C1052.26 76.92 1048.3 72.48 1048.3 65.16C1048.3 48.6 1062.7 39.72 1084.18 39.72H1117.78L1098.1 60.6H1079.5C1075.54 60.6 1071.46 61.92 1071.46 66.6C1071.46 70.08 1074.34 71.16 1077.58 71.16H1142.74L1126.78 88.32H1113.58L1111.66 99.36H1139.14ZM1066.18 94.8C1066.18 97.8 1068.34 99.36 1073.02 99.36H1091.62L1093.54 88.32H1074.94C1068.82 88.32 1066.18 90.72 1066.18 94.8ZM1228.28 99.36H1296.68L1277 120H1199.72L1214 39.72H1306.88L1287.08 60.6H1235.12L1233.44 70.2H1296.92L1279.64 88.44H1230.2L1228.28 99.36ZM1314.28 39.72H1344.64L1371.4 93L1418.44 39.72H1447.84L1383.52 112.32C1379.32 117 1373.68 121.32 1365.88 121.32C1358.44 121.32 1354.24 117.36 1351.6 112.32L1314.28 39.72ZM1475.77 99.36H1544.17L1524.49 120H1447.21L1461.49 39.72H1554.37L1534.57 60.6H1482.61L1480.93 70.2H1544.41L1527.13 88.44H1477.69L1475.77 99.36ZM1634.85 121.32C1631.49 121.32 1628.97 120.6 1625.61 117L1584.21 72.84L1575.93 120H1553.37L1565.01 53.4C1566.81 42.72 1573.89 38.4 1581.33 38.4C1584.33 38.4 1587.33 39.12 1590.57 42.72L1631.97 86.88L1640.37 39.72H1662.93L1651.05 106.2C1649.13 116.88 1642.05 121.32 1634.85 121.32ZM1691.02 39.72H1782.22L1762.3 60.6H1733.74L1723.18 120H1698.34L1708.78 60.6H1671.1L1691.02 39.72ZM1819.48 71.76H1863.16C1880.56 71.76 1889.8 78 1889.8 90C1889.8 107.4 1878.88 120 1850.32 120H1775.56L1795.12 99.36H1855.96C1862.68 99.36 1865.56 97.2 1865.56 92.52C1865.56 89.28 1863.04 87.72 1858 87.72H1814.2C1795.96 87.72 1787.8 80.04 1787.8 68.4C1787.8 52.08 1798.96 39.72 1827.04 39.72H1896.76L1877.08 60.6H1821.4C1814.68 60.6 1811.8 62.4 1811.8 67.2C1811.8 70.44 1814.32 71.76 1819.48 71.76Z" fill="url(#paint2_linear_431_418)" fill-opacity="0.35"/>
<path d="M259.41 99.48V98.73H258.78L258.671 99.3504L259.41 99.48ZM255.81 120V120.75H256.439L256.548 120.13L255.81 120ZM231.09 120L230.351 119.87L230.196 120.75H231.09V120ZM238.29 78.96V78.21H237.66L237.551 78.8304L238.29 78.96ZM241.53 60.6L240.99 60.079L239.763 61.35H241.53V60.6ZM261.69 39.72V38.97H261.371L261.15 39.1991L261.69 39.72ZM345.9 65.52C345.9 75.2393 341.664 83.5121 334.013 89.3747C326.347 95.2494 315.211 98.73 301.41 98.73V100.23C315.448 100.23 326.932 96.6906 334.926 90.5653C342.935 84.4279 347.4 75.7207 347.4 65.52H345.9ZM301.41 98.73H259.41V100.23H301.41V98.73ZM258.671 99.3504L255.071 119.87L256.548 120.13L260.148 99.6096L258.671 99.3504ZM255.81 119.25H231.09V120.75H255.81V119.25ZM231.828 120.13L239.028 79.0896L237.551 78.8304L230.351 119.87L231.828 120.13ZM238.29 79.71H307.41V78.21H238.29V79.71ZM307.41 79.71C311.851 79.71 315.509 78.569 318.074 76.5492C320.653 74.5179 322.08 71.6313 322.08 68.28H320.58C320.58 71.1687 319.366 73.6221 317.146 75.3708C314.91 77.131 311.608 78.21 307.41 78.21V79.71ZM322.08 68.28C322.08 65.7174 321.049 63.5677 319.046 62.0826C317.072 60.6185 314.224 59.85 310.65 59.85V61.35C314.035 61.35 316.527 62.0815 318.153 63.2874C319.75 64.4723 320.58 66.1626 320.58 68.28H322.08ZM310.65 59.85H241.53V61.35H310.65V59.85ZM242.069 61.1209L262.229 40.2409L261.15 39.1991L240.99 60.079L242.069 61.1209ZM261.69 40.47H312.09V38.97H261.69V40.47ZM312.09 40.47C323.143 40.47 331.602 43.0561 337.28 47.453C342.937 51.8335 345.9 58.0595 345.9 65.52H347.4C347.4 57.6205 344.242 50.9465 338.199 46.267C332.177 41.6039 323.356 38.97 312.09 38.97V40.47ZM463.059 120V120.75H464.288L463.726 119.657L463.059 120ZM369.699 120L369.143 119.496L368.006 120.75H369.699V120ZM388.419 99.36V98.61H388.087L387.863 98.8561L388.419 99.36ZM422.739 99.6L422.692 100.349L424.095 100.436L423.387 99.2221L422.739 99.6ZM416.619 87.96L417.29 87.6246L417.289 87.6231L416.619 87.96ZM405.939 66.72L406.609 66.3831L406.111 65.3922L405.377 66.2236L405.939 66.72ZM358.899 120V120.75H359.237L359.461 120.496L358.899 120ZM329.499 120L328.938 119.503L327.832 120.75H329.499V120ZM393.819 47.4L393.261 46.8991L393.258 46.9026L393.819 47.4ZM425.739 47.4L426.406 47.0571L426.403 47.052L425.739 47.4ZM463.059 119.25H369.699V120.75H463.059V119.25ZM370.254 120.504L388.974 99.8639L387.863 98.8561L369.143 119.496L370.254 120.504ZM388.419 100.11H408.459V98.61H388.419V100.11ZM408.459 100.11C413.388 100.11 418.881 100.11 422.692 100.349L422.786 98.8515C418.917 98.6097 413.37 98.61 408.459 98.61V100.11ZM423.387 99.2221C421.721 96.3659 419.211 91.4667 417.29 87.6246L415.948 88.2954C417.867 92.1333 420.397 97.0741 422.091 99.9779L423.387 99.2221ZM417.289 87.6231L406.609 66.3831L405.269 67.0569L415.949 88.2969L417.289 87.6231ZM405.377 66.2236L358.337 119.504L359.461 120.496L406.501 67.2164L405.377 66.2236ZM358.899 119.25H329.499V120.75H358.899V119.25ZM330.06 120.497L394.38 47.8973L393.258 46.9026L328.938 119.503L330.06 120.497ZM394.377 47.9009C398.516 43.289 403.969 39.15 411.459 39.15V37.65C403.349 37.65 397.522 42.151 393.261 46.8991L394.377 47.9009ZM411.459 39.15C415.036 39.15 417.794 40.099 419.968 41.624C422.152 43.1554 423.791 45.2984 425.075 47.748L426.403 47.052C425.046 44.4616 423.266 42.1046 420.83 40.3959C418.384 38.681 415.321 37.65 411.459 37.65V39.15ZM425.072 47.7429L462.392 120.343L463.726 119.657L426.406 47.0571L425.072 47.7429ZM578.471 104.4L579.063 103.94L579.06 103.936L578.471 104.4ZM590.591 120V120.75H592.123L591.183 119.54L590.591 120ZM557.351 120L556.727 120.416L556.949 120.75H557.351V120ZM543.191 98.76L543.815 98.344L543.592 98.01H543.191V98.76ZM505.031 98.76V98.01H504.401L504.292 98.6306L505.031 98.76ZM501.311 120V120.75H501.941L502.05 120.129L501.311 120ZM476.471 120L475.732 119.87L475.578 120.75H476.471V120ZM483.671 78.96V78.21H483.041L482.932 78.8304L483.671 78.96ZM486.911 60.6L486.368 60.0823L485.159 61.35H486.911V60.6ZM506.831 39.72V38.97H506.51L506.288 39.2023L506.831 39.72ZM569.231 93.84L569.088 93.1037L567.604 93.3912L568.731 94.3989L569.231 93.84ZM577.879 104.86L589.999 120.46L591.183 119.54L579.063 103.94L577.879 104.86ZM590.591 119.25H557.351V120.75H590.591V119.25ZM557.975 119.584L543.815 98.344L542.567 99.176L556.727 120.416L557.975 119.584ZM543.191 98.01H505.031V99.51H543.191V98.01ZM504.292 98.6306L500.572 119.871L502.05 120.129L505.77 98.8894L504.292 98.6306ZM501.311 119.25H476.471V120.75H501.311V119.25ZM477.21 120.13L484.41 79.0896L482.932 78.8304L475.732 119.87L477.21 120.13ZM483.671 79.71H553.511V78.21H483.671V79.71ZM553.511 79.71C557.759 79.71 561.776 78.6961 564.758 76.8032C567.751 74.9026 569.741 72.079 569.741 68.52H568.241C568.241 71.441 566.63 73.8374 563.954 75.5368C561.265 77.2439 557.543 78.21 553.511 78.21V79.71ZM569.741 68.52C569.741 65.6217 568.468 63.4021 566.15 61.945C563.88 60.5179 560.657 59.85 556.751 59.85V61.35C560.525 61.35 563.422 62.0021 565.352 63.215C567.234 64.3979 568.241 66.1383 568.241 68.52H569.741ZM556.751 59.85H486.911V61.35H556.751V59.85ZM487.453 61.1177L507.373 40.2377L506.288 39.2023L486.368 60.0823L487.453 61.1177ZM506.831 40.47H558.431V38.97H506.831V40.47ZM558.431 40.47C566.776 40.47 575.817 41.7548 582.744 45.3651C589.624 48.9508 594.401 54.8096 594.401 64.08H595.901C595.901 54.1504 590.718 47.8292 583.437 44.0349C576.204 40.2652 566.886 38.97 558.431 38.97V40.47ZM594.401 64.08C594.401 78.2103 584.246 90.1661 569.088 93.1037L569.373 94.5763C585.175 91.5139 595.901 78.9897 595.901 64.08H594.401ZM568.731 94.3989C570.957 96.3912 573.442 99.2249 577.881 104.864L579.06 103.936C574.619 98.2951 572.064 95.3688 569.731 93.2811L568.731 94.3989ZM627.123 39.72V38.97H626.802L626.581 39.2023L627.123 39.72ZM718.323 39.72L718.866 40.2377L720.075 38.97H718.323V39.72ZM698.403 60.6V61.35H698.724L698.946 61.1177L698.403 60.6ZM669.843 60.6V59.85H669.215L669.105 60.4687L669.843 60.6ZM659.283 120V120.75H659.912L660.022 120.131L659.283 120ZM634.443 120L633.705 119.87L633.55 120.75H634.443V120ZM644.883 60.6L645.622 60.7298L645.777 59.85H644.883V60.6ZM607.203 60.6L606.661 60.0823L605.451 61.35H607.203V60.6ZM627.123 40.47H718.323V38.97H627.123V40.47ZM717.781 39.2023L697.861 60.0823L698.946 61.1177L718.866 40.2377L717.781 39.2023ZM698.403 59.85H669.843V61.35H698.403V59.85ZM669.105 60.4687L658.545 119.869L660.022 120.131L670.582 60.7313L669.105 60.4687ZM659.283 119.25H634.443V120.75H659.283V119.25ZM635.182 120.13L645.622 60.7298L644.145 60.4702L633.705 119.87L635.182 120.13ZM644.883 59.85H607.203V61.35H644.883V59.85ZM607.746 61.1177L627.666 40.2377L626.581 39.2023L606.661 60.0823L607.746 61.1177ZM755.71 39.72L756.448 39.8503L756.604 38.97H755.71V39.72ZM741.55 120V120.75H742.179L742.288 120.13L741.55 120ZM716.71 120L715.971 119.869L715.815 120.75H716.71V120ZM730.99 39.72V38.97H730.361L730.251 39.5887L730.99 39.72ZM754.971 39.5897L740.811 119.87L742.288 120.13L756.448 39.8503L754.971 39.5897ZM741.55 119.25H716.71V120.75H741.55V119.25ZM717.448 120.131L731.728 39.8513L730.251 39.5887L715.971 119.869L717.448 120.131ZM730.99 40.47H755.71V38.97H730.99V40.47ZM790.374 99.36L789.635 99.2301L789.481 100.11H790.374V99.36ZM858.774 99.36L859.317 99.8776L860.525 98.61H858.774V99.36ZM839.094 120V120.75H839.415L839.637 120.518L839.094 120ZM761.814 120L761.075 119.869L760.919 120.75H761.814V120ZM776.094 39.72V38.97H775.466L775.355 39.5887L776.094 39.72ZM868.974 39.72L869.518 40.2361L870.719 38.97H868.974V39.72ZM849.174 60.6V61.35H849.496L849.718 61.1161L849.174 60.6ZM797.214 60.6V59.85H796.584L796.475 60.4707L797.214 60.6ZM795.534 70.2L794.795 70.0707L794.641 70.95H795.534V70.2ZM859.014 70.2L859.558 70.7158L860.758 69.45H859.014V70.2ZM841.734 88.44V89.19H842.057L842.278 88.9558L841.734 88.44ZM792.294 88.44V87.69H791.664L791.555 88.3101L792.294 88.44ZM790.374 100.11H858.774V98.61H790.374V100.11ZM858.231 98.8424L838.551 119.482L839.637 120.518L859.317 99.8776L858.231 98.8424ZM839.094 119.25H761.814V120.75H839.094V119.25ZM762.552 120.131L776.832 39.8513L775.355 39.5887L761.075 119.869L762.552 120.131ZM776.094 40.47H868.974V38.97H776.094V40.47ZM868.43 39.2039L848.63 60.0839L849.718 61.1161L869.518 40.2361L868.43 39.2039ZM849.174 59.85H797.214V61.35H849.174V59.85ZM796.475 60.4707L794.795 70.0707L796.273 70.3293L797.953 60.7293L796.475 60.4707ZM795.534 70.95H859.014V69.45H795.534V70.95ZM858.469 69.6842L841.189 87.9242L842.278 88.9558L859.558 70.7158L858.469 69.6842ZM841.734 87.69H792.294V89.19H841.734V87.69ZM791.555 88.3101L789.635 99.2301L791.113 99.4899L793.033 88.5699L791.555 88.3101ZM863.653 120L863.108 119.484L861.909 120.75H863.653V120ZM883.213 99.36V98.61H882.89L882.668 98.8441L883.213 99.36ZM984.853 39.72L985.398 40.2344L986.59 38.97H984.853V39.72ZM965.173 60.6V61.35H965.496L965.718 61.1144L965.173 60.6ZM907.573 72.51H951.253V71.01H907.573V72.51ZM951.253 72.51C959.884 72.51 966.368 74.0612 970.675 76.9995C974.935 79.9063 977.143 84.2228 977.143 90H978.643C978.643 83.7772 976.23 78.9737 971.52 75.7605C966.857 72.5788 960.022 71.01 951.253 71.01V72.51ZM977.143 90C977.143 98.5368 974.47 105.803 968.378 110.952C962.265 116.119 952.597 119.25 938.413 119.25V120.75C952.788 120.75 962.86 117.581 969.347 112.098C975.855 106.597 978.643 98.8632 978.643 90H977.143ZM938.413 119.25H863.653V120.75H938.413V119.25ZM864.197 120.516L883.757 99.8759L882.668 98.8441L863.108 119.484L864.197 120.516ZM883.213 100.11H944.053V98.61H883.213V100.11ZM944.053 100.11C947.463 100.11 950.058 99.5677 951.811 98.3033C953.62 96.999 954.403 95.0271 954.403 92.52H952.903C952.903 94.6929 952.245 96.1409 950.934 97.0867C949.567 98.0723 947.362 98.61 944.053 98.61V100.11ZM954.403 92.52C954.403 90.6679 953.661 89.2161 952.163 88.2707C950.725 87.3635 948.665 86.97 946.093 86.97V88.47C948.56 88.47 950.28 88.8565 951.362 89.5393C952.384 90.1839 952.903 91.1321 952.903 92.52H954.403ZM946.093 86.97H902.293V88.47H946.093V86.97ZM902.293 86.97C893.262 86.97 886.852 85.0666 882.714 81.834C878.606 78.624 876.643 74.0291 876.643 68.4H875.143C875.143 74.4109 877.26 79.476 881.791 83.016C886.293 86.5334 893.083 88.47 902.293 88.47V86.97ZM876.643 68.4C876.643 60.4223 879.362 53.4839 885.456 48.5216C891.573 43.5405 901.189 40.47 915.133 40.47V38.97C900.996 38.97 890.992 42.0795 884.509 47.3584C878.003 52.6561 875.143 60.0577 875.143 68.4H876.643ZM915.133 40.47H984.853V38.97H915.133V40.47ZM984.307 39.2056L964.627 60.0856L965.718 61.1144L985.398 40.2344L984.307 39.2056ZM965.173 59.85H909.493V61.35H965.173V59.85ZM909.493 59.85C906.102 59.85 903.509 60.2965 901.754 61.4778C899.925 62.709 899.143 64.6361 899.143 67.2H900.643C900.643 64.9639 901.301 63.591 902.591 62.7222C903.956 61.8035 906.163 61.35 909.493 61.35V59.85ZM899.143 67.2C899.143 68.1077 899.32 68.9273 899.709 69.6393C900.1 70.3546 900.682 70.9177 901.423 71.3448C902.874 72.1813 904.959 72.51 907.573 72.51V71.01C905.026 71.01 903.271 70.6787 902.172 70.0452C901.638 69.7373 901.268 69.3629 901.025 68.9195C900.781 68.4727 900.643 67.9123 900.643 67.2H899.143ZM1139.14 99.36L1139.68 99.8742L1140.87 98.61H1139.14V99.36ZM1119.7 120V120.75H1120.02L1120.24 120.514L1119.7 120ZM1056.7 78.72L1056.89 79.4445L1059.05 78.8659L1056.98 78.0249L1056.7 78.72ZM1117.78 39.72L1118.32 40.2344L1119.51 38.97H1117.78V39.72ZM1098.1 60.6V61.35H1098.42L1098.64 61.1144L1098.1 60.6ZM1142.74 71.16L1143.29 71.6708L1144.46 70.41H1142.74V71.16ZM1126.78 88.32V89.07H1127.1L1127.33 88.8308L1126.78 88.32ZM1113.58 88.32V87.57H1112.95L1112.84 88.1915L1113.58 88.32ZM1111.66 99.36L1110.92 99.2315L1110.77 100.11H1111.66V99.36ZM1091.62 99.36V100.11H1092.25L1092.36 99.4885L1091.62 99.36ZM1093.54 88.32L1094.28 88.4485L1094.43 87.57H1093.54V88.32ZM1138.59 98.8458L1119.15 119.486L1120.24 120.514L1139.68 99.8742L1138.59 98.8458ZM1119.7 119.25H1069.42V120.75H1119.7V119.25ZM1069.42 119.25C1058.57 119.25 1051.53 117.219 1047.22 113.957C1042.95 110.725 1041.25 106.203 1041.25 100.92H1039.75C1039.75 106.557 1041.59 111.575 1046.31 115.153C1051 118.701 1058.43 120.75 1069.42 120.75V119.25ZM1041.25 100.92C1041.25 88.9263 1048.67 81.6439 1056.89 79.4445L1056.5 77.9955C1047.68 80.3561 1039.75 88.1937 1039.75 100.92H1041.25ZM1056.98 78.0249C1052.81 76.3356 1049.05 72.1639 1049.05 65.16H1047.55C1047.55 72.7961 1051.7 77.5044 1056.42 79.4151L1056.98 78.0249ZM1049.05 65.16C1049.05 57.1323 1052.52 51.0022 1058.6 46.8494C1064.72 42.6739 1073.53 40.47 1084.18 40.47V38.97C1073.35 38.97 1064.21 41.206 1057.76 45.6105C1051.27 50.0378 1047.55 56.6277 1047.55 65.16H1049.05ZM1084.18 40.47H1117.78V38.97H1084.18V40.47ZM1117.23 39.2056L1097.55 60.0856L1098.64 61.1144L1118.32 40.2344L1117.23 39.2056ZM1098.1 59.85H1079.5V61.35H1098.1V59.85ZM1079.5 59.85C1077.46 59.85 1075.29 60.1865 1073.6 61.203C1071.87 62.252 1070.71 63.9938 1070.71 66.6H1072.21C1072.21 64.5262 1073.09 63.268 1074.38 62.487C1075.73 61.6735 1077.58 61.35 1079.5 61.35V59.85ZM1070.71 66.6C1070.71 68.5889 1071.55 69.9735 1072.9 70.8205C1074.2 71.6337 1075.9 71.91 1077.58 71.91V70.41C1076.02 70.41 1074.65 70.1463 1073.7 69.5495C1072.8 68.9865 1072.21 68.0911 1072.21 66.6H1070.71ZM1077.58 71.91H1142.74V70.41H1077.58V71.91ZM1142.19 70.6492L1126.23 87.8092L1127.33 88.8308L1143.29 71.6708L1142.19 70.6492ZM1126.78 87.57H1113.58V89.07H1126.78V87.57ZM1112.84 88.1915L1110.92 99.2315L1112.4 99.4885L1114.32 88.4485L1112.84 88.1915ZM1111.66 100.11H1139.14V98.61H1111.66V100.11ZM1065.43 94.8C1065.43 96.5073 1066.06 97.899 1067.42 98.8252C1068.73 99.7147 1070.62 100.11 1073.02 100.11V98.61C1070.74 98.61 1069.21 98.2253 1068.26 97.5848C1067.38 96.981 1066.93 96.0927 1066.93 94.8H1065.43ZM1073.02 100.11H1091.62V98.61H1073.02V100.11ZM1092.36 99.4885L1094.28 88.4485L1092.8 88.1915L1090.88 99.2315L1092.36 99.4885ZM1093.54 87.57H1074.94V89.07H1093.54V87.57ZM1074.94 87.57C1071.8 87.57 1069.41 88.1819 1067.8 89.4383C1066.15 90.7221 1065.43 92.5857 1065.43 94.8H1066.93C1066.93 92.9343 1067.52 91.5579 1068.72 90.6217C1069.96 89.6581 1071.95 89.07 1074.94 89.07V87.57ZM1228.28 99.36L1227.54 99.2301L1227.39 100.11H1228.28V99.36ZM1296.68 99.36L1297.22 99.8776L1298.43 98.61H1296.68V99.36ZM1277 120V120.75H1277.32L1277.54 120.518L1277 120ZM1199.72 120L1198.98 119.869L1198.82 120.75H1199.72V120ZM1214 39.72V38.97H1213.37L1213.26 39.5887L1214 39.72ZM1306.88 39.72L1307.42 40.2361L1308.62 38.97H1306.88V39.72ZM1287.08 60.6V61.35H1287.4L1287.62 61.1161L1287.08 60.6ZM1235.12 60.6V59.85H1234.49L1234.38 60.4707L1235.12 60.6ZM1233.44 70.2L1232.7 70.0707L1232.55 70.95H1233.44V70.2ZM1296.92 70.2L1297.46 70.7158L1298.66 69.45H1296.92V70.2ZM1279.64 88.44V89.19H1279.96L1280.18 88.9558L1279.64 88.44ZM1230.2 88.44V87.69H1229.57L1229.46 88.3101L1230.2 88.44ZM1228.28 100.11H1296.68V98.61H1228.28V100.11ZM1296.14 98.8424L1276.46 119.482L1277.54 120.518L1297.22 99.8776L1296.14 98.8424ZM1277 119.25H1199.72V120.75H1277V119.25ZM1200.46 120.131L1214.74 39.8513L1213.26 39.5887L1198.98 119.869L1200.46 120.131ZM1214 40.47H1306.88V38.97H1214V40.47ZM1306.34 39.2039L1286.54 60.0839L1287.62 61.1161L1307.42 40.2361L1306.34 39.2039ZM1287.08 59.85H1235.12V61.35H1287.08V59.85ZM1234.38 60.4707L1232.7 70.0707L1234.18 70.3293L1235.86 60.7293L1234.38 60.4707ZM1233.44 70.95H1296.92V69.45H1233.44V70.95ZM1296.38 69.6842L1279.1 87.9242L1280.18 88.9558L1297.46 70.7158L1296.38 69.6842ZM1279.64 87.69H1230.2V89.19H1279.64V87.69ZM1229.46 88.3101L1227.54 99.2301L1229.02 99.4899L1230.94 88.5699L1229.46 88.3101ZM1314.28 39.72V38.97H1313.05L1313.61 40.0629L1314.28 39.72ZM1344.64 39.72L1345.31 39.3834L1345.1 38.97H1344.64V39.72ZM1371.4 93L1370.73 93.3366L1371.23 94.3282L1371.96 93.4964L1371.4 93ZM1418.44 39.72V38.97H1418.1L1417.88 39.2236L1418.44 39.72ZM1447.84 39.72L1448.4 40.2173L1449.51 38.97H1447.84V39.72ZM1383.52 112.32L1384.08 112.821L1384.08 112.817L1383.52 112.32ZM1351.6 112.32L1350.93 112.663L1350.93 112.668L1351.6 112.32ZM1314.28 40.47H1344.64V38.97H1314.28V40.47ZM1343.97 40.0566L1370.73 93.3366L1372.07 92.6634L1345.31 39.3834L1343.97 40.0566ZM1371.96 93.4964L1419 40.2164L1417.88 39.2236L1370.84 92.5036L1371.96 93.4964ZM1418.44 40.47H1447.84V38.97H1418.44V40.47ZM1447.28 39.2226L1382.96 111.823L1384.08 112.817L1448.4 40.2173L1447.28 39.2226ZM1382.96 111.819C1378.82 116.431 1373.37 120.57 1365.88 120.57V122.07C1373.99 122.07 1379.82 117.569 1384.08 112.821L1382.96 111.819ZM1365.88 120.57C1362.3 120.57 1359.54 119.621 1357.37 118.096C1355.19 116.565 1353.55 114.422 1352.26 111.972L1350.93 112.668C1352.29 115.258 1354.07 117.615 1356.51 119.324C1358.95 121.039 1362.02 122.07 1365.88 122.07V120.57ZM1352.27 111.977L1314.95 39.3771L1313.61 40.0629L1350.93 112.663L1352.27 111.977ZM1475.77 99.36L1475.03 99.2301L1474.88 100.11H1475.77V99.36ZM1544.17 99.36L1544.71 99.8776L1545.92 98.61H1544.17V99.36ZM1524.49 120V120.75H1524.81L1525.03 120.518L1524.49 120ZM1447.21 120L1446.47 119.869L1446.32 120.75H1447.21V120ZM1461.49 39.72V38.97H1460.86L1460.75 39.5887L1461.49 39.72ZM1554.37 39.72L1554.91 40.2361L1556.12 38.97H1554.37V39.72ZM1534.57 60.6V61.35H1534.89L1535.11 61.1161L1534.57 60.6ZM1482.61 60.6V59.85H1481.98L1481.87 60.4707L1482.61 60.6ZM1480.93 70.2L1480.19 70.0707L1480.04 70.95H1480.93V70.2ZM1544.41 70.2L1544.96 70.7158L1546.15 69.45H1544.41V70.2ZM1527.13 88.44V89.19H1527.45L1527.68 88.9558L1527.13 88.44ZM1477.69 88.44V87.69H1477.06L1476.95 88.3101L1477.69 88.44ZM1475.77 100.11H1544.17V98.61H1475.77V100.11ZM1543.63 98.8424L1523.95 119.482L1525.03 120.518L1544.71 99.8776L1543.63 98.8424ZM1524.49 119.25H1447.21V120.75H1524.49V119.25ZM1447.95 120.131L1462.23 39.8513L1460.75 39.5887L1446.47 119.869L1447.95 120.131ZM1461.49 40.47H1554.37V38.97H1461.49V40.47ZM1553.83 39.2039L1534.03 60.0839L1535.11 61.1161L1554.91 40.2361L1553.83 39.2039ZM1534.57 59.85H1482.61V61.35H1534.57V59.85ZM1481.87 60.4707L1480.19 70.0707L1481.67 70.3293L1483.35 60.7293L1481.87 60.4707ZM1480.93 70.95H1544.41V69.45H1480.93V70.95ZM1543.87 69.6842L1526.59 87.9242L1527.68 88.9558L1544.96 70.7158L1543.87 69.6842ZM1527.13 87.69H1477.69V89.19H1527.13V87.69ZM1476.95 88.3101L1475.03 99.2301L1476.51 99.4899L1478.43 88.5699L1476.95 88.3101ZM1625.61 117L1626.16 116.488L1626.16 116.487L1625.61 117ZM1584.21 72.84L1584.76 72.327L1583.73 71.2323L1583.47 72.7103L1584.21 72.84ZM1575.93 120V120.75H1576.56L1576.67 120.13L1575.93 120ZM1553.37 120L1552.63 119.871L1552.48 120.75H1553.37V120ZM1565.01 53.4L1565.75 53.5291L1565.75 53.5246L1565.01 53.4ZM1590.57 42.72L1590.01 43.2217L1590.02 43.2274L1590.02 43.2329L1590.57 42.72ZM1631.97 86.88L1631.42 87.393L1632.45 88.4844L1632.71 87.0115L1631.97 86.88ZM1640.37 39.72V38.97H1639.74L1639.63 39.5885L1640.37 39.72ZM1662.93 39.72L1663.67 39.8519L1663.83 38.97H1662.93V39.72ZM1651.05 106.2L1651.79 106.333L1651.79 106.332L1651.05 106.2ZM1634.85 120.57C1633.22 120.57 1631.87 120.396 1630.53 119.821C1629.18 119.244 1627.79 118.239 1626.16 116.488L1625.06 117.512C1626.79 119.361 1628.34 120.516 1629.93 121.199C1631.53 121.884 1633.11 122.07 1634.85 122.07V120.57ZM1626.16 116.487L1584.76 72.327L1583.66 73.353L1625.06 117.513L1626.16 116.487ZM1583.47 72.7103L1575.19 119.87L1576.67 120.13L1584.95 72.9697L1583.47 72.7103ZM1575.93 119.25H1553.37V120.75H1575.93V119.25ZM1554.11 120.129L1565.75 53.5291L1564.27 53.2709L1552.63 119.871L1554.11 120.129ZM1565.75 53.5246C1566.62 48.3327 1568.77 44.7557 1571.53 42.4733C1574.3 40.187 1577.75 39.15 1581.33 39.15V37.65C1577.47 37.65 1573.66 38.773 1570.58 41.3166C1567.49 43.8643 1565.19 47.7873 1564.27 53.2754L1565.75 53.5246ZM1581.33 39.15C1582.77 39.15 1584.16 39.3224 1585.57 39.9035C1586.98 40.4841 1588.45 41.4912 1590.01 43.2217L1591.13 42.2183C1589.44 40.3487 1587.8 39.1959 1586.15 38.5165C1584.5 37.8376 1582.89 37.65 1581.33 37.65V39.15ZM1590.02 43.2329L1631.42 87.393L1632.52 86.367L1591.12 42.207L1590.02 43.2329ZM1632.71 87.0115L1641.11 39.8515L1639.63 39.5885L1631.23 86.7485L1632.71 87.0115ZM1640.37 40.47H1662.93V38.97H1640.37V40.47ZM1662.19 39.5881L1650.31 106.068L1651.79 106.332L1663.67 39.8519L1662.19 39.5881ZM1650.31 106.067C1649.38 111.263 1647.2 114.875 1644.45 117.191C1641.69 119.509 1638.3 120.57 1634.85 120.57V122.07C1638.6 122.07 1642.35 120.911 1645.41 118.339C1648.48 115.765 1650.8 111.817 1651.79 106.333L1650.31 106.067ZM1691.02 39.72V38.97H1690.7L1690.47 39.2023L1691.02 39.72ZM1782.22 39.72L1782.76 40.2377L1783.97 38.97H1782.22V39.72ZM1762.3 60.6V61.35H1762.62L1762.84 61.1177L1762.3 60.6ZM1733.74 60.6V59.85H1733.11L1733 60.4687L1733.74 60.6ZM1723.18 120V120.75H1723.81L1723.92 120.131L1723.18 120ZM1698.34 120L1697.6 119.87L1697.44 120.75H1698.34V120ZM1708.78 60.6L1709.52 60.7298L1709.67 59.85H1708.78V60.6ZM1671.1 60.6L1670.55 60.0823L1669.34 61.35H1671.1V60.6ZM1691.02 40.47H1782.22V38.97H1691.02V40.47ZM1781.67 39.2023L1761.75 60.0823L1762.84 61.1177L1782.76 40.2377L1781.67 39.2023ZM1762.3 59.85H1733.74V61.35H1762.3V59.85ZM1733 60.4687L1722.44 119.869L1723.92 120.131L1734.48 60.7313L1733 60.4687ZM1723.18 119.25H1698.34V120.75H1723.18V119.25ZM1699.08 120.13L1709.52 60.7298L1708.04 60.4702L1697.6 119.87L1699.08 120.13ZM1708.78 59.85H1671.1V61.35H1708.78V59.85ZM1671.64 61.1177L1691.56 40.2377L1690.47 39.2023L1670.55 60.0823L1671.64 61.1177ZM1775.56 120L1775.02 119.484L1773.82 120.75H1775.56V120ZM1795.12 99.36V98.61H1794.8L1794.58 98.8441L1795.12 99.36ZM1896.76 39.72L1897.31 40.2344L1898.5 38.97H1896.76V39.72ZM1877.08 60.6V61.35H1877.41L1877.63 61.1144L1877.08 60.6ZM1819.48 72.51H1863.16V71.01H1819.48V72.51ZM1863.16 72.51C1871.79 72.51 1878.28 74.0612 1882.59 76.9995C1886.85 79.9063 1889.05 84.2228 1889.05 90H1890.55C1890.55 83.7772 1888.14 78.9737 1883.43 75.7605C1878.77 72.5788 1871.93 71.01 1863.16 71.01V72.51ZM1889.05 90C1889.05 98.5368 1886.38 105.803 1880.29 110.952C1874.18 116.119 1864.51 119.25 1850.32 119.25V120.75C1864.7 120.75 1874.77 117.581 1881.26 112.098C1887.77 106.597 1890.55 98.8632 1890.55 90H1889.05ZM1850.32 119.25H1775.56V120.75H1850.32V119.25ZM1776.11 120.516L1795.67 99.8759L1794.58 98.8441L1775.02 119.484L1776.11 120.516ZM1795.12 100.11H1855.96V98.61H1795.12V100.11ZM1855.96 100.11C1859.37 100.11 1861.97 99.5677 1863.72 98.3033C1865.53 96.999 1866.31 95.0271 1866.31 92.52H1864.81C1864.81 94.6929 1864.16 96.1409 1862.84 97.0867C1861.48 98.0723 1859.27 98.61 1855.96 98.61V100.11ZM1866.31 92.52C1866.31 90.6679 1865.57 89.2161 1864.07 88.2707C1862.64 87.3635 1860.58 86.97 1858 86.97V88.47C1860.47 88.47 1862.19 88.8565 1863.27 89.5393C1864.3 90.1839 1864.81 91.1321 1864.81 92.52H1866.31ZM1858 86.97H1814.2V88.47H1858V86.97ZM1814.2 86.97C1805.17 86.97 1798.76 85.0666 1794.63 81.834C1790.52 78.624 1788.55 74.0291 1788.55 68.4H1787.05C1787.05 74.4109 1789.17 79.476 1793.7 83.016C1798.2 86.5334 1804.99 88.47 1814.2 88.47V86.97ZM1788.55 68.4C1788.55 60.4223 1791.27 53.4839 1797.37 48.5216C1803.48 43.5405 1813.1 40.47 1827.04 40.47V38.97C1812.91 38.97 1802.9 42.0795 1796.42 47.3584C1789.91 52.6561 1787.05 60.0577 1787.05 68.4H1788.55ZM1827.04 40.47H1896.76V38.97H1827.04V40.47ZM1896.22 39.2056L1876.54 60.0856L1877.63 61.1144L1897.31 40.2344L1896.22 39.2056ZM1877.08 59.85H1821.4V61.35H1877.08V59.85ZM1821.4 59.85C1818.01 59.85 1815.42 60.2965 1813.66 61.4778C1811.84 62.709 1811.05 64.6361 1811.05 67.2H1812.55C1812.55 64.9639 1813.21 63.591 1814.5 62.7222C1815.87 61.8035 1818.07 61.35 1821.4 61.35V59.85ZM1811.05 67.2C1811.05 68.1077 1811.23 68.9273 1811.62 69.6393C1812.01 70.3546 1812.59 70.9177 1813.33 71.3448C1814.79 72.1813 1816.87 72.51 1819.48 72.51V71.01C1816.94 71.01 1815.18 70.6787 1814.08 70.0452C1813.55 69.7373 1813.18 69.3629 1812.94 68.9195C1812.69 68.4727 1812.55 67.9123 1812.55 67.2H1811.05Z" fill="url(#paint3_linear_431_418)"/>
</g>
<g filter="url(#filter2_b_431_418)">
<path d="M333.65 58.52C333.65 78.44 316.25 92.48 288.41 92.48H246.41L242.81 113H218.09L225.29 71.96H294.41C303.05 71.96 308.33 67.52 308.33 61.28C308.33 56.6 304.61 53.6 297.65 53.6H228.53L248.69 32.72H299.09C321.41 32.72 333.65 43.16 333.65 58.52ZM450.059 113H356.699L375.419 92.36H395.459C400.379 92.36 405.899 92.36 409.739 92.6C408.059 89.72 405.539 84.8 403.619 80.96L392.939 59.72L345.899 113H316.499L380.819 40.4C385.019 35.72 390.659 31.4 398.459 31.4C405.899 31.4 410.099 35.36 412.739 40.4L450.059 113ZM565.471 97.4L577.591 113H544.351L530.191 91.76H492.031L488.311 113H463.471L470.671 71.96H540.511C548.791 71.96 555.991 68 555.991 61.52C555.991 56.24 551.431 53.6 543.751 53.6H473.911L493.831 32.72H545.431C562.231 32.72 582.151 37.88 582.151 57.08C582.151 71.6 571.711 83.84 556.231 86.84C558.511 88.88 561.031 91.76 565.471 97.4ZM614.123 32.72H705.323L685.403 53.6H656.843L646.283 113H621.443L631.883 53.6H594.203L614.123 32.72ZM742.71 32.72L728.55 113H703.71L717.99 32.72H742.71ZM777.374 92.36H845.774L826.094 113H748.814L763.094 32.72H855.974L836.174 53.6H784.214L782.534 63.2H846.014L828.734 81.44H779.294L777.374 92.36ZM894.573 64.76H938.253C955.653 64.76 964.893 71 964.893 83C964.893 100.4 953.973 113 925.413 113H850.653L870.213 92.36H931.053C937.773 92.36 940.653 90.2 940.653 85.52C940.653 82.28 938.133 80.72 933.093 80.72H889.293C871.053 80.72 862.893 73.04 862.893 61.4C862.893 45.08 874.053 32.72 902.133 32.72H971.853L952.173 53.6H896.493C889.773 53.6 886.893 55.4 886.893 60.2C886.893 63.44 889.413 64.76 894.573 64.76ZM1126.14 92.36L1106.7 113H1056.42C1034.58 113 1027.5 104.84 1027.5 93.92C1027.5 81.56 1035.18 74 1043.7 71.72C1039.26 69.92 1035.3 65.48 1035.3 58.16C1035.3 41.6 1049.7 32.72 1071.18 32.72H1104.78L1085.1 53.6H1066.5C1062.54 53.6 1058.46 54.92 1058.46 59.6C1058.46 63.08 1061.34 64.16 1064.58 64.16H1129.74L1113.78 81.32H1100.58L1098.66 92.36H1126.14ZM1053.18 87.8C1053.18 90.8 1055.34 92.36 1060.02 92.36H1078.62L1080.54 81.32H1061.94C1055.82 81.32 1053.18 83.72 1053.18 87.8ZM1215.28 92.36H1283.68L1264 113H1186.72L1201 32.72H1293.88L1274.08 53.6H1222.12L1220.44 63.2H1283.92L1266.64 81.44H1217.2L1215.28 92.36ZM1301.28 32.72H1331.64L1358.4 86L1405.44 32.72H1434.84L1370.52 105.32C1366.32 110 1360.68 114.32 1352.88 114.32C1345.44 114.32 1341.24 110.36 1338.6 105.32L1301.28 32.72ZM1462.77 92.36H1531.17L1511.49 113H1434.21L1448.49 32.72H1541.37L1521.57 53.6H1469.61L1467.93 63.2H1531.41L1514.13 81.44H1464.69L1462.77 92.36ZM1621.85 114.32C1618.49 114.32 1615.97 113.6 1612.61 110L1571.21 65.84L1562.93 113H1540.37L1552.01 46.4C1553.81 35.72 1560.89 31.4 1568.33 31.4C1571.33 31.4 1574.33 32.12 1577.57 35.72L1618.97 79.88L1627.37 32.72H1649.93L1638.05 99.2C1636.13 109.88 1629.05 114.32 1621.85 114.32ZM1678.02 32.72H1769.22L1749.3 53.6H1720.74L1710.18 113H1685.34L1695.78 53.6H1658.1L1678.02 32.72ZM1806.48 64.76H1850.16C1867.56 64.76 1876.8 71 1876.8 83C1876.8 100.4 1865.88 113 1837.32 113H1762.56L1782.12 92.36H1842.96C1849.68 92.36 1852.56 90.2 1852.56 85.52C1852.56 82.28 1850.04 80.72 1845 80.72H1801.2C1782.96 80.72 1774.8 73.04 1774.8 61.4C1774.8 45.08 1785.96 32.72 1814.04 32.72H1883.76L1864.08 53.6H1808.4C1801.68 53.6 1798.8 55.4 1798.8 60.2C1798.8 63.44 1801.32 64.76 1806.48 64.76Z" fill="black"/>
<path d="M246.41 92.48V91.48H245.57L245.425 92.3072L246.41 92.48ZM242.81 113V114H243.649L243.794 113.173L242.81 113ZM218.09 113L217.105 112.827L216.899 114H218.09V113ZM225.29 71.96V70.96H224.45L224.305 71.7872L225.29 71.96ZM228.53 53.6L227.81 52.9054L226.174 54.6H228.53V53.6ZM248.69 32.72V31.72H248.265L247.97 32.0254L248.69 32.72ZM332.65 58.52C332.65 68.1591 328.452 76.3594 320.861 82.1762C313.249 88.0091 302.172 91.48 288.41 91.48V93.48C302.487 93.48 314.03 89.9309 322.078 83.7638C330.147 77.5805 334.65 68.8009 334.65 58.52H332.65ZM288.41 91.48H246.41V93.48H288.41V91.48ZM245.425 92.3072L241.825 112.827L243.794 113.173L247.394 92.6528L245.425 92.3072ZM242.81 112H218.09V114H242.81V112ZM219.074 113.173L226.274 72.1328L224.305 71.7872L217.105 112.827L219.074 113.173ZM225.29 72.96H294.41V70.96H225.29V72.96ZM294.41 72.96C298.892 72.96 302.608 71.8087 305.228 69.7456C307.867 67.6672 309.33 64.7084 309.33 61.28H307.33C307.33 64.0916 306.152 66.4728 303.991 68.1744C301.811 69.8913 298.567 70.96 294.41 70.96V72.96ZM309.33 61.28C309.33 58.6432 308.265 56.4169 306.195 54.8818C304.163 53.3746 301.255 52.6 297.65 52.6V54.6C301.004 54.6 303.436 55.3254 305.004 56.4882C306.534 57.6231 307.33 59.2368 307.33 61.28H309.33ZM297.65 52.6H228.53V54.6H297.65V52.6ZM229.249 54.2946L249.409 33.4146L247.97 32.0254L227.81 52.9054L229.249 54.2946ZM248.69 33.72H299.09V31.72H248.69V33.72ZM299.09 33.72C310.107 33.72 318.506 36.2981 324.127 40.6507C329.72 44.9813 332.65 51.1327 332.65 58.52H334.65C334.65 50.5473 331.459 43.7987 325.352 39.0693C319.273 34.3619 310.392 31.72 299.09 31.72V33.72ZM450.059 113V114H451.697L450.948 112.543L450.059 113ZM356.699 113L355.958 112.328L354.442 114H356.699V113ZM375.419 92.36V91.36H374.976L374.678 91.6882L375.419 92.36ZM409.739 92.6L409.677 93.5981L411.547 93.715L410.603 92.0961L409.739 92.6ZM403.619 80.96L404.513 80.5128L404.512 80.5108L403.619 80.96ZM392.939 59.72L393.832 59.2708L393.168 57.9496L392.189 59.0582L392.939 59.72ZM345.899 113V114H346.35L346.649 113.662L345.899 113ZM316.499 113L315.75 112.337L314.277 114H316.499V113ZM380.819 40.4L380.075 39.7321L380.07 39.7369L380.819 40.4ZM412.739 40.4L413.628 39.9428L413.625 39.936L412.739 40.4ZM450.059 112H356.699V114H450.059V112ZM357.44 113.672L376.16 93.0318L374.678 91.6882L355.958 112.328L357.44 113.672ZM375.419 93.36H395.459V91.36H375.419V93.36ZM395.459 93.36C400.391 93.36 405.875 93.3605 409.677 93.5981L409.801 91.6019C405.923 91.3595 400.366 91.36 395.459 91.36V93.36ZM410.603 92.0961C408.941 89.2479 406.435 84.3556 404.513 80.5128L402.724 81.4072C404.643 85.2444 407.177 90.1921 408.875 93.1039L410.603 92.0961ZM404.512 80.5108L393.832 59.2708L392.045 60.1692L402.725 81.4092L404.512 80.5108ZM392.189 59.0582L345.149 112.338L346.649 113.662L393.689 60.3818L392.189 59.0582ZM345.899 112H316.499V114H345.899V112ZM317.247 113.663L381.567 41.0631L380.07 39.7369L315.75 112.337L317.247 113.663ZM381.563 41.0679C385.682 36.4786 391.072 32.4 398.459 32.4V30.4C390.245 30.4 384.356 34.9614 380.075 39.7321L381.563 41.0679ZM398.459 32.4C401.989 32.4 404.695 33.3353 406.825 34.8287C408.966 36.3305 410.582 38.4378 411.853 40.864L413.625 39.936C412.256 37.3222 410.452 34.9295 407.973 33.1913C405.483 31.4447 402.369 30.4 398.459 30.4V32.4ZM411.85 40.8572L449.17 113.457L450.948 112.543L413.628 39.9428L411.85 40.8572ZM565.471 97.4L566.26 96.7865L566.257 96.7814L565.471 97.4ZM577.591 113V114H579.634L578.38 112.386L577.591 113ZM544.351 113L543.519 113.555L543.816 114H544.351V113ZM530.191 91.76L531.023 91.2053L530.726 90.76H530.191V91.76ZM492.031 91.76V90.76H491.191L491.046 91.5875L492.031 91.76ZM488.311 113V114H489.151L489.296 113.173L488.311 113ZM463.471 113L462.486 112.827L462.28 114H463.471V113ZM470.671 71.96V70.96H469.831L469.686 71.7872L470.671 71.96ZM473.911 53.6L473.187 52.9097L471.575 54.6H473.911V53.6ZM493.831 32.72V31.72H493.403L493.107 32.0297L493.831 32.72ZM556.231 86.84L556.041 85.8583L554.062 86.2416L555.564 87.5852L556.231 86.84ZM564.681 98.0135L576.801 113.614L578.38 112.386L566.26 96.7865L564.681 98.0135ZM577.591 112H544.351V114H577.591V112ZM545.183 112.445L531.023 91.2053L529.359 92.3147L543.519 113.555L545.183 112.445ZM530.191 90.76H492.031V92.76H530.191V90.76ZM491.046 91.5875L487.326 112.827L489.296 113.173L493.016 91.9325L491.046 91.5875ZM488.311 112H463.471V114H488.311V112ZM464.456 113.173L471.656 72.1328L469.686 71.7872L462.486 112.827L464.456 113.173ZM470.671 72.96H540.511V70.96H470.671V72.96ZM540.511 72.96C544.795 72.96 548.862 71.9381 551.892 70.0142C554.938 68.0802 556.991 65.1853 556.991 61.52H554.991C554.991 64.3347 553.444 66.6598 550.82 68.3258C548.18 70.0019 544.507 70.96 540.511 70.96V72.96ZM556.991 61.52C556.991 58.5356 555.674 56.2361 553.283 54.7334C550.956 53.2706 547.679 52.6 543.751 52.6V54.6C547.503 54.6 550.346 55.2494 552.219 56.4266C554.028 57.5639 554.991 59.2244 554.991 61.52H556.991ZM543.751 52.6H473.911V54.6H543.751V52.6ZM474.634 54.2903L494.554 33.4103L493.107 32.0297L473.187 52.9097L474.634 54.2903ZM493.831 33.72H545.431V31.72H493.831V33.72ZM545.431 33.72C553.757 33.72 562.753 35.0031 569.629 38.5868C576.442 42.1377 581.151 47.9195 581.151 57.08H583.151C583.151 47.0405 577.9 40.6423 570.553 36.8132C563.269 33.0169 553.904 31.72 545.431 31.72V33.72ZM581.151 57.08C581.151 71.0804 571.091 82.9414 556.041 85.8583L556.421 87.8217C572.33 84.7386 583.151 72.1196 583.151 57.08H581.151ZM555.564 87.5852C557.773 89.5615 560.246 92.3799 564.685 98.0186L566.257 96.7814C561.815 91.1401 559.249 88.1985 556.898 86.0948L555.564 87.5852ZM614.123 32.72V31.72H613.695L613.4 32.0297L614.123 32.72ZM705.323 32.72L706.047 33.4103L707.659 31.72H705.323V32.72ZM685.403 53.6V54.6H685.831L686.127 54.2903L685.403 53.6ZM656.843 53.6V52.6H656.005L655.859 53.425L656.843 53.6ZM646.283 113V114H647.121L647.268 113.175L646.283 113ZM621.443 113L620.458 112.827L620.252 114H621.443V113ZM631.883 53.6L632.868 53.7731L633.074 52.6H631.883V53.6ZM594.203 53.6L593.48 52.9097L591.867 54.6H594.203V53.6ZM614.123 33.72H705.323V31.72H614.123V33.72ZM704.6 32.0297L684.68 52.9097L686.127 54.2903L706.047 33.4103L704.6 32.0297ZM685.403 52.6H656.843V54.6H685.403V52.6ZM655.859 53.425L645.299 112.825L647.268 113.175L657.828 53.775L655.859 53.425ZM646.283 112H621.443V114H646.283V112ZM622.428 113.173L632.868 53.7731L630.898 53.4269L620.458 112.827L622.428 113.173ZM631.883 52.6H594.203V54.6H631.883V52.6ZM594.927 54.2903L614.847 33.4103L613.4 32.0297L593.48 52.9097L594.927 54.2903ZM742.71 32.72L743.695 32.8937L743.902 31.72H742.71V32.72ZM728.55 113V114H729.389L729.535 113.174L728.55 113ZM703.71 113L702.725 112.825L702.516 114H703.71V113ZM717.99 32.72V31.72H717.152L717.005 32.5449L717.99 32.72ZM741.725 32.5463L727.565 112.826L729.535 113.174L743.695 32.8937L741.725 32.5463ZM728.55 112H703.71V114H728.55V112ZM704.694 113.175L718.974 32.8951L717.005 32.5449L702.725 112.825L704.694 113.175ZM717.99 33.72H742.71V31.72H717.99V33.72ZM777.374 92.36L776.389 92.1868L776.183 93.36H777.374V92.36ZM845.774 92.36L846.498 93.0501L848.109 91.36H845.774V92.36ZM826.094 113V114H826.522L826.818 113.69L826.094 113ZM748.814 113L747.829 112.825L747.62 114H748.814V113ZM763.094 32.72V31.72H762.256L762.109 32.5449L763.094 32.72ZM855.974 32.72L856.7 33.4081L858.3 31.72H855.974V32.72ZM836.174 53.6V54.6H836.604L836.9 54.2881L836.174 53.6ZM784.214 53.6V52.6H783.374L783.229 53.4276L784.214 53.6ZM782.534 63.2L781.549 63.0276L781.344 64.2H782.534V63.2ZM846.014 63.2L846.74 63.8877L848.339 62.2H846.014V63.2ZM828.734 81.44V82.44H829.164L829.46 82.1277L828.734 81.44ZM779.294 81.44V80.44H778.454L778.309 81.2668L779.294 81.44ZM777.374 93.36H845.774V91.36H777.374V93.36ZM845.05 91.6699L825.37 112.31L826.818 113.69L846.498 93.0501L845.05 91.6699ZM826.094 112H748.814V114H826.094V112ZM749.798 113.175L764.078 32.8951L762.109 32.5449L747.829 112.825L749.798 113.175ZM763.094 33.72H855.974V31.72H763.094V33.72ZM855.248 32.0319L835.448 52.9119L836.9 54.2881L856.7 33.4081L855.248 32.0319ZM836.174 52.6H784.214V54.6H836.174V52.6ZM783.229 53.4276L781.549 63.0276L783.519 63.3724L785.199 53.7724L783.229 53.4276ZM782.534 64.2H846.014V62.2H782.534V64.2ZM845.288 62.5123L828.008 80.7523L829.46 82.1277L846.74 63.8877L845.288 62.5123ZM828.734 80.44H779.294V82.44H828.734V80.44ZM778.309 81.2668L776.389 92.1868L778.359 92.5332L780.279 81.6132L778.309 81.2668ZM850.653 113L849.927 112.312L848.327 114H850.653V113ZM870.213 92.36V91.36H869.783L869.487 91.6721L870.213 92.36ZM971.853 32.72L972.58 33.4059L974.169 31.72H971.853V32.72ZM952.173 53.6V54.6H952.604L952.9 54.2859L952.173 53.6ZM894.573 65.76H938.253V63.76H894.573V65.76ZM938.253 65.76C946.861 65.76 953.287 67.3083 957.534 70.2061C961.719 73.0617 963.893 77.2971 963.893 83H965.893C965.893 76.7029 963.446 71.8183 958.661 68.5539C953.938 65.3317 947.045 63.76 938.253 63.76V65.76ZM963.893 83C963.893 91.4824 961.24 98.6708 955.217 103.761C949.166 108.876 939.565 112 925.413 112V114C939.82 114 949.959 110.824 956.508 105.289C963.086 99.7292 965.893 91.9176 965.893 83H963.893ZM925.413 112H850.653V114H925.413V112ZM851.378 113.688L870.938 93.0479L869.487 91.6721L849.927 112.312L851.378 113.688ZM870.213 93.36H931.053V91.36H870.213V93.36ZM931.053 93.36C934.48 93.36 937.14 92.8169 938.958 91.5061C940.849 90.1421 941.653 88.0828 941.653 85.52H939.653C939.653 87.6372 939.016 88.9979 937.788 89.8839C936.485 90.8231 934.345 91.36 931.053 91.36V93.36ZM941.653 85.52C941.653 83.5906 940.874 82.0548 939.296 81.0593C937.799 80.1146 935.682 79.72 933.093 79.72V81.72C935.543 81.72 937.206 82.1054 938.229 82.7507C939.171 83.3452 939.653 84.2094 939.653 85.52H941.653ZM933.093 79.72H889.293V81.72H933.093V79.72ZM889.293 79.72C880.292 79.72 873.945 77.8221 869.868 74.637C865.83 71.482 863.893 66.9654 863.893 61.4H861.893C861.893 67.4746 864.035 72.618 868.637 76.213C873.2 79.7779 880.053 81.72 889.293 81.72V79.72ZM863.893 61.4C863.893 53.483 866.589 46.6218 872.614 41.7154C878.67 36.7841 888.221 33.72 902.133 33.72V31.72C887.964 31.72 877.895 34.8359 871.351 40.1646C864.777 45.5181 861.893 52.997 861.893 61.4H863.893ZM902.133 33.72H971.853V31.72H902.133V33.72ZM971.125 32.0341L951.445 52.9141L952.9 54.2859L972.58 33.4059L971.125 32.0341ZM952.173 52.6H896.493V54.6H952.173V52.6ZM896.493 52.6C893.092 52.6 890.434 53.0453 888.614 54.2704C886.695 55.562 885.893 57.5814 885.893 60.2H887.893C887.893 58.0185 888.53 56.738 889.731 55.9296C891.031 55.0547 893.173 54.6 896.493 54.6V52.6ZM885.893 60.2C885.893 61.1402 886.076 62.003 886.49 62.7592C886.906 63.5199 887.523 64.1144 888.298 64.5614C889.808 65.4318 891.948 65.76 894.573 65.76V63.76C892.037 63.76 890.337 63.4282 889.297 62.8286C888.797 62.5406 888.462 62.1976 888.244 61.7995C888.024 61.397 887.893 60.8798 887.893 60.2H885.893ZM1126.14 92.36L1126.87 93.0456L1128.45 91.36H1126.14V92.36ZM1106.7 113V114H1107.13L1107.43 113.686L1106.7 113ZM1043.7 71.72L1043.96 72.686L1046.84 71.9145L1044.07 70.7933L1043.7 71.72ZM1104.78 32.72L1105.5 33.4059L1107.09 31.72H1104.78V32.72ZM1085.1 53.6V54.6H1085.53L1085.82 54.2859L1085.1 53.6ZM1129.74 64.16L1130.47 64.841L1132.03 63.16H1129.74V64.16ZM1113.78 81.32V82.32H1114.21L1114.51 82.001L1113.78 81.32ZM1100.58 81.32V80.32H1099.74L1099.59 81.1487L1100.58 81.32ZM1098.66 92.36L1097.67 92.1887L1097.47 93.36H1098.66V92.36ZM1078.62 92.36V93.36H1079.46L1079.6 92.5313L1078.62 92.36ZM1080.54 81.32L1081.52 81.4913L1081.73 80.32H1080.54V81.32ZM1125.41 91.6744L1105.97 112.314L1107.43 113.686L1126.87 93.0456L1125.41 91.6744ZM1106.7 112H1056.42V114H1106.7V112ZM1056.42 112C1045.59 112 1038.62 109.972 1034.37 106.758C1030.18 103.584 1028.5 99.1444 1028.5 93.92H1026.5C1026.5 99.6156 1028.36 104.716 1033.16 108.352C1037.91 111.948 1045.4 114 1056.42 114V112ZM1028.5 93.92C1028.5 82.0484 1035.84 74.8585 1043.96 72.686L1043.44 70.754C1034.52 73.1415 1026.5 81.0716 1026.5 93.92H1028.5ZM1044.07 70.7933C1040 69.1408 1036.3 65.0586 1036.3 58.16H1034.3C1034.3 65.9014 1038.52 70.6992 1043.32 72.6467L1044.07 70.7933ZM1036.3 58.16C1036.3 50.2164 1039.73 44.163 1045.75 40.0559C1051.81 35.9186 1060.56 33.72 1071.18 33.72V31.72C1060.32 31.72 1051.13 33.9614 1044.62 38.4041C1038.07 42.877 1034.3 49.5436 1034.3 58.16H1036.3ZM1071.18 33.72H1104.78V31.72H1071.18V33.72ZM1104.05 32.0341L1084.37 52.9141L1085.82 54.2859L1105.5 33.4059L1104.05 32.0341ZM1085.1 52.6H1066.5V54.6H1085.1V52.6ZM1066.5 52.6C1064.44 52.6 1062.21 52.9387 1060.48 53.989C1058.66 55.0826 1057.46 56.9051 1057.46 59.6H1059.46C1059.46 57.6149 1060.29 56.4374 1061.51 55.701C1062.8 54.9213 1064.6 54.6 1066.5 54.6V52.6ZM1057.46 59.6C1057.46 61.6718 1058.34 63.1379 1059.77 64.0324C1061.13 64.8816 1062.88 65.16 1064.58 65.16V63.16C1063.04 63.16 1061.73 62.8984 1060.83 62.3376C1060.01 61.8221 1059.46 61.0082 1059.46 59.6H1057.46ZM1064.58 65.16H1129.74V63.16H1064.58V65.16ZM1129 63.479L1113.04 80.639L1114.51 82.001L1130.47 64.841L1129 63.479ZM1113.78 80.32H1100.58V82.32H1113.78V80.32ZM1099.59 81.1487L1097.67 92.1887L1099.64 92.5313L1101.56 81.4913L1099.59 81.1487ZM1098.66 93.36H1126.14V91.36H1098.66V93.36ZM1052.18 87.8C1052.18 89.5764 1052.84 91.0519 1054.28 92.0319C1055.65 92.963 1057.6 93.36 1060.02 93.36V91.36C1057.76 91.36 1056.29 90.977 1055.4 90.3781C1054.6 89.828 1054.18 89.0236 1054.18 87.8H1052.18ZM1060.02 93.36H1078.62V91.36H1060.02V93.36ZM1079.6 92.5313L1081.52 81.4913L1079.55 81.1487L1077.63 92.1887L1079.6 92.5313ZM1080.54 80.32H1061.94V82.32H1080.54V80.32ZM1061.94 80.32C1058.77 80.32 1056.32 80.9358 1054.65 82.2411C1052.93 83.5828 1052.18 85.5276 1052.18 87.8H1054.18C1054.18 85.9924 1054.75 84.6972 1055.88 83.8189C1057.05 82.9042 1058.98 82.32 1061.94 82.32V80.32ZM1215.28 92.36L1214.3 92.1868L1214.09 93.36H1215.28V92.36ZM1283.68 92.36L1284.4 93.0501L1286.02 91.36H1283.68V92.36ZM1264 113V114H1264.43L1264.72 113.69L1264 113ZM1186.72 113L1185.74 112.825L1185.53 114H1186.72V113ZM1201 32.72V31.72H1200.16L1200.02 32.5449L1201 32.72ZM1293.88 32.72L1294.61 33.4081L1296.21 31.72H1293.88V32.72ZM1274.08 53.6V54.6H1274.51L1274.81 54.2881L1274.08 53.6ZM1222.12 53.6V52.6H1221.28L1221.14 53.4276L1222.12 53.6ZM1220.44 63.2L1219.46 63.0276L1219.25 64.2H1220.44V63.2ZM1283.92 63.2L1284.65 63.8877L1286.25 62.2H1283.92V63.2ZM1266.64 81.44V82.44H1267.07L1267.37 82.1277L1266.64 81.44ZM1217.2 81.44V80.44H1216.36L1216.22 81.2668L1217.2 81.44ZM1215.28 93.36H1283.68V91.36H1215.28V93.36ZM1282.96 91.6699L1263.28 112.31L1264.72 113.69L1284.4 93.0501L1282.96 91.6699ZM1264 112H1186.72V114H1264V112ZM1187.7 113.175L1201.98 32.8951L1200.02 32.5449L1185.74 112.825L1187.7 113.175ZM1201 33.72H1293.88V31.72H1201V33.72ZM1293.15 32.0319L1273.35 52.9119L1274.81 54.2881L1294.61 33.4081L1293.15 32.0319ZM1274.08 52.6H1222.12V54.6H1274.08V52.6ZM1221.14 53.4276L1219.46 63.0276L1221.43 63.3724L1223.11 53.7724L1221.14 53.4276ZM1220.44 64.2H1283.92V62.2H1220.44V64.2ZM1283.19 62.5123L1265.91 80.7523L1267.37 82.1277L1284.65 63.8877L1283.19 62.5123ZM1266.64 80.44H1217.2V82.44H1266.64V80.44ZM1216.22 81.2668L1214.3 92.1868L1216.27 92.5332L1218.19 81.6132L1216.22 81.2668ZM1301.28 32.72V31.72H1299.64L1300.39 33.1772L1301.28 32.72ZM1331.64 32.72L1332.53 32.2712L1332.26 31.72H1331.64V32.72ZM1358.4 86L1357.51 86.4488L1358.17 87.771L1359.15 86.6618L1358.4 86ZM1405.44 32.72V31.72H1404.99L1404.69 32.0582L1405.44 32.72ZM1434.84 32.72L1435.59 33.3831L1437.06 31.72H1434.84V32.72ZM1370.52 105.32L1371.26 105.988L1371.27 105.983L1370.52 105.32ZM1338.6 105.32L1337.71 105.777L1337.71 105.784L1338.6 105.32ZM1301.28 33.72H1331.64V31.72H1301.28V33.72ZM1330.75 33.1688L1357.51 86.4488L1359.29 85.5512L1332.53 32.2712L1330.75 33.1688ZM1359.15 86.6618L1406.19 33.3818L1404.69 32.0582L1357.65 85.3382L1359.15 86.6618ZM1405.44 33.72H1434.84V31.72H1405.44V33.72ZM1434.09 32.0569L1369.77 104.657L1371.27 105.983L1435.59 33.3831L1434.09 32.0569ZM1369.77 104.652C1365.66 109.241 1360.27 113.32 1352.88 113.32V115.32C1361.09 115.32 1366.98 110.759 1371.26 105.988L1369.77 104.652ZM1352.88 113.32C1349.35 113.32 1346.64 112.385 1344.51 110.891C1342.37 109.389 1340.76 107.282 1339.48 104.856L1337.71 105.784C1339.08 108.398 1340.89 110.791 1343.36 112.529C1345.86 114.275 1348.97 115.32 1352.88 115.32V113.32ZM1339.49 104.863L1302.17 32.2628L1300.39 33.1772L1337.71 105.777L1339.49 104.863ZM1462.77 92.36L1461.79 92.1868L1461.58 93.36H1462.77V92.36ZM1531.17 92.36L1531.89 93.0501L1533.51 91.36H1531.17V92.36ZM1511.49 113V114H1511.92L1512.21 113.69L1511.49 113ZM1434.21 113L1433.23 112.825L1433.02 114H1434.21V113ZM1448.49 32.72V31.72H1447.65L1447.51 32.5449L1448.49 32.72ZM1541.37 32.72L1542.1 33.4081L1543.7 31.72H1541.37V32.72ZM1521.57 53.6V54.6H1522L1522.3 54.2881L1521.57 53.6ZM1469.61 53.6V52.6H1468.77L1468.63 53.4276L1469.61 53.6ZM1467.93 63.2L1466.95 63.0276L1466.74 64.2H1467.93V63.2ZM1531.41 63.2L1532.14 63.8877L1533.74 62.2H1531.41V63.2ZM1514.13 81.44V82.44H1514.56L1514.86 82.1277L1514.13 81.44ZM1464.69 81.44V80.44H1463.85L1463.71 81.2668L1464.69 81.44ZM1462.77 93.36H1531.17V91.36H1462.77V93.36ZM1530.45 91.6699L1510.77 112.31L1512.21 113.69L1531.89 93.0501L1530.45 91.6699ZM1511.49 112H1434.21V114H1511.49V112ZM1435.2 113.175L1449.48 32.8951L1447.51 32.5449L1433.23 112.825L1435.2 113.175ZM1448.49 33.72H1541.37V31.72H1448.49V33.72ZM1540.65 32.0319L1520.85 52.9119L1522.3 54.2881L1542.1 33.4081L1540.65 32.0319ZM1521.57 52.6H1469.61V54.6H1521.57V52.6ZM1468.63 53.4276L1466.95 63.0276L1468.92 63.3724L1470.6 53.7724L1468.63 53.4276ZM1467.93 64.2H1531.41V62.2H1467.93V64.2ZM1530.68 62.5123L1513.4 80.7523L1514.86 82.1277L1532.14 63.8877L1530.68 62.5123ZM1514.13 80.44H1464.69V82.44H1514.13V80.44ZM1463.71 81.2668L1461.79 92.1868L1463.76 92.5332L1465.68 81.6132L1463.71 81.2668ZM1612.61 110L1613.34 109.318L1613.34 109.316L1612.61 110ZM1571.21 65.84L1571.94 65.1561L1570.57 63.6964L1570.22 65.6671L1571.21 65.84ZM1562.93 113V114H1563.77L1563.91 113.173L1562.93 113ZM1540.37 113L1539.38 112.828L1539.18 114H1540.37V113ZM1552.01 46.4L1552.99 46.5722L1553 46.5662L1552.01 46.4ZM1577.57 35.72L1576.83 36.389L1576.83 36.3965L1576.84 36.4039L1577.57 35.72ZM1618.97 79.88L1618.24 80.5639L1619.6 82.0191L1619.95 80.0554L1618.97 79.88ZM1627.37 32.72V31.72H1626.53L1626.39 32.5446L1627.37 32.72ZM1649.93 32.72L1650.91 32.8959L1651.12 31.72H1649.93V32.72ZM1638.05 99.2L1639.03 99.3769L1639.03 99.3759L1638.05 99.2ZM1621.85 113.32C1620.24 113.32 1618.92 113.148 1617.62 112.591C1616.32 112.032 1614.96 111.052 1613.34 109.318L1611.88 110.682C1613.62 112.548 1615.2 113.728 1616.84 114.429C1618.48 115.132 1620.1 115.32 1621.85 115.32V113.32ZM1613.34 109.316L1571.94 65.1561L1570.48 66.5239L1611.88 110.684L1613.34 109.316ZM1570.22 65.6671L1561.94 112.827L1563.91 113.173L1572.19 66.0129L1570.22 65.6671ZM1562.93 112H1540.37V114H1562.93V112ZM1541.35 113.172L1552.99 46.5722L1551.02 46.2278L1539.38 112.828L1541.35 113.172ZM1553 46.5662C1553.86 41.4236 1555.98 37.9042 1558.69 35.6661C1561.41 33.4227 1564.8 32.4 1568.33 32.4V30.4C1564.42 30.4 1560.55 31.5373 1557.42 34.1239C1554.28 36.7158 1551.96 40.6964 1551.02 46.2338L1553 46.5662ZM1568.33 32.4C1569.75 32.4 1571.11 32.5699 1572.48 33.1347C1573.85 33.6988 1575.29 34.6817 1576.83 36.389L1578.31 35.051C1576.61 33.1583 1574.93 31.9812 1573.24 31.2853C1571.55 30.5901 1569.91 30.4 1568.33 30.4V32.4ZM1576.84 36.4039L1618.24 80.5639L1619.7 79.1961L1578.3 35.0361L1576.84 36.4039ZM1619.95 80.0554L1628.35 32.8954L1626.39 32.5446L1617.99 79.7046L1619.95 80.0554ZM1627.37 33.72H1649.93V31.72H1627.37V33.72ZM1648.95 32.5441L1637.07 99.0241L1639.03 99.3759L1650.91 32.8959L1648.95 32.5441ZM1637.07 99.0231C1636.14 104.17 1633.99 107.727 1631.29 109.999C1628.58 112.275 1625.24 113.32 1621.85 113.32V115.32C1625.66 115.32 1629.46 114.145 1632.57 111.531C1635.69 108.913 1638.04 104.91 1639.03 99.3769L1637.07 99.0231ZM1678.02 32.72V31.72H1677.59L1677.29 32.0297L1678.02 32.72ZM1769.22 32.72L1769.94 33.4103L1771.55 31.72H1769.22V32.72ZM1749.3 53.6V54.6H1749.73L1750.02 54.2903L1749.3 53.6ZM1720.74 53.6V52.6H1719.9L1719.75 53.425L1720.74 53.6ZM1710.18 113V114H1711.01L1711.16 113.175L1710.18 113ZM1685.34 113L1684.35 112.827L1684.15 114H1685.34V113ZM1695.78 53.6L1696.76 53.7731L1696.97 52.6H1695.78V53.6ZM1658.1 53.6L1657.37 52.9097L1655.76 54.6H1658.1V53.6ZM1678.02 33.72H1769.22V31.72H1678.02V33.72ZM1768.49 32.0297L1748.57 52.9097L1750.02 54.2903L1769.94 33.4103L1768.49 32.0297ZM1749.3 52.6H1720.74V54.6H1749.3V52.6ZM1719.75 53.425L1709.19 112.825L1711.16 113.175L1721.72 53.775L1719.75 53.425ZM1710.18 112H1685.34V114H1710.18V112ZM1686.32 113.173L1696.76 53.7731L1694.79 53.4269L1684.35 112.827L1686.32 113.173ZM1695.78 52.6H1658.1V54.6H1695.78V52.6ZM1658.82 54.2903L1678.74 33.4103L1677.29 32.0297L1657.37 52.9097L1658.82 54.2903ZM1762.56 113L1761.84 112.312L1760.24 114H1762.56V113ZM1782.12 92.36V91.36H1781.69L1781.4 91.6721L1782.12 92.36ZM1883.76 32.72L1884.49 33.4059L1886.08 31.72H1883.76V32.72ZM1864.08 53.6V54.6H1864.52L1864.81 54.2859L1864.08 53.6ZM1806.48 65.76H1850.16V63.76H1806.48V65.76ZM1850.16 65.76C1858.77 65.76 1865.2 67.3083 1869.45 70.2061C1873.63 73.0617 1875.8 77.2971 1875.8 83H1877.8C1877.8 76.7029 1875.36 71.8183 1870.57 68.5539C1865.85 65.3317 1858.96 63.76 1850.16 63.76V65.76ZM1875.8 83C1875.8 91.4824 1873.15 98.6708 1867.13 103.761C1861.08 108.876 1851.48 112 1837.32 112V114C1851.73 114 1861.87 110.824 1868.42 105.289C1875 99.7292 1877.8 91.9176 1877.8 83H1875.8ZM1837.32 112H1762.56V114H1837.32V112ZM1763.29 113.688L1782.85 93.0479L1781.4 91.6721L1761.84 112.312L1763.29 113.688ZM1782.12 93.36H1842.96V91.36H1782.12V93.36ZM1842.96 93.36C1846.39 93.36 1849.05 92.8169 1850.87 91.5061C1852.76 90.1421 1853.56 88.0828 1853.56 85.52H1851.56C1851.56 87.6372 1850.93 88.9979 1849.7 89.8839C1848.4 90.8231 1846.26 91.36 1842.96 91.36V93.36ZM1853.56 85.52C1853.56 83.5906 1852.79 82.0548 1851.21 81.0593C1849.71 80.1146 1847.59 79.72 1845 79.72V81.72C1847.45 81.72 1849.12 82.1054 1850.14 82.7507C1851.08 83.3452 1851.56 84.2094 1851.56 85.52H1853.56ZM1845 79.72H1801.2V81.72H1845V79.72ZM1801.2 79.72C1792.2 79.72 1785.86 77.8221 1781.78 74.637C1777.74 71.482 1775.8 66.9654 1775.8 61.4H1773.8C1773.8 67.4746 1775.95 72.618 1780.55 76.213C1785.11 79.7779 1791.96 81.72 1801.2 81.72V79.72ZM1775.8 61.4C1775.8 53.483 1778.5 46.6218 1784.53 41.7154C1790.58 36.7841 1800.13 33.72 1814.04 33.72V31.72C1799.88 31.72 1789.81 34.8359 1783.26 40.1646C1776.69 45.5181 1773.8 52.997 1773.8 61.4H1775.8ZM1814.04 33.72H1883.76V31.72H1814.04V33.72ZM1883.04 32.0341L1863.36 52.9141L1864.81 54.2859L1884.49 33.4059L1883.04 32.0341ZM1864.08 52.6H1808.4V54.6H1864.08V52.6ZM1808.4 52.6C1805 52.6 1802.35 53.0453 1800.53 54.2704C1798.61 55.562 1797.8 57.5814 1797.8 60.2H1799.8C1799.8 58.0185 1800.44 56.738 1801.64 55.9296C1802.94 55.0547 1805.08 54.6 1808.4 54.6V52.6ZM1797.8 60.2C1797.8 61.1402 1797.99 62.003 1798.4 62.7592C1798.82 63.5199 1799.43 64.1144 1800.21 64.5614C1801.72 65.4318 1803.86 65.76 1806.48 65.76V63.76C1803.95 63.76 1802.25 63.4282 1801.21 62.8286C1800.71 62.5406 1800.37 62.1976 1800.16 61.7995C1799.94 61.397 1799.8 60.8798 1799.8 60.2H1797.8Z" fill="url(#paint4_linear_431_418)"/>
</g>
<defs>
<filter id="filter0_b_431_418" x="228.09" y="30.4" width="1695.67" height="112.92" filterUnits="userSpaceOnUse" color-interpolation-filters="sRGB">
<feFlood flood-opacity="0" result="BackgroundImageFix"/>
<feGaussianBlur in="BackgroundImageFix" stdDeviation="7.5"/>
<feComposite in2="SourceAlpha" operator="in" result="effect1_backgroundBlur_431_418"/>
<feBlend mode="normal" in="SourceGraphic" in2="effect1_backgroundBlur_431_418" result="shape"/>
</filter>
<filter id="filter1_b_431_418" x="216.09" y="23.4" width="1695.67" height="112.92" filterUnits="userSpaceOnUse" color-interpolation-filters="sRGB">
<feFlood flood-opacity="0" result="BackgroundImageFix"/>
<feGaussianBlur in="BackgroundImageFix" stdDeviation="7.5"/>
<feComposite in2="SourceAlpha" operator="in" result="effect1_backgroundBlur_431_418"/>
<feBlend mode="normal" in="SourceGraphic" in2="effect1_backgroundBlur_431_418" result="shape"/>
</filter>
<filter id="filter2_b_431_418" x="203.09" y="16.4" width="1695.67" height="112.92" filterUnits="userSpaceOnUse" color-interpolation-filters="sRGB">
<feFlood flood-opacity="0" result="BackgroundImageFix"/>
<feGaussianBlur in="BackgroundImageFix" stdDeviation="7.5"/>
<feComposite in2="SourceAlpha" operator="in" result="effect1_backgroundBlur_431_418"/>
<feBlend mode="normal" in="SourceGraphic" in2="effect1_backgroundBlur_431_418" result="shape"/>
</filter>
<linearGradient id="paint0_linear_431_418" x1="1067.37" y1="32.1126" x2="1067.37" y2="76.9763" gradientUnits="userSpaceOnUse">
<stop stop-color="#6BC8F6"/>
<stop offset="1" stop-color="#927BFB"/>
</linearGradient>
<linearGradient id="paint1_linear_431_418" x1="1191.48" y1="30.8764" x2="1191.48" y2="75.5174" gradientUnits="userSpaceOnUse">
<stop stop-color="#6BC7F5"/>
<stop offset="1" stop-color="#927AFB"/>
</linearGradient>
<linearGradient id="paint2_linear_431_418" x1="1055.37" y1="25.498" x2="1055.37" y2="71.3162" gradientUnits="userSpaceOnUse">
<stop stop-color="#6BC8F6"/>
<stop offset="1" stop-color="#927BFB"/>
</linearGradient>
<linearGradient id="paint3_linear_431_418" x1="1179.48" y1="24.2355" x2="1179.48" y2="69.8263" gradientUnits="userSpaceOnUse">
<stop stop-color="#6BC7F5"/>
<stop offset="1" stop-color="#927AFB"/>
</linearGradient>
<linearGradient id="paint4_linear_431_418" x1="1166.48" y1="17.7143" x2="1166.48" y2="64.5714" gradientUnits="userSpaceOnUse">
<stop stop-color="#6BC7F5"/>
<stop offset="1" stop-color="#927AFB"/>
</linearGradient>
</defs>
</svg>
