<svg width="1282" height="291" viewBox="0 0 1282 291" fill="none" xmlns="http://www.w3.org/2000/svg">
<g opacity="0.25" filter="url(#filter0_b_431_416)">
<path d="M322.249 72.9298C322.249 92.8498 304.849 106.89 277.009 106.89H235.009L231.409 127.41H206.689L213.889 86.3698H283.009C291.649 86.3698 296.929 81.9298 296.929 75.6898C296.929 71.0098 293.209 68.0098 286.249 68.0098H217.129L237.289 47.1298H287.689C310.009 47.1298 322.249 57.5698 322.249 72.9298ZM438.659 127.41H345.299L364.019 106.77H384.059C388.979 106.77 394.499 106.77 398.339 107.01C396.659 104.13 394.139 99.2098 392.219 95.3698L381.539 74.1298L334.499 127.41H305.099L369.419 54.8098C373.619 50.1298 379.259 45.8098 387.059 45.8098C394.499 45.8098 398.699 49.7698 401.339 54.8098L438.659 127.41ZM554.071 111.81L566.191 127.41H532.951L518.791 106.17H480.631L476.911 127.41H452.071L459.271 86.3698H529.111C537.391 86.3698 544.591 82.4098 544.591 75.9298C544.591 70.6498 540.031 68.0098 532.351 68.0098H462.511L482.431 47.1298H534.031C550.831 47.1298 570.751 52.2898 570.751 71.4898C570.751 86.0098 560.311 98.2498 544.831 101.25C547.111 103.29 549.631 106.17 554.071 111.81ZM602.723 47.1298H693.923L674.003 68.0098H645.443L634.883 127.41H610.043L620.483 68.0098H582.803L602.723 47.1298ZM731.31 47.1298L717.15 127.41H692.31L706.59 47.1298H731.31ZM765.974 106.77H834.374L814.694 127.41H737.414L751.694 47.1298H844.574L824.774 68.0098H772.814L771.134 77.6098H834.614L817.334 95.8498H767.894L765.974 106.77ZM883.172 79.1698H926.852C944.252 79.1698 953.492 85.4098 953.492 97.4098C953.492 114.81 942.572 127.41 914.012 127.41H839.252L858.812 106.77H919.652C926.372 106.77 929.252 104.61 929.252 99.9298C929.252 96.6898 926.732 95.1298 921.692 95.1298H877.892C859.652 95.1298 851.492 87.4498 851.492 75.8098C851.492 59.4898 862.652 47.1298 890.732 47.1298H960.452L940.772 68.0098H885.092C878.372 68.0098 875.492 69.8098 875.492 74.6098C875.492 77.8498 878.012 79.1698 883.172 79.1698ZM1114.74 106.77L1095.3 127.41H1045.02C1023.18 127.41 1016.1 119.25 1016.1 108.33C1016.1 95.9698 1023.78 88.4098 1032.3 86.1298C1027.86 84.3298 1023.9 79.8898 1023.9 72.5698C1023.9 56.0098 1038.3 47.1298 1059.78 47.1298H1093.38L1073.7 68.0098H1055.1C1051.14 68.0098 1047.06 69.3298 1047.06 74.0098C1047.06 77.4898 1049.94 78.5698 1053.18 78.5698H1118.34L1102.38 95.7298H1089.18L1087.26 106.77H1114.74ZM1041.78 102.21C1041.78 105.21 1043.94 106.77 1048.62 106.77H1067.22L1069.14 95.7298H1050.54C1044.42 95.7298 1041.78 98.1298 1041.78 102.21Z" fill="url(#paint0_linear_431_416)" fill-opacity="0.35"/>
<path d="M235.009 106.89V106.14H234.379L234.271 106.76L235.009 106.89ZM231.409 127.41V128.16H232.039L232.148 127.539L231.409 127.41ZM206.689 127.41L205.951 127.28L205.796 128.16H206.689V127.41ZM213.889 86.3698V85.6198H213.259L213.151 86.2402L213.889 86.3698ZM217.129 68.0098L216.59 67.4888L215.363 68.7598H217.129V68.0098ZM237.289 47.1298V46.3798H236.971L236.75 46.6088L237.289 47.1298ZM321.499 72.9298C321.499 82.6491 317.264 90.9219 309.613 96.7845C301.947 102.659 290.811 106.14 277.009 106.14V107.64C291.048 107.64 302.532 104.1 310.526 97.9751C318.535 91.8377 322.999 83.1305 322.999 72.9298H321.499ZM277.009 106.14H235.009V107.64H277.009V106.14ZM234.271 106.76L230.671 127.28L232.148 127.539L235.748 107.019L234.271 106.76ZM231.409 126.66H206.689V128.16H231.409V126.66ZM207.428 127.539L214.628 86.4994L213.151 86.2402L205.951 127.28L207.428 127.539ZM213.889 87.1198H283.009V85.6198H213.889V87.1198ZM283.009 87.1198C287.451 87.1198 291.109 85.9788 293.673 83.959C296.253 81.9277 297.679 79.0411 297.679 75.6898H296.179C296.179 78.5785 294.966 81.0319 292.745 82.7806C290.51 84.5408 287.208 85.6198 283.009 85.6198V87.1198ZM297.679 75.6898C297.679 73.1272 296.648 70.9775 294.646 69.4924C292.672 68.0283 289.824 67.2598 286.249 67.2598V68.7598C289.635 68.7598 292.127 69.4913 293.753 70.6972C295.35 71.8821 296.179 73.5724 296.179 75.6898H297.679ZM286.249 67.2598H217.129V68.7598H286.249V67.2598ZM217.669 68.5307L237.829 47.6507L236.75 46.6088L216.59 67.4888L217.669 68.5307ZM237.289 47.8798H287.689V46.3798H237.289V47.8798ZM287.689 47.8798C298.743 47.8798 307.202 50.4659 312.88 54.8628C318.537 59.2432 321.499 65.4693 321.499 72.9298H322.999C322.999 65.0303 319.842 58.3563 313.799 53.6768C307.777 49.0137 298.956 46.3798 287.689 46.3798V47.8798ZM438.659 127.41V128.16H439.888L439.326 127.067L438.659 127.41ZM345.299 127.41L344.743 126.906L343.606 128.16H345.299V127.41ZM364.019 106.77V106.02H363.686L363.463 106.266L364.019 106.77ZM398.339 107.01L398.292 107.758L399.695 107.846L398.987 106.632L398.339 107.01ZM392.219 95.3698L392.89 95.0344L392.889 95.0329L392.219 95.3698ZM381.539 74.1298L382.209 73.7929L381.711 72.802L380.976 73.6334L381.539 74.1298ZM334.499 127.41V128.16H334.837L335.061 127.906L334.499 127.41ZM305.099 127.41L304.537 126.912L303.432 128.16H305.099V127.41ZM369.419 54.8098L368.861 54.3088L368.857 54.3124L369.419 54.8098ZM401.339 54.8098L402.006 54.4669L402.003 54.4618L401.339 54.8098ZM438.659 126.66H345.299V128.16H438.659V126.66ZM345.854 127.914L364.574 107.274L363.463 106.266L344.743 126.906L345.854 127.914ZM364.019 107.52H384.059V106.02H364.019V107.52ZM384.059 107.52C388.988 107.52 394.481 107.52 398.292 107.758L398.385 106.261C394.517 106.019 388.969 106.02 384.059 106.02V107.52ZM398.987 106.632C397.32 103.776 394.811 98.8765 392.89 95.0344L391.548 95.7052C393.467 99.5431 395.997 104.484 397.691 107.388L398.987 106.632ZM392.889 95.0329L382.209 73.7929L380.869 74.4667L391.549 95.7067L392.889 95.0329ZM380.976 73.6334L333.936 126.913L335.061 127.906L382.101 74.6262L380.976 73.6334ZM334.499 126.66H305.099V128.16H334.499V126.66ZM305.66 127.907L369.98 55.3071L368.857 54.3124L304.537 126.912L305.66 127.907ZM369.977 55.3107C374.116 50.6987 379.569 46.5598 387.059 46.5598V45.0598C378.949 45.0598 373.122 49.5608 368.861 54.3089L369.977 55.3107ZM387.059 46.5598C390.636 46.5598 393.393 47.5087 395.568 49.0338C397.752 50.5652 399.391 52.7081 400.674 55.1578L402.003 54.4618C400.646 51.8714 398.866 49.5144 396.429 47.8057C393.984 46.0908 390.921 45.0598 387.059 45.0598V46.5598ZM400.672 55.1527L437.992 127.753L439.326 127.067L402.006 54.4669L400.672 55.1527ZM554.071 111.81L554.663 111.35L554.66 111.346L554.071 111.81ZM566.191 127.41V128.16H567.723L566.783 126.95L566.191 127.41ZM532.951 127.41L532.327 127.826L532.549 128.16H532.951V127.41ZM518.791 106.17L519.415 105.754L519.192 105.42H518.791V106.17ZM480.631 106.17V105.42H480.001L479.892 106.04L480.631 106.17ZM476.911 127.41V128.16H477.541L477.649 127.539L476.911 127.41ZM452.071 127.41L451.332 127.28L451.178 128.16H452.071V127.41ZM459.271 86.3698V85.6198H458.641L458.532 86.2402L459.271 86.3698ZM462.511 68.0098L461.968 67.4921L460.758 68.7598H462.511V68.0098ZM482.431 47.1298V46.3798H482.11L481.888 46.6121L482.431 47.1298ZM544.831 101.25L544.688 100.513L543.204 100.801L544.33 101.809L544.831 101.25ZM553.478 112.27L565.598 127.87L566.783 126.95L554.663 111.35L553.478 112.27ZM566.191 126.66H532.951V128.16H566.191V126.66ZM533.575 126.994L519.415 105.754L518.167 106.586L532.327 127.826L533.575 126.994ZM518.791 105.42H480.631V106.92H518.791V105.42ZM479.892 106.04L476.172 127.28L477.649 127.539L481.369 106.299L479.892 106.04ZM476.911 126.66H452.071V128.16H476.911V126.66ZM452.809 127.539L460.009 86.4994L458.532 86.2402L451.332 127.28L452.809 127.539ZM459.271 87.1198H529.111V85.6198H459.271V87.1198ZM529.111 87.1198C533.358 87.1198 537.376 86.1058 540.358 84.2129C543.351 82.3124 545.341 79.4888 545.341 75.9298H543.841C543.841 78.8508 542.23 81.2471 539.554 82.9466C536.865 84.6537 533.143 85.6198 529.111 85.6198V87.1198ZM545.341 75.9298C545.341 73.0315 544.068 70.8118 541.75 69.3548C539.479 67.9277 536.256 67.2598 532.351 67.2598V68.7598C536.125 68.7598 539.022 69.4119 540.951 70.6248C542.833 71.8077 543.841 73.5481 543.841 75.9298H545.341ZM532.351 67.2598H462.511V68.7598H532.351V67.2598ZM463.053 68.5275L482.973 47.6475L481.888 46.6121L461.968 67.4921L463.053 68.5275ZM482.431 47.8798H534.031V46.3798H482.431V47.8798ZM534.031 47.8798C542.375 47.8798 551.417 49.1646 558.344 52.7749C565.224 56.3606 570.001 62.2194 570.001 71.4898H571.501C571.501 61.5602 566.317 55.239 559.037 51.4447C551.804 47.675 542.486 46.3798 534.031 46.3798V47.8798ZM570.001 71.4898C570.001 85.6201 559.846 97.5759 544.688 100.513L544.973 101.986C560.775 98.9237 571.501 86.3995 571.501 71.4898H570.001ZM544.33 101.809C546.557 103.801 549.042 106.635 553.481 112.274L554.66 111.346C550.219 105.705 547.664 102.779 545.331 100.691L544.33 101.809ZM602.723 47.1298V46.3798H602.402L602.18 46.6121L602.723 47.1298ZM693.923 47.1298L694.466 47.6475L695.675 46.3798H693.923V47.1298ZM674.003 68.0098V68.7598H674.324L674.546 68.5275L674.003 68.0098ZM645.443 68.0098V67.2598H644.815L644.705 67.8785L645.443 68.0098ZM634.883 127.41V128.16H635.511L635.621 127.541L634.883 127.41ZM610.043 127.41L609.304 127.28L609.15 128.16H610.043V127.41ZM620.483 68.0098L621.222 68.1396L621.376 67.2598H620.483V68.0098ZM582.803 68.0098L582.26 67.4921L581.051 68.7598H582.803V68.0098ZM602.723 47.8798H693.923V46.3798H602.723V47.8798ZM693.38 46.6121L673.46 67.4921L674.546 68.5275L694.466 47.6475L693.38 46.6121ZM674.003 67.2598H645.443V68.7598H674.003V67.2598ZM644.705 67.8785L634.145 127.279L635.621 127.541L646.181 68.1411L644.705 67.8785ZM634.883 126.66H610.043V128.16H634.883V126.66ZM610.782 127.54L621.222 68.1396L619.744 67.88L609.304 127.28L610.782 127.54ZM620.483 67.2598H582.803V68.7598H620.483V67.2598ZM583.346 68.5275L603.266 47.6475L602.18 46.6121L582.26 67.4921L583.346 68.5275ZM731.31 47.1298L732.048 47.2601L732.204 46.3798H731.31V47.1298ZM717.15 127.41V128.16H717.779L717.888 127.54L717.15 127.41ZM692.31 127.41L691.571 127.278L691.414 128.16H692.31V127.41ZM706.59 47.1298V46.3798H705.961L705.851 46.9984L706.59 47.1298ZM730.571 46.9995L716.411 127.28L717.888 127.54L732.048 47.2601L730.571 46.9995ZM717.15 126.66H692.31V128.16H717.15V126.66ZM693.048 127.541L707.328 47.2611L705.851 46.9984L691.571 127.278L693.048 127.541ZM706.59 47.8798H731.31V46.3798H706.59V47.8798ZM765.974 106.77L765.235 106.64L765.08 107.52H765.974V106.77ZM834.374 106.77L834.917 107.287L836.125 106.02H834.374V106.77ZM814.694 127.41V128.16H815.015L815.237 127.927L814.694 127.41ZM737.414 127.41L736.675 127.278L736.519 128.16H737.414V127.41ZM751.694 47.1298V46.3798H751.065L750.955 46.9984L751.694 47.1298ZM844.574 47.1298L845.118 47.6459L846.319 46.3798H844.574V47.1298ZM824.774 68.0098V68.7598H825.096L825.318 68.5259L824.774 68.0098ZM772.814 68.0098V67.2598H772.184L772.075 67.8805L772.814 68.0098ZM771.134 77.6098L770.395 77.4805L770.241 78.3598H771.134V77.6098ZM834.614 77.6098L835.158 78.1256L836.357 76.8598H834.614V77.6098ZM817.334 95.8498V96.5998H817.656L817.878 96.3656L817.334 95.8498ZM767.894 95.8498V95.0998H767.264L767.155 95.7199L767.894 95.8498ZM765.974 107.52H834.374V106.02H765.974V107.52ZM833.831 106.252L814.151 126.892L815.237 127.927L834.917 107.287L833.831 106.252ZM814.694 126.66H737.414V128.16H814.694V126.66ZM738.152 127.541L752.432 47.2611L750.955 46.9984L736.675 127.278L738.152 127.541ZM751.694 47.8798H844.574V46.3798H751.694V47.8798ZM844.029 46.6137L824.229 67.4937L825.318 68.5259L845.118 47.6459L844.029 46.6137ZM824.774 67.2598H772.814V68.7598H824.774V67.2598ZM772.075 67.8805L770.395 77.4805L771.872 77.7391L773.552 68.1391L772.075 67.8805ZM771.134 78.3598H834.614V76.8598H771.134V78.3598ZM834.069 77.094L816.789 95.334L817.878 96.3656L835.158 78.1256L834.069 77.094ZM817.334 95.0998H767.894V96.5998H817.334V95.0998ZM767.155 95.7199L765.235 106.64L766.712 106.9L768.632 95.9797L767.155 95.7199ZM839.252 127.41L838.708 126.894L837.508 128.16H839.252V127.41ZM858.812 106.77V106.02H858.49L858.268 106.254L858.812 106.77ZM960.452 47.1298L960.998 47.6442L962.19 46.3798H960.452V47.1298ZM940.772 68.0098V68.7598H941.096L941.318 68.5242L940.772 68.0098ZM883.172 79.9198H926.852V78.4198H883.172V79.9198ZM926.852 79.9198C935.484 79.9198 941.968 81.471 946.275 84.4093C950.535 87.316 952.742 91.6326 952.742 97.4098H954.242C954.242 91.1869 951.83 86.3835 947.12 83.1702C942.457 79.9885 935.621 78.4198 926.852 78.4198V79.9198ZM952.742 97.4098C952.742 105.947 950.07 113.213 943.978 118.362C937.865 123.529 928.197 126.66 914.012 126.66V128.16C928.388 128.16 938.46 124.991 944.947 119.508C951.455 114.007 954.242 106.273 954.242 97.4098H952.742ZM914.012 126.66H839.252V128.16H914.012V126.66ZM839.797 127.926L859.357 107.286L858.268 106.254L838.708 126.894L839.797 127.926ZM858.812 107.52H919.652V106.02H858.812V107.52ZM919.652 107.52C923.063 107.52 925.658 106.977 927.411 105.713C929.22 104.409 930.002 102.437 930.002 99.9298H928.502C928.502 102.103 927.845 103.551 926.534 104.496C925.167 105.482 922.962 106.02 919.652 106.02V107.52ZM930.002 99.9298C930.002 98.0777 929.261 96.6259 927.763 95.6805C926.325 94.7733 924.265 94.3798 921.692 94.3798V95.8798C924.16 95.8798 925.88 96.2663 926.962 96.9491C927.984 97.5937 928.502 98.5419 928.502 99.9298H930.002ZM921.692 94.3798H877.892V95.8798H921.692V94.3798ZM877.892 94.3798C868.862 94.3798 862.452 92.4763 858.314 89.2438C854.205 86.0338 852.242 81.4389 852.242 75.8098H850.742C850.742 81.8207 852.859 86.8858 857.391 90.4258C861.893 93.9432 868.683 95.8798 877.892 95.8798V94.3798ZM852.242 75.8098C852.242 67.832 854.962 60.8937 861.056 55.9314C867.173 50.9503 876.789 47.8798 890.732 47.8798V46.3798C876.596 46.3798 866.592 49.4892 860.109 54.7682C853.603 60.0659 850.742 67.4675 850.742 75.8098H852.242ZM890.732 47.8798H960.452V46.3798H890.732V47.8798ZM959.907 46.6154L940.227 67.4954L941.318 68.5242L960.998 47.6442L959.907 46.6154ZM940.772 67.2598H885.092V68.7598H940.772V67.2598ZM885.092 67.2598C881.702 67.2598 879.109 67.7063 877.354 68.8876C875.524 70.1188 874.742 72.0459 874.742 74.6098H876.242C876.242 72.3737 876.9 71.0008 878.191 70.132C879.556 69.2133 881.763 68.7598 885.092 68.7598V67.2598ZM874.742 74.6098C874.742 75.5175 874.919 76.337 875.309 77.049C875.7 77.7644 876.282 78.3275 877.023 78.7546C878.474 79.5911 880.559 79.9198 883.172 79.9198V78.4198C880.626 78.4198 878.871 78.0885 877.772 77.455C877.238 77.1471 876.867 76.7727 876.625 76.3293C876.38 75.8825 876.242 75.3221 876.242 74.6098H874.742ZM1114.74 106.77L1115.28 107.284L1116.47 106.02H1114.74V106.77ZM1095.3 127.41V128.16H1095.62L1095.84 127.924L1095.3 127.41ZM1032.3 86.1298L1032.49 86.8543L1034.65 86.2757L1032.58 85.4347L1032.3 86.1298ZM1093.38 47.1298L1093.92 47.6442L1095.11 46.3798H1093.38V47.1298ZM1073.7 68.0098V68.7598H1074.02L1074.24 68.5242L1073.7 68.0098ZM1118.34 78.5698L1118.89 79.0806L1120.06 77.8198H1118.34V78.5698ZM1102.38 95.7298V96.4798H1102.7L1102.93 96.2406L1102.38 95.7298ZM1089.18 95.7298V94.9798H1088.55L1088.44 95.6013L1089.18 95.7298ZM1087.26 106.77L1086.52 106.641L1086.37 107.52H1087.26V106.77ZM1067.22 106.77V107.52H1067.85L1067.96 106.898L1067.22 106.77ZM1069.14 95.7298L1069.88 95.8583L1070.03 94.9798H1069.14V95.7298ZM1114.19 106.256L1094.75 126.896L1095.84 127.924L1115.28 107.284L1114.19 106.256ZM1095.3 126.66H1045.02V128.16H1095.3V126.66ZM1045.02 126.66C1034.17 126.66 1027.13 124.629 1022.82 121.367C1018.55 118.135 1016.85 113.613 1016.85 108.33H1015.35C1015.35 113.967 1017.18 118.984 1021.91 122.563C1026.6 126.11 1034.03 128.16 1045.02 128.16V126.66ZM1016.85 108.33C1016.85 96.3361 1024.27 89.0536 1032.49 86.8543L1032.1 85.4053C1023.28 87.7659 1015.35 95.6035 1015.35 108.33H1016.85ZM1032.58 85.4347C1028.41 83.7454 1024.65 79.5737 1024.65 72.5698H1023.15C1023.15 80.2059 1027.3 84.9142 1032.02 86.8248L1032.58 85.4347ZM1024.65 72.5698C1024.65 64.5421 1028.12 58.412 1034.2 54.2592C1040.32 50.0837 1049.13 47.8798 1059.78 47.8798V46.3798C1048.95 46.3798 1039.81 48.6158 1033.36 53.0203C1026.87 57.4476 1023.15 64.0375 1023.15 72.5698H1024.65ZM1059.78 47.8798H1093.38V46.3798H1059.78V47.8798ZM1092.83 46.6154L1073.15 67.4954L1074.24 68.5242L1093.92 47.6442L1092.83 46.6154ZM1073.7 67.2598H1055.1V68.7598H1073.7V67.2598ZM1055.1 67.2598C1053.06 67.2598 1050.89 67.5963 1049.2 68.6128C1047.47 69.6618 1046.31 71.4036 1046.31 74.0098H1047.81C1047.81 71.936 1048.69 70.6778 1049.98 69.8968C1051.33 69.0833 1053.18 68.7598 1055.1 68.7598V67.2598ZM1046.31 74.0098C1046.31 75.9987 1047.15 77.3832 1048.5 78.2303C1049.8 79.0435 1051.5 79.3198 1053.18 79.3198V77.8198C1051.62 77.8198 1050.25 77.5561 1049.3 76.9593C1048.4 76.3963 1047.81 75.5009 1047.81 74.0098H1046.31ZM1053.18 79.3198H1118.34V77.8198H1053.18V79.3198ZM1117.79 78.059L1101.83 95.219L1102.93 96.2406L1118.89 79.0806L1117.79 78.059ZM1102.38 94.9798H1089.18V96.4798H1102.38V94.9798ZM1088.44 95.6013L1086.52 106.641L1088 106.898L1089.92 95.8583L1088.44 95.6013ZM1087.26 107.52H1114.74V106.02H1087.26V107.52ZM1041.03 102.21C1041.03 103.917 1041.66 105.309 1043.02 106.235C1044.33 107.125 1046.22 107.52 1048.62 107.52V106.02C1046.34 106.02 1044.81 105.635 1043.86 104.995C1042.98 104.391 1042.53 103.502 1042.53 102.21H1041.03ZM1048.62 107.52H1067.22V106.02H1048.62V107.52ZM1067.96 106.898L1069.88 95.8583L1068.4 95.6013L1066.48 106.641L1067.96 106.898ZM1069.14 94.9798H1050.54V96.4798H1069.14V94.9798ZM1050.54 94.9798C1047.4 94.9798 1045.01 95.5916 1043.4 96.8481C1041.75 98.1319 1041.03 99.9955 1041.03 102.21H1042.53C1042.53 100.344 1043.12 98.9677 1044.32 98.0315C1045.56 97.0679 1047.55 96.4798 1050.54 96.4798V94.9798Z" fill="url(#paint1_linear_431_416)"/>
</g>
<g opacity="0.6" filter="url(#filter1_b_431_416)">
<path d="M310.369 66.0162C310.369 85.9362 292.969 99.9762 265.129 99.9762H223.129L219.529 120.496H194.809L202.009 79.4562H271.129C279.769 79.4562 285.049 75.0162 285.049 68.7762C285.049 64.0962 281.329 61.0962 274.369 61.0962H205.249L225.409 40.2162H275.809C298.129 40.2162 310.369 50.6562 310.369 66.0162ZM426.779 120.496H333.419L352.139 99.8562H372.179C377.099 99.8562 382.619 99.8562 386.459 100.096C384.779 97.2162 382.259 92.2962 380.339 88.4562L369.659 67.2162L322.619 120.496H293.219L357.539 47.8962C361.739 43.2162 367.379 38.8962 375.179 38.8962C382.619 38.8962 386.819 42.8562 389.459 47.8962L426.779 120.496ZM542.191 104.896L554.311 120.496H521.071L506.911 99.2562H468.751L465.031 120.496H440.191L447.391 79.4562H517.231C525.511 79.4562 532.711 75.4962 532.711 69.0162C532.711 63.7362 528.151 61.0962 520.471 61.0962H450.631L470.551 40.2162H522.151C538.951 40.2162 558.871 45.3762 558.871 64.5762C558.871 79.0962 548.431 91.3362 532.951 94.3362C535.231 96.3762 537.751 99.2562 542.191 104.896ZM590.843 40.2162H682.043L662.123 61.0962H633.563L623.003 120.496H598.163L608.603 61.0962H570.923L590.843 40.2162ZM719.43 40.2162L705.27 120.496H680.43L694.71 40.2162H719.43ZM754.094 99.8562H822.494L802.814 120.496H725.534L739.814 40.2162H832.694L812.894 61.0962H760.934L759.254 70.6962H822.734L805.454 88.9362H756.014L754.094 99.8562ZM871.293 72.2562H914.973C932.373 72.2562 941.613 78.4962 941.613 90.4962C941.613 107.896 930.693 120.496 902.133 120.496H827.373L846.933 99.8562H907.773C914.493 99.8562 917.373 97.6962 917.373 93.0162C917.373 89.7762 914.853 88.2162 909.813 88.2162H866.013C847.773 88.2162 839.613 80.5362 839.613 68.8962C839.613 52.5762 850.773 40.2162 878.853 40.2162H948.573L928.893 61.0962H873.213C866.493 61.0962 863.613 62.8962 863.613 67.6962C863.613 70.9362 866.133 72.2562 871.293 72.2562ZM1102.86 99.8562L1083.42 120.496H1033.14C1011.3 120.496 1004.22 112.336 1004.22 101.416C1004.22 89.0562 1011.9 81.4962 1020.42 79.2162C1015.98 77.4162 1012.02 72.9762 1012.02 65.6562C1012.02 49.0962 1026.42 40.2162 1047.9 40.2162H1081.5L1061.82 61.0962H1043.22C1039.26 61.0962 1035.18 62.4162 1035.18 67.0962C1035.18 70.5762 1038.06 71.6562 1041.3 71.6562H1106.46L1090.5 88.8162H1077.3L1075.38 99.8562H1102.86ZM1029.9 95.2962C1029.9 98.2962 1032.06 99.8562 1036.74 99.8562H1055.34L1057.26 88.8162H1038.66C1032.54 88.8162 1029.9 91.2162 1029.9 95.2962Z" fill="url(#paint2_linear_431_416)" fill-opacity="0.35"/>
<path d="M223.129 99.9762V99.2262H222.5L222.391 99.8466L223.129 99.9762ZM219.529 120.496V121.246H220.159L220.268 120.626L219.529 120.496ZM194.809 120.496L194.071 120.367L193.916 121.246H194.809V120.496ZM202.009 79.4562V78.7062H201.38L201.271 79.3266L202.009 79.4562ZM205.249 61.0962L204.71 60.5753L203.483 61.8462H205.249V61.0962ZM225.409 40.2162V39.4662H225.091L224.87 39.6953L225.409 40.2162ZM309.619 66.0162C309.619 75.7355 305.384 84.0083 297.733 89.8709C290.067 95.7456 278.931 99.2262 265.129 99.2262V100.726C279.168 100.726 290.652 97.1869 298.646 91.0615C306.655 84.9241 311.119 76.2169 311.119 66.0162H309.619ZM265.129 99.2262H223.129V100.726H265.129V99.2262ZM222.391 99.8466L218.791 120.367L220.268 120.626L223.868 100.106L222.391 99.8466ZM219.529 119.746H194.809V121.246H219.529V119.746ZM195.548 120.626L202.748 79.5858L201.271 79.3266L194.071 120.367L195.548 120.626ZM202.009 80.2062H271.129V78.7062H202.009V80.2062ZM271.129 80.2062C275.571 80.2062 279.229 79.0652 281.793 77.0454C284.373 75.0141 285.799 72.1275 285.799 68.7762H284.299C284.299 71.6649 283.086 74.1183 280.865 75.867C278.63 77.6272 275.328 78.7062 271.129 78.7062V80.2062ZM285.799 68.7762C285.799 66.2136 284.769 64.0639 282.766 62.5788C280.792 61.1147 277.944 60.3462 274.369 60.3462V61.8462C277.755 61.8462 280.247 62.5777 281.873 63.7836C283.47 64.9685 284.299 66.6588 284.299 68.7762H285.799ZM274.369 60.3462H205.249V61.8462H274.369V60.3462ZM205.789 61.6172L225.949 40.7372L224.87 39.6953L204.71 60.5753L205.789 61.6172ZM225.409 40.9662H275.809V39.4662H225.409V40.9662ZM275.809 40.9662C286.863 40.9662 295.322 43.5523 301 47.9492C306.657 52.3297 309.619 58.5557 309.619 66.0162H311.119C311.119 58.1167 307.962 51.4428 301.919 46.7632C295.897 42.1001 287.076 39.4662 275.809 39.4662V40.9662ZM426.779 120.496V121.246H428.008L427.446 120.153L426.779 120.496ZM333.419 120.496L332.863 119.992L331.726 121.246H333.419V120.496ZM352.139 99.8562V99.1062H351.807L351.583 99.3524L352.139 99.8562ZM386.459 100.096L386.412 100.845L387.815 100.932L387.107 99.7183L386.459 100.096ZM380.339 88.4562L381.01 88.1208L381.009 88.1193L380.339 88.4562ZM369.659 67.2162L370.329 66.8793L369.831 65.8884L369.097 66.7198L369.659 67.2162ZM322.619 120.496V121.246H322.957L323.181 120.993L322.619 120.496ZM293.219 120.496L292.657 119.999L291.552 121.246H293.219V120.496ZM357.539 47.8962L356.981 47.3953L356.977 47.3989L357.539 47.8962ZM389.459 47.8962L390.126 47.5533L390.123 47.5482L389.459 47.8962ZM426.779 119.746H333.419V121.246H426.779V119.746ZM333.974 121L352.694 100.36L351.583 99.3524L332.863 119.992L333.974 121ZM352.139 100.606H372.179V99.1062H352.139V100.606ZM372.179 100.606C377.108 100.606 382.601 100.607 386.412 100.845L386.506 99.3477C382.637 99.1059 377.089 99.1062 372.179 99.1062V100.606ZM387.107 99.7183C385.441 96.8622 382.931 91.9629 381.01 88.1208L379.668 88.7916C381.587 92.6295 384.117 97.5703 385.811 100.474L387.107 99.7183ZM381.009 88.1193L370.329 66.8793L368.989 67.5531L379.669 88.7931L381.009 88.1193ZM369.097 66.7198L322.057 120L323.181 120.993L370.221 67.7126L369.097 66.7198ZM322.619 119.746H293.219V121.246H322.619V119.746ZM293.78 120.994L358.1 48.3936L356.977 47.3989L292.657 119.999L293.78 120.994ZM358.097 48.3971C362.236 43.7852 367.689 39.6462 375.179 39.6462V38.1462C367.069 38.1462 361.242 42.6473 356.981 47.3953L358.097 48.3971ZM375.179 39.6462C378.756 39.6462 381.514 40.5952 383.688 42.1203C385.872 43.6516 387.511 45.7946 388.794 48.2442L390.123 47.5482C388.766 44.9579 386.986 42.6008 384.549 40.8922C382.104 39.1773 379.041 38.1462 375.179 38.1462V39.6462ZM388.792 48.2391L426.112 120.839L427.446 120.153L390.126 47.5533L388.792 48.2391ZM542.191 104.896L542.783 104.436L542.78 104.432L542.191 104.896ZM554.311 120.496V121.246H555.843L554.903 120.036L554.311 120.496ZM521.071 120.496L520.447 120.912L520.669 121.246H521.071V120.496ZM506.911 99.2562L507.535 98.8402L507.312 98.5062H506.911V99.2562ZM468.751 99.2562V98.5062H468.121L468.012 99.1268L468.751 99.2562ZM465.031 120.496V121.246H465.661L465.769 120.626L465.031 120.496ZM440.191 120.496L439.452 120.367L439.298 121.246H440.191V120.496ZM447.391 79.4562V78.7062H446.761L446.652 79.3266L447.391 79.4562ZM450.631 61.0962L450.088 60.5785L448.879 61.8462H450.631V61.0962ZM470.551 40.2162V39.4662H470.23L470.008 39.6985L470.551 40.2162ZM532.951 94.3362L532.808 93.5999L531.324 93.8874L532.451 94.8951L532.951 94.3362ZM541.598 105.356L553.718 120.956L554.903 120.036L542.783 104.436L541.598 105.356ZM554.311 119.746H521.071V121.246H554.311V119.746ZM521.695 120.08L507.535 98.8402L506.287 99.6722L520.447 120.912L521.695 120.08ZM506.911 98.5062H468.751V100.006H506.911V98.5062ZM468.012 99.1268L464.292 120.367L465.769 120.626L469.489 99.3856L468.012 99.1268ZM465.031 119.746H440.191V121.246H465.031V119.746ZM440.929 120.626L448.129 79.5858L446.652 79.3266L439.452 120.367L440.929 120.626ZM447.391 80.2062H517.231V78.7062H447.391V80.2062ZM517.231 80.2062C521.479 80.2062 525.496 79.1923 528.478 77.2994C531.471 75.3989 533.461 72.5752 533.461 69.0162H531.961C531.961 71.9372 530.35 74.3336 527.674 76.0331C524.985 77.7402 521.263 78.7062 517.231 78.7062V80.2062ZM533.461 69.0162C533.461 66.1179 532.188 63.8983 529.87 62.4412C527.599 61.0141 524.377 60.3462 520.471 60.3462V61.8462C524.245 61.8462 527.142 62.4983 529.072 63.7112C530.954 64.8942 531.961 66.6345 531.961 69.0162H533.461ZM520.471 60.3462H450.631V61.8462H520.471V60.3462ZM451.173 61.6139L471.093 40.7339L470.008 39.6985L450.088 60.5785L451.173 61.6139ZM470.551 40.9662H522.151V39.4662H470.551V40.9662ZM522.151 40.9662C530.496 40.9662 539.537 42.251 546.464 45.8613C553.344 49.447 558.121 55.3058 558.121 64.5762H559.621C559.621 54.6466 554.437 48.3254 547.157 44.5311C539.924 40.7614 530.606 39.4662 522.151 39.4662V40.9662ZM558.121 64.5762C558.121 78.7065 547.966 90.6623 532.808 93.5999L533.093 95.0725C548.895 92.0101 559.621 79.4859 559.621 64.5762H558.121ZM532.451 94.8951C534.677 96.8874 537.162 99.7211 541.601 105.36L542.78 104.432C538.339 98.7913 535.784 95.8651 533.451 93.7773L532.451 94.8951ZM590.843 40.2162V39.4662H590.522L590.301 39.6985L590.843 40.2162ZM682.043 40.2162L682.586 40.7339L683.795 39.4662H682.043V40.2162ZM662.123 61.0962V61.8462H662.444L662.666 61.6139L662.123 61.0962ZM633.563 61.0962V60.3462H632.935L632.825 60.9649L633.563 61.0962ZM623.003 120.496V121.246H623.632L623.742 120.627L623.003 120.496ZM598.163 120.496L597.425 120.366L597.27 121.246H598.163V120.496ZM608.603 61.0962L609.342 61.226L609.497 60.3462H608.603V61.0962ZM570.923 61.0962L570.381 60.5785L569.171 61.8462H570.923V61.0962ZM590.843 40.9662H682.043V39.4662H590.843V40.9662ZM681.501 39.6985L661.581 60.5785L662.666 61.6139L682.586 40.7339L681.501 39.6985ZM662.123 60.3462H633.563V61.8462H662.123V60.3462ZM632.825 60.9649L622.265 120.365L623.742 120.627L634.302 61.2275L632.825 60.9649ZM623.003 119.746H598.163V121.246H623.003V119.746ZM598.902 120.626L609.342 61.226L607.865 60.9664L597.425 120.366L598.902 120.626ZM608.603 60.3462H570.923V61.8462H608.603V60.3462ZM571.466 61.6139L591.386 40.7339L590.301 39.6985L570.381 60.5785L571.466 61.6139ZM719.43 40.2162L720.168 40.3465L720.324 39.4662H719.43V40.2162ZM705.27 120.496V121.246H705.899L706.008 120.626L705.27 120.496ZM680.43 120.496L679.691 120.365L679.535 121.246H680.43V120.496ZM694.71 40.2162V39.4662H694.081L693.971 40.0849L694.71 40.2162ZM718.691 40.0859L704.531 120.366L706.008 120.626L720.168 40.3465L718.691 40.0859ZM705.27 119.746H680.43V121.246H705.27V119.746ZM681.168 120.628L695.448 40.3476L693.971 40.0849L679.691 120.365L681.168 120.628ZM694.71 40.9662H719.43V39.4662H694.71V40.9662ZM754.094 99.8562L753.355 99.7263L753.2 100.606H754.094V99.8562ZM822.494 99.8562L823.037 100.374L824.245 99.1062H822.494V99.8562ZM802.814 120.496V121.246H803.135L803.357 121.014L802.814 120.496ZM725.534 120.496L724.795 120.365L724.639 121.246H725.534V120.496ZM739.814 40.2162V39.4662H739.185L739.075 40.0849L739.814 40.2162ZM832.694 40.2162L833.238 40.7323L834.439 39.4662H832.694V40.2162ZM812.894 61.0962V61.8462H813.216L813.438 61.6123L812.894 61.0962ZM760.934 61.0962V60.3462H760.304L760.195 60.9669L760.934 61.0962ZM759.254 70.6962L758.515 70.5669L758.361 71.4462H759.254V70.6962ZM822.734 70.6962L823.278 71.212L824.477 69.9462H822.734V70.6962ZM805.454 88.9362V89.6862H805.776L805.998 89.452L805.454 88.9362ZM756.014 88.9362V88.1862H755.384L755.275 88.8063L756.014 88.9362ZM754.094 100.606H822.494V99.1062H754.094V100.606ZM821.951 99.3387L802.271 119.979L803.357 121.014L823.037 100.374L821.951 99.3387ZM802.814 119.746H725.534V121.246H802.814V119.746ZM726.272 120.628L740.552 40.3476L739.075 40.0849L724.795 120.365L726.272 120.628ZM739.814 40.9662H832.694V39.4662H739.814V40.9662ZM832.15 39.7001L812.35 60.5801L813.438 61.6123L833.238 40.7323L832.15 39.7001ZM812.894 60.3462H760.934V61.8462H812.894V60.3462ZM760.195 60.9669L758.515 70.5669L759.993 70.8255L761.673 61.2255L760.195 60.9669ZM759.254 71.4462H822.734V69.9462H759.254V71.4462ZM822.189 70.1804L804.909 88.4204L805.998 89.452L823.278 71.212L822.189 70.1804ZM805.454 88.1862H756.014V89.6862H805.454V88.1862ZM755.275 88.8063L753.355 99.7263L754.832 99.9861L756.752 89.0661L755.275 88.8063ZM827.373 120.496L826.828 119.98L825.629 121.246H827.373V120.496ZM846.933 99.8562V99.1062H846.61L846.388 99.3403L846.933 99.8562ZM948.573 40.2162L949.118 40.7306L950.31 39.4662H948.573V40.2162ZM928.893 61.0962V61.8462H929.216L929.438 61.6106L928.893 61.0962ZM871.293 73.0062H914.973V71.5062H871.293V73.0062ZM914.973 73.0062C923.604 73.0062 930.088 74.5575 934.395 77.4958C938.655 80.4025 940.863 84.7191 940.863 90.4962H942.363C942.363 84.2734 939.95 79.47 935.24 76.2567C930.577 73.075 923.741 71.5062 914.973 71.5062V73.0062ZM940.863 90.4962C940.863 99.033 938.19 106.299 932.098 111.448C925.985 116.615 916.317 119.746 902.133 119.746V121.246C916.508 121.246 926.58 118.077 933.067 112.594C939.575 107.093 942.363 99.3594 942.363 90.4962H940.863ZM902.133 119.746H827.373V121.246H902.133V119.746ZM827.917 121.012L847.477 100.372L846.388 99.3403L826.828 119.98L827.917 121.012ZM846.933 100.606H907.773V99.1062H846.933V100.606ZM907.773 100.606C911.183 100.606 913.778 100.064 915.531 98.7995C917.34 97.4953 918.123 95.5233 918.123 93.0162H916.623C916.623 95.1891 915.965 96.6372 914.654 97.5829C913.287 98.5685 911.082 99.1062 907.773 99.1062V100.606ZM918.123 93.0162C918.123 91.1641 917.381 89.7123 915.883 88.7669C914.445 87.8597 912.385 87.4662 909.813 87.4662V88.9662C912.28 88.9662 914 89.3527 915.082 90.0355C916.104 90.6801 916.623 91.6283 916.623 93.0162H918.123ZM909.813 87.4662H866.013V88.9662H909.813V87.4662ZM866.013 87.4662C856.982 87.4662 850.572 85.5628 846.434 82.3302C842.326 79.1202 840.363 74.5253 840.363 68.8962H838.863C838.863 74.9071 840.98 79.9722 845.511 83.5122C850.013 87.0297 856.803 88.9662 866.013 88.9662V87.4662ZM840.363 68.8962C840.363 60.9185 843.082 53.9801 849.176 49.0178C855.293 44.0368 864.909 40.9662 878.853 40.9662V39.4662C864.716 39.4662 854.712 42.5757 848.229 47.8546C841.723 53.1523 838.863 60.554 838.863 68.8962H840.363ZM878.853 40.9662H948.573V39.4662H878.853V40.9662ZM948.027 39.7018L928.347 60.5818L929.438 61.6106L949.118 40.7306L948.027 39.7018ZM928.893 60.3462H873.213V61.8462H928.893V60.3462ZM873.213 60.3462C869.822 60.3462 867.229 60.7927 865.474 61.974C863.645 63.2052 862.863 65.1323 862.863 67.6962H864.363C864.363 65.4601 865.021 64.0872 866.311 63.2184C867.676 62.2997 869.883 61.8462 873.213 61.8462V60.3462ZM862.863 67.6962C862.863 68.6039 863.04 69.4235 863.429 70.1355C863.82 70.8508 864.402 71.4139 865.143 71.841C866.594 72.6775 868.679 73.0062 871.293 73.0062V71.5062C868.746 71.5062 866.991 71.1749 865.892 70.5414C865.358 70.2335 864.987 69.8591 864.745 69.4157C864.501 68.969 864.363 68.4085 864.363 67.6962H862.863ZM1102.86 99.8562L1103.4 100.37L1104.59 99.1062H1102.86V99.8562ZM1083.42 120.496V121.246H1083.74L1083.96 121.01L1083.42 120.496ZM1020.42 79.2162L1020.61 79.9407L1022.77 79.3621L1020.7 78.5212L1020.42 79.2162ZM1081.5 40.2162L1082.04 40.7306L1083.23 39.4662H1081.5V40.2162ZM1061.82 61.0962V61.8462H1062.14L1062.36 61.6106L1061.82 61.0962ZM1106.46 71.6562L1107.01 72.167L1108.18 70.9062H1106.46V71.6562ZM1090.5 88.8162V89.5662H1090.82L1091.05 89.327L1090.5 88.8162ZM1077.3 88.8162V88.0662H1076.67L1076.56 88.6877L1077.3 88.8162ZM1075.38 99.8562L1074.64 99.7277L1074.49 100.606H1075.38V99.8562ZM1055.34 99.8562V100.606H1055.97L1056.08 99.9847L1055.34 99.8562ZM1057.26 88.8162L1058 88.9447L1058.15 88.0662H1057.26V88.8162ZM1102.31 99.342L1082.87 119.982L1083.96 121.01L1103.4 100.37L1102.31 99.342ZM1083.42 119.746H1033.14V121.246H1083.42V119.746ZM1033.14 119.746C1022.29 119.746 1015.25 117.716 1010.94 114.453C1006.67 111.222 1004.97 106.699 1004.97 101.416H1003.47C1003.47 107.053 1005.31 112.071 1010.03 115.649C1014.72 119.197 1022.15 121.246 1033.14 121.246V119.746ZM1004.97 101.416C1004.97 89.4225 1012.39 82.1401 1020.61 79.9407L1020.22 78.4917C1011.4 80.8524 1003.47 88.6899 1003.47 101.416H1004.97ZM1020.7 78.5212C1016.53 76.8318 1012.77 72.6601 1012.77 65.6562H1011.27C1011.27 73.2923 1015.42 78.0006 1020.14 79.9113L1020.7 78.5212ZM1012.77 65.6562C1012.77 57.6285 1016.24 51.4984 1022.32 47.3457C1028.44 43.1702 1037.25 40.9662 1047.9 40.9662V39.4662C1037.07 39.4662 1027.93 41.7023 1021.48 46.1068C1014.99 50.534 1011.27 57.1239 1011.27 65.6562H1012.77ZM1047.9 40.9662H1081.5V39.4662H1047.9V40.9662ZM1080.95 39.7018L1061.27 60.5818L1062.36 61.6106L1082.04 40.7306L1080.95 39.7018ZM1061.82 60.3462H1043.22V61.8462H1061.82V60.3462ZM1043.22 60.3462C1041.18 60.3462 1039.01 60.6827 1037.32 61.6992C1035.59 62.7482 1034.43 64.49 1034.43 67.0962H1035.93C1035.93 65.0224 1036.81 63.7642 1038.1 62.9832C1039.45 62.1697 1041.3 61.8462 1043.22 61.8462V60.3462ZM1034.43 67.0962C1034.43 69.0851 1035.27 70.4697 1036.62 71.3167C1037.92 72.1299 1039.62 72.4062 1041.3 72.4062V70.9062C1039.74 70.9062 1038.37 70.6425 1037.42 70.0457C1036.52 69.4828 1035.93 68.5873 1035.93 67.0962H1034.43ZM1041.3 72.4062H1106.46V70.9062H1041.3V72.4062ZM1105.91 71.1454L1089.95 88.3054L1091.05 89.327L1107.01 72.167L1105.91 71.1454ZM1090.5 88.0662H1077.3V89.5662H1090.5V88.0662ZM1076.56 88.6877L1074.64 99.7277L1076.12 99.9847L1078.04 88.9447L1076.56 88.6877ZM1075.38 100.606H1102.86V99.1062H1075.38V100.606ZM1029.15 95.2962C1029.15 97.0035 1029.78 98.3952 1031.14 99.3214C1032.45 100.211 1034.34 100.606 1036.74 100.606V99.1062C1034.46 99.1062 1032.93 98.7215 1031.98 98.081C1031.1 97.4773 1030.65 96.5889 1030.65 95.2962H1029.15ZM1036.74 100.606H1055.34V99.1062H1036.74V100.606ZM1056.08 99.9847L1058 88.9447L1056.52 88.6877L1054.6 99.7277L1056.08 99.9847ZM1057.26 88.0662H1038.66V89.5662H1057.26V88.0662ZM1038.66 88.0662C1035.52 88.0662 1033.13 88.6781 1031.52 89.9345C1029.87 91.2183 1029.15 93.0819 1029.15 95.2962H1030.65C1030.65 93.4305 1031.24 92.0541 1032.44 91.1179C1033.68 90.1544 1035.67 89.5662 1038.66 89.5662V88.0662Z" fill="url(#paint3_linear_431_416)"/>
</g>
<g filter="url(#filter2_b_431_416)">
<path d="M296.953 58.52C296.953 78.44 279.553 92.48 251.713 92.48H209.713L206.113 113H181.393L188.593 71.96H257.713C266.353 71.96 271.633 67.52 271.633 61.28C271.633 56.6 267.913 53.6 260.953 53.6H191.833L211.993 32.72H262.393C284.713 32.72 296.953 43.16 296.953 58.52ZM413.363 113H320.003L338.723 92.36H358.763C363.683 92.36 369.203 92.36 373.043 92.6C371.363 89.72 368.843 84.8 366.923 80.96L356.243 59.72L309.203 113H279.803L344.123 40.4C348.323 35.72 353.963 31.4 361.763 31.4C369.203 31.4 373.403 35.36 376.043 40.4L413.363 113ZM528.775 97.4L540.895 113H507.655L493.495 91.76H455.335L451.615 113H426.775L433.975 71.96H503.815C512.095 71.96 519.295 68 519.295 61.52C519.295 56.24 514.735 53.6 507.055 53.6H437.215L457.135 32.72H508.735C525.535 32.72 545.455 37.88 545.455 57.08C545.455 71.6 535.015 83.84 519.535 86.84C521.815 88.88 524.335 91.76 528.775 97.4ZM577.427 32.72H668.627L648.707 53.6H620.147L609.587 113H584.747L595.187 53.6H557.507L577.427 32.72ZM706.014 32.72L691.854 113H667.014L681.294 32.72H706.014ZM740.678 92.36H809.078L789.398 113H712.118L726.398 32.72H819.278L799.478 53.6H747.518L745.838 63.2H809.318L792.038 81.44H742.598L740.678 92.36ZM857.877 64.76H901.557C918.957 64.76 928.197 71 928.197 83C928.197 100.4 917.277 113 888.717 113H813.957L833.517 92.36H894.357C901.077 92.36 903.957 90.2 903.957 85.52C903.957 82.28 901.437 80.72 896.397 80.72H852.597C834.357 80.72 826.197 73.04 826.197 61.4C826.197 45.08 837.357 32.72 865.437 32.72H935.157L915.477 53.6H859.797C853.077 53.6 850.197 55.4 850.197 60.2C850.197 63.44 852.717 64.76 857.877 64.76ZM1089.44 92.36L1070 113H1019.72C997.881 113 990.801 104.84 990.801 93.92C990.801 81.56 998.481 74 1007 71.72C1002.56 69.92 998.601 65.48 998.601 58.16C998.601 41.6 1013 32.72 1034.48 32.72H1068.08L1048.4 53.6H1029.8C1025.84 53.6 1021.76 54.92 1021.76 59.6C1021.76 63.08 1024.64 64.16 1027.88 64.16H1093.04L1077.08 81.32H1063.88L1061.96 92.36H1089.44ZM1016.48 87.8C1016.48 90.8 1018.64 92.36 1023.32 92.36H1041.92L1043.84 81.32H1025.24C1019.12 81.32 1016.48 83.72 1016.48 87.8Z" fill="black"/>
<path d="M209.713 92.48V91.48H208.874L208.728 92.3072L209.713 92.48ZM206.113 113V114H206.953L207.098 113.173L206.113 113ZM181.393 113L180.408 112.827L180.203 114H181.393V113ZM188.593 71.96V70.96H187.754L187.608 71.7872L188.593 71.96ZM191.833 53.6L191.114 52.9054L189.478 54.6H191.833V53.6ZM211.993 32.72V31.72H211.569L211.274 32.0254L211.993 32.72ZM295.953 58.52C295.953 68.1591 291.756 76.3594 284.165 82.1762C276.553 88.0091 265.475 91.48 251.713 91.48V93.48C265.791 93.48 277.334 89.9309 285.382 83.7638C293.451 77.5805 297.953 68.8009 297.953 58.52H295.953ZM251.713 91.48H209.713V93.48H251.713V91.48ZM208.728 92.3072L205.128 112.827L207.098 113.173L210.698 92.6528L208.728 92.3072ZM206.113 112H181.393V114H206.113V112ZM182.378 113.173L189.578 72.1328L187.608 71.7872L180.408 112.827L182.378 113.173ZM188.593 72.96H257.713V70.96H188.593V72.96ZM257.713 72.96C262.196 72.96 265.912 71.8087 268.532 69.7456C271.171 67.6672 272.633 64.7084 272.633 61.28H270.633C270.633 64.0916 269.455 66.4728 267.295 68.1744C265.114 69.8913 261.871 70.96 257.713 70.96V72.96ZM272.633 61.28C272.633 58.6432 271.569 56.4169 269.499 54.8818C267.467 53.3746 264.559 52.6 260.953 52.6V54.6C264.308 54.6 266.74 55.3254 268.308 56.4882C269.838 57.6231 270.633 59.2368 270.633 61.28H272.633ZM260.953 52.6H191.833V54.6H260.953V52.6ZM192.553 54.2946L212.713 33.4146L211.274 32.0254L191.114 52.9054L192.553 54.2946ZM211.993 33.72H262.393V31.72H211.993V33.72ZM262.393 33.72C273.411 33.72 281.81 36.2981 287.431 40.6507C293.024 44.9813 295.953 51.1327 295.953 58.52H297.953C297.953 50.5473 294.763 43.7987 288.656 39.0693C282.577 34.3619 273.696 31.72 262.393 31.72V33.72ZM413.363 113V114H415.001L414.252 112.543L413.363 113ZM320.003 113L319.262 112.328L317.746 114H320.003V113ZM338.723 92.36V91.36H338.28L337.982 91.6882L338.723 92.36ZM373.043 92.6L372.98 93.5981L374.851 93.715L373.907 92.0961L373.043 92.6ZM366.923 80.96L367.817 80.5128L367.816 80.5108L366.923 80.96ZM356.243 59.72L357.136 59.2708L356.472 57.9496L355.493 59.0582L356.243 59.72ZM309.203 113V114H309.654L309.952 113.662L309.203 113ZM279.803 113L279.054 112.337L277.581 114H279.803V113ZM344.123 40.4L343.379 39.7321L343.374 39.7369L344.123 40.4ZM376.043 40.4L376.932 39.9428L376.929 39.936L376.043 40.4ZM413.363 112H320.003V114H413.363V112ZM320.744 113.672L339.464 93.0318L337.982 91.6882L319.262 112.328L320.744 113.672ZM338.723 93.36H358.763V91.36H338.723V93.36ZM358.763 93.36C363.695 93.36 369.179 93.3605 372.98 93.5981L373.105 91.6019C369.227 91.3595 363.67 91.36 358.763 91.36V93.36ZM373.907 92.0961C372.245 89.2479 369.739 84.3556 367.817 80.5128L366.028 81.4072C367.947 85.2444 370.48 90.1921 372.179 93.1039L373.907 92.0961ZM367.816 80.5108L357.136 59.2708L355.349 60.1692L366.029 81.4092L367.816 80.5108ZM355.493 59.0582L308.453 112.338L309.952 113.662L356.992 60.3818L355.493 59.0582ZM309.203 112H279.803V114H309.203V112ZM280.551 113.663L344.871 41.0631L343.374 39.7369L279.054 112.337L280.551 113.663ZM344.867 41.0679C348.986 36.4786 354.376 32.4 361.763 32.4V30.4C353.549 30.4 347.66 34.9614 343.379 39.7321L344.867 41.0679ZM361.763 32.4C365.293 32.4 367.999 33.3353 370.129 34.8287C372.27 36.3305 373.886 38.4378 375.157 40.864L376.929 39.936C375.56 37.3222 373.756 34.9295 371.277 33.1913C368.787 31.4447 365.673 30.4 361.763 30.4V32.4ZM375.153 40.8572L412.473 113.457L414.252 112.543L376.932 39.9428L375.153 40.8572ZM528.775 97.4L529.564 96.7865L529.56 96.7814L528.775 97.4ZM540.895 113V114H542.938L541.684 112.386L540.895 113ZM507.655 113L506.823 113.555L507.119 114H507.655V113ZM493.495 91.76L494.327 91.2053L494.03 90.76H493.495V91.76ZM455.335 91.76V90.76H454.495L454.35 91.5875L455.335 91.76ZM451.615 113V114H452.455L452.6 113.173L451.615 113ZM426.775 113L425.79 112.827L425.584 114H426.775V113ZM433.975 71.96V70.96H433.135L432.99 71.7872L433.975 71.96ZM437.215 53.6L436.491 52.9097L434.879 54.6H437.215V53.6ZM457.135 32.72V31.72H456.707L456.411 32.0297L457.135 32.72ZM519.535 86.84L519.344 85.8583L517.366 86.2416L518.868 87.5852L519.535 86.84ZM527.985 98.0135L540.105 113.614L541.684 112.386L529.564 96.7865L527.985 98.0135ZM540.895 112H507.655V114H540.895V112ZM508.487 112.445L494.327 91.2053L492.663 92.3147L506.823 113.555L508.487 112.445ZM493.495 90.76H455.335V92.76H493.495V90.76ZM454.35 91.5875L450.63 112.827L452.6 113.173L456.32 91.9325L454.35 91.5875ZM451.615 112H426.775V114H451.615V112ZM427.76 113.173L434.96 72.1328L432.99 71.7872L425.79 112.827L427.76 113.173ZM433.975 72.96H503.815V70.96H433.975V72.96ZM503.815 72.96C508.099 72.96 512.166 71.9381 515.196 70.0142C518.242 68.0802 520.295 65.1853 520.295 61.52H518.295C518.295 64.3347 516.748 66.6598 514.124 68.3258C511.484 70.0019 507.811 70.96 503.815 70.96V72.96ZM520.295 61.52C520.295 58.5356 518.978 56.2361 516.587 54.7334C514.26 53.2706 510.983 52.6 507.055 52.6V54.6C510.807 54.6 513.65 55.2494 515.523 56.4266C517.332 57.5639 518.295 59.2244 518.295 61.52H520.295ZM507.055 52.6H437.215V54.6H507.055V52.6ZM437.938 54.2903L457.858 33.4103L456.411 32.0297L436.491 52.9097L437.938 54.2903ZM457.135 33.72H508.735V31.72H457.135V33.72ZM508.735 33.72C517.061 33.72 526.057 35.0031 532.933 38.5868C539.746 42.1377 544.455 47.9195 544.455 57.08H546.455C546.455 47.0405 541.204 40.6423 533.857 36.8132C526.573 33.0169 517.208 31.72 508.735 31.72V33.72ZM544.455 57.08C544.455 71.0804 534.395 82.9414 519.344 85.8583L519.725 87.8217C535.634 84.7386 546.455 72.1196 546.455 57.08H544.455ZM518.868 87.5852C521.077 89.5615 523.55 92.3799 527.989 98.0186L529.56 96.7814C525.119 91.1401 522.553 88.1985 520.201 86.0948L518.868 87.5852ZM577.427 32.72V31.72H576.999L576.704 32.0297L577.427 32.72ZM668.627 32.72L669.351 33.4103L670.963 31.72H668.627V32.72ZM648.707 53.6V54.6H649.135L649.431 54.2903L648.707 53.6ZM620.147 53.6V52.6H619.309L619.163 53.425L620.147 53.6ZM609.587 113V114H610.425L610.572 113.175L609.587 113ZM584.747 113L583.762 112.827L583.556 114H584.747V113ZM595.187 53.6L596.172 53.7731L596.378 52.6H595.187V53.6ZM557.507 53.6L556.784 52.9097L555.171 54.6H557.507V53.6ZM577.427 33.72H668.627V31.72H577.427V33.72ZM667.904 32.0297L647.984 52.9097L649.431 54.2903L669.351 33.4103L667.904 32.0297ZM648.707 52.6H620.147V54.6H648.707V52.6ZM619.163 53.425L608.603 112.825L610.572 113.175L621.132 53.775L619.163 53.425ZM609.587 112H584.747V114H609.587V112ZM585.732 113.173L596.172 53.7731L594.202 53.4269L583.762 112.827L585.732 113.173ZM595.187 52.6H557.507V54.6H595.187V52.6ZM558.231 54.2903L578.151 33.4103L576.704 32.0297L556.784 52.9097L558.231 54.2903ZM706.014 32.72L706.999 32.8937L707.206 31.72H706.014V32.72ZM691.854 113V114H692.693L692.839 113.174L691.854 113ZM667.014 113L666.029 112.825L665.82 114H667.014V113ZM681.294 32.72V31.72H680.456L680.309 32.5449L681.294 32.72ZM705.029 32.5463L690.869 112.826L692.839 113.174L706.999 32.8937L705.029 32.5463ZM691.854 112H667.014V114H691.854V112ZM667.998 113.175L682.278 32.8951L680.309 32.5449L666.029 112.825L667.998 113.175ZM681.294 33.72H706.014V31.72H681.294V33.72ZM740.678 92.36L739.693 92.1868L739.487 93.36H740.678V92.36ZM809.078 92.36L809.802 93.0501L811.413 91.36H809.078V92.36ZM789.398 113V114H789.826L790.122 113.69L789.398 113ZM712.118 113L711.133 112.825L710.924 114H712.118V113ZM726.398 32.72V31.72H725.56L725.413 32.5449L726.398 32.72ZM819.278 32.72L820.003 33.4081L821.604 31.72H819.278V32.72ZM799.478 53.6V54.6H799.908L800.203 54.2881L799.478 53.6ZM747.518 53.6V52.6H746.678L746.533 53.4276L747.518 53.6ZM745.838 63.2L744.853 63.0276L744.648 64.2H745.838V63.2ZM809.318 63.2L810.044 63.8877L811.643 62.2H809.318V63.2ZM792.038 81.44V82.44H792.468L792.764 82.1277L792.038 81.44ZM742.598 81.44V80.44H741.758L741.613 81.2668L742.598 81.44ZM740.678 93.36H809.078V91.36H740.678V93.36ZM808.354 91.6699L788.674 112.31L790.122 113.69L809.802 93.0501L808.354 91.6699ZM789.398 112H712.118V114H789.398V112ZM713.102 113.175L727.382 32.8951L725.413 32.5449L711.133 112.825L713.102 113.175ZM726.398 33.72H819.278V31.72H726.398V33.72ZM818.552 32.0319L798.752 52.9119L800.203 54.2881L820.003 33.4081L818.552 32.0319ZM799.478 52.6H747.518V54.6H799.478V52.6ZM746.533 53.4276L744.853 63.0276L746.823 63.3724L748.503 53.7724L746.533 53.4276ZM745.838 64.2H809.318V62.2H745.838V64.2ZM808.592 62.5123L791.312 80.7523L792.764 82.1277L810.044 63.8877L808.592 62.5123ZM792.038 80.44H742.598V82.44H792.038V80.44ZM741.613 81.2668L739.693 92.1868L741.663 92.5332L743.583 81.6132L741.613 81.2668ZM813.957 113L813.231 112.312L811.631 114H813.957V113ZM833.517 92.36V91.36H833.087L832.791 91.6721L833.517 92.36ZM935.157 32.72L935.884 33.4059L937.473 31.72H935.157V32.72ZM915.477 53.6V54.6H915.908L916.204 54.2859L915.477 53.6ZM857.877 65.76H901.557V63.76H857.877V65.76ZM901.557 65.76C910.165 65.76 916.591 67.3083 920.838 70.2061C925.023 73.0617 927.197 77.2971 927.197 83H929.197C929.197 76.7029 926.75 71.8183 921.965 68.5539C917.242 65.3317 910.348 63.76 901.557 63.76V65.76ZM927.197 83C927.197 91.4824 924.544 98.6708 918.521 103.761C912.47 108.876 902.869 112 888.717 112V114C903.124 114 913.263 110.824 919.812 105.289C926.39 99.7292 929.197 91.9176 929.197 83H927.197ZM888.717 112H813.957V114H888.717V112ZM814.682 113.688L834.242 93.0479L832.791 91.6721L813.231 112.312L814.682 113.688ZM833.517 93.36H894.357V91.36H833.517V93.36ZM894.357 93.36C897.784 93.36 900.444 92.8169 902.261 91.5061C904.153 90.1421 904.957 88.0828 904.957 85.52H902.957C902.957 87.6372 902.32 88.9979 901.092 89.8839C899.789 90.8231 897.649 91.36 894.357 91.36V93.36ZM904.957 85.52C904.957 83.5906 904.178 82.0548 902.6 81.0593C901.103 80.1146 898.986 79.72 896.397 79.72V81.72C898.847 81.72 900.51 82.1054 901.533 82.7507C902.475 83.3452 902.957 84.2094 902.957 85.52H904.957ZM896.397 79.72H852.597V81.72H896.397V79.72ZM852.597 79.72C843.596 79.72 837.249 77.8221 833.172 74.637C829.134 71.482 827.197 66.9654 827.197 61.4H825.197C825.197 67.4746 827.339 72.618 831.941 76.213C836.504 79.7779 843.357 81.72 852.597 81.72V79.72ZM827.197 61.4C827.197 53.483 829.893 46.6218 835.918 41.7154C841.974 36.7841 851.525 33.72 865.437 33.72V31.72C851.268 31.72 841.199 34.8359 834.655 40.1646C828.081 45.5181 825.197 52.997 825.197 61.4H827.197ZM865.437 33.72H935.157V31.72H865.437V33.72ZM934.429 32.0341L914.749 52.9141L916.204 54.2859L935.884 33.4059L934.429 32.0341ZM915.477 52.6H859.797V54.6H915.477V52.6ZM859.797 52.6C856.396 52.6 853.738 53.0453 851.918 54.2704C849.999 55.562 849.197 57.5814 849.197 60.2H851.197C851.197 58.0185 851.834 56.738 853.035 55.9296C854.335 55.0547 856.477 54.6 859.797 54.6V52.6ZM849.197 60.2C849.197 61.1402 849.38 62.003 849.794 62.7592C850.21 63.5199 850.827 64.1144 851.602 64.5614C853.112 65.4318 855.252 65.76 857.877 65.76V63.76C855.341 63.76 853.641 63.4282 852.601 62.8286C852.101 62.5406 851.766 62.1976 851.548 61.7995C851.328 61.397 851.197 60.8798 851.197 60.2H849.197ZM1089.44 92.36L1090.17 93.0456L1091.76 91.36H1089.44V92.36ZM1070 113V114H1070.43L1070.73 113.686L1070 113ZM1007 71.72L1007.26 72.686L1010.14 71.9145L1007.38 70.7933L1007 71.72ZM1068.08 32.72L1068.81 33.4059L1070.4 31.72H1068.08V32.72ZM1048.4 53.6V54.6H1048.83L1049.13 54.2859L1048.4 53.6ZM1093.04 64.16L1093.77 64.841L1095.34 63.16H1093.04V64.16ZM1077.08 81.32V82.32H1077.52L1077.81 82.001L1077.08 81.32ZM1063.88 81.32V80.32H1063.04L1062.9 81.1487L1063.88 81.32ZM1061.96 92.36L1060.98 92.1887L1060.77 93.36H1061.96V92.36ZM1041.92 92.36V93.36H1042.76L1042.91 92.5313L1041.92 92.36ZM1043.84 81.32L1044.83 81.4913L1045.03 80.32H1043.84V81.32ZM1088.71 91.6744L1069.27 112.314L1070.73 113.686L1090.17 93.0456L1088.71 91.6744ZM1070 112H1019.72V114H1070V112ZM1019.72 112C1008.9 112 1001.92 109.972 997.674 106.758C993.48 103.584 991.801 99.1444 991.801 93.92H989.801C989.801 99.6156 991.662 104.716 996.468 108.352C1001.22 111.948 1008.71 114 1019.72 114V112ZM991.801 93.92C991.801 82.0484 999.141 74.8585 1007.26 72.686L1006.74 70.754C997.821 73.1415 989.801 81.0716 989.801 93.92H991.801ZM1007.38 70.7933C1003.3 69.1408 999.601 65.0586 999.601 58.16H997.601C997.601 65.9014 1001.82 70.6992 1006.63 72.6467L1007.38 70.7933ZM999.601 58.16C999.601 50.2164 1003.03 44.163 1009.05 40.0559C1015.11 35.9186 1023.86 33.72 1034.48 33.72V31.72C1023.62 31.72 1014.43 33.9614 1007.92 38.4041C1001.37 42.877 997.601 49.5436 997.601 58.16H999.601ZM1034.48 33.72H1068.08V31.72H1034.48V33.72ZM1067.35 32.0341L1047.67 52.9141L1049.13 54.2859L1068.81 33.4059L1067.35 32.0341ZM1048.4 52.6H1029.8V54.6H1048.4V52.6ZM1029.8 52.6C1027.74 52.6 1025.52 52.9387 1023.78 53.989C1021.97 55.0826 1020.76 56.9051 1020.76 59.6H1022.76C1022.76 57.6149 1023.59 56.4374 1024.81 55.701C1026.1 54.9213 1027.9 54.6 1029.8 54.6V52.6ZM1020.76 59.6C1020.76 61.6718 1021.65 63.1379 1023.07 64.0324C1024.43 64.8816 1026.18 65.16 1027.88 65.16V63.16C1026.34 63.16 1025.03 62.8984 1024.14 62.3376C1023.31 61.8221 1022.76 61.0082 1022.76 59.6H1020.76ZM1027.88 65.16H1093.04V63.16H1027.88V65.16ZM1092.31 63.479L1076.35 80.639L1077.81 82.001L1093.77 64.841L1092.31 63.479ZM1077.08 80.32H1063.88V82.32H1077.08V80.32ZM1062.9 81.1487L1060.98 92.1887L1062.95 92.5313L1064.87 81.4913L1062.9 81.1487ZM1061.96 93.36H1089.44V91.36H1061.96V93.36ZM1015.48 87.8C1015.48 89.5764 1016.14 91.0519 1017.58 92.0319C1018.95 92.963 1020.9 93.36 1023.32 93.36V91.36C1021.06 91.36 1019.59 90.977 1018.71 90.3781C1017.9 89.828 1017.48 89.0236 1017.48 87.8H1015.48ZM1023.32 93.36H1041.92V91.36H1023.32V93.36ZM1042.91 92.5313L1044.83 81.4913L1042.86 81.1487L1040.94 92.1887L1042.91 92.5313ZM1043.84 80.32H1025.24V82.32H1043.84V80.32ZM1025.24 80.32C1022.08 80.32 1019.63 80.9358 1017.95 82.2411C1016.23 83.5828 1015.48 85.5276 1015.48 87.8H1017.48C1017.48 85.9924 1018.05 84.6972 1019.18 83.8189C1020.35 82.9042 1022.28 82.32 1025.24 82.32V80.32Z" fill="url(#paint4_linear_431_416)"/>
</g>
<g opacity="0.25" filter="url(#filter3_b_431_416)">
<path d="M342.881 239.77H411.281L391.601 260.41H314.321L328.601 180.13H421.481L401.681 201.01H349.721L348.041 210.61H411.521L394.241 228.85H344.801L342.881 239.77ZM428.879 180.13H459.239L485.999 233.41L533.039 180.13H562.439L498.119 252.73C493.92 257.41 488.279 261.73 480.479 261.73C473.039 261.73 468.839 257.77 466.199 252.73L428.879 180.13ZM590.371 239.77H658.771L639.091 260.41H561.811L576.091 180.13H668.971L649.171 201.01H597.211L595.531 210.61H659.011L641.731 228.85H592.291L590.371 239.77ZM749.45 261.73C746.09 261.73 743.57 261.01 740.21 257.41L698.81 213.25L690.53 260.41H667.97L679.61 193.81C681.41 183.13 688.49 178.81 695.93 178.81C698.93 178.81 701.93 179.53 705.17 183.13L746.57 227.29L754.97 180.13H777.53L765.65 246.61C763.73 257.29 756.65 261.73 749.45 261.73ZM805.618 180.13H896.818L876.898 201.01H848.338L837.778 260.41H812.938L823.378 201.01H785.698L805.618 180.13ZM934.084 212.17H977.764C995.164 212.17 1004.4 218.41 1004.4 230.41C1004.4 247.81 993.484 260.41 964.924 260.41H890.164L909.724 239.77H970.564C977.284 239.77 980.164 237.61 980.164 232.93C980.164 229.69 977.644 228.13 972.604 228.13H928.804C910.564 228.13 902.404 220.45 902.404 208.81C902.404 192.49 913.564 180.13 941.644 180.13H1011.36L991.684 201.01H936.004C929.284 201.01 926.404 202.81 926.404 207.61C926.404 210.85 928.924 212.17 934.084 212.17Z" fill="url(#paint5_linear_431_416)" fill-opacity="0.35"/>
<path d="M342.881 239.77L342.142 239.64L341.987 240.52H342.881V239.77ZM411.281 239.77L411.824 240.287L413.032 239.02H411.281V239.77ZM391.601 260.41V261.16H391.922L392.144 260.927L391.601 260.41ZM314.321 260.41L313.582 260.278L313.426 261.16H314.321V260.41ZM328.601 180.13V179.38H327.972L327.862 179.998L328.601 180.13ZM421.481 180.13L422.025 180.646L423.226 179.38H421.481V180.13ZM401.681 201.01V201.76H402.003L402.225 201.526L401.681 201.01ZM349.721 201.01V200.26H349.091L348.982 200.881L349.721 201.01ZM348.041 210.61L347.302 210.481L347.148 211.36H348.041V210.61ZM411.521 210.61L412.065 211.126L413.264 209.86H411.521V210.61ZM394.241 228.85V229.6H394.563L394.785 229.366L394.241 228.85ZM344.801 228.85V228.1H344.171L344.062 228.72L344.801 228.85ZM342.881 240.52H411.281V239.02H342.881V240.52ZM410.738 239.252L391.058 259.892L392.144 260.927L411.824 240.287L410.738 239.252ZM391.601 259.66H314.321V261.16H391.601V259.66ZM315.059 260.541L329.339 180.261L327.862 179.998L313.582 260.278L315.059 260.541ZM328.601 180.88H421.481V179.38H328.601V180.88ZM420.937 179.614L401.137 200.494L402.225 201.526L422.025 180.646L420.937 179.614ZM401.681 200.26H349.721V201.76H401.681V200.26ZM348.982 200.881L347.302 210.481L348.78 210.739L350.46 201.139L348.982 200.881ZM348.041 211.36H411.521V209.86H348.041V211.36ZM410.976 210.094L393.696 228.334L394.785 229.366L412.065 211.126L410.976 210.094ZM394.241 228.1H344.801V229.6H394.241V228.1ZM344.062 228.72L342.142 239.64L343.619 239.9L345.539 228.98L344.062 228.72ZM428.879 180.13V179.38H427.651L428.212 180.473L428.879 180.13ZM459.239 180.13L459.91 179.793L459.702 179.38H459.239V180.13ZM485.999 233.41L485.329 233.746L485.827 234.738L486.562 233.906L485.999 233.41ZM533.039 180.13V179.38H532.701L532.477 179.633L533.039 180.13ZM562.439 180.13L563.001 180.627L564.106 179.38H562.439V180.13ZM498.119 252.73L498.678 253.231L498.681 253.227L498.119 252.73ZM466.199 252.73L465.532 253.073L465.535 253.078L466.199 252.73ZM428.879 180.88H459.239V179.38H428.879V180.88ZM458.569 180.466L485.329 233.746L486.67 233.073L459.91 179.793L458.569 180.466ZM486.562 233.906L533.602 180.626L532.477 179.633L485.437 232.913L486.562 233.906ZM533.039 180.88H562.439V179.38H533.039V180.88ZM561.878 179.632L497.558 252.232L498.681 253.227L563.001 180.627L561.878 179.632ZM497.561 252.229C493.422 256.841 487.969 260.98 480.479 260.98V262.48C488.59 262.48 494.417 257.979 498.678 253.231L497.561 252.229ZM480.479 260.98C476.902 260.98 474.145 260.031 471.97 258.506C469.787 256.974 468.147 254.831 466.864 252.382L465.535 253.078C466.892 255.668 468.672 258.025 471.109 259.734C473.554 261.449 476.617 262.48 480.479 262.48V260.98ZM466.867 252.387L429.547 179.787L428.212 180.473L465.532 253.073L466.867 252.387ZM590.371 239.77L589.633 239.64L589.478 240.52H590.371V239.77ZM658.771 239.77L659.314 240.287L660.523 239.02H658.771V239.77ZM639.091 260.41V261.16H639.413L639.634 260.927L639.091 260.41ZM561.811 260.41L561.073 260.278L560.916 261.16H561.811V260.41ZM576.091 180.13V179.38H575.463L575.353 179.998L576.091 180.13ZM668.971 180.13L669.516 180.646L670.716 179.38H668.971V180.13ZM649.171 201.01V201.76H649.494L649.716 201.526L649.171 201.01ZM597.211 201.01V200.26H596.581L596.473 200.881L597.211 201.01ZM595.531 210.61L594.793 210.481L594.639 211.36H595.531V210.61ZM659.011 210.61L659.556 211.126L660.755 209.86H659.011V210.61ZM641.731 228.85V229.6H642.054L642.276 229.366L641.731 228.85ZM592.291 228.85V228.1H591.662L591.553 228.72L592.291 228.85ZM590.371 240.52H658.771V239.02H590.371V240.52ZM658.229 239.252L638.549 259.892L639.634 260.927L659.314 240.287L658.229 239.252ZM639.091 259.66H561.811V261.16H639.091V259.66ZM562.55 260.541L576.83 180.261L575.353 179.998L561.073 260.278L562.55 260.541ZM576.091 180.88H668.971V179.38H576.091V180.88ZM668.427 179.614L648.627 200.494L649.716 201.526L669.516 180.646L668.427 179.614ZM649.171 200.26H597.211V201.76H649.171V200.26ZM596.473 200.881L594.793 210.481L596.27 210.739L597.95 201.139L596.473 200.881ZM595.531 211.36H659.011V209.86H595.531V211.36ZM658.467 210.094L641.187 228.334L642.276 229.366L659.556 211.126L658.467 210.094ZM641.731 228.1H592.291V229.6H641.731V228.1ZM591.553 228.72L589.633 239.64L591.11 239.9L593.03 228.98L591.553 228.72ZM740.21 257.41L740.758 256.898L740.757 256.897L740.21 257.41ZM698.81 213.25L699.357 212.737L698.331 211.642L698.071 213.12L698.81 213.25ZM690.53 260.41V261.16H691.16L691.269 260.539L690.53 260.41ZM667.97 260.41L667.231 260.281L667.078 261.16H667.97V260.41ZM679.61 193.81L680.349 193.939L680.35 193.934L679.61 193.81ZM705.17 183.13L704.613 183.632L704.618 183.637L704.623 183.643L705.17 183.13ZM746.57 227.29L746.023 227.803L747.046 228.894L747.308 227.421L746.57 227.29ZM754.97 180.13V179.38H754.342L754.232 179.998L754.97 180.13ZM777.53 180.13L778.268 180.262L778.426 179.38H777.53V180.13ZM765.65 246.61L766.388 246.742L766.388 246.742L765.65 246.61ZM749.45 260.98C747.825 260.98 746.467 260.805 745.126 260.23C743.78 259.654 742.393 258.649 740.758 256.898L739.662 257.922C741.388 259.771 742.94 260.926 744.535 261.609C746.133 262.294 747.715 262.48 749.45 262.48V260.98ZM740.757 256.897L699.357 212.737L698.263 213.763L739.663 257.923L740.757 256.897ZM698.071 213.12L689.791 260.28L691.269 260.539L699.549 213.379L698.071 213.12ZM690.53 259.66H667.97V261.16H690.53V259.66ZM668.709 260.539L680.349 193.939L678.871 193.681L667.231 260.281L668.709 260.539ZM680.35 193.934C681.225 188.743 683.368 185.165 686.133 182.883C688.902 180.597 692.354 179.56 695.93 179.56V178.06C692.066 178.06 688.258 179.183 685.178 181.726C682.092 184.274 679.795 188.197 678.871 193.685L680.35 193.934ZM695.93 179.56C697.368 179.56 698.763 179.732 700.175 180.313C701.585 180.894 703.055 181.901 704.613 183.632L705.728 182.628C704.045 180.759 702.396 179.606 700.746 178.926C699.097 178.247 697.492 178.06 695.93 178.06V179.56ZM704.623 183.643L746.023 227.803L747.117 226.777L705.717 182.617L704.623 183.643ZM747.308 227.421L755.708 180.261L754.232 179.998L745.832 227.158L747.308 227.421ZM754.97 180.88H777.53V179.38H754.97V180.88ZM776.792 179.998L764.912 246.478L766.388 246.742L778.268 180.262L776.792 179.998ZM764.912 246.477C763.978 251.672 761.803 255.285 759.048 257.601C756.289 259.919 752.896 260.98 749.45 260.98V262.48C753.205 262.48 756.952 261.321 760.013 258.749C763.077 256.174 765.402 252.227 766.388 246.742L764.912 246.477ZM805.618 180.13V179.38H805.297L805.075 179.612L805.618 180.13ZM896.818 180.13L897.36 180.647L898.57 179.38H896.818V180.13ZM876.898 201.01V201.76H877.219L877.44 201.527L876.898 201.01ZM848.338 201.01V200.26H847.709L847.599 200.879L848.338 201.01ZM837.778 260.41V261.16H838.406L838.516 260.541L837.778 260.41ZM812.938 260.41L812.199 260.28L812.044 261.16H812.938V260.41ZM823.378 201.01L824.116 201.14L824.271 200.26H823.378V201.01ZM785.698 201.01L785.155 200.492L783.946 201.76H785.698V201.01ZM805.618 180.88H896.818V179.38H805.618V180.88ZM896.275 179.612L876.355 200.492L877.44 201.527L897.36 180.647L896.275 179.612ZM876.898 200.26H848.338V201.76H876.898V200.26ZM847.599 200.879L837.039 260.279L838.516 260.541L849.076 201.141L847.599 200.879ZM837.778 259.66H812.938V261.16H837.778V259.66ZM813.676 260.54L824.116 201.14L822.639 200.88L812.199 260.28L813.676 260.54ZM823.378 200.26H785.698V201.76H823.378V200.26ZM786.24 201.527L806.16 180.647L805.075 179.612L785.155 200.492L786.24 201.527ZM890.164 260.41L889.62 259.894L888.42 261.16H890.164V260.41ZM909.724 239.77V239.02H909.402L909.18 239.254L909.724 239.77ZM1011.36 180.13L1011.91 180.644L1013.1 179.38H1011.36V180.13ZM991.684 201.01V201.76H992.008L992.23 201.524L991.684 201.01ZM934.084 212.92H977.764V211.42H934.084V212.92ZM977.764 212.92C986.395 212.92 992.88 214.471 997.186 217.409C1001.45 220.316 1003.65 224.633 1003.65 230.41H1005.15C1005.15 224.187 1002.74 219.384 998.032 216.17C993.369 212.989 986.533 211.42 977.764 211.42V212.92ZM1003.65 230.41C1003.65 238.947 1000.98 246.213 994.89 251.362C988.777 256.529 979.109 259.66 964.924 259.66V261.16C979.3 261.16 989.371 257.991 995.858 252.508C1002.37 247.007 1005.15 239.273 1005.15 230.41H1003.65ZM964.924 259.66H890.164V261.16H964.924V259.66ZM890.709 260.926L910.269 240.286L909.18 239.254L889.62 259.894L890.709 260.926ZM909.724 240.52H970.564V239.02H909.724V240.52ZM970.564 240.52C973.975 240.52 976.57 239.977 978.323 238.713C980.131 237.409 980.914 235.437 980.914 232.93H979.414C979.414 235.103 978.757 236.551 977.445 237.496C976.079 238.482 973.873 239.02 970.564 239.02V240.52ZM980.914 232.93C980.914 231.078 980.173 229.626 978.674 228.68C977.237 227.773 975.176 227.38 972.604 227.38V228.88C975.072 228.88 976.792 229.266 977.874 229.949C978.896 230.594 979.414 231.542 979.414 232.93H980.914ZM972.604 227.38H928.804V228.88H972.604V227.38ZM928.804 227.38C919.774 227.38 913.364 225.476 909.226 222.244C905.117 219.034 903.154 214.439 903.154 208.81H901.654C901.654 214.821 903.771 219.886 908.302 223.426C912.805 226.943 919.595 228.88 928.804 228.88V227.38ZM903.154 208.81C903.154 200.832 905.874 193.894 911.968 188.931C918.085 183.95 927.7 180.88 941.644 180.88V179.38C927.508 179.38 917.504 182.489 911.021 187.768C904.515 193.066 901.654 200.468 901.654 208.81H903.154ZM941.644 180.88H1011.36V179.38H941.644V180.88ZM1010.82 179.615L991.138 200.495L992.23 201.524L1011.91 180.644L1010.82 179.615ZM991.684 200.26H936.004V201.76H991.684V200.26ZM936.004 200.26C932.614 200.26 930.021 200.706 928.265 201.888C926.436 203.119 925.654 205.046 925.654 207.61H927.154C927.154 205.374 927.812 204.001 929.103 203.132C930.468 202.213 932.674 201.76 936.004 201.76V200.26ZM925.654 207.61C925.654 208.517 925.831 209.337 926.221 210.049C926.612 210.764 927.194 211.327 927.935 211.755C929.386 212.591 931.471 212.92 934.084 212.92V211.42C931.538 211.42 929.783 211.088 928.684 210.455C928.15 210.147 927.779 209.773 927.537 209.329C927.292 208.883 927.154 208.322 927.154 207.61H925.654Z" fill="url(#paint6_linear_431_416)"/>
</g>
<g opacity="0.6" filter="url(#filter4_b_431_416)">
<path d="M331.001 232.856H399.401L379.721 253.496H302.441L316.721 173.216H409.601L389.801 194.096H337.841L336.161 203.696H399.641L382.361 221.936H332.921L331.001 232.856ZM417 173.216H447.36L474.12 226.496L521.16 173.216H550.56L486.24 245.816C482.04 250.496 476.4 254.816 468.6 254.816C461.16 254.816 456.96 250.856 454.32 245.816L417 173.216ZM578.491 232.856H646.891L627.211 253.496H549.931L564.211 173.216H657.091L637.291 194.096H585.331L583.651 203.696H647.131L629.851 221.936H580.411L578.491 232.856ZM737.57 254.816C734.21 254.816 731.69 254.096 728.33 250.496L686.93 206.336L678.65 253.496H656.09L667.73 186.896C669.53 176.216 676.61 171.896 684.05 171.896C687.05 171.896 690.05 172.616 693.29 176.216L734.69 220.376L743.09 173.216H765.65L753.77 239.696C751.85 250.376 744.77 254.816 737.57 254.816ZM793.738 173.216H884.938L865.018 194.096H836.458L825.898 253.496H801.058L811.498 194.096H773.818L793.738 173.216ZM922.204 205.256H965.884C983.284 205.256 992.524 211.496 992.524 223.496C992.524 240.896 981.604 253.496 953.044 253.496H878.284L897.844 232.856H958.684C965.404 232.856 968.284 230.696 968.284 226.016C968.284 222.776 965.764 221.216 960.724 221.216H916.924C898.684 221.216 890.524 213.536 890.524 201.896C890.524 185.576 901.684 173.216 929.764 173.216H999.484L979.804 194.096H924.124C917.404 194.096 914.524 195.896 914.524 200.696C914.524 203.936 917.044 205.256 922.204 205.256Z" fill="url(#paint7_linear_431_416)" fill-opacity="0.35"/>
<path d="M331.001 232.856L330.262 232.726L330.107 233.606H331.001V232.856ZM399.401 232.856L399.944 233.374L401.152 232.106H399.401V232.856ZM379.721 253.496V254.246H380.042L380.264 254.014L379.721 253.496ZM302.441 253.496L301.702 253.365L301.546 254.246H302.441V253.496ZM316.721 173.216V172.466H316.092L315.982 173.085L316.721 173.216ZM409.601 173.216L410.145 173.732L411.346 172.466H409.601V173.216ZM389.801 194.096V194.846H390.123L390.345 194.612L389.801 194.096ZM337.841 194.096V193.346H337.211L337.102 193.967L337.841 194.096ZM336.161 203.696L335.422 203.567L335.268 204.446H336.161V203.696ZM399.641 203.696L400.185 204.212L401.385 202.946H399.641V203.696ZM382.361 221.936V222.686H382.683L382.905 222.452L382.361 221.936ZM332.921 221.936V221.186H332.291L332.182 221.806L332.921 221.936ZM331.001 233.606H399.401V232.106H331.001V233.606ZM398.858 232.339L379.178 252.979L380.264 254.014L399.944 233.374L398.858 232.339ZM379.721 252.746H302.441V254.246H379.721V252.746ZM303.179 253.628L317.459 173.348L315.982 173.085L301.702 253.365L303.179 253.628ZM316.721 173.966H409.601V172.466H316.721V173.966ZM409.057 172.7L389.257 193.58L390.345 194.612L410.145 173.732L409.057 172.7ZM389.801 193.346H337.841V194.846H389.801V193.346ZM337.102 193.967L335.422 203.567L336.9 203.825L338.58 194.225L337.102 193.967ZM336.161 204.446H399.641V202.946H336.161V204.446ZM399.096 203.18L381.816 221.42L382.905 222.452L400.185 204.212L399.096 203.18ZM382.361 221.186H332.921V222.686H382.361V221.186ZM332.182 221.806L330.262 232.726L331.74 232.986L333.66 222.066L332.182 221.806ZM417 173.216V172.466H415.771L416.333 173.559L417 173.216ZM447.36 173.216L448.03 172.88L447.822 172.466H447.36V173.216ZM474.12 226.496L473.449 226.833L473.947 227.824L474.682 226.993L474.12 226.496ZM521.16 173.216V172.466H520.821L520.597 172.72L521.16 173.216ZM550.56 173.216L551.121 173.714L552.226 172.466H550.56V173.216ZM486.24 245.816L486.798 246.317L486.801 246.314L486.24 245.816ZM454.32 245.816L453.653 246.159L453.655 246.164L454.32 245.816ZM417 173.966H447.36V172.466H417V173.966ZM446.689 173.553L473.449 226.833L474.79 226.16L448.03 172.88L446.689 173.553ZM474.682 226.993L521.722 173.713L520.597 172.72L473.557 226L474.682 226.993ZM521.16 173.966H550.56V172.466H521.16V173.966ZM549.998 172.719L485.678 245.319L486.801 246.314L551.121 173.714L549.998 172.719ZM485.681 245.315C481.542 249.927 476.09 254.066 468.6 254.066V255.566C476.71 255.566 482.537 251.065 486.798 246.317L485.681 245.315ZM468.6 254.066C465.022 254.066 462.265 253.117 460.09 251.592C457.907 250.061 456.267 247.918 454.984 245.468L453.655 246.164C455.012 248.755 456.793 251.112 459.229 252.82C461.674 254.535 464.737 255.566 468.6 255.566V254.066ZM454.987 245.473L417.667 172.873L416.333 173.559L453.653 246.159L454.987 245.473ZM578.491 232.856L577.753 232.726L577.598 233.606H578.491V232.856ZM646.891 232.856L647.434 233.374L648.643 232.106H646.891V232.856ZM627.211 253.496V254.246H627.533L627.754 254.014L627.211 253.496ZM549.931 253.496L549.193 253.365L549.036 254.246H549.931V253.496ZM564.211 173.216V172.466H563.583L563.473 173.085L564.211 173.216ZM657.091 173.216L657.636 173.732L658.836 172.466H657.091V173.216ZM637.291 194.096V194.846H637.614L637.836 194.612L637.291 194.096ZM585.331 194.096V193.346H584.701L584.593 193.967L585.331 194.096ZM583.651 203.696L582.913 203.567L582.759 204.446H583.651V203.696ZM647.131 203.696L647.676 204.212L648.875 202.946H647.131V203.696ZM629.851 221.936V222.686H630.174L630.396 222.452L629.851 221.936ZM580.411 221.936V221.186H579.782L579.673 221.806L580.411 221.936ZM578.491 233.606H646.891V232.106H578.491V233.606ZM646.349 232.339L626.669 252.979L627.754 254.014L647.434 233.374L646.349 232.339ZM627.211 252.746H549.931V254.246H627.211V252.746ZM550.67 253.628L564.95 173.348L563.473 173.085L549.193 253.365L550.67 253.628ZM564.211 173.966H657.091V172.466H564.211V173.966ZM656.547 172.7L636.747 193.58L637.836 194.612L657.636 173.732L656.547 172.7ZM637.291 193.346H585.331V194.846H637.291V193.346ZM584.593 193.967L582.913 203.567L584.39 203.825L586.07 194.225L584.593 193.967ZM583.651 204.446H647.131V202.946H583.651V204.446ZM646.587 203.18L629.307 221.42L630.396 222.452L647.676 204.212L646.587 203.18ZM629.851 221.186H580.411V222.686H629.851V221.186ZM579.673 221.806L577.753 232.726L579.23 232.986L581.15 222.066L579.673 221.806ZM728.33 250.496L728.879 249.984L728.877 249.983L728.33 250.496ZM686.93 206.336L687.477 205.823L686.451 204.728L686.192 206.207L686.93 206.336ZM678.65 253.496V254.246H679.28L679.389 253.626L678.65 253.496ZM656.09 253.496L655.351 253.367L655.198 254.246H656.09V253.496ZM667.73 186.896L668.469 187.025L668.47 187.021L667.73 186.896ZM693.29 176.216L692.733 176.718L692.738 176.724L692.743 176.729L693.29 176.216ZM734.69 220.376L734.143 220.889L735.166 221.981L735.429 220.508L734.69 220.376ZM743.09 173.216V172.466H742.462L742.352 173.085L743.09 173.216ZM765.65 173.216L766.389 173.348L766.546 172.466H765.65V173.216ZM753.77 239.696L754.508 239.829L754.509 239.828L753.77 239.696ZM737.57 254.066C735.945 254.066 734.587 253.892 733.246 253.317C731.9 252.74 730.513 251.735 728.879 249.984L727.782 251.008C729.508 252.857 731.06 254.012 732.655 254.696C734.253 255.381 735.835 255.566 737.57 255.566V254.066ZM728.877 249.983L687.477 205.823L686.383 206.849L727.783 251.009L728.877 249.983ZM686.192 206.207L677.912 253.367L679.389 253.626L687.669 206.466L686.192 206.207ZM678.65 252.746H656.09V254.246H678.65V252.746ZM656.829 253.625L668.469 187.025L666.991 186.767L655.351 253.367L656.829 253.625ZM668.47 187.021C669.345 181.829 671.488 178.252 674.253 175.97C677.022 173.683 680.474 172.646 684.05 172.646V171.146C680.186 171.146 676.379 172.269 673.298 174.813C670.212 177.361 667.916 181.283 666.991 186.772L668.47 187.021ZM684.05 172.646C685.488 172.646 686.883 172.819 688.295 173.4C689.705 173.98 691.175 174.987 692.733 176.718L693.848 175.714C692.165 173.845 690.516 172.692 688.866 172.013C687.217 171.334 685.612 171.146 684.05 171.146V172.646ZM692.743 176.729L734.143 220.889L735.237 219.863L693.837 175.703L692.743 176.729ZM735.429 220.508L743.829 173.348L742.352 173.085L733.952 220.245L735.429 220.508ZM743.09 173.966H765.65V172.466H743.09V173.966ZM764.912 173.084L753.032 239.564L754.509 239.828L766.389 173.348L764.912 173.084ZM753.032 239.564C752.098 244.759 749.923 248.372 747.168 250.687C744.409 253.005 741.016 254.066 737.57 254.066V255.566C741.325 255.566 745.072 254.407 748.133 251.835C751.197 249.261 753.522 245.314 754.508 239.829L753.032 239.564ZM793.738 173.216V172.466H793.417L793.195 172.699L793.738 173.216ZM884.938 173.216L885.48 173.734L886.69 172.466H884.938V173.216ZM865.018 194.096V194.846H865.339L865.56 194.614L865.018 194.096ZM836.458 194.096V193.346H835.829L835.719 193.965L836.458 194.096ZM825.898 253.496V254.246H826.526L826.636 253.627L825.898 253.496ZM801.058 253.496L800.319 253.366L800.164 254.246H801.058V253.496ZM811.498 194.096L812.236 194.226L812.391 193.346H811.498V194.096ZM773.818 194.096L773.275 193.579L772.066 194.846H773.818V194.096ZM793.738 173.966H884.938V172.466H793.738V173.966ZM884.395 172.699L864.475 193.579L865.56 194.614L885.48 173.734L884.395 172.699ZM865.018 193.346H836.458V194.846H865.018V193.346ZM835.719 193.965L825.159 253.365L826.636 253.627L837.196 194.227L835.719 193.965ZM825.898 252.746H801.058V254.246H825.898V252.746ZM801.796 253.626L812.236 194.226L810.759 193.966L800.319 253.366L801.796 253.626ZM811.498 193.346H773.818V194.846H811.498V193.346ZM774.36 194.614L794.28 173.734L793.195 172.699L773.275 193.579L774.36 194.614ZM878.284 253.496L877.74 252.98L876.54 254.246H878.284V253.496ZM897.844 232.856V232.106H897.522L897.3 232.34L897.844 232.856ZM999.484 173.216L1000.03 173.731L1001.22 172.466H999.484V173.216ZM979.804 194.096V194.846H980.128L980.35 194.611L979.804 194.096ZM922.204 206.006H965.884V204.506H922.204V206.006ZM965.884 206.006C974.515 206.006 981 207.557 985.307 210.496C989.567 213.402 991.774 217.719 991.774 223.496H993.274C993.274 217.273 990.862 212.47 986.152 209.257C981.489 206.075 974.653 204.506 965.884 204.506V206.006ZM991.774 223.496C991.774 232.033 989.102 239.299 983.01 244.448C976.897 249.615 967.229 252.746 953.044 252.746V254.246C967.42 254.246 977.492 251.077 983.978 245.594C990.487 240.093 993.274 232.359 993.274 223.496H991.774ZM953.044 252.746H878.284V254.246H953.044V252.746ZM878.829 254.012L898.389 233.372L897.3 232.34L877.74 252.98L878.829 254.012ZM897.844 233.606H958.684V232.106H897.844V233.606ZM958.684 233.606C962.095 233.606 964.69 233.064 966.443 231.8C968.252 230.495 969.034 228.523 969.034 226.016H967.534C967.534 228.189 966.877 229.637 965.566 230.583C964.199 231.569 961.994 232.106 958.684 232.106V233.606ZM969.034 226.016C969.034 224.164 968.293 222.712 966.795 221.767C965.357 220.86 963.296 220.466 960.724 220.466V221.966C963.192 221.966 964.912 222.353 965.994 223.036C967.016 223.68 967.534 224.628 967.534 226.016H969.034ZM960.724 220.466H916.924V221.966H960.724V220.466ZM916.924 220.466C907.894 220.466 901.484 218.563 897.346 215.33C893.237 212.12 891.274 207.525 891.274 201.896H889.774C889.774 207.907 891.891 212.972 896.423 216.512C900.925 220.03 907.715 221.966 916.924 221.966V220.466ZM891.274 201.896C891.274 193.918 893.994 186.98 900.088 182.018C906.205 177.037 915.82 173.966 929.764 173.966V172.466C915.628 172.466 905.624 175.576 899.141 180.855C892.635 186.152 889.774 193.554 889.774 201.896H891.274ZM929.764 173.966H999.484V172.466H929.764V173.966ZM998.939 172.702L979.259 193.582L980.35 194.611L1000.03 173.731L998.939 172.702ZM979.804 193.346H924.124V194.846H979.804V193.346ZM924.124 193.346C920.734 193.346 918.141 193.793 916.386 194.974C914.556 196.205 913.774 198.132 913.774 200.696H915.274C915.274 198.46 915.932 197.087 917.223 196.218C918.588 195.3 920.794 194.846 924.124 194.846V193.346ZM913.774 200.696C913.774 201.604 913.951 202.423 914.341 203.135C914.732 203.851 915.314 204.414 916.055 204.841C917.506 205.678 919.591 206.006 922.204 206.006V204.506C919.658 204.506 917.903 204.175 916.804 203.541C916.27 203.234 915.899 202.859 915.657 202.416C915.412 201.969 915.274 201.409 915.274 200.696H913.774Z" fill="url(#paint8_linear_431_416)"/>
</g>
<g filter="url(#filter5_b_431_416)">
<path d="M318.585 225.36H386.985L367.305 246H290.025L304.305 165.72H397.185L377.385 186.6H325.425L323.745 196.2H387.225L369.945 214.44H320.505L318.585 225.36ZM404.584 165.72H434.944L461.704 219L508.744 165.72H538.144L473.824 238.32C469.624 243 463.984 247.32 456.184 247.32C448.744 247.32 444.544 243.36 441.904 238.32L404.584 165.72ZM566.075 225.36H634.475L614.795 246H537.515L551.795 165.72H644.675L624.875 186.6H572.915L571.235 196.2H634.715L617.435 214.44H567.995L566.075 225.36ZM725.154 247.32C721.794 247.32 719.274 246.6 715.914 243L674.514 198.84L666.234 246H643.674L655.314 179.4C657.114 168.72 664.194 164.4 671.634 164.4C674.634 164.4 677.634 165.12 680.874 168.72L722.274 212.88L730.674 165.72H753.234L741.354 232.2C739.434 242.88 732.354 247.32 725.154 247.32ZM781.322 165.72H872.522L852.602 186.6H824.042L813.482 246H788.642L799.082 186.6H761.402L781.322 165.72ZM909.788 197.76H953.468C970.868 197.76 980.108 204 980.108 216C980.108 233.4 969.188 246 940.628 246H865.868L885.428 225.36H946.268C952.988 225.36 955.868 223.2 955.868 218.52C955.868 215.28 953.348 213.72 948.308 213.72H904.508C886.268 213.72 878.108 206.04 878.108 194.4C878.108 178.08 889.268 165.72 917.348 165.72H987.068L967.388 186.6H911.708C904.988 186.6 902.108 188.4 902.108 193.2C902.108 196.44 904.628 197.76 909.788 197.76Z" fill="black"/>
<path d="M318.585 225.36L317.6 225.187L317.394 226.36H318.585V225.36ZM386.985 225.36L387.709 226.05L389.32 224.36H386.985V225.36ZM367.305 246V247H367.733L368.029 246.69L367.305 246ZM290.025 246L289.04 245.825L288.831 247H290.025V246ZM304.305 165.72V164.72H303.467L303.32 165.545L304.305 165.72ZM397.185 165.72L397.91 166.408L399.511 164.72H397.185V165.72ZM377.385 186.6V187.6H377.815L378.11 187.288L377.385 186.6ZM325.425 186.6V185.6H324.585L324.44 186.428L325.425 186.6ZM323.745 196.2L322.76 196.028L322.555 197.2H323.745V196.2ZM387.225 196.2L387.951 196.888L389.55 195.2H387.225V196.2ZM369.945 214.44V215.44H370.375L370.671 215.128L369.945 214.44ZM320.505 214.44V213.44H319.665L319.52 214.267L320.505 214.44ZM318.585 226.36H386.985V224.36H318.585V226.36ZM386.261 224.67L366.581 245.31L368.029 246.69L387.709 226.05L386.261 224.67ZM367.305 245H290.025V247H367.305V245ZM291.009 246.175L305.289 165.895L303.32 165.545L289.04 245.825L291.009 246.175ZM304.305 166.72H397.185V164.72H304.305V166.72ZM396.459 165.032L376.659 185.912L378.11 187.288L397.91 166.408L396.459 165.032ZM377.385 185.6H325.425V187.6H377.385V185.6ZM324.44 186.428L322.76 196.028L324.73 196.372L326.41 186.772L324.44 186.428ZM323.745 197.2H387.225V195.2H323.745V197.2ZM386.499 195.512L369.219 213.752L370.671 215.128L387.951 196.888L386.499 195.512ZM369.945 213.44H320.505V215.44H369.945V213.44ZM319.52 214.267L317.6 225.187L319.57 225.533L321.49 214.613L319.52 214.267ZM404.584 165.72V164.72H402.945L403.694 166.177L404.584 165.72ZM434.944 165.72L435.837 165.271L435.56 164.72H434.944V165.72ZM461.704 219L460.81 219.449L461.474 220.771L462.453 219.662L461.704 219ZM508.744 165.72V164.72H508.293L507.994 165.058L508.744 165.72ZM538.144 165.72L538.892 166.383L540.366 164.72H538.144V165.72ZM473.824 238.32L474.568 238.988L474.572 238.983L473.824 238.32ZM441.904 238.32L441.014 238.777L441.018 238.784L441.904 238.32ZM404.584 166.72H434.944V164.72H404.584V166.72ZM434.05 166.169L460.81 219.449L462.597 218.551L435.837 165.271L434.05 166.169ZM462.453 219.662L509.493 166.382L507.994 165.058L460.954 218.338L462.453 219.662ZM508.744 166.72H538.144V164.72H508.744V166.72ZM537.395 165.057L473.075 237.657L474.572 238.983L538.892 166.383L537.395 165.057ZM473.079 237.652C468.961 242.241 463.57 246.32 456.184 246.32V248.32C464.397 248.32 470.286 243.759 474.568 238.988L473.079 237.652ZM456.184 246.32C452.654 246.32 449.947 245.385 447.818 243.891C445.676 242.389 444.06 240.282 442.789 237.856L441.018 238.784C442.387 241.398 444.191 243.791 446.669 245.529C449.16 247.275 452.274 248.32 456.184 248.32V246.32ZM442.793 237.863L405.473 165.263L403.694 166.177L441.014 238.777L442.793 237.863ZM566.075 225.36L565.091 225.187L564.884 226.36H566.075V225.36ZM634.475 225.36L635.199 226.05L636.811 224.36H634.475V225.36ZM614.795 246V247H615.224L615.519 246.69L614.795 246ZM537.515 246L536.531 245.825L536.322 247H537.515V246ZM551.795 165.72V164.72H550.958L550.811 165.545L551.795 165.72ZM644.675 165.72L645.401 166.408L647.002 164.72H644.675V165.72ZM624.875 186.6V187.6H625.305L625.601 187.288L624.875 186.6ZM572.915 186.6V185.6H572.075L571.93 186.428L572.915 186.6ZM571.235 196.2L570.25 196.028L570.045 197.2H571.235V196.2ZM634.715 196.2L635.441 196.888L637.04 195.2H634.715V196.2ZM617.435 214.44V215.44H617.866L618.161 215.128L617.435 214.44ZM567.995 214.44V213.44H567.156L567.011 214.267L567.995 214.44ZM566.075 226.36H634.475V224.36H566.075V226.36ZM633.752 224.67L614.072 245.31L615.519 246.69L635.199 226.05L633.752 224.67ZM614.795 245H537.515V247H614.795V245ZM538.5 246.175L552.78 165.895L550.811 165.545L536.531 245.825L538.5 246.175ZM551.795 166.72H644.675V164.72H551.795V166.72ZM643.95 165.032L624.15 185.912L625.601 187.288L645.401 166.408L643.95 165.032ZM624.875 185.6H572.915V187.6H624.875V185.6ZM571.93 186.428L570.25 196.028L572.221 196.372L573.901 186.772L571.93 186.428ZM571.235 197.2H634.715V195.2H571.235V197.2ZM633.99 195.512L616.71 213.752L618.161 215.128L635.441 196.888L633.99 195.512ZM617.435 213.44H567.995V215.44H617.435V213.44ZM567.011 214.267L565.091 225.187L567.06 225.533L568.98 214.613L567.011 214.267ZM715.914 243L716.645 242.318L716.644 242.316L715.914 243ZM674.514 198.84L675.244 198.156L673.875 196.696L673.529 198.667L674.514 198.84ZM666.234 246V247H667.074L667.219 246.173L666.234 246ZM643.674 246L642.689 245.828L642.484 247H643.674V246ZM655.314 179.4L656.299 179.572L656.3 179.566L655.314 179.4ZM680.874 168.72L680.131 169.389L680.138 169.397L680.145 169.404L680.874 168.72ZM722.274 212.88L721.545 213.564L722.909 215.019L723.259 213.055L722.274 212.88ZM730.674 165.72V164.72H729.837L729.69 165.545L730.674 165.72ZM753.234 165.72L754.219 165.896L754.429 164.72H753.234V165.72ZM741.354 232.2L742.338 232.377L742.339 232.376L741.354 232.2ZM725.154 246.32C723.548 246.32 722.227 246.148 720.928 245.591C719.624 245.032 718.264 244.052 716.645 242.318L715.183 243.682C716.924 245.548 718.504 246.728 720.14 247.429C721.781 248.132 723.401 248.32 725.154 248.32V246.32ZM716.644 242.316L675.244 198.156L673.785 199.524L715.185 243.684L716.644 242.316ZM673.529 198.667L665.249 245.827L667.219 246.173L675.499 199.013L673.529 198.667ZM666.234 245H643.674V247H666.234V245ZM644.659 246.172L656.299 179.572L654.329 179.228L642.689 245.828L644.659 246.172ZM656.3 179.566C657.167 174.424 659.285 170.904 661.996 168.666C664.713 166.423 668.107 165.4 671.634 165.4V163.4C667.722 163.4 663.855 164.537 660.723 167.124C657.583 169.716 655.261 173.696 654.328 179.234L656.3 179.566ZM671.634 165.4C673.052 165.4 674.412 165.57 675.783 166.135C677.154 166.699 678.594 167.682 680.131 169.389L681.618 168.051C679.914 166.158 678.235 164.981 676.545 164.285C674.857 163.59 673.217 163.4 671.634 163.4V165.4ZM680.145 169.404L721.545 213.564L723.004 212.196L681.604 168.036L680.145 169.404ZM723.259 213.055L731.659 165.895L729.69 165.545L721.29 212.705L723.259 213.055ZM730.674 166.72H753.234V164.72H730.674V166.72ZM752.25 165.544L740.37 232.024L742.339 232.376L754.219 165.896L752.25 165.544ZM740.37 232.023C739.445 237.17 737.295 240.727 734.591 242.999C731.882 245.275 728.548 246.32 725.154 246.32V248.32C728.96 248.32 732.766 247.145 735.878 244.531C738.993 241.913 741.344 237.91 742.338 232.377L740.37 232.023ZM781.322 165.72V164.72H780.894L780.598 165.03L781.322 165.72ZM872.522 165.72L873.245 166.41L874.858 164.72H872.522V165.72ZM852.602 186.6V187.6H853.03L853.325 187.29L852.602 186.6ZM824.042 186.6V185.6H823.204L823.057 186.425L824.042 186.6ZM813.482 246V247H814.32L814.466 246.175L813.482 246ZM788.642 246L787.657 245.827L787.451 247H788.642V246ZM799.082 186.6L800.067 186.773L800.273 185.6H799.082V186.6ZM761.402 186.6L760.678 185.91L759.066 187.6H761.402V186.6ZM781.322 166.72H872.522V164.72H781.322V166.72ZM871.798 165.03L851.878 185.91L853.325 187.29L873.245 166.41L871.798 165.03ZM852.602 185.6H824.042V187.6H852.602V185.6ZM823.057 186.425L812.497 245.825L814.466 246.175L825.026 186.775L823.057 186.425ZM813.482 245H788.642V247H813.482V245ZM789.627 246.173L800.067 186.773L798.097 186.427L787.657 245.827L789.627 246.173ZM799.082 185.6H761.402V187.6H799.082V185.6ZM762.125 187.29L782.045 166.41L780.598 165.03L760.678 185.91L762.125 187.29ZM865.868 246L865.142 245.312L863.543 247H865.868V246ZM885.428 225.36V224.36H884.998L884.702 224.672L885.428 225.36ZM987.068 165.72L987.796 166.406L989.385 164.72H987.068V165.72ZM967.388 186.6V187.6H967.82L968.116 187.286L967.388 186.6ZM909.788 198.76H953.468V196.76H909.788V198.76ZM953.468 198.76C962.076 198.76 968.503 200.308 972.75 203.206C976.935 206.062 979.108 210.297 979.108 216H981.108C981.108 209.703 978.661 204.818 973.877 201.554C969.154 198.332 962.26 196.76 953.468 196.76V198.76ZM979.108 216C979.108 224.482 976.455 231.671 970.433 236.761C964.382 241.876 954.781 245 940.628 245V247C955.036 247 965.175 243.824 971.724 238.289C978.301 232.729 981.108 224.918 981.108 216H979.108ZM940.628 245H865.868V247H940.628V245ZM866.594 246.688L886.154 226.048L884.702 224.672L865.142 245.312L866.594 246.688ZM885.428 226.36H946.268V224.36H885.428V226.36ZM946.268 226.36C949.696 226.36 952.356 225.817 954.173 224.506C956.065 223.142 956.868 221.083 956.868 218.52H954.868C954.868 220.637 954.232 221.998 953.003 222.884C951.701 223.823 949.561 224.36 946.268 224.36V226.36ZM956.868 218.52C956.868 216.591 956.09 215.055 954.512 214.059C953.015 213.115 950.898 212.72 948.308 212.72V214.72C950.759 214.72 952.422 215.105 953.445 215.751C954.387 216.345 954.868 217.209 954.868 218.52H956.868ZM948.308 212.72H904.508V214.72H948.308V212.72ZM904.508 212.72C895.508 212.72 889.161 210.822 885.084 207.637C881.046 204.482 879.108 199.965 879.108 194.4H877.108C877.108 200.475 879.251 205.618 883.853 209.213C888.416 212.778 895.269 214.72 904.508 214.72V212.72ZM879.108 194.4C879.108 186.483 881.804 179.622 887.83 174.715C893.886 169.784 903.437 166.72 917.348 166.72V164.72C903.18 164.72 893.111 167.836 886.567 173.165C879.992 178.518 877.108 185.997 877.108 194.4H879.108ZM917.348 166.72H987.068V164.72H917.348V166.72ZM986.341 165.034L966.661 185.914L968.116 187.286L987.796 166.406L986.341 165.034ZM967.388 185.6H911.708V187.6H967.388V185.6ZM911.708 185.6C908.308 185.6 905.65 186.045 903.83 187.27C901.911 188.562 901.108 190.581 901.108 193.2H903.108C903.108 191.019 903.746 189.738 904.947 188.93C906.246 188.055 908.388 187.6 911.708 187.6V185.6ZM901.108 193.2C901.108 194.14 901.292 195.003 901.705 195.759C902.121 196.52 902.739 197.114 903.514 197.561C905.024 198.432 907.164 198.76 909.788 198.76V196.76C907.253 196.76 905.553 196.428 904.513 195.829C904.013 195.541 903.678 195.198 903.46 194.8C903.24 194.397 903.108 193.88 903.108 193.2H901.108Z" fill="url(#paint9_linear_431_416)"/>
</g>
<defs>
<filter id="filter0_b_431_416" x="191.689" y="30.8098" width="941.648" height="111.6" filterUnits="userSpaceOnUse" color-interpolation-filters="sRGB">
<feFlood flood-opacity="0" result="BackgroundImageFix"/>
<feGaussianBlur in="BackgroundImageFix" stdDeviation="7.5"/>
<feComposite in2="SourceAlpha" operator="in" result="effect1_backgroundBlur_431_416"/>
<feBlend mode="normal" in="SourceGraphic" in2="effect1_backgroundBlur_431_416" result="shape"/>
</filter>
<filter id="filter1_b_431_416" x="179.809" y="23.8962" width="941.648" height="111.6" filterUnits="userSpaceOnUse" color-interpolation-filters="sRGB">
<feFlood flood-opacity="0" result="BackgroundImageFix"/>
<feGaussianBlur in="BackgroundImageFix" stdDeviation="7.5"/>
<feComposite in2="SourceAlpha" operator="in" result="effect1_backgroundBlur_431_416"/>
<feBlend mode="normal" in="SourceGraphic" in2="effect1_backgroundBlur_431_416" result="shape"/>
</filter>
<filter id="filter2_b_431_416" x="166.393" y="16.4" width="941.648" height="111.6" filterUnits="userSpaceOnUse" color-interpolation-filters="sRGB">
<feFlood flood-opacity="0" result="BackgroundImageFix"/>
<feGaussianBlur in="BackgroundImageFix" stdDeviation="7.5"/>
<feComposite in2="SourceAlpha" operator="in" result="effect1_backgroundBlur_431_416"/>
<feBlend mode="normal" in="SourceGraphic" in2="effect1_backgroundBlur_431_416" result="shape"/>
</filter>
<filter id="filter3_b_431_416" x="299.321" y="163.81" width="727.043" height="112.92" filterUnits="userSpaceOnUse" color-interpolation-filters="sRGB">
<feFlood flood-opacity="0" result="BackgroundImageFix"/>
<feGaussianBlur in="BackgroundImageFix" stdDeviation="7.5"/>
<feComposite in2="SourceAlpha" operator="in" result="effect1_backgroundBlur_431_416"/>
<feBlend mode="normal" in="SourceGraphic" in2="effect1_backgroundBlur_431_416" result="shape"/>
</filter>
<filter id="filter4_b_431_416" x="287.441" y="156.896" width="727.043" height="112.92" filterUnits="userSpaceOnUse" color-interpolation-filters="sRGB">
<feFlood flood-opacity="0" result="BackgroundImageFix"/>
<feGaussianBlur in="BackgroundImageFix" stdDeviation="7.5"/>
<feComposite in2="SourceAlpha" operator="in" result="effect1_backgroundBlur_431_416"/>
<feBlend mode="normal" in="SourceGraphic" in2="effect1_backgroundBlur_431_416" result="shape"/>
</filter>
<filter id="filter5_b_431_416" x="275.025" y="149.4" width="727.043" height="112.92" filterUnits="userSpaceOnUse" color-interpolation-filters="sRGB">
<feFlood flood-opacity="0" result="BackgroundImageFix"/>
<feGaussianBlur in="BackgroundImageFix" stdDeviation="7.5"/>
<feComposite in2="SourceAlpha" operator="in" result="effect1_backgroundBlur_431_416"/>
<feBlend mode="normal" in="SourceGraphic" in2="effect1_backgroundBlur_431_416" result="shape"/>
</filter>
<linearGradient id="paint0_linear_431_416" x1="655.522" y1="32.9078" x2="655.522" y2="78.726" gradientUnits="userSpaceOnUse">
<stop stop-color="#6BC8F6"/>
<stop offset="1" stop-color="#927BFB"/>
</linearGradient>
<linearGradient id="paint1_linear_431_416" x1="709.841" y1="31.6453" x2="709.841" y2="77.236" gradientUnits="userSpaceOnUse">
<stop stop-color="#6BC7F5"/>
<stop offset="1" stop-color="#927AFB"/>
</linearGradient>
<linearGradient id="paint2_linear_431_416" x1="643.642" y1="25.9942" x2="643.642" y2="71.8124" gradientUnits="userSpaceOnUse">
<stop stop-color="#6BC8F6"/>
<stop offset="1" stop-color="#927BFB"/>
</linearGradient>
<linearGradient id="paint3_linear_431_416" x1="697.961" y1="24.7317" x2="697.961" y2="70.3225" gradientUnits="userSpaceOnUse">
<stop stop-color="#6BC7F5"/>
<stop offset="1" stop-color="#927AFB"/>
</linearGradient>
<linearGradient id="paint4_linear_431_416" x1="684.545" y1="17.2355" x2="684.545" y2="62.8263" gradientUnits="userSpaceOnUse">
<stop stop-color="#6BC7F5"/>
<stop offset="1" stop-color="#927AFB"/>
</linearGradient>
<linearGradient id="paint5_linear_431_416" x1="654.587" y1="165.908" x2="654.587" y2="211.726" gradientUnits="userSpaceOnUse">
<stop stop-color="#6BC8F6"/>
<stop offset="1" stop-color="#927BFB"/>
</linearGradient>
<linearGradient id="paint6_linear_431_416" x1="696.055" y1="164.645" x2="696.055" y2="210.236" gradientUnits="userSpaceOnUse">
<stop stop-color="#6BC7F5"/>
<stop offset="1" stop-color="#927AFB"/>
</linearGradient>
<linearGradient id="paint7_linear_431_416" x1="642.707" y1="158.994" x2="642.707" y2="204.812" gradientUnits="userSpaceOnUse">
<stop stop-color="#6BC8F6"/>
<stop offset="1" stop-color="#927BFB"/>
</linearGradient>
<linearGradient id="paint8_linear_431_416" x1="684.175" y1="157.732" x2="684.175" y2="203.322" gradientUnits="userSpaceOnUse">
<stop stop-color="#6BC7F5"/>
<stop offset="1" stop-color="#927AFB"/>
</linearGradient>
<linearGradient id="paint9_linear_431_416" x1="671.759" y1="150.236" x2="671.759" y2="195.826" gradientUnits="userSpaceOnUse">
<stop stop-color="#6BC7F5"/>
<stop offset="1" stop-color="#927AFB"/>
</linearGradient>
</defs>
</svg>
