<svg width="972" height="155" viewBox="0 0 972 155" fill="none" xmlns="http://www.w3.org/2000/svg">
<g opacity="0.25" filter="url(#filter0_b_1381_1037)">
<path d="M272.66 46.72H362.54L342.86 67.6H293.78L291.98 78.04H352.46L333.98 97.6H288.5L283.34 127H258.38L272.66 46.72ZM468.664 127H375.304L394.024 106.36H414.064C418.984 106.36 424.504 106.36 428.344 106.6C426.664 103.72 424.144 98.8 422.224 94.96L411.544 73.72L364.504 127H335.104L399.424 54.4C403.624 49.72 409.264 45.4 417.064 45.4C424.504 45.4 428.704 49.36 431.344 54.4L468.664 127ZM550.411 92.56L586.291 127H515.971C491.491 127 473.851 115.24 473.851 93.16C473.851 61.24 495.571 45.4 540.571 45.4C575.251 45.4 592.771 56.08 592.771 79.36C592.771 89.2 590.011 95.32 586.171 100.24H559.531C565.531 96.16 567.811 89.56 567.811 81.88C567.811 68.92 558.691 66.28 536.851 66.28C504.571 66.28 498.811 71.2 498.811 91C498.811 102.52 506.611 106.36 519.571 106.36H524.851C527.971 106.36 531.571 106.48 534.451 106.72C532.291 105.16 529.171 102.64 526.891 100.48L518.011 92.56H550.411ZM641.434 78.76H685.114C702.514 78.76 711.754 85 711.754 97C711.754 114.4 700.834 127 672.274 127H597.514L617.074 106.36H677.914C684.634 106.36 687.514 104.2 687.514 99.52C687.514 96.28 684.994 94.72 679.954 94.72H636.154C617.914 94.72 609.754 87.04 609.754 75.4C609.754 59.08 620.914 46.72 648.994 46.72H718.714L699.034 67.6H643.354C636.634 67.6 633.754 69.4 633.754 74.2C633.754 77.44 636.274 78.76 641.434 78.76Z" fill="url(#paint0_linear_1381_1037)" fill-opacity="0.35"/>
<path d="M272.66 46.72V45.97H272.031L271.921 46.5887L272.66 46.72ZM362.54 46.72L363.086 47.2344L364.277 45.97H362.54V46.72ZM342.86 67.6V68.35H343.184L343.406 68.1144L342.86 67.6ZM293.78 67.6V66.85H293.148L293.041 67.4726L293.78 67.6ZM291.98 78.04L291.241 77.9126L291.089 78.79H291.98V78.04ZM352.46 78.04L353.005 78.5551L354.2 77.29H352.46V78.04ZM333.98 97.6V98.35H334.303L334.525 98.1151L333.98 97.6ZM288.5 97.6V96.85H287.87L287.761 97.4703L288.5 97.6ZM283.34 127V127.75H283.97L284.078 127.13L283.34 127ZM258.38 127L257.641 126.869L257.485 127.75H258.38V127ZM272.66 47.47H362.54V45.97H272.66V47.47ZM361.994 46.2056L342.314 67.0856L343.406 68.1144L363.086 47.2344L361.994 46.2056ZM342.86 66.85H293.78V68.35H342.86V66.85ZM293.041 67.4726L291.241 77.9126L292.719 78.1674L294.519 67.7274L293.041 67.4726ZM291.98 78.79H352.46V77.29H291.98V78.79ZM351.915 77.5249L333.435 97.0849L334.525 98.1151L353.005 78.5551L351.915 77.5249ZM333.98 96.85H288.5V98.35H333.98V96.85ZM287.761 97.4703L282.601 126.87L284.078 127.13L289.238 97.7297L287.761 97.4703ZM283.34 126.25H258.38V127.75H283.34V126.25ZM259.118 127.131L273.398 46.8513L271.921 46.5887L257.641 126.869L259.118 127.131ZM468.664 127V127.75H469.893L469.331 126.657L468.664 127ZM375.304 127L374.748 126.496L373.611 127.75H375.304V127ZM394.024 106.36V105.61H393.692L393.468 105.856L394.024 106.36ZM428.344 106.6L428.297 107.349L429.7 107.436L428.992 106.222L428.344 106.6ZM422.224 94.96L422.895 94.6246L422.894 94.6231L422.224 94.96ZM411.544 73.72L412.214 73.3831L411.716 72.3922L410.982 73.2236L411.544 73.72ZM364.504 127V127.75H364.842L365.066 127.496L364.504 127ZM335.104 127L334.542 126.503L333.437 127.75H335.104V127ZM399.424 54.4L398.866 53.8991L398.862 53.9026L399.424 54.4ZM431.344 54.4L432.011 54.0571L432.008 54.052L431.344 54.4ZM468.664 126.25H375.304V127.75H468.664V126.25ZM375.859 127.504L394.579 106.864L393.468 105.856L374.748 126.496L375.859 127.504ZM394.024 107.11H414.064V105.61H394.024V107.11ZM414.064 107.11C418.993 107.11 424.486 107.11 428.297 107.349L428.391 105.851C424.522 105.61 418.974 105.61 414.064 105.61V107.11ZM428.992 106.222C427.326 103.366 424.816 98.4667 422.895 94.6246L421.553 95.2954C423.472 99.1333 426.002 104.074 427.696 106.978L428.992 106.222ZM422.894 94.6231L412.214 73.3831L410.874 74.0569L421.554 95.2969L422.894 94.6231ZM410.982 73.2236L363.942 126.504L365.066 127.496L412.106 74.2164L410.982 73.2236ZM364.504 126.25H335.104V127.75H364.504V126.25ZM335.665 127.497L399.985 54.8973L398.862 53.9026L334.542 126.503L335.665 127.497ZM399.982 54.9009C404.121 50.289 409.574 46.15 417.064 46.15V44.65C408.954 44.65 403.127 49.151 398.866 53.8991L399.982 54.9009ZM417.064 46.15C420.641 46.15 423.399 47.099 425.573 48.624C427.757 50.1554 429.396 52.2984 430.679 54.748L432.008 54.052C430.651 51.4616 428.871 49.1046 426.434 47.3959C423.989 45.681 420.926 44.65 417.064 44.65V46.15ZM430.677 54.7429L467.997 127.343L469.331 126.657L432.011 54.0571L430.677 54.7429ZM550.411 92.56L550.93 92.0189L550.713 91.81H550.411V92.56ZM586.291 127V127.75H588.155L586.81 126.459L586.291 127ZM586.171 100.24V100.99H586.537L586.762 100.701L586.171 100.24ZM559.531 100.24L559.109 99.6198L557.094 100.99H559.531V100.24ZM534.451 106.72L534.389 107.467L537.077 107.691L534.89 106.112L534.451 106.72ZM526.891 100.48L527.407 99.9355L527.399 99.9278L527.39 99.9203L526.891 100.48ZM518.011 92.56V91.81H516.043L517.512 93.1197L518.011 92.56ZM549.892 93.1011L585.772 127.541L586.81 126.459L550.93 92.0189L549.892 93.1011ZM586.291 126.25H515.971V127.75H586.291V126.25ZM515.971 126.25C503.84 126.25 493.487 123.335 486.186 117.764C478.91 112.212 474.601 103.976 474.601 93.16H473.101C473.101 104.424 477.612 113.108 485.276 118.956C492.915 124.785 503.622 127.75 515.971 127.75V126.25ZM474.601 93.16C474.601 77.3902 479.953 65.7005 490.774 57.9189C501.642 50.103 518.135 46.15 540.571 46.15V44.65C518.007 44.65 501.14 48.6169 489.898 56.7011C478.609 64.8195 473.101 77.0098 473.101 93.16H474.601ZM540.571 46.15C557.86 46.15 570.737 48.817 579.272 54.2816C587.745 59.7068 592.021 67.9426 592.021 79.36H593.521C593.521 67.4974 589.037 58.7532 580.08 53.0184C571.185 47.323 557.962 44.65 540.571 44.65V46.15ZM592.021 79.36C592.021 89.0303 589.318 94.9884 585.58 99.7785L586.762 100.701C590.704 95.6516 593.521 89.3697 593.521 79.36H592.021ZM586.171 99.49H559.531V100.99H586.171V99.49ZM559.953 100.86C566.232 96.5901 568.561 89.7025 568.561 81.88H567.061C567.061 89.4175 564.83 95.7299 559.109 99.6198L559.953 100.86ZM568.561 81.88C568.561 78.5564 567.977 75.8193 566.694 73.5997C565.406 71.3701 563.451 69.7293 560.832 68.5374C555.653 66.1805 547.753 65.53 536.851 65.53V67.03C547.789 67.03 555.369 67.6994 560.21 69.9026C562.601 70.9907 564.291 72.4399 565.395 74.3503C566.505 76.2707 567.061 78.7236 567.061 81.88H568.561ZM536.851 65.53C528.769 65.53 522.312 65.8375 517.177 66.6166C512.045 67.3951 508.174 68.6525 505.306 70.5939C499.487 74.5312 498.061 81.0832 498.061 91H499.561C499.561 81.1168 501.015 75.3087 506.146 71.8361C508.753 70.0725 512.374 68.8624 517.402 68.0996C522.425 67.3375 528.793 67.03 536.851 67.03V65.53ZM498.061 91C498.061 96.9519 500.092 101.054 503.913 103.622C507.671 106.149 513.047 107.11 519.571 107.11V105.61C513.136 105.61 508.131 104.651 504.749 102.378C501.431 100.146 499.561 96.5681 499.561 91H498.061ZM519.571 107.11H524.851V105.61H519.571V107.11ZM524.851 107.11C527.956 107.11 531.534 107.23 534.389 107.467L534.513 105.973C531.608 105.73 527.986 105.61 524.851 105.61V107.11ZM534.89 106.112C532.753 104.568 529.659 102.069 527.407 99.9355L526.375 101.024C528.683 103.211 531.829 105.752 534.012 107.328L534.89 106.112ZM527.39 99.9203L518.51 92.0003L517.512 93.1197L526.392 101.04L527.39 99.9203ZM518.011 93.31H550.411V91.81H518.011V93.31ZM597.514 127L596.969 126.484L595.77 127.75H597.514V127ZM617.074 106.36V105.61H616.751L616.529 105.844L617.074 106.36ZM718.714 46.72L719.26 47.2344L720.451 45.97H718.714V46.72ZM699.034 67.6V68.35H699.358L699.58 68.1144L699.034 67.6ZM641.434 79.51H685.114V78.01H641.434V79.51ZM685.114 79.51C693.745 79.51 700.229 81.0612 704.536 83.9995C708.796 86.9063 711.004 91.2228 711.004 97H712.504C712.504 90.7772 710.091 85.9737 705.381 82.7605C700.718 79.5788 693.883 78.01 685.114 78.01V79.51ZM711.004 97C711.004 105.537 708.332 112.803 702.24 117.952C696.127 123.119 686.458 126.25 672.274 126.25V127.75C686.649 127.75 696.721 124.581 703.208 119.098C709.716 113.597 712.504 105.863 712.504 97H711.004ZM672.274 126.25H597.514V127.75H672.274V126.25ZM598.058 127.516L617.618 106.876L616.529 105.844L596.969 126.484L598.058 127.516ZM617.074 107.11H677.914V105.61H617.074V107.11ZM677.914 107.11C681.325 107.11 683.919 106.568 685.672 105.303C687.481 103.999 688.264 102.027 688.264 99.52H686.764C686.764 101.693 686.107 103.141 684.795 104.087C683.428 105.072 681.223 105.61 677.914 105.61V107.11ZM688.264 99.52C688.264 97.6679 687.522 96.2161 686.024 95.2707C684.586 94.3635 682.526 93.97 679.954 93.97V95.47C682.422 95.47 684.141 95.8565 685.224 96.5393C686.245 97.1839 686.764 98.1321 686.764 99.52H688.264ZM679.954 93.97H636.154V95.47H679.954V93.97ZM636.154 93.97C627.123 93.97 620.713 92.0666 616.576 88.834C612.467 85.624 610.504 81.0291 610.504 75.4H609.004C609.004 81.4109 611.121 86.476 615.652 90.016C620.154 93.5334 626.944 95.47 636.154 95.47V93.97ZM610.504 75.4C610.504 67.4223 613.223 60.4839 619.317 55.5216C625.434 50.5405 635.05 47.47 648.994 47.47V45.97C634.858 45.97 624.853 49.0795 618.37 54.3584C611.864 59.6561 609.004 67.0577 609.004 75.4H610.504ZM648.994 47.47H718.714V45.97H648.994V47.47ZM718.168 46.2056L698.488 67.0856L699.58 68.1144L719.26 47.2344L718.168 46.2056ZM699.034 66.85H643.354V68.35H699.034V66.85ZM643.354 66.85C639.964 66.85 637.37 67.2965 635.615 68.4778C633.786 69.709 633.004 71.6361 633.004 74.2H634.504C634.504 71.9639 635.162 70.591 636.453 69.7222C637.817 68.8035 640.024 68.35 643.354 68.35V66.85ZM633.004 74.2C633.004 75.1077 633.181 75.9273 633.57 76.6393C633.961 77.3546 634.543 77.9177 635.284 78.3448C636.735 79.1813 638.82 79.51 641.434 79.51V78.01C638.887 78.01 637.132 77.6787 636.033 77.0452C635.499 76.7373 635.129 76.3629 634.886 75.9195C634.642 75.4727 634.504 74.9123 634.504 74.2H633.004Z" fill="url(#paint1_linear_1381_1037)"/>
</g>
<g opacity="0.6" filter="url(#filter1_b_1381_1037)">
<path d="M261.66 39.72H351.54L331.86 60.6H282.78L280.98 71.04H341.46L322.98 90.6H277.5L272.34 120H247.38L261.66 39.72ZM457.664 120H364.304L383.024 99.36H403.064C407.984 99.36 413.504 99.36 417.344 99.6C415.664 96.72 413.144 91.8 411.224 87.96L400.544 66.72L353.504 120H324.104L388.424 47.4C392.624 42.72 398.264 38.4 406.064 38.4C413.504 38.4 417.704 42.36 420.344 47.4L457.664 120ZM539.411 85.56L575.291 120H504.971C480.491 120 462.851 108.24 462.851 86.16C462.851 54.24 484.571 38.4 529.571 38.4C564.251 38.4 581.771 49.08 581.771 72.36C581.771 82.2 579.011 88.32 575.171 93.24H548.531C554.531 89.16 556.811 82.56 556.811 74.88C556.811 61.92 547.691 59.28 525.851 59.28C493.571 59.28 487.811 64.2 487.811 84C487.811 95.52 495.611 99.36 508.571 99.36H513.851C516.971 99.36 520.571 99.48 523.451 99.72C521.291 98.16 518.171 95.64 515.891 93.48L507.011 85.56H539.411ZM630.434 71.76H674.114C691.514 71.76 700.754 78 700.754 90C700.754 107.4 689.834 120 661.274 120H586.514L606.074 99.36H666.914C673.634 99.36 676.514 97.2 676.514 92.52C676.514 89.28 673.994 87.72 668.954 87.72H625.154C606.914 87.72 598.754 80.04 598.754 68.4C598.754 52.08 609.914 39.72 637.994 39.72H707.714L688.034 60.6H632.354C625.634 60.6 622.754 62.4 622.754 67.2C622.754 70.44 625.274 71.76 630.434 71.76Z" fill="url(#paint2_linear_1381_1037)" fill-opacity="0.35"/>
<path d="M261.66 39.72V38.97H261.031L260.921 39.5887L261.66 39.72ZM351.54 39.72L352.086 40.2344L353.277 38.97H351.54V39.72ZM331.86 60.6V61.35H332.184L332.406 61.1144L331.86 60.6ZM282.78 60.6V59.85H282.148L282.041 60.4726L282.78 60.6ZM280.98 71.04L280.241 70.9126L280.089 71.79H280.98V71.04ZM341.46 71.04L342.005 71.5551L343.2 70.29H341.46V71.04ZM322.98 90.6V91.35H323.303L323.525 91.1151L322.98 90.6ZM277.5 90.6V89.85H276.87L276.761 90.4703L277.5 90.6ZM272.34 120V120.75H272.97L273.078 120.13L272.34 120ZM247.38 120L246.641 119.869L246.485 120.75H247.38V120ZM261.66 40.47H351.54V38.97H261.66V40.47ZM350.994 39.2056L331.314 60.0856L332.406 61.1144L352.086 40.2344L350.994 39.2056ZM331.86 59.85H282.78V61.35H331.86V59.85ZM282.041 60.4726L280.241 70.9126L281.719 71.1674L283.519 60.7274L282.041 60.4726ZM280.98 71.79H341.46V70.29H280.98V71.79ZM340.915 70.5249L322.435 90.0849L323.525 91.1151L342.005 71.5551L340.915 70.5249ZM322.98 89.85H277.5V91.35H322.98V89.85ZM276.761 90.4703L271.601 119.87L273.078 120.13L278.238 90.7297L276.761 90.4703ZM272.34 119.25H247.38V120.75H272.34V119.25ZM248.118 120.131L262.398 39.8513L260.921 39.5887L246.641 119.869L248.118 120.131ZM457.664 120V120.75H458.893L458.331 119.657L457.664 120ZM364.304 120L363.748 119.496L362.611 120.75H364.304V120ZM383.024 99.36V98.61H382.692L382.468 98.8561L383.024 99.36ZM417.344 99.6L417.297 100.349L418.7 100.436L417.992 99.2221L417.344 99.6ZM411.224 87.96L411.895 87.6246L411.894 87.6231L411.224 87.96ZM400.544 66.72L401.214 66.3831L400.716 65.3922L399.982 66.2236L400.544 66.72ZM353.504 120V120.75H353.842L354.066 120.496L353.504 120ZM324.104 120L323.542 119.503L322.437 120.75H324.104V120ZM388.424 47.4L387.866 46.8991L387.862 46.9026L388.424 47.4ZM420.344 47.4L421.011 47.0571L421.008 47.052L420.344 47.4ZM457.664 119.25H364.304V120.75H457.664V119.25ZM364.859 120.504L383.579 99.8639L382.468 98.8561L363.748 119.496L364.859 120.504ZM383.024 100.11H403.064V98.61H383.024V100.11ZM403.064 100.11C407.993 100.11 413.486 100.11 417.297 100.349L417.391 98.8515C413.522 98.6097 407.974 98.61 403.064 98.61V100.11ZM417.992 99.2221C416.326 96.3659 413.816 91.4667 411.895 87.6246L410.553 88.2954C412.472 92.1333 415.002 97.0741 416.696 99.9779L417.992 99.2221ZM411.894 87.6231L401.214 66.3831L399.874 67.0569L410.554 88.2969L411.894 87.6231ZM399.982 66.2236L352.942 119.504L354.066 120.496L401.106 67.2164L399.982 66.2236ZM353.504 119.25H324.104V120.75H353.504V119.25ZM324.665 120.497L388.985 47.8973L387.862 46.9026L323.542 119.503L324.665 120.497ZM388.982 47.9009C393.121 43.289 398.574 39.15 406.064 39.15V37.65C397.954 37.65 392.127 42.151 387.866 46.8991L388.982 47.9009ZM406.064 39.15C409.641 39.15 412.399 40.099 414.573 41.624C416.757 43.1554 418.396 45.2984 419.679 47.748L421.008 47.052C419.651 44.4616 417.871 42.1046 415.434 40.3959C412.989 38.681 409.926 37.65 406.064 37.65V39.15ZM419.677 47.7429L456.997 120.343L458.331 119.657L421.011 47.0571L419.677 47.7429ZM539.411 85.56L539.93 85.0189L539.713 84.81H539.411V85.56ZM575.291 120V120.75H577.155L575.81 119.459L575.291 120ZM575.171 93.24V93.99H575.537L575.762 93.7015L575.171 93.24ZM548.531 93.24L548.109 92.6198L546.094 93.99H548.531V93.24ZM523.451 99.72L523.389 100.467L526.077 100.691L523.89 99.112L523.451 99.72ZM515.891 93.48L516.407 92.9355L516.399 92.9278L516.39 92.9203L515.891 93.48ZM507.011 85.56V84.81H505.043L506.512 86.1197L507.011 85.56ZM538.892 86.1011L574.772 120.541L575.81 119.459L539.93 85.0189L538.892 86.1011ZM575.291 119.25H504.971V120.75H575.291V119.25ZM504.971 119.25C492.84 119.25 482.487 116.335 475.186 110.764C467.91 105.212 463.601 96.976 463.601 86.16H462.101C462.101 97.424 466.612 106.108 474.276 111.956C481.915 117.785 492.622 120.75 504.971 120.75V119.25ZM463.601 86.16C463.601 70.3902 468.953 58.7005 479.774 50.9189C490.642 43.103 507.135 39.15 529.571 39.15V37.65C507.007 37.65 490.14 41.6169 478.898 49.7011C467.609 57.8195 462.101 70.0098 462.101 86.16H463.601ZM529.571 39.15C546.86 39.15 559.737 41.817 568.272 47.2816C576.745 52.7068 581.021 60.9426 581.021 72.36H582.521C582.521 60.4974 578.037 51.7532 569.08 46.0184C560.185 40.323 546.962 37.65 529.571 37.65V39.15ZM581.021 72.36C581.021 82.0303 578.318 87.9884 574.58 92.7785L575.762 93.7015C579.704 88.6516 582.521 82.3697 582.521 72.36H581.021ZM575.171 92.49H548.531V93.99H575.171V92.49ZM548.953 93.8602C555.232 89.5901 557.561 82.7025 557.561 74.88H556.061C556.061 82.4175 553.83 88.7299 548.109 92.6198L548.953 93.8602ZM557.561 74.88C557.561 71.5564 556.977 68.8193 555.694 66.5997C554.406 64.3701 552.451 62.7293 549.832 61.5374C544.653 59.1805 536.753 58.53 525.851 58.53V60.03C536.789 60.03 544.369 60.6994 549.21 62.9026C551.601 63.9907 553.291 65.4399 554.395 67.3503C555.505 69.2707 556.061 71.7236 556.061 74.88H557.561ZM525.851 58.53C517.769 58.53 511.312 58.8375 506.177 59.6166C501.045 60.3951 497.174 61.6525 494.306 63.5939C488.487 67.5312 487.061 74.0832 487.061 84H488.561C488.561 74.1168 490.015 68.3087 495.146 64.8361C497.753 63.0725 501.374 61.8624 506.402 61.0996C511.425 60.3375 517.793 60.03 525.851 60.03V58.53ZM487.061 84C487.061 89.9519 489.092 94.0537 492.913 96.6224C496.671 99.1493 502.047 100.11 508.571 100.11V98.61C502.136 98.61 497.131 97.6507 493.749 95.3776C490.431 93.1463 488.561 89.5681 488.561 84H487.061ZM508.571 100.11H513.851V98.61H508.571V100.11ZM513.851 100.11C516.956 100.11 520.534 100.23 523.389 100.467L523.513 98.9726C520.608 98.7305 516.986 98.61 513.851 98.61V100.11ZM523.89 99.112C521.753 97.5684 518.659 95.0694 516.407 92.9355L515.375 94.0245C517.683 96.2106 520.829 98.7516 523.012 100.328L523.89 99.112ZM516.39 92.9203L507.51 85.0003L506.512 86.1197L515.392 94.0397L516.39 92.9203ZM507.011 86.31H539.411V84.81H507.011V86.31ZM586.514 120L585.969 119.484L584.77 120.75H586.514V120ZM606.074 99.36V98.61H605.751L605.529 98.8441L606.074 99.36ZM707.714 39.72L708.26 40.2344L709.451 38.97H707.714V39.72ZM688.034 60.6V61.35H688.358L688.58 61.1144L688.034 60.6ZM630.434 72.51H674.114V71.01H630.434V72.51ZM674.114 72.51C682.745 72.51 689.229 74.0612 693.536 76.9995C697.796 79.9063 700.004 84.2228 700.004 90H701.504C701.504 83.7772 699.091 78.9737 694.381 75.7605C689.718 72.5788 682.883 71.01 674.114 71.01V72.51ZM700.004 90C700.004 98.5368 697.332 105.803 691.24 110.952C685.127 116.119 675.458 119.25 661.274 119.25V120.75C675.649 120.75 685.721 117.581 692.208 112.098C698.716 106.597 701.504 98.8632 701.504 90H700.004ZM661.274 119.25H586.514V120.75H661.274V119.25ZM587.058 120.516L606.618 99.8759L605.529 98.8441L585.969 119.484L587.058 120.516ZM606.074 100.11H666.914V98.61H606.074V100.11ZM666.914 100.11C670.325 100.11 672.919 99.5677 674.672 98.3033C676.481 96.999 677.264 95.0271 677.264 92.52H675.764C675.764 94.6929 675.107 96.1409 673.795 97.0867C672.428 98.0723 670.223 98.61 666.914 98.61V100.11ZM677.264 92.52C677.264 90.6679 676.522 89.2161 675.024 88.2707C673.586 87.3635 671.526 86.97 668.954 86.97V88.47C671.422 88.47 673.141 88.8565 674.224 89.5393C675.245 90.1839 675.764 91.1321 675.764 92.52H677.264ZM668.954 86.97H625.154V88.47H668.954V86.97ZM625.154 86.97C616.123 86.97 609.713 85.0666 605.576 81.834C601.467 78.624 599.504 74.0291 599.504 68.4H598.004C598.004 74.4109 600.121 79.476 604.652 83.016C609.154 86.5334 615.944 88.47 625.154 88.47V86.97ZM599.504 68.4C599.504 60.4223 602.223 53.4839 608.317 48.5216C614.434 43.5405 624.05 40.47 637.994 40.47V38.97C623.858 38.97 613.853 42.0795 607.37 47.3584C600.864 52.6561 598.004 60.0577 598.004 68.4H599.504ZM637.994 40.47H707.714V38.97H637.994V40.47ZM707.168 39.2056L687.488 60.0856L688.58 61.1144L708.26 40.2344L707.168 39.2056ZM688.034 59.85H632.354V61.35H688.034V59.85ZM632.354 59.85C628.964 59.85 626.37 60.2965 624.615 61.4778C622.786 62.709 622.004 64.6361 622.004 67.2H623.504C623.504 64.9639 624.162 63.591 625.453 62.7222C626.817 61.8035 629.024 61.35 632.354 61.35V59.85ZM622.004 67.2C622.004 68.1077 622.181 68.9273 622.57 69.6393C622.961 70.3546 623.543 70.9177 624.284 71.3448C625.735 72.1813 627.82 72.51 630.434 72.51V71.01C627.887 71.01 626.132 70.6787 625.033 70.0452C624.499 69.7373 624.129 69.3629 623.886 68.9195C623.642 68.4727 623.504 67.9123 623.504 67.2H622.004Z" fill="url(#paint3_linear_1381_1037)"/>
</g>
<g filter="url(#filter2_b_1381_1037)">
<path d="M248.66 32.72H338.54L318.86 53.6H269.78L267.98 64.04H328.46L309.98 83.6H264.5L259.34 113H234.38L248.66 32.72ZM444.664 113H351.304L370.024 92.36H390.064C394.984 92.36 400.504 92.36 404.344 92.6C402.664 89.72 400.144 84.8 398.224 80.96L387.544 59.72L340.504 113H311.104L375.424 40.4C379.624 35.72 385.264 31.4 393.064 31.4C400.504 31.4 404.704 35.36 407.344 40.4L444.664 113ZM526.411 78.56L562.291 113H491.971C467.491 113 449.851 101.24 449.851 79.16C449.851 47.24 471.571 31.4 516.571 31.4C551.251 31.4 568.771 42.08 568.771 65.36C568.771 75.2 566.011 81.32 562.171 86.24H535.531C541.531 82.16 543.811 75.56 543.811 67.88C543.811 54.92 534.691 52.28 512.851 52.28C480.571 52.28 474.811 57.2 474.811 77C474.811 88.52 482.611 92.36 495.571 92.36H500.851C503.971 92.36 507.571 92.48 510.451 92.72C508.291 91.16 505.171 88.64 502.891 86.48L494.011 78.56H526.411ZM617.434 64.76H661.114C678.514 64.76 687.754 71 687.754 83C687.754 100.4 676.834 113 648.274 113H573.514L593.074 92.36H653.914C660.634 92.36 663.514 90.2 663.514 85.52C663.514 82.28 660.994 80.72 655.954 80.72H612.154C593.914 80.72 585.754 73.04 585.754 61.4C585.754 45.08 596.914 32.72 624.994 32.72H694.714L675.034 53.6H619.354C612.634 53.6 609.754 55.4 609.754 60.2C609.754 63.44 612.274 64.76 617.434 64.76Z" fill="black"/>
<path d="M248.66 32.72V31.72H247.822L247.675 32.5449L248.66 32.72ZM338.54 32.72L339.267 33.4059L340.856 31.72H338.54V32.72ZM318.86 53.6V54.6H319.291L319.587 54.2859L318.86 53.6ZM269.78 53.6V52.6H268.937L268.794 53.4301L269.78 53.6ZM267.98 64.04L266.994 63.8701L266.793 65.04H267.98V64.04ZM328.46 64.04L329.187 64.7268L330.78 63.04H328.46V64.04ZM309.98 83.6V84.6H310.411L310.707 84.2868L309.98 83.6ZM264.5 83.6V82.6H263.66L263.515 83.4271L264.5 83.6ZM259.34 113V114H260.18L260.325 113.173L259.34 113ZM234.38 113L233.395 112.825L233.186 114H234.38V113ZM248.66 33.72H338.54V31.72H248.66V33.72ZM337.812 32.0341L318.132 52.9141L319.587 54.2859L339.267 33.4059L337.812 32.0341ZM318.86 52.6H269.78V54.6H318.86V52.6ZM268.794 53.4301L266.994 63.8701L268.965 64.2099L270.765 53.7699L268.794 53.4301ZM267.98 65.04H328.46V63.04H267.98V65.04ZM327.733 63.3532L309.253 82.9132L310.707 84.2868L329.187 64.7268L327.733 63.3532ZM309.98 82.6H264.5V84.6H309.98V82.6ZM263.515 83.4271L258.355 112.827L260.325 113.173L265.485 83.7729L263.515 83.4271ZM259.34 112H234.38V114H259.34V112ZM235.364 113.175L249.644 32.8951L247.675 32.5449L233.395 112.825L235.364 113.175ZM444.664 113V114H446.302L445.553 112.543L444.664 113ZM351.304 113L350.563 112.328L349.047 114H351.304V113ZM370.024 92.36V91.36H369.581L369.283 91.6882L370.024 92.36ZM404.344 92.6L404.281 93.5981L406.152 93.715L405.208 92.0961L404.344 92.6ZM398.224 80.96L399.118 80.5128L399.117 80.5108L398.224 80.96ZM387.544 59.72L388.437 59.2708L387.773 57.9496L386.794 59.0582L387.544 59.72ZM340.504 113V114H340.955L341.253 113.662L340.504 113ZM311.104 113L310.355 112.337L308.882 114H311.104V113ZM375.424 40.4L374.68 39.7321L374.675 39.7369L375.424 40.4ZM407.344 40.4L408.233 39.9428L408.23 39.936L407.344 40.4ZM444.664 112H351.304V114H444.664V112ZM352.045 113.672L370.765 93.0318L369.283 91.6882L350.563 112.328L352.045 113.672ZM370.024 93.36H390.064V91.36H370.024V93.36ZM390.064 93.36C394.996 93.36 400.48 93.3605 404.281 93.5981L404.406 91.6019C400.528 91.3595 394.971 91.36 390.064 91.36V93.36ZM405.208 92.0961C403.546 89.2479 401.04 84.3556 399.118 80.5128L397.329 81.4072C399.248 85.2444 401.781 90.1921 403.48 93.1039L405.208 92.0961ZM399.117 80.5108L388.437 59.2708L386.65 60.1692L397.33 81.4092L399.117 80.5108ZM386.794 59.0582L339.754 112.338L341.253 113.662L388.293 60.3818L386.794 59.0582ZM340.504 112H311.104V114H340.504V112ZM311.852 113.663L376.172 41.0631L374.675 39.7369L310.355 112.337L311.852 113.663ZM376.168 41.0679C380.287 36.4786 385.677 32.4 393.064 32.4V30.4C384.85 30.4 378.961 34.9614 374.68 39.7321L376.168 41.0679ZM393.064 32.4C396.594 32.4 399.3 33.3353 401.43 34.8287C403.571 36.3305 405.187 38.4378 406.458 40.864L408.23 39.936C406.861 37.3222 405.057 34.9295 402.578 33.1913C400.088 31.4447 396.974 30.4 393.064 30.4V32.4ZM406.454 40.8572L443.774 113.457L445.553 112.543L408.233 39.9428L406.454 40.8572ZM526.411 78.56L527.104 77.8386L526.813 77.56H526.411V78.56ZM562.291 113V114H564.777L562.984 112.279L562.291 113ZM562.171 86.24V87.24H562.659L562.959 86.8553L562.171 86.24ZM535.531 86.24L534.969 85.4131L532.282 87.24H535.531V86.24ZM510.451 92.72L510.368 93.7165L513.952 94.0152L511.037 91.9093L510.451 92.72ZM502.891 86.48L503.579 85.754L503.568 85.7437L503.557 85.7337L502.891 86.48ZM494.011 78.56V77.56H491.387L493.345 79.3063L494.011 78.56ZM525.719 79.2814L561.599 113.721L562.984 112.279L527.104 77.8386L525.719 79.2814ZM562.291 112H491.971V114H562.291V112ZM491.971 112C479.876 112 469.582 109.093 462.338 103.565C455.126 98.062 450.851 89.9013 450.851 79.16H448.851C448.851 90.4987 453.396 99.258 461.124 105.155C468.82 111.027 479.586 114 491.971 114V112ZM450.851 79.16C450.851 63.4535 456.177 51.8474 466.92 44.1219C477.726 36.3507 494.157 32.4 516.571 32.4V30.4C493.985 30.4 477.056 34.3693 465.752 42.4981C454.385 50.6726 448.851 62.9464 448.851 79.16H450.851ZM516.571 32.4C533.843 32.4 546.662 35.066 555.137 40.4922C563.529 45.8658 567.771 54.0169 567.771 65.36H569.771C569.771 53.4231 565.253 44.5942 556.215 38.8078C547.26 33.074 533.979 30.4 516.571 30.4V32.4ZM567.771 65.36C567.771 74.9738 565.088 80.8779 561.383 85.6247L562.959 86.8553C566.935 81.7621 569.771 75.4262 569.771 65.36H567.771ZM562.171 85.24H535.531V87.24H562.171V85.24ZM536.093 87.0669C542.466 82.7334 544.811 75.75 544.811 67.88H542.811C542.811 75.37 540.596 81.5866 534.969 85.4131L536.093 87.0669ZM544.811 67.88C544.811 64.5285 544.222 61.7441 542.911 59.4746C541.591 57.1918 539.592 55.5191 536.935 54.3098C531.7 51.9274 523.747 51.28 512.851 51.28V53.28C523.795 53.28 531.322 53.9526 536.107 56.1302C538.46 57.2009 540.106 58.6182 541.179 60.4754C542.26 62.3459 542.811 64.7515 542.811 67.88H544.811ZM512.851 51.28C504.765 51.28 498.293 51.5875 493.139 52.3694C487.991 53.1506 484.078 54.4159 481.166 56.3868C475.233 60.4017 473.811 67.0776 473.811 77H475.811C475.811 67.1224 477.269 61.4383 482.286 58.0432C484.849 56.3091 488.429 55.1069 493.439 54.3468C498.444 53.5875 504.798 53.28 512.851 53.28V51.28ZM473.811 77C473.811 83.0159 475.868 87.2049 479.773 89.8299C483.595 92.399 489.032 93.36 495.571 93.36V91.36C489.15 91.36 484.207 90.401 480.889 88.1701C477.654 85.9951 475.811 82.5041 475.811 77H473.811ZM495.571 93.36H500.851V91.36H495.571V93.36ZM500.851 93.36C503.951 93.36 507.522 93.4794 510.368 93.7165L510.534 91.7235C507.62 91.4806 503.991 91.36 500.851 91.36V93.36ZM511.037 91.9093C508.907 90.3712 505.822 87.8792 503.579 85.754L502.203 87.206C504.52 89.4008 507.675 91.9488 509.866 93.5307L511.037 91.9093ZM503.557 85.7337L494.677 77.8137L493.345 79.3063L502.225 87.2263L503.557 85.7337ZM494.011 79.56H526.411V77.56H494.011V79.56ZM573.514 113L572.788 112.312L571.188 114H573.514V113ZM593.074 92.36V91.36H592.644L592.348 91.6721L593.074 92.36ZM694.714 32.72L695.442 33.4059L697.03 31.72H694.714V32.72ZM675.034 53.6V54.6H675.465L675.762 54.2859L675.034 53.6ZM617.434 65.76H661.114V63.76H617.434V65.76ZM661.114 65.76C669.722 65.76 676.148 67.3083 680.395 70.2061C684.581 73.0617 686.754 77.2971 686.754 83H688.754C688.754 76.7029 686.307 71.8183 681.522 68.5539C676.8 65.3317 669.906 63.76 661.114 63.76V65.76ZM686.754 83C686.754 91.4824 684.101 98.6708 678.078 103.761C672.027 108.876 662.427 112 648.274 112V114C662.681 114 672.82 110.824 679.369 105.289C685.947 99.7292 688.754 91.9176 688.754 83H686.754ZM648.274 112H573.514V114H648.274V112ZM574.24 113.688L593.8 93.0479L592.348 91.6721L572.788 112.312L574.24 113.688ZM593.074 93.36H653.914V91.36H593.074V93.36ZM653.914 93.36C657.341 93.36 660.001 92.8169 661.819 91.5061C663.71 90.1421 664.514 88.0828 664.514 85.52H662.514C662.514 87.6372 661.877 88.9979 660.649 89.8839C659.347 90.8231 657.206 91.36 653.914 91.36V93.36ZM664.514 85.52C664.514 83.5906 663.735 82.0548 662.157 81.0593C660.66 80.1146 658.543 79.72 655.954 79.72V81.72C658.404 81.72 660.067 82.1054 661.09 82.7507C662.032 83.3452 662.514 84.2094 662.514 85.52H664.514ZM655.954 79.72H612.154V81.72H655.954V79.72ZM612.154 79.72C603.153 79.72 596.806 77.8221 592.729 74.637C588.691 71.482 586.754 66.9654 586.754 61.4H584.754C584.754 67.4746 586.896 72.618 591.498 76.213C596.061 79.7779 602.914 81.72 612.154 81.72V79.72ZM586.754 61.4C586.754 53.483 589.45 46.6218 595.475 41.7154C601.531 36.7841 611.082 33.72 624.994 33.72V31.72C610.826 31.72 600.756 34.8359 594.212 40.1646C587.638 45.5181 584.754 52.997 584.754 61.4H586.754ZM624.994 33.72H694.714V31.72H624.994V33.72ZM693.986 32.0341L674.306 52.9141L675.762 54.2859L695.442 33.4059L693.986 32.0341ZM675.034 52.6H619.354V54.6H675.034V52.6ZM619.354 52.6C615.954 52.6 613.296 53.0453 611.475 54.2704C609.556 55.562 608.754 57.5814 608.754 60.2H610.754C610.754 58.0185 611.391 56.738 612.592 55.9296C613.892 55.0547 616.034 54.6 619.354 54.6V52.6ZM608.754 60.2C608.754 61.1402 608.937 62.003 609.351 62.7592C609.767 63.5199 610.384 64.1144 611.159 64.5614C612.669 65.4318 614.809 65.76 617.434 65.76V63.76C614.898 63.76 613.198 63.4282 612.158 62.8286C611.659 62.5406 611.323 62.1976 611.106 61.7995C610.885 61.397 610.754 60.8798 610.754 60.2H608.754Z" fill="url(#paint4_linear_1381_1037)"/>
</g>
<defs>
<filter id="filter0_b_1381_1037" x="243.38" y="30.3999" width="490.334" height="111.6" filterUnits="userSpaceOnUse" color-interpolation-filters="sRGB">
<feFlood flood-opacity="0" result="BackgroundImageFix"/>
<feGaussianBlur in="BackgroundImageFix" stdDeviation="7.5"/>
<feComposite in2="SourceAlpha" operator="in" result="effect1_backgroundBlur_1381_1037"/>
<feBlend mode="normal" in="SourceGraphic" in2="effect1_backgroundBlur_1381_1037" result="shape"/>
</filter>
<filter id="filter1_b_1381_1037" x="232.38" y="23.3999" width="490.334" height="111.6" filterUnits="userSpaceOnUse" color-interpolation-filters="sRGB">
<feFlood flood-opacity="0" result="BackgroundImageFix"/>
<feGaussianBlur in="BackgroundImageFix" stdDeviation="7.5"/>
<feComposite in2="SourceAlpha" operator="in" result="effect1_backgroundBlur_1381_1037"/>
<feBlend mode="normal" in="SourceGraphic" in2="effect1_backgroundBlur_1381_1037" result="shape"/>
</filter>
<filter id="filter2_b_1381_1037" x="219.38" y="16.3999" width="490.334" height="111.6" filterUnits="userSpaceOnUse" color-interpolation-filters="sRGB">
<feFlood flood-opacity="0" result="BackgroundImageFix"/>
<feGaussianBlur in="BackgroundImageFix" stdDeviation="7.5"/>
<feComposite in2="SourceAlpha" operator="in" result="effect1_backgroundBlur_1381_1037"/>
<feBlend mode="normal" in="SourceGraphic" in2="effect1_backgroundBlur_1381_1037" result="shape"/>
</filter>
<linearGradient id="paint0_linear_1381_1037" x1="480.152" y1="46" x2="480.152" y2="127" gradientUnits="userSpaceOnUse">
<stop stop-color="#6BC8F6"/>
<stop offset="1" stop-color="#8D78FF"/>
</linearGradient>
<linearGradient id="paint1_linear_1381_1037" x1="549.226" y1="47" x2="549.226" y2="127" gradientUnits="userSpaceOnUse">
<stop stop-color="#6BC7F5"/>
<stop offset="1" stop-color="#8D78FF"/>
</linearGradient>
<linearGradient id="paint2_linear_1381_1037" x1="469.152" y1="39" x2="469.152" y2="120" gradientUnits="userSpaceOnUse">
<stop stop-color="#6BC8F6"/>
<stop offset="1" stop-color="#8D78FF"/>
</linearGradient>
<linearGradient id="paint3_linear_1381_1037" x1="538.226" y1="40" x2="538.226" y2="120" gradientUnits="userSpaceOnUse">
<stop stop-color="#6BC7F5"/>
<stop offset="1" stop-color="#8D78FF"/>
</linearGradient>
<linearGradient id="paint4_linear_1381_1037" x1="525.226" y1="31.5" x2="525.226" y2="113" gradientUnits="userSpaceOnUse">
<stop stop-color="#6BC7F5"/>
<stop offset="1" stop-color="#8D78FF"/>
</linearGradient>
</defs>
</svg>
