<svg width="2460" height="148" viewBox="0 0 2460 148" fill="none" xmlns="http://www.w3.org/2000/svg">
<g opacity="0.25" filter="url(#filter0_b_1381_1018)">
<path d="M1036.14 46.72H1126.02L1106.34 67.6H1057.26L1055.46 78.04H1115.94L1097.46 97.6H1051.98L1046.82 127H1021.86L1036.14 46.72ZM1232.14 127H1138.78L1157.5 106.36H1177.54C1182.46 106.36 1187.98 106.36 1191.82 106.6C1190.14 103.72 1187.62 98.8 1185.7 94.96L1175.02 73.72L1127.98 127H1098.58L1162.9 54.4C1167.1 49.72 1172.74 45.4 1180.54 45.4C1187.98 45.4 1192.18 49.36 1194.82 54.4L1232.14 127ZM1313.89 92.56L1349.77 127H1279.45C1254.97 127 1237.33 115.24 1237.33 93.16C1237.33 61.24 1259.05 45.4 1304.05 45.4C1338.73 45.4 1356.25 56.08 1356.25 79.36C1356.25 89.2 1353.49 95.32 1349.65 100.24H1323.01C1329.01 96.16 1331.29 89.56 1331.29 81.88C1331.29 68.92 1322.17 66.28 1300.33 66.28C1268.05 66.28 1262.29 71.2 1262.29 91C1262.29 102.52 1270.09 106.36 1283.05 106.36H1288.33C1291.45 106.36 1295.05 106.48 1297.93 106.72C1295.77 105.16 1292.65 102.64 1290.37 100.48L1281.49 92.56H1313.89ZM1404.91 78.76H1448.59C1465.99 78.76 1475.23 85 1475.23 97C1475.23 114.4 1464.31 127 1435.75 127H1360.99L1380.55 106.36H1441.39C1448.11 106.36 1450.99 104.2 1450.99 99.52C1450.99 96.28 1448.47 94.72 1443.43 94.72H1399.63C1381.39 94.72 1373.23 87.04 1373.23 75.4C1373.23 59.08 1384.39 46.72 1412.47 46.72H1482.19L1462.51 67.6H1406.83C1400.11 67.6 1397.23 69.4 1397.23 74.2C1397.23 77.44 1399.75 78.76 1404.91 78.76Z" fill="url(#paint0_linear_1381_1018)" fill-opacity="0.35"/>
<path d="M1036.14 46.72V45.97H1035.51L1035.4 46.5887L1036.14 46.72ZM1126.02 46.72L1126.56 47.2344L1127.75 45.97H1126.02V46.72ZM1106.34 67.6V68.35H1106.66L1106.88 68.1144L1106.34 67.6ZM1057.26 67.6V66.85H1056.63L1056.52 67.4726L1057.26 67.6ZM1055.46 78.04L1054.72 77.9126L1054.57 78.79H1055.46V78.04ZM1115.94 78.04L1116.48 78.5551L1117.68 77.29H1115.94V78.04ZM1097.46 97.6V98.35H1097.78L1098 98.1151L1097.46 97.6ZM1051.98 97.6V96.85H1051.35L1051.24 97.4703L1051.98 97.6ZM1046.82 127V127.75H1047.45L1047.56 127.13L1046.82 127ZM1021.86 127L1021.12 126.869L1020.96 127.75H1021.86V127ZM1036.14 47.47H1126.02V45.97H1036.14V47.47ZM1125.47 46.2056L1105.79 67.0856L1106.88 68.1144L1126.56 47.2344L1125.47 46.2056ZM1106.34 66.85H1057.26V68.35H1106.34V66.85ZM1056.52 67.4726L1054.72 77.9126L1056.2 78.1674L1058 67.7274L1056.52 67.4726ZM1055.46 78.79H1115.94V77.29H1055.46V78.79ZM1115.39 77.5249L1096.91 97.0849L1098 98.1151L1116.48 78.5551L1115.39 77.5249ZM1097.46 96.85H1051.98V98.35H1097.46V96.85ZM1051.24 97.4703L1046.08 126.87L1047.56 127.13L1052.72 97.7297L1051.24 97.4703ZM1046.82 126.25H1021.86V127.75H1046.82V126.25ZM1022.6 127.131L1036.88 46.8513L1035.4 46.5887L1021.12 126.869L1022.6 127.131ZM1232.14 127V127.75H1233.37L1232.81 126.657L1232.14 127ZM1138.78 127L1138.23 126.496L1137.09 127.75H1138.78V127ZM1157.5 106.36V105.61H1157.17L1156.95 105.856L1157.5 106.36ZM1191.82 106.6L1191.77 107.349L1193.18 107.436L1192.47 106.222L1191.82 106.6ZM1185.7 94.96L1186.37 94.6246L1186.37 94.6231L1185.7 94.96ZM1175.02 73.72L1175.69 73.3831L1175.19 72.3922L1174.46 73.2236L1175.02 73.72ZM1127.98 127V127.75H1128.32L1128.54 127.496L1127.98 127ZM1098.58 127L1098.02 126.503L1096.91 127.75H1098.58V127ZM1162.9 54.4L1162.34 53.8991L1162.34 53.9026L1162.9 54.4ZM1194.82 54.4L1195.49 54.0571L1195.49 54.052L1194.82 54.4ZM1232.14 126.25H1138.78V127.75H1232.14V126.25ZM1139.34 127.504L1158.06 106.864L1156.95 105.856L1138.23 126.496L1139.34 127.504ZM1157.5 107.11H1177.54V105.61H1157.5V107.11ZM1177.54 107.11C1182.47 107.11 1187.96 107.11 1191.77 107.349L1191.87 105.851C1188 105.61 1182.45 105.61 1177.54 105.61V107.11ZM1192.47 106.222C1190.8 103.366 1188.29 98.4667 1186.37 94.6246L1185.03 95.2954C1186.95 99.1333 1189.48 104.074 1191.17 106.978L1192.47 106.222ZM1186.37 94.6231L1175.69 73.3831L1174.35 74.0569L1185.03 95.2969L1186.37 94.6231ZM1174.46 73.2236L1127.42 126.504L1128.54 127.496L1175.58 74.2164L1174.46 73.2236ZM1127.98 126.25H1098.58V127.75H1127.98V126.25ZM1099.14 127.497L1163.46 54.8973L1162.34 53.9026L1098.02 126.503L1099.14 127.497ZM1163.46 54.9009C1167.6 50.289 1173.05 46.15 1180.54 46.15V44.65C1172.43 44.65 1166.6 49.151 1162.34 53.8991L1163.46 54.9009ZM1180.54 46.15C1184.12 46.15 1186.88 47.099 1189.05 48.624C1191.23 50.1554 1192.87 52.2984 1194.16 54.748L1195.49 54.052C1194.13 51.4616 1192.35 49.1046 1189.91 47.3959C1187.47 45.681 1184.4 44.65 1180.54 44.65V46.15ZM1194.15 54.7429L1231.47 127.343L1232.81 126.657L1195.49 54.0571L1194.15 54.7429ZM1313.89 92.56L1314.41 92.0189L1314.19 91.81H1313.89V92.56ZM1349.77 127V127.75H1351.63L1350.29 126.459L1349.77 127ZM1349.65 100.24V100.99H1350.01L1350.24 100.701L1349.65 100.24ZM1323.01 100.24L1322.59 99.6198L1320.57 100.99H1323.01V100.24ZM1297.93 106.72L1297.87 107.467L1300.55 107.691L1298.37 106.112L1297.93 106.72ZM1290.37 100.48L1290.88 99.9355L1290.88 99.9278L1290.87 99.9203L1290.37 100.48ZM1281.49 92.56V91.81H1279.52L1280.99 93.1197L1281.49 92.56ZM1313.37 93.1011L1349.25 127.541L1350.29 126.459L1314.41 92.0189L1313.37 93.1011ZM1349.77 126.25H1279.45V127.75H1349.77V126.25ZM1279.45 126.25C1267.32 126.25 1256.96 123.335 1249.66 117.764C1242.39 112.212 1238.08 103.976 1238.08 93.16H1236.58C1236.58 104.424 1241.09 113.108 1248.75 118.956C1256.39 124.785 1267.1 127.75 1279.45 127.75V126.25ZM1238.08 93.16C1238.08 77.3902 1243.43 65.7005 1254.25 57.9189C1265.12 50.103 1281.61 46.15 1304.05 46.15V44.65C1281.48 44.65 1264.62 48.6169 1253.38 56.7011C1242.09 64.8195 1236.58 77.0098 1236.58 93.16H1238.08ZM1304.05 46.15C1321.34 46.15 1334.21 48.817 1342.75 54.2816C1351.22 59.7068 1355.5 67.9426 1355.5 79.36H1357C1357 67.4974 1352.51 58.7532 1343.56 53.0184C1334.66 47.323 1321.44 44.65 1304.05 44.65V46.15ZM1355.5 79.36C1355.5 89.0303 1352.8 94.9884 1349.06 99.7785L1350.24 100.701C1354.18 95.6516 1357 89.3697 1357 79.36H1355.5ZM1349.65 99.49H1323.01V100.99H1349.65V99.49ZM1323.43 100.86C1329.71 96.5901 1332.04 89.7025 1332.04 81.88H1330.54C1330.54 89.4175 1328.31 95.7299 1322.59 99.6198L1323.43 100.86ZM1332.04 81.88C1332.04 78.5564 1331.45 75.8193 1330.17 73.5997C1328.88 71.3701 1326.93 69.7293 1324.31 68.5374C1319.13 66.1805 1311.23 65.53 1300.33 65.53V67.03C1311.27 67.03 1318.85 67.6994 1323.69 69.9026C1326.08 70.9907 1327.77 72.4399 1328.87 74.3503C1329.98 76.2707 1330.54 78.7236 1330.54 81.88H1332.04ZM1300.33 65.53C1292.25 65.53 1285.79 65.8375 1280.65 66.6166C1275.52 67.3951 1271.65 68.6525 1268.78 70.5939C1262.96 74.5312 1261.54 81.0832 1261.54 91H1263.04C1263.04 81.1168 1264.49 75.3087 1269.62 71.8361C1272.23 70.0725 1275.85 68.8624 1280.88 68.0996C1285.9 67.3375 1292.27 67.03 1300.33 67.03V65.53ZM1261.54 91C1261.54 96.9519 1263.57 101.054 1267.39 103.622C1271.15 106.149 1276.52 107.11 1283.05 107.11V105.61C1276.61 105.61 1271.61 104.651 1268.23 102.378C1264.91 100.146 1263.04 96.5681 1263.04 91H1261.54ZM1283.05 107.11H1288.33V105.61H1283.05V107.11ZM1288.33 107.11C1291.43 107.11 1295.01 107.23 1297.87 107.467L1297.99 105.973C1295.08 105.73 1291.46 105.61 1288.33 105.61V107.11ZM1298.37 106.112C1296.23 104.568 1293.14 102.069 1290.88 99.9355L1289.85 101.024C1292.16 103.211 1295.31 105.752 1297.49 107.328L1298.37 106.112ZM1290.87 99.9203L1281.99 92.0003L1280.99 93.1197L1289.87 101.04L1290.87 99.9203ZM1281.49 93.31H1313.89V91.81H1281.49V93.31ZM1360.99 127L1360.45 126.484L1359.25 127.75H1360.99V127ZM1380.55 106.36V105.61H1380.23L1380.01 105.844L1380.55 106.36ZM1482.19 46.72L1482.74 47.2344L1483.93 45.97H1482.19V46.72ZM1462.51 67.6V68.35H1462.83L1463.06 68.1144L1462.51 67.6ZM1404.91 79.51H1448.59V78.01H1404.91V79.51ZM1448.59 79.51C1457.22 79.51 1463.71 81.0612 1468.01 83.9995C1472.27 86.9063 1474.48 91.2228 1474.48 97H1475.98C1475.98 90.7772 1473.57 85.9737 1468.86 82.7605C1464.2 79.5788 1457.36 78.01 1448.59 78.01V79.51ZM1474.48 97C1474.48 105.537 1471.81 112.803 1465.72 117.952C1459.6 123.119 1449.94 126.25 1435.75 126.25V127.75C1450.13 127.75 1460.2 124.581 1466.68 119.098C1473.19 113.597 1475.98 105.863 1475.98 97H1474.48ZM1435.75 126.25H1360.99V127.75H1435.75V126.25ZM1361.54 127.516L1381.1 106.876L1380.01 105.844L1360.45 126.484L1361.54 127.516ZM1380.55 107.11H1441.39V105.61H1380.55V107.11ZM1441.39 107.11C1444.8 107.11 1447.4 106.568 1449.15 105.303C1450.96 103.999 1451.74 102.027 1451.74 99.52H1450.24C1450.24 101.693 1449.58 103.141 1448.27 104.087C1446.91 105.072 1444.7 105.61 1441.39 105.61V107.11ZM1451.74 99.52C1451.74 97.6679 1451 96.2161 1449.5 95.2707C1448.06 94.3635 1446 93.97 1443.43 93.97V95.47C1445.9 95.47 1447.62 95.8565 1448.7 96.5393C1449.72 97.1839 1450.24 98.1321 1450.24 99.52H1451.74ZM1443.43 93.97H1399.63V95.47H1443.43V93.97ZM1399.63 93.97C1390.6 93.97 1384.19 92.0666 1380.05 88.834C1375.94 85.624 1373.98 81.0291 1373.98 75.4H1372.48C1372.48 81.4109 1374.6 86.476 1379.13 90.016C1383.63 93.5334 1390.42 95.47 1399.63 95.47V93.97ZM1373.98 75.4C1373.98 67.4223 1376.7 60.4839 1382.79 55.5216C1388.91 50.5405 1398.53 47.47 1412.47 47.47V45.97C1398.33 45.97 1388.33 49.0795 1381.85 54.3584C1375.34 59.6561 1372.48 67.0577 1372.48 75.4H1373.98ZM1412.47 47.47H1482.19V45.97H1412.47V47.47ZM1481.65 46.2056L1461.97 67.0856L1463.06 68.1144L1482.74 47.2344L1481.65 46.2056ZM1462.51 66.85H1406.83V68.35H1462.51V66.85ZM1406.83 66.85C1403.44 66.85 1400.85 67.2965 1399.09 68.4778C1397.26 69.709 1396.48 71.6361 1396.48 74.2H1397.98C1397.98 71.9639 1398.64 70.591 1399.93 69.7222C1401.29 68.8035 1403.5 68.35 1406.83 68.35V66.85ZM1396.48 74.2C1396.48 75.1077 1396.66 75.9273 1397.05 76.6393C1397.44 77.3546 1398.02 77.9177 1398.76 78.3448C1400.21 79.1813 1402.3 79.51 1404.91 79.51V78.01C1402.36 78.01 1400.61 77.6787 1399.51 77.0452C1398.98 76.7373 1398.61 76.3629 1398.36 75.9195C1398.12 75.4727 1397.98 74.9123 1397.98 74.2H1396.48Z" fill="url(#paint1_linear_1381_1018)"/>
</g>
<g opacity="0.6" filter="url(#filter1_b_1381_1018)">
<path d="M1022.16 39.72H1112.04L1092.36 60.6H1043.28L1041.48 71.04H1101.96L1083.48 90.6H1038L1032.84 120H1007.88L1022.16 39.72ZM1218.16 120H1124.8L1143.52 99.36H1163.56C1168.48 99.36 1174 99.36 1177.84 99.6C1176.16 96.72 1173.64 91.8 1171.72 87.96L1161.04 66.72L1114 120H1084.6L1148.92 47.4C1153.12 42.72 1158.76 38.4 1166.56 38.4C1174 38.4 1178.2 42.36 1180.84 47.4L1218.16 120ZM1299.91 85.56L1335.79 120H1265.47C1240.99 120 1223.35 108.24 1223.35 86.16C1223.35 54.24 1245.07 38.4 1290.07 38.4C1324.75 38.4 1342.27 49.08 1342.27 72.36C1342.27 82.2 1339.51 88.32 1335.67 93.24H1309.03C1315.03 89.16 1317.31 82.56 1317.31 74.88C1317.31 61.92 1308.19 59.28 1286.35 59.28C1254.07 59.28 1248.31 64.2 1248.31 84C1248.31 95.52 1256.11 99.36 1269.07 99.36H1274.35C1277.47 99.36 1281.07 99.48 1283.95 99.72C1281.79 98.16 1278.67 95.64 1276.39 93.48L1267.51 85.56H1299.91ZM1390.93 71.76H1434.61C1452.01 71.76 1461.25 78 1461.25 90C1461.25 107.4 1450.33 120 1421.77 120H1347.01L1366.57 99.36H1427.41C1434.13 99.36 1437.01 97.2 1437.01 92.52C1437.01 89.28 1434.49 87.72 1429.45 87.72H1385.65C1367.41 87.72 1359.25 80.04 1359.25 68.4C1359.25 52.08 1370.41 39.72 1398.49 39.72H1468.21L1448.53 60.6H1392.85C1386.13 60.6 1383.25 62.4 1383.25 67.2C1383.25 70.44 1385.77 71.76 1390.93 71.76Z" fill="url(#paint2_linear_1381_1018)" fill-opacity="0.35"/>
<path d="M1022.16 39.72V38.97H1021.53L1021.42 39.5887L1022.16 39.72ZM1112.04 39.72L1112.59 40.2344L1113.78 38.97H1112.04V39.72ZM1092.36 60.6V61.35H1092.68L1092.91 61.1144L1092.36 60.6ZM1043.28 60.6V59.85H1042.65L1042.54 60.4726L1043.28 60.6ZM1041.48 71.04L1040.74 70.9126L1040.59 71.79H1041.48V71.04ZM1101.96 71.04L1102.5 71.5551L1103.7 70.29H1101.96V71.04ZM1083.48 90.6V91.35H1083.8L1084.02 91.1151L1083.48 90.6ZM1038 90.6V89.85H1037.37L1037.26 90.4703L1038 90.6ZM1032.84 120V120.75H1033.47L1033.58 120.13L1032.84 120ZM1007.88 120L1007.14 119.869L1006.98 120.75H1007.88V120ZM1022.16 40.47H1112.04V38.97H1022.16V40.47ZM1111.49 39.2056L1091.81 60.0856L1092.91 61.1144L1112.59 40.2344L1111.49 39.2056ZM1092.36 59.85H1043.28V61.35H1092.36V59.85ZM1042.54 60.4726L1040.74 70.9126L1042.22 71.1674L1044.02 60.7274L1042.54 60.4726ZM1041.48 71.79H1101.96V70.29H1041.48V71.79ZM1101.41 70.5249L1082.93 90.0849L1084.02 91.1151L1102.5 71.5551L1101.41 70.5249ZM1083.48 89.85H1038V91.35H1083.48V89.85ZM1037.26 90.4703L1032.1 119.87L1033.58 120.13L1038.74 90.7297L1037.26 90.4703ZM1032.84 119.25H1007.88V120.75H1032.84V119.25ZM1008.62 120.131L1022.9 39.8513L1021.42 39.5887L1007.14 119.869L1008.62 120.131ZM1218.16 120V120.75H1219.39L1218.83 119.657L1218.16 120ZM1124.8 120L1124.25 119.496L1123.11 120.75H1124.8V120ZM1143.52 99.36V98.61H1143.19L1142.97 98.8561L1143.52 99.36ZM1177.84 99.6L1177.8 100.349L1179.2 100.436L1178.49 99.2221L1177.84 99.6ZM1171.72 87.96L1172.39 87.6246L1172.39 87.6231L1171.72 87.96ZM1161.04 66.72L1161.71 66.3831L1161.22 65.3922L1160.48 66.2236L1161.04 66.72ZM1114 120V120.75H1114.34L1114.57 120.496L1114 120ZM1084.6 120L1084.04 119.503L1082.94 120.75H1084.6V120ZM1148.92 47.4L1148.37 46.8991L1148.36 46.9026L1148.92 47.4ZM1180.84 47.4L1181.51 47.0571L1181.51 47.052L1180.84 47.4ZM1218.16 119.25H1124.8V120.75H1218.16V119.25ZM1125.36 120.504L1144.08 99.8639L1142.97 98.8561L1124.25 119.496L1125.36 120.504ZM1143.52 100.11H1163.56V98.61H1143.52V100.11ZM1163.56 100.11C1168.49 100.11 1173.99 100.11 1177.8 100.349L1177.89 98.8515C1174.02 98.6097 1168.47 98.61 1163.56 98.61V100.11ZM1178.49 99.2221C1176.83 96.3659 1174.32 91.4667 1172.39 87.6246L1171.05 88.2954C1172.97 92.1333 1175.5 97.0741 1177.2 99.9779L1178.49 99.2221ZM1172.39 87.6231L1161.71 66.3831L1160.37 67.0569L1171.05 88.2969L1172.39 87.6231ZM1160.48 66.2236L1113.44 119.504L1114.57 120.496L1161.61 67.2164L1160.48 66.2236ZM1114 119.25H1084.6V120.75H1114V119.25ZM1085.16 120.497L1149.48 47.8973L1148.36 46.9026L1084.04 119.503L1085.16 120.497ZM1149.48 47.9009C1153.62 43.289 1159.07 39.15 1166.56 39.15V37.65C1158.45 37.65 1152.63 42.151 1148.37 46.8991L1149.48 47.9009ZM1166.56 39.15C1170.14 39.15 1172.9 40.099 1175.07 41.624C1177.26 43.1554 1178.9 45.2984 1180.18 47.748L1181.51 47.052C1180.15 44.4616 1178.37 42.1046 1175.93 40.3959C1173.49 38.681 1170.43 37.65 1166.56 37.65V39.15ZM1180.18 47.7429L1217.5 120.343L1218.83 119.657L1181.51 47.0571L1180.18 47.7429ZM1299.91 85.56L1300.43 85.0189L1300.21 84.81H1299.91V85.56ZM1335.79 120V120.75H1337.66L1336.31 119.459L1335.79 120ZM1335.67 93.24V93.99H1336.04L1336.26 93.7015L1335.67 93.24ZM1309.03 93.24L1308.61 92.6198L1306.59 93.99H1309.03V93.24ZM1283.95 99.72L1283.89 100.467L1286.58 100.691L1284.39 99.112L1283.95 99.72ZM1276.39 93.48L1276.91 92.9355L1276.9 92.9278L1276.89 92.9203L1276.39 93.48ZM1267.51 85.56V84.81H1265.54L1267.01 86.1197L1267.51 85.56ZM1299.39 86.1011L1335.27 120.541L1336.31 119.459L1300.43 85.0189L1299.39 86.1011ZM1335.79 119.25H1265.47V120.75H1335.79V119.25ZM1265.47 119.25C1253.34 119.25 1242.99 116.335 1235.69 110.764C1228.41 105.212 1224.1 96.976 1224.1 86.16H1222.6C1222.6 97.424 1227.11 106.108 1234.78 111.956C1242.41 117.785 1253.12 120.75 1265.47 120.75V119.25ZM1224.1 86.16C1224.1 70.3902 1229.45 58.7005 1240.27 50.9189C1251.14 43.103 1267.64 39.15 1290.07 39.15V37.65C1267.51 37.65 1250.64 41.6169 1239.4 49.7011C1228.11 57.8195 1222.6 70.0098 1222.6 86.16H1224.1ZM1290.07 39.15C1307.36 39.15 1320.24 41.817 1328.77 47.2816C1337.24 52.7068 1341.52 60.9426 1341.52 72.36H1343.02C1343.02 60.4974 1338.54 51.7532 1329.58 46.0184C1320.69 40.323 1307.46 37.65 1290.07 37.65V39.15ZM1341.52 72.36C1341.52 82.0303 1338.82 87.9884 1335.08 92.7785L1336.26 93.7015C1340.2 88.6516 1343.02 82.3697 1343.02 72.36H1341.52ZM1335.67 92.49H1309.03V93.99H1335.67V92.49ZM1309.45 93.8602C1315.73 89.5901 1318.06 82.7025 1318.06 74.88H1316.56C1316.56 82.4175 1314.33 88.7299 1308.61 92.6198L1309.45 93.8602ZM1318.06 74.88C1318.06 71.5564 1317.48 68.8193 1316.19 66.5997C1314.91 64.3701 1312.95 62.7293 1310.33 61.5374C1305.15 59.1805 1297.25 58.53 1286.35 58.53V60.03C1297.29 60.03 1304.87 60.6994 1309.71 62.9026C1312.1 63.9907 1313.79 65.4399 1314.9 67.3503C1316.01 69.2707 1316.56 71.7236 1316.56 74.88H1318.06ZM1286.35 58.53C1278.27 58.53 1271.81 58.8375 1266.68 59.6166C1261.55 60.3951 1257.67 61.6525 1254.81 63.5939C1248.99 67.5312 1247.56 74.0832 1247.56 84H1249.06C1249.06 74.1168 1250.51 68.3087 1255.65 64.8361C1258.25 63.0725 1261.87 61.8624 1266.9 61.0996C1271.92 60.3375 1278.29 60.03 1286.35 60.03V58.53ZM1247.56 84C1247.56 89.9519 1249.59 94.0537 1253.41 96.6224C1257.17 99.1493 1262.55 100.11 1269.07 100.11V98.61C1262.64 98.61 1257.63 97.6507 1254.25 95.3776C1250.93 93.1463 1249.06 89.5681 1249.06 84H1247.56ZM1269.07 100.11H1274.35V98.61H1269.07V100.11ZM1274.35 100.11C1277.46 100.11 1281.03 100.23 1283.89 100.467L1284.01 98.9726C1281.11 98.7305 1277.49 98.61 1274.35 98.61V100.11ZM1284.39 99.112C1282.25 97.5684 1279.16 95.0694 1276.91 92.9355L1275.87 94.0245C1278.18 96.2106 1281.33 98.7516 1283.51 100.328L1284.39 99.112ZM1276.89 92.9203L1268.01 85.0003L1267.01 86.1197L1275.89 94.0397L1276.89 92.9203ZM1267.51 86.31H1299.91V84.81H1267.51V86.31ZM1347.01 120L1346.47 119.484L1345.27 120.75H1347.01V120ZM1366.57 99.36V98.61H1366.25L1366.03 98.8441L1366.57 99.36ZM1468.21 39.72L1468.76 40.2344L1469.95 38.97H1468.21V39.72ZM1448.53 60.6V61.35H1448.86L1449.08 61.1144L1448.53 60.6ZM1390.93 72.51H1434.61V71.01H1390.93V72.51ZM1434.61 72.51C1443.24 72.51 1449.73 74.0612 1454.04 76.9995C1458.3 79.9063 1460.5 84.2228 1460.5 90H1462C1462 83.7772 1459.59 78.9737 1454.88 75.7605C1450.22 72.5788 1443.38 71.01 1434.61 71.01V72.51ZM1460.5 90C1460.5 98.5368 1457.83 105.803 1451.74 110.952C1445.63 116.119 1435.96 119.25 1421.77 119.25V120.75C1436.15 120.75 1446.22 117.581 1452.71 112.098C1459.22 106.597 1462 98.8632 1462 90H1460.5ZM1421.77 119.25H1347.01V120.75H1421.77V119.25ZM1347.56 120.516L1367.12 99.8759L1366.03 98.8441L1346.47 119.484L1347.56 120.516ZM1366.57 100.11H1427.41V98.61H1366.57V100.11ZM1427.41 100.11C1430.82 100.11 1433.42 99.5677 1435.17 98.3033C1436.98 96.999 1437.76 95.0271 1437.76 92.52H1436.26C1436.26 94.6929 1435.61 96.1409 1434.29 97.0867C1432.93 98.0723 1430.72 98.61 1427.41 98.61V100.11ZM1437.76 92.52C1437.76 90.6679 1437.02 89.2161 1435.52 88.2707C1434.09 87.3635 1432.03 86.97 1429.45 86.97V88.47C1431.92 88.47 1433.64 88.8565 1434.72 89.5393C1435.74 90.1839 1436.26 91.1321 1436.26 92.52H1437.76ZM1429.45 86.97H1385.65V88.47H1429.45V86.97ZM1385.65 86.97C1376.62 86.97 1370.21 85.0666 1366.08 81.834C1361.97 78.624 1360 74.0291 1360 68.4H1358.5C1358.5 74.4109 1360.62 79.476 1365.15 83.016C1369.65 86.5334 1376.44 88.47 1385.65 88.47V86.97ZM1360 68.4C1360 60.4223 1362.72 53.4839 1368.82 48.5216C1374.93 43.5405 1384.55 40.47 1398.49 40.47V38.97C1384.36 38.97 1374.35 42.0795 1367.87 47.3584C1361.36 52.6561 1358.5 60.0577 1358.5 68.4H1360ZM1398.49 40.47H1468.21V38.97H1398.49V40.47ZM1467.67 39.2056L1447.99 60.0856L1449.08 61.1144L1468.76 40.2344L1467.67 39.2056ZM1448.53 59.85H1392.85V61.35H1448.53V59.85ZM1392.85 59.85C1389.46 59.85 1386.87 60.2965 1385.11 61.4778C1383.29 62.709 1382.5 64.6361 1382.5 67.2H1384C1384 64.9639 1384.66 63.591 1385.95 62.7222C1387.32 61.8035 1389.52 61.35 1392.85 61.35V59.85ZM1382.5 67.2C1382.5 68.1077 1382.68 68.9273 1383.07 69.6393C1383.46 70.3546 1384.04 70.9177 1384.78 71.3448C1386.24 72.1813 1388.32 72.51 1390.93 72.51V71.01C1388.39 71.01 1386.63 70.6787 1385.53 70.0452C1385 69.7373 1384.63 69.3629 1384.39 68.9195C1384.14 68.4727 1384 67.9123 1384 67.2H1382.5Z" fill="url(#paint3_linear_1381_1018)"/>
</g>
<g filter="url(#filter2_b_1381_1018)">
<path d="M1007.02 32.72H1096.9L1077.22 53.6H1028.14L1026.34 64.04H1086.82L1068.34 83.6H1022.86L1017.7 113H992.737L1007.02 32.72ZM1203.02 113H1109.66L1128.38 92.36H1148.42C1153.34 92.36 1158.86 92.36 1162.7 92.6C1161.02 89.72 1158.5 84.8 1156.58 80.96L1145.9 59.72L1098.86 113H1069.46L1133.78 40.4C1137.98 35.72 1143.62 31.4 1151.42 31.4C1158.86 31.4 1163.06 35.36 1165.7 40.4L1203.02 113ZM1284.77 78.56L1320.65 113H1250.33C1225.85 113 1208.21 101.24 1208.21 79.16C1208.21 47.24 1229.93 31.4 1274.93 31.4C1309.61 31.4 1327.13 42.08 1327.13 65.36C1327.13 75.2 1324.37 81.32 1320.53 86.24H1293.89C1299.89 82.16 1302.17 75.56 1302.17 67.88C1302.17 54.92 1293.05 52.28 1271.21 52.28C1238.93 52.28 1233.17 57.2 1233.17 77C1233.17 88.52 1240.97 92.36 1253.93 92.36H1259.21C1262.33 92.36 1265.93 92.48 1268.81 92.72C1266.65 91.16 1263.53 88.64 1261.25 86.48L1252.37 78.56H1284.77ZM1375.79 64.76H1419.47C1436.87 64.76 1446.11 71 1446.11 83C1446.11 100.4 1435.19 113 1406.63 113H1331.87L1351.43 92.36H1412.27C1418.99 92.36 1421.87 90.2 1421.87 85.52C1421.87 82.28 1419.35 80.72 1414.31 80.72H1370.51C1352.27 80.72 1344.11 73.04 1344.11 61.4C1344.11 45.08 1355.27 32.72 1383.35 32.72H1453.07L1433.39 53.6H1377.71C1370.99 53.6 1368.11 55.4 1368.11 60.2C1368.11 63.44 1370.63 64.76 1375.79 64.76Z" fill="black"/>
<path d="M1007.02 32.72V31.72H1006.18L1006.03 32.5449L1007.02 32.72ZM1096.9 32.72L1097.63 33.4059L1099.21 31.72H1096.9V32.72ZM1077.22 53.6V54.6H1077.65L1077.95 54.2859L1077.22 53.6ZM1028.14 53.6V52.6H1027.3L1027.15 53.4301L1028.14 53.6ZM1026.34 64.04L1025.35 63.8701L1025.15 65.04H1026.34V64.04ZM1086.82 64.04L1087.54 64.7268L1089.14 63.04H1086.82V64.04ZM1068.34 83.6V84.6H1068.77L1069.06 84.2868L1068.34 83.6ZM1022.86 83.6V82.6H1022.02L1021.87 83.4271L1022.86 83.6ZM1017.7 113V114H1018.54L1018.68 113.173L1017.7 113ZM992.737 113L991.753 112.825L991.544 114H992.737V113ZM1007.02 33.72H1096.9V31.72H1007.02V33.72ZM1096.17 32.0341L1076.49 52.9141L1077.95 54.2859L1097.63 33.4059L1096.17 32.0341ZM1077.22 52.6H1028.14V54.6H1077.22V52.6ZM1027.15 53.4301L1025.35 63.8701L1027.32 64.2099L1029.12 53.7699L1027.15 53.4301ZM1026.34 65.04H1086.82V63.04H1026.34V65.04ZM1086.09 63.3532L1067.61 82.9132L1069.06 84.2868L1087.54 64.7268L1086.09 63.3532ZM1068.34 82.6H1022.86V84.6H1068.34V82.6ZM1021.87 83.4271L1016.71 112.827L1018.68 113.173L1023.84 83.7729L1021.87 83.4271ZM1017.7 112H992.737V114H1017.7V112ZM993.722 113.175L1008 32.8951L1006.03 32.5449L991.753 112.825L993.722 113.175ZM1203.02 113V114H1204.66L1203.91 112.543L1203.02 113ZM1109.66 113L1108.92 112.328L1107.4 114H1109.66V113ZM1128.38 92.36V91.36H1127.94L1127.64 91.6882L1128.38 92.36ZM1162.7 92.6L1162.64 93.5981L1164.51 93.715L1163.57 92.0961L1162.7 92.6ZM1156.58 80.96L1157.48 80.5128L1157.47 80.5108L1156.58 80.96ZM1145.9 59.72L1146.79 59.2708L1146.13 57.9496L1145.15 59.0582L1145.9 59.72ZM1098.86 113V114H1099.31L1099.61 113.662L1098.86 113ZM1069.46 113L1068.71 112.337L1067.24 114H1069.46V113ZM1133.78 40.4L1133.04 39.7321L1133.03 39.7369L1133.78 40.4ZM1165.7 40.4L1166.59 39.9428L1166.59 39.936L1165.7 40.4ZM1203.02 112H1109.66V114H1203.02V112ZM1110.4 113.672L1129.12 93.0318L1127.64 91.6882L1108.92 112.328L1110.4 113.672ZM1128.38 93.36H1148.42V91.36H1128.38V93.36ZM1148.42 93.36C1153.35 93.36 1158.84 93.3605 1162.64 93.5981L1162.76 91.6019C1158.89 91.3595 1153.33 91.36 1148.42 91.36V93.36ZM1163.57 92.0961C1161.9 89.2479 1159.4 84.3556 1157.48 80.5128L1155.69 81.4072C1157.61 85.2444 1160.14 90.1921 1161.84 93.1039L1163.57 92.0961ZM1157.47 80.5108L1146.79 59.2708L1145.01 60.1692L1155.69 81.4092L1157.47 80.5108ZM1145.15 59.0582L1098.11 112.338L1099.61 113.662L1146.65 60.3818L1145.15 59.0582ZM1098.86 112H1069.46V114H1098.86V112ZM1070.21 113.663L1134.53 41.0631L1133.03 39.7369L1068.71 112.337L1070.21 113.663ZM1134.53 41.0679C1138.64 36.4786 1144.03 32.4 1151.42 32.4V30.4C1143.21 30.4 1137.32 34.9614 1133.04 39.7321L1134.53 41.0679ZM1151.42 32.4C1154.95 32.4 1157.66 33.3353 1159.79 34.8287C1161.93 36.3305 1163.54 38.4378 1164.82 40.864L1166.59 39.936C1165.22 37.3222 1163.41 34.9295 1160.94 33.1913C1158.45 31.4447 1155.33 30.4 1151.42 30.4V32.4ZM1164.81 40.8572L1202.13 113.457L1203.91 112.543L1166.59 39.9428L1164.81 40.8572ZM1284.77 78.56L1285.46 77.8386L1285.17 77.56H1284.77V78.56ZM1320.65 113V114H1323.13L1321.34 112.279L1320.65 113ZM1320.53 86.24V87.24H1321.02L1321.32 86.8553L1320.53 86.24ZM1293.89 86.24L1293.33 85.4131L1290.64 87.24H1293.89V86.24ZM1268.81 92.72L1268.73 93.7165L1272.31 94.0152L1269.39 91.9093L1268.81 92.72ZM1261.25 86.48L1261.94 85.754L1261.93 85.7437L1261.91 85.7337L1261.25 86.48ZM1252.37 78.56V77.56H1249.75L1251.7 79.3063L1252.37 78.56ZM1284.08 79.2814L1319.96 113.721L1321.34 112.279L1285.46 77.8386L1284.08 79.2814ZM1320.65 112H1250.33V114H1320.65V112ZM1250.33 112C1238.23 112 1227.94 109.093 1220.7 103.565C1213.48 98.062 1209.21 89.9013 1209.21 79.16H1207.21C1207.21 90.4987 1211.75 99.258 1219.48 105.155C1227.18 111.027 1237.94 114 1250.33 114V112ZM1209.21 79.16C1209.21 63.4535 1214.53 51.8474 1225.28 44.1219C1236.08 36.3507 1252.51 32.4 1274.93 32.4V30.4C1252.34 30.4 1235.41 34.3693 1224.11 42.4981C1212.74 50.6726 1207.21 62.9464 1207.21 79.16H1209.21ZM1274.93 32.4C1292.2 32.4 1305.02 35.066 1313.49 40.4922C1321.89 45.8658 1326.13 54.0169 1326.13 65.36H1328.13C1328.13 53.4231 1323.61 44.5942 1314.57 38.8078C1305.62 33.074 1292.34 30.4 1274.93 30.4V32.4ZM1326.13 65.36C1326.13 74.9738 1323.45 80.8779 1319.74 85.6247L1321.32 86.8553C1325.29 81.7621 1328.13 75.4262 1328.13 65.36H1326.13ZM1320.53 85.24H1293.89V87.24H1320.53V85.24ZM1294.45 87.0669C1300.82 82.7334 1303.17 75.75 1303.17 67.88H1301.17C1301.17 75.37 1298.95 81.5866 1293.33 85.4131L1294.45 87.0669ZM1303.17 67.88C1303.17 64.5285 1302.58 61.7441 1301.27 59.4746C1299.95 57.1918 1297.95 55.5191 1295.29 54.3098C1290.06 51.9274 1282.11 51.28 1271.21 51.28V53.28C1282.15 53.28 1289.68 53.9526 1294.46 56.1302C1296.82 57.2009 1298.46 58.6182 1299.54 60.4754C1300.62 62.3459 1301.17 64.7515 1301.17 67.88H1303.17ZM1271.21 51.28C1263.12 51.28 1256.65 51.5875 1251.5 52.3694C1246.35 53.1506 1242.44 54.4159 1239.52 56.3868C1233.59 60.4017 1232.17 67.0776 1232.17 77H1234.17C1234.17 67.1224 1235.63 61.4383 1240.64 58.0432C1243.21 56.3091 1246.79 55.1069 1251.8 54.3468C1256.8 53.5875 1263.16 53.28 1271.21 53.28V51.28ZM1232.17 77C1232.17 83.0159 1234.23 87.2049 1238.13 89.8299C1241.95 92.399 1247.39 93.36 1253.93 93.36V91.36C1247.51 91.36 1242.57 90.401 1239.25 88.1701C1236.01 85.9951 1234.17 82.5041 1234.17 77H1232.17ZM1253.93 93.36H1259.21V91.36H1253.93V93.36ZM1259.21 93.36C1262.31 93.36 1265.88 93.4794 1268.73 93.7165L1268.89 91.7235C1265.98 91.4806 1262.35 91.36 1259.21 91.36V93.36ZM1269.39 91.9093C1267.26 90.3712 1264.18 87.8792 1261.94 85.754L1260.56 87.206C1262.88 89.4008 1266.03 91.9488 1268.22 93.5307L1269.39 91.9093ZM1261.91 85.7337L1253.03 77.8137L1251.7 79.3063L1260.58 87.2263L1261.91 85.7337ZM1252.37 79.56H1284.77V77.56H1252.37V79.56ZM1331.87 113L1331.15 112.312L1329.55 114H1331.87V113ZM1351.43 92.36V91.36H1351L1350.71 91.6721L1351.43 92.36ZM1453.07 32.72L1453.8 33.4059L1455.39 31.72H1453.07V32.72ZM1433.39 53.6V54.6H1433.82L1434.12 54.2859L1433.39 53.6ZM1375.79 65.76H1419.47V63.76H1375.79V65.76ZM1419.47 65.76C1428.08 65.76 1434.51 67.3083 1438.75 70.2061C1442.94 73.0617 1445.11 77.2971 1445.11 83H1447.11C1447.11 76.7029 1444.66 71.8183 1439.88 68.5539C1435.16 65.3317 1428.26 63.76 1419.47 63.76V65.76ZM1445.11 83C1445.11 91.4824 1442.46 98.6708 1436.44 103.761C1430.39 108.876 1420.78 112 1406.63 112V114C1421.04 114 1431.18 110.824 1437.73 105.289C1444.3 99.7292 1447.11 91.9176 1447.11 83H1445.11ZM1406.63 112H1331.87V114H1406.63V112ZM1332.6 113.688L1352.16 93.0479L1350.71 91.6721L1331.15 112.312L1332.6 113.688ZM1351.43 93.36H1412.27V91.36H1351.43V93.36ZM1412.27 93.36C1415.7 93.36 1418.36 92.8169 1420.18 91.5061C1422.07 90.1421 1422.87 88.0828 1422.87 85.52H1420.87C1420.87 87.6372 1420.24 88.9979 1419.01 89.8839C1417.7 90.8231 1415.56 91.36 1412.27 91.36V93.36ZM1422.87 85.52C1422.87 83.5906 1422.09 82.0548 1420.52 81.0593C1419.02 80.1146 1416.9 79.72 1414.31 79.72V81.72C1416.76 81.72 1418.43 82.1054 1419.45 82.7507C1420.39 83.3452 1420.87 84.2094 1420.87 85.52H1422.87ZM1414.31 79.72H1370.51V81.72H1414.31V79.72ZM1370.51 79.72C1361.51 79.72 1355.16 77.8221 1351.09 74.637C1347.05 71.482 1345.11 66.9654 1345.11 61.4H1343.11C1343.11 67.4746 1345.25 72.618 1349.86 76.213C1354.42 79.7779 1361.27 81.72 1370.51 81.72V79.72ZM1345.11 61.4C1345.11 53.483 1347.81 46.6218 1353.83 41.7154C1359.89 36.7841 1369.44 33.72 1383.35 33.72V31.72C1369.18 31.72 1359.11 34.8359 1352.57 40.1646C1346 45.5181 1343.11 52.997 1343.11 61.4H1345.11ZM1383.35 33.72H1453.07V31.72H1383.35V33.72ZM1452.34 32.0341L1432.66 52.9141L1434.12 54.2859L1453.8 33.4059L1452.34 32.0341ZM1433.39 52.6H1377.71V54.6H1433.39V52.6ZM1377.71 52.6C1374.31 52.6 1371.65 53.0453 1369.83 54.2704C1367.91 55.562 1367.11 57.5814 1367.11 60.2H1369.11C1369.11 58.0185 1369.75 56.738 1370.95 55.9296C1372.25 55.0547 1374.39 54.6 1377.71 54.6V52.6ZM1367.11 60.2C1367.11 61.1402 1367.29 62.003 1367.71 62.7592C1368.12 63.5199 1368.74 64.1144 1369.52 64.5614C1371.03 65.4318 1373.17 65.76 1375.79 65.76V63.76C1373.26 63.76 1371.56 63.4282 1370.52 62.8286C1370.02 62.5406 1369.68 62.1976 1369.46 61.7995C1369.24 61.397 1369.11 60.8798 1369.11 60.2H1367.11Z" fill="url(#paint4_linear_1381_1018)"/>
</g>
<defs>
<filter id="filter0_b_1381_1018" x="1006.86" y="30.3999" width="490.334" height="111.6" filterUnits="userSpaceOnUse" color-interpolation-filters="sRGB">
<feFlood flood-opacity="0" result="BackgroundImageFix"/>
<feGaussianBlur in="BackgroundImageFix" stdDeviation="7.5"/>
<feComposite in2="SourceAlpha" operator="in" result="effect1_backgroundBlur_1381_1018"/>
<feBlend mode="normal" in="SourceGraphic" in2="effect1_backgroundBlur_1381_1018" result="shape"/>
</filter>
<filter id="filter1_b_1381_1018" x="992.88" y="23.3999" width="490.334" height="111.6" filterUnits="userSpaceOnUse" color-interpolation-filters="sRGB">
<feFlood flood-opacity="0" result="BackgroundImageFix"/>
<feGaussianBlur in="BackgroundImageFix" stdDeviation="7.5"/>
<feComposite in2="SourceAlpha" operator="in" result="effect1_backgroundBlur_1381_1018"/>
<feBlend mode="normal" in="SourceGraphic" in2="effect1_backgroundBlur_1381_1018" result="shape"/>
</filter>
<filter id="filter2_b_1381_1018" x="977.737" y="16.3999" width="490.334" height="111.6" filterUnits="userSpaceOnUse" color-interpolation-filters="sRGB">
<feFlood flood-opacity="0" result="BackgroundImageFix"/>
<feGaussianBlur in="BackgroundImageFix" stdDeviation="7.5"/>
<feComposite in2="SourceAlpha" operator="in" result="effect1_backgroundBlur_1381_1018"/>
<feBlend mode="normal" in="SourceGraphic" in2="effect1_backgroundBlur_1381_1018" result="shape"/>
</filter>
<linearGradient id="paint0_linear_1381_1018" x1="1243.25" y1="45" x2="1243.25" y2="127" gradientUnits="userSpaceOnUse">
<stop stop-color="#6BC8F6"/>
<stop offset="1" stop-color="#8D78FF"/>
</linearGradient>
<linearGradient id="paint1_linear_1381_1018" x1="1387.81" y1="47" x2="1387.81" y2="127" gradientUnits="userSpaceOnUse">
<stop stop-color="#6BC7F5"/>
<stop offset="1" stop-color="#8D78FF"/>
</linearGradient>
<linearGradient id="paint2_linear_1381_1018" x1="1229.27" y1="39.5" x2="1229.27" y2="120" gradientUnits="userSpaceOnUse">
<stop stop-color="#6BC8F6"/>
<stop offset="1" stop-color="#8D78FF"/>
</linearGradient>
<linearGradient id="paint3_linear_1381_1018" x1="1373.83" y1="40" x2="1373.83" y2="120" gradientUnits="userSpaceOnUse">
<stop stop-color="#6BC7F5"/>
<stop offset="1" stop-color="#8D78FF"/>
</linearGradient>
<linearGradient id="paint4_linear_1381_1018" x1="1358.69" y1="32.5" x2="1358.69" y2="113" gradientUnits="userSpaceOnUse">
<stop stop-color="#6BC7F5"/>
<stop offset="1" stop-color="#8D78FF"/>
</linearGradient>
</defs>
</svg>
