<svg width="972" height="155" viewBox="0 0 972 155" fill="none" xmlns="http://www.w3.org/2000/svg">
<g opacity="0.25" filter="url(#filter0_b_432_4257)">
<path d="M137.319 106.36H193.599L174.039 127H133.719C108.639 127 91.959 111.88 91.959 91.6C91.959 65.2 117.159 46.72 147.879 46.72H204.159L184.479 67.6H144.159C129.399 67.6 116.919 77.08 116.919 89.8C116.919 99.76 125.199 106.36 137.319 106.36ZM273.981 45.4C308.661 45.4 326.181 56.08 326.181 79.36C326.181 112.36 304.341 128.32 259.341 128.32C224.661 128.32 207.141 117.52 207.141 94.24C207.141 61.24 228.981 45.4 273.981 45.4ZM262.941 107.44C295.221 107.44 301.221 102.4 301.221 81.88C301.221 68.92 292.101 66.28 270.261 66.28C237.981 66.28 232.101 71.2 232.101 91.84C232.101 104.8 241.341 107.44 262.941 107.44ZM416.724 128.32C413.364 128.32 410.844 127.6 407.484 124L366.084 79.84L357.804 127H335.244L346.884 60.4C348.684 49.72 355.764 45.4 363.204 45.4C366.204 45.4 369.204 46.12 372.444 49.72L413.844 93.88L422.244 46.72H444.804L432.924 113.2C431.004 123.88 423.924 128.32 416.724 128.32ZM472.891 46.72H564.091L544.172 67.6H515.611L505.051 127H480.211L490.651 67.6H452.971L472.891 46.72ZM664.126 127H570.766L589.486 106.36H609.526C614.446 106.36 619.966 106.36 623.806 106.6C622.126 103.72 619.606 98.8 617.686 94.96L607.006 73.72L559.966 127H530.566L594.886 54.4C599.086 49.72 604.726 45.4 612.526 45.4C619.966 45.4 624.166 49.36 626.806 54.4L664.126 127ZM714.913 106.36H771.193L751.633 127H711.313C686.233 127 669.553 111.88 669.553 91.6C669.553 65.2 694.753 46.72 725.473 46.72H781.753L762.073 67.6H721.753C706.993 67.6 694.513 77.08 694.513 89.8C694.513 99.76 702.793 106.36 714.913 106.36ZM803.815 46.72H895.015L875.095 67.6H846.535L835.975 127H811.135L821.575 67.6H783.895L803.815 46.72Z" fill="url(#paint0_linear_432_4257)" fill-opacity="0.35"/>
<path d="M193.599 106.36L194.143 106.876L195.343 105.61H193.599V106.36ZM174.039 127V127.75H174.362L174.583 127.516L174.039 127ZM204.159 46.72L204.705 47.2344L205.897 45.97H204.159V46.72ZM184.479 67.6V68.35H184.803L185.025 68.1144L184.479 67.6ZM137.319 107.11H193.599V105.61H137.319V107.11ZM193.055 105.844L173.495 126.484L174.583 127.516L194.143 106.876L193.055 105.844ZM174.039 126.25H133.719V127.75H174.039V126.25ZM133.719 126.25C108.947 126.25 92.709 111.367 92.709 91.6H91.209C91.209 112.393 108.331 127.75 133.719 127.75V126.25ZM92.709 91.6C92.709 65.7762 117.39 47.47 147.879 47.47V45.97C116.928 45.97 91.209 64.6238 91.209 91.6H92.709ZM147.879 47.47H204.159V45.97H147.879V47.47ZM203.613 46.2056L183.933 67.0856L185.025 68.1144L204.705 47.2344L203.613 46.2056ZM184.479 66.85H144.159V68.35H184.479V66.85ZM144.159 66.85C129.152 66.85 116.169 76.5164 116.169 89.8H117.669C117.669 77.6436 129.646 68.35 144.159 68.35V66.85ZM116.169 89.8C116.169 95.007 118.342 99.3613 122.103 102.399C125.85 105.425 131.129 107.11 137.319 107.11V105.61C131.389 105.61 126.468 103.995 123.045 101.231C119.636 98.4787 117.669 94.553 117.669 89.8H116.169ZM273.981 46.15C291.27 46.15 304.147 48.817 312.682 54.2816C321.155 59.7068 325.431 67.9426 325.431 79.36H326.931C326.931 67.4974 322.447 58.7532 313.491 53.0184C304.595 47.323 291.372 44.65 273.981 44.65V46.15ZM325.431 79.36C325.431 95.6773 320.044 107.666 309.193 115.61C298.296 123.587 281.777 127.57 259.341 127.57V129.07C281.906 129.07 298.806 125.073 310.079 116.82C321.399 108.534 326.931 96.0427 326.931 79.36H325.431ZM259.341 127.57C242.053 127.57 229.177 124.873 220.642 119.379C212.168 113.924 207.891 105.658 207.891 94.24H206.391C206.391 106.102 210.875 114.876 219.83 120.641C228.725 126.367 241.949 129.07 259.341 129.07V127.57ZM207.891 94.24C207.891 77.9229 213.278 65.9644 224.128 58.0509C235.025 50.1033 251.545 46.15 273.981 46.15V44.65C251.418 44.65 234.518 48.6167 223.244 56.839C211.924 65.0956 206.391 77.5571 206.391 94.24H207.891ZM262.941 108.19C271.024 108.19 277.497 107.875 282.656 107.073C287.811 106.271 291.714 104.975 294.613 102.972C300.485 98.9137 301.971 92.1562 301.971 81.88H300.471C300.471 92.1238 298.957 98.1463 293.76 101.738C291.124 103.56 287.473 104.806 282.425 105.591C277.381 106.375 270.998 106.69 262.941 106.69V108.19ZM301.971 81.88C301.971 78.5564 301.387 75.8193 300.104 73.5997C298.816 71.3701 296.861 69.7293 294.242 68.5374C289.063 66.1805 281.164 65.53 270.261 65.53V67.03C281.199 67.03 288.779 67.6994 293.621 69.9026C296.011 70.9907 297.702 72.4399 298.806 74.3503C299.915 76.2707 300.471 78.7236 300.471 81.88H301.971ZM270.261 65.53C262.179 65.53 255.714 65.8375 250.566 66.63C245.422 67.4219 241.534 68.7066 238.649 70.7033C232.805 74.748 231.351 81.5087 231.351 91.84H232.851C232.851 81.5313 234.337 75.512 239.503 71.9367C242.123 70.1234 245.757 68.888 250.795 68.1125C255.828 67.3375 262.203 67.03 270.261 67.03V65.53ZM231.351 91.84C231.351 95.1651 231.943 97.9026 233.234 100.122C234.53 102.351 236.492 103.991 239.111 105.183C244.289 107.539 252.158 108.19 262.941 108.19V106.69C252.124 106.69 244.573 106.021 239.732 103.817C237.34 102.729 235.642 101.279 234.531 99.368C233.414 97.4474 232.851 94.9949 232.851 91.84H231.351ZM407.484 124L408.032 123.488L408.031 123.487L407.484 124ZM366.084 79.84L366.631 79.327L365.605 78.2323L365.345 79.7103L366.084 79.84ZM357.804 127V127.75H358.434L358.543 127.13L357.804 127ZM335.244 127L334.505 126.871L334.352 127.75H335.244V127ZM346.884 60.4L347.623 60.5291L347.624 60.5246L346.884 60.4ZM372.444 49.72L371.887 50.2217L371.892 50.2274L371.897 50.2329L372.444 49.72ZM413.844 93.88L413.297 94.393L414.32 95.4844L414.582 94.0115L413.844 93.88ZM422.244 46.72V45.97H421.616L421.506 46.5885L422.244 46.72ZM444.804 46.72L445.542 46.8519L445.7 45.97H444.804V46.72ZM432.924 113.2L433.662 113.333L433.662 113.332L432.924 113.2ZM416.724 127.57C415.099 127.57 413.741 127.396 412.399 126.821C411.054 126.244 409.666 125.239 408.032 123.488L406.936 124.512C408.662 126.361 410.214 127.516 411.809 128.199C413.407 128.884 414.989 129.07 416.724 129.07V127.57ZM408.031 123.487L366.631 79.327L365.537 80.353L406.937 124.513L408.031 123.487ZM365.345 79.7103L357.065 126.87L358.543 127.13L366.823 79.9697L365.345 79.7103ZM357.804 126.25H335.244V127.75H357.804V126.25ZM335.983 127.129L347.623 60.5291L346.145 60.2709L334.505 126.871L335.983 127.129ZM347.624 60.5246C348.499 55.3327 350.642 51.7557 353.407 49.4733C356.176 47.187 359.628 46.15 363.204 46.15V44.65C359.34 44.65 355.532 45.773 352.451 48.3166C349.366 50.8643 347.069 54.7873 346.144 60.2754L347.624 60.5246ZM363.204 46.15C364.642 46.15 366.037 46.3224 367.448 46.9035C368.859 47.4841 370.329 48.4912 371.887 50.2217L373.001 49.2183C371.319 47.3487 369.669 46.1959 368.02 45.5165C366.371 44.8376 364.766 44.65 363.204 44.65V46.15ZM371.897 50.2329L413.297 94.393L414.391 93.367L372.991 49.207L371.897 50.2329ZM414.582 94.0115L422.982 46.8515L421.506 46.5885L413.106 93.7485L414.582 94.0115ZM422.244 47.47H444.804V45.97H422.244V47.47ZM444.066 46.5881L432.186 113.068L433.662 113.332L445.542 46.8519L444.066 46.5881ZM432.186 113.067C431.252 118.263 429.077 121.875 426.322 124.191C423.563 126.509 420.169 127.57 416.724 127.57V129.07C420.479 129.07 424.225 127.911 427.286 125.339C430.351 122.765 432.676 118.817 433.662 113.333L432.186 113.067ZM472.891 46.72V45.97H472.57L472.349 46.2023L472.891 46.72ZM564.091 46.72L564.634 47.2377L565.844 45.97H564.091V46.72ZM544.172 67.6V68.35H544.493L544.714 68.1177L544.172 67.6ZM515.611 67.6V66.85H514.983L514.873 67.4687L515.611 67.6ZM505.051 127V127.75H505.68L505.79 127.131L505.051 127ZM480.211 127L479.473 126.87L479.318 127.75H480.211V127ZM490.651 67.6L491.39 67.7298L491.545 66.85H490.651V67.6ZM452.971 67.6L452.429 67.0823L451.219 68.35H452.971V67.6ZM472.891 47.47H564.091V45.97H472.891V47.47ZM563.549 46.2023L543.629 67.0823L544.714 68.1177L564.634 47.2377L563.549 46.2023ZM544.172 66.85H515.611V68.35H544.172V66.85ZM514.873 67.4687L504.313 126.869L505.79 127.131L516.35 67.7313L514.873 67.4687ZM505.051 126.25H480.211V127.75H505.051V126.25ZM480.95 127.13L491.39 67.7298L489.913 67.4702L479.473 126.87L480.95 127.13ZM490.651 66.85H452.971V68.35H490.651V66.85ZM453.514 68.1177L473.434 47.2377L472.349 46.2023L452.429 67.0823L453.514 68.1177ZM664.126 127V127.75H665.354L664.793 126.657L664.126 127ZM570.766 127L570.21 126.496L569.073 127.75H570.766V127ZM589.486 106.36V105.61H589.153L588.93 105.856L589.486 106.36ZM623.806 106.6L623.759 107.349L625.162 107.436L624.453 106.222L623.806 106.6ZM617.686 94.96L618.356 94.6246L618.356 94.6231L617.686 94.96ZM607.006 73.72L607.676 73.3831L607.177 72.3922L606.443 73.2236L607.006 73.72ZM559.966 127V127.75H560.304L560.528 127.496L559.966 127ZM530.566 127L530.004 126.503L528.899 127.75H530.566V127ZM594.886 54.4L594.327 53.8991L594.324 53.9026L594.886 54.4ZM626.806 54.4L627.473 54.0571L627.47 54.052L626.806 54.4ZM664.126 126.25H570.766V127.75H664.126V126.25ZM571.321 127.504L590.041 106.864L588.93 105.856L570.21 126.496L571.321 127.504ZM589.486 107.11H609.526V105.61H589.486V107.11ZM609.526 107.11C614.455 107.11 619.948 107.11 623.759 107.349L623.852 105.851C619.984 105.61 614.436 105.61 609.526 105.61V107.11ZM624.453 106.222C622.787 103.366 620.277 98.4667 618.356 94.6246L617.015 95.2954C618.934 99.1333 621.464 104.074 623.158 106.978L624.453 106.222ZM618.356 94.6231L607.676 73.3831L606.336 74.0569L617.016 95.2969L618.356 94.6231ZM606.443 73.2236L559.403 126.504L560.528 127.496L607.568 74.2164L606.443 73.2236ZM559.966 126.25H530.566V127.75H559.966V126.25ZM531.127 127.497L595.447 54.8973L594.324 53.9026L530.004 126.503L531.127 127.497ZM595.444 54.9009C599.583 50.289 605.036 46.15 612.526 46.15V44.65C604.416 44.65 598.588 49.151 594.327 53.8991L595.444 54.9009ZM612.526 46.15C616.103 46.15 618.86 47.099 621.035 48.624C623.219 50.1554 624.858 52.2984 626.141 54.748L627.47 54.052C626.113 51.4616 624.333 49.1046 621.896 47.3959C619.451 45.681 616.388 44.65 612.526 44.65V46.15ZM626.139 54.7429L663.459 127.343L664.793 126.657L627.473 54.0571L626.139 54.7429ZM771.193 106.36L771.737 106.876L772.937 105.61H771.193V106.36ZM751.633 127V127.75H751.955L752.177 127.516L751.633 127ZM781.753 46.72L782.299 47.2344L783.49 45.97H781.753V46.72ZM762.073 67.6V68.35H762.396L762.619 68.1144L762.073 67.6ZM714.913 107.11H771.193V105.61H714.913V107.11ZM770.648 105.844L751.088 126.484L752.177 127.516L771.737 106.876L770.648 105.844ZM751.633 126.25H711.313V127.75H751.633V126.25ZM711.313 126.25C686.541 126.25 670.303 111.367 670.303 91.6H668.803C668.803 112.393 685.925 127.75 711.313 127.75V126.25ZM670.303 91.6C670.303 65.7762 694.984 47.47 725.473 47.47V45.97C694.522 45.97 668.803 64.6238 668.803 91.6H670.303ZM725.473 47.47H781.753V45.97H725.473V47.47ZM781.207 46.2056L761.527 67.0856L762.619 68.1144L782.299 47.2344L781.207 46.2056ZM762.073 66.85H721.753V68.35H762.073V66.85ZM721.753 66.85C706.746 66.85 693.763 76.5164 693.763 89.8H695.263C695.263 77.6436 707.24 68.35 721.753 68.35V66.85ZM693.763 89.8C693.763 95.007 695.935 99.3613 699.697 102.399C703.444 105.425 708.723 107.11 714.913 107.11V105.61C708.983 105.61 704.062 103.995 700.639 101.231C697.23 98.4787 695.263 94.553 695.263 89.8H693.763ZM803.815 46.72V45.97H803.494L803.272 46.2023L803.815 46.72ZM895.015 46.72L895.558 47.2377L896.767 45.97H895.015V46.72ZM875.095 67.6V68.35H875.416L875.638 68.1177L875.095 67.6ZM846.535 67.6V66.85H845.907L845.797 67.4687L846.535 67.6ZM835.975 127V127.75H836.603L836.713 127.131L835.975 127ZM811.135 127L810.396 126.87L810.242 127.75H811.135V127ZM821.575 67.6L822.314 67.7298L822.468 66.85H821.575V67.6ZM783.895 67.6L783.352 67.0823L782.143 68.35H783.895V67.6ZM803.815 47.47H895.015V45.97H803.815V47.47ZM894.472 46.2023L874.552 67.0823L875.638 68.1177L895.558 47.2377L894.472 46.2023ZM875.095 66.85H846.535V68.35H875.095V66.85ZM845.797 67.4687L835.237 126.869L836.713 127.131L847.273 67.7313L845.797 67.4687ZM835.975 126.25H811.135V127.75H835.975V126.25ZM811.874 127.13L822.314 67.7298L820.836 67.4702L810.396 126.87L811.874 127.13ZM821.575 66.85H783.895V68.35H821.575V66.85ZM784.438 68.1177L804.358 47.2377L803.272 46.2023L783.352 67.0823L784.438 68.1177Z" fill="url(#paint1_linear_432_4257)"/>
</g>
<g opacity="0.6" filter="url(#filter1_b_432_4257)">
<path d="M126.319 99.36H182.599L163.039 120H122.719C97.639 120 80.959 104.88 80.959 84.6C80.959 58.2 106.159 39.72 136.879 39.72H193.159L173.479 60.6H133.159C118.399 60.6 105.919 70.08 105.919 82.8C105.919 92.76 114.199 99.36 126.319 99.36ZM262.981 38.4C297.661 38.4 315.181 49.08 315.181 72.36C315.181 105.36 293.341 121.32 248.341 121.32C213.661 121.32 196.141 110.52 196.141 87.24C196.141 54.24 217.981 38.4 262.981 38.4ZM251.941 100.44C284.221 100.44 290.221 95.4 290.221 74.88C290.221 61.92 281.101 59.28 259.261 59.28C226.981 59.28 221.101 64.2 221.101 84.84C221.101 97.8 230.341 100.44 251.941 100.44ZM405.724 121.32C402.364 121.32 399.844 120.6 396.484 117L355.084 72.84L346.804 120H324.244L335.884 53.4C337.684 42.72 344.764 38.4 352.204 38.4C355.204 38.4 358.204 39.12 361.444 42.72L402.844 86.88L411.244 39.72H433.804L421.924 106.2C420.004 116.88 412.924 121.32 405.724 121.32ZM461.891 39.72H553.091L533.172 60.6H504.611L494.051 120H469.211L479.651 60.6H441.971L461.891 39.72ZM653.126 120H559.766L578.486 99.36H598.526C603.446 99.36 608.966 99.36 612.806 99.6C611.126 96.72 608.606 91.8 606.686 87.96L596.006 66.72L548.966 120H519.566L583.886 47.4C588.086 42.72 593.726 38.4 601.526 38.4C608.966 38.4 613.166 42.36 615.806 47.4L653.126 120ZM703.913 99.36H760.193L740.633 120H700.313C675.233 120 658.553 104.88 658.553 84.6C658.553 58.2 683.753 39.72 714.473 39.72H770.753L751.073 60.6H710.753C695.993 60.6 683.513 70.08 683.513 82.8C683.513 92.76 691.793 99.36 703.913 99.36ZM792.815 39.72H884.015L864.095 60.6H835.535L824.975 120H800.135L810.575 60.6H772.895L792.815 39.72Z" fill="url(#paint2_linear_432_4257)" fill-opacity="0.35"/>
<path d="M182.599 99.36L183.143 99.8759L184.343 98.61H182.599V99.36ZM163.039 120V120.75H163.362L163.583 120.516L163.039 120ZM193.159 39.72L193.705 40.2344L194.897 38.97H193.159V39.72ZM173.479 60.6V61.35H173.803L174.025 61.1144L173.479 60.6ZM126.319 100.11H182.599V98.61H126.319V100.11ZM182.055 98.8441L162.495 119.484L163.583 120.516L183.143 99.8759L182.055 98.8441ZM163.039 119.25H122.719V120.75H163.039V119.25ZM122.719 119.25C97.947 119.25 81.709 104.367 81.709 84.6H80.209C80.209 105.393 97.331 120.75 122.719 120.75V119.25ZM81.709 84.6C81.709 58.7762 106.39 40.47 136.879 40.47V38.97C105.928 38.97 80.209 57.6238 80.209 84.6H81.709ZM136.879 40.47H193.159V38.97H136.879V40.47ZM192.613 39.2056L172.933 60.0856L174.025 61.1144L193.705 40.2344L192.613 39.2056ZM173.479 59.85H133.159V61.35H173.479V59.85ZM133.159 59.85C118.152 59.85 105.169 69.5164 105.169 82.8H106.669C106.669 70.6436 118.646 61.35 133.159 61.35V59.85ZM105.169 82.8C105.169 88.007 107.342 92.3613 111.103 95.3985C114.85 98.4246 120.129 100.11 126.319 100.11V98.61C120.389 98.61 115.468 96.9954 112.045 94.2315C108.636 91.4787 106.669 87.553 106.669 82.8H105.169ZM262.981 39.15C280.27 39.15 293.147 41.817 301.682 47.2816C310.155 52.7068 314.431 60.9426 314.431 72.36H315.931C315.931 60.4974 311.447 51.7532 302.491 46.0184C293.595 40.323 280.372 37.65 262.981 37.65V39.15ZM314.431 72.36C314.431 88.6773 309.044 100.666 298.193 108.61C287.296 116.587 270.777 120.57 248.341 120.57V122.07C270.906 122.07 287.806 118.073 299.079 109.82C310.399 101.534 315.931 89.0427 315.931 72.36H314.431ZM248.341 120.57C231.053 120.57 218.177 117.873 209.642 112.379C201.168 106.924 196.891 98.6578 196.891 87.24H195.391C195.391 99.1022 199.875 107.876 208.83 113.641C217.725 119.367 230.949 122.07 248.341 122.07V120.57ZM196.891 87.24C196.891 70.9229 202.278 58.9644 213.128 51.0509C224.025 43.1033 240.545 39.15 262.981 39.15V37.65C240.418 37.65 223.518 41.6167 212.244 49.839C200.924 58.0956 195.391 70.5571 195.391 87.24H196.891ZM251.941 101.19C260.024 101.19 266.497 100.875 271.656 100.073C276.811 99.2715 280.714 97.9754 283.613 95.972C289.485 91.9137 290.971 85.1562 290.971 74.88H289.471C289.471 85.1238 287.957 91.1463 282.76 94.738C280.124 96.5596 276.473 97.806 271.425 98.5908C266.381 99.375 259.998 99.69 251.941 99.69V101.19ZM290.971 74.88C290.971 71.5564 290.387 68.8193 289.104 66.5997C287.816 64.3701 285.861 62.7293 283.242 61.5374C278.063 59.1805 270.164 58.53 259.261 58.53V60.03C270.199 60.03 277.779 60.6994 282.621 62.9026C285.011 63.9907 286.702 65.4399 287.806 67.3503C288.915 69.2707 289.471 71.7236 289.471 74.88H290.971ZM259.261 58.53C251.179 58.53 244.714 58.8375 239.566 59.63C234.422 60.4219 230.534 61.7066 227.649 63.7033C221.805 67.748 220.351 74.5087 220.351 84.84H221.851C221.851 74.5313 223.337 68.512 228.503 64.9367C231.123 63.1234 234.757 61.888 239.795 61.1125C244.828 60.3375 251.203 60.03 259.261 60.03V58.53ZM220.351 84.84C220.351 88.1651 220.943 90.9026 222.234 93.122C223.53 95.3509 225.492 96.991 228.111 98.1826C233.289 100.539 241.158 101.19 251.941 101.19V99.69C241.124 99.69 233.573 99.0207 228.732 96.8174C226.34 95.729 224.642 94.2791 223.531 92.368C222.414 90.4474 221.851 87.9949 221.851 84.84H220.351ZM396.484 117L397.032 116.488L397.031 116.487L396.484 117ZM355.084 72.84L355.631 72.327L354.605 71.2323L354.345 72.7103L355.084 72.84ZM346.804 120V120.75H347.434L347.543 120.13L346.804 120ZM324.244 120L323.505 119.871L323.352 120.75H324.244V120ZM335.884 53.4L336.623 53.5291L336.624 53.5246L335.884 53.4ZM361.444 42.72L360.887 43.2217L360.892 43.2274L360.897 43.2329L361.444 42.72ZM402.844 86.88L402.297 87.393L403.32 88.4844L403.582 87.0115L402.844 86.88ZM411.244 39.72V38.97H410.616L410.506 39.5885L411.244 39.72ZM433.804 39.72L434.542 39.8519L434.7 38.97H433.804V39.72ZM421.924 106.2L422.662 106.333L422.662 106.332L421.924 106.2ZM405.724 120.57C404.099 120.57 402.741 120.396 401.399 119.821C400.054 119.244 398.666 118.239 397.032 116.488L395.936 117.512C397.662 119.361 399.214 120.516 400.809 121.199C402.407 121.884 403.989 122.07 405.724 122.07V120.57ZM397.031 116.487L355.631 72.327L354.537 73.353L395.937 117.513L397.031 116.487ZM354.345 72.7103L346.065 119.87L347.543 120.13L355.823 72.9697L354.345 72.7103ZM346.804 119.25H324.244V120.75H346.804V119.25ZM324.983 120.129L336.623 53.5291L335.145 53.2709L323.505 119.871L324.983 120.129ZM336.624 53.5246C337.499 48.3327 339.642 44.7557 342.407 42.4733C345.176 40.187 348.628 39.15 352.204 39.15V37.65C348.34 37.65 344.532 38.773 341.451 41.3166C338.366 43.8643 336.069 47.7873 335.144 53.2754L336.624 53.5246ZM352.204 39.15C353.642 39.15 355.037 39.3224 356.448 39.9035C357.859 40.4841 359.329 41.4912 360.887 43.2217L362.001 42.2183C360.319 40.3487 358.669 39.1959 357.02 38.5165C355.371 37.8376 353.766 37.65 352.204 37.65V39.15ZM360.897 43.2329L402.297 87.393L403.391 86.367L361.991 42.207L360.897 43.2329ZM403.582 87.0115L411.982 39.8515L410.506 39.5885L402.106 86.7485L403.582 87.0115ZM411.244 40.47H433.804V38.97H411.244V40.47ZM433.066 39.5881L421.186 106.068L422.662 106.332L434.542 39.8519L433.066 39.5881ZM421.186 106.067C420.252 111.263 418.077 114.875 415.322 117.191C412.563 119.509 409.169 120.57 405.724 120.57V122.07C409.479 122.07 413.225 120.911 416.286 118.339C419.351 115.765 421.676 111.817 422.662 106.333L421.186 106.067ZM461.891 39.72V38.97H461.57L461.349 39.2023L461.891 39.72ZM553.091 39.72L553.634 40.2377L554.844 38.97H553.091V39.72ZM533.172 60.6V61.35H533.493L533.714 61.1177L533.172 60.6ZM504.611 60.6V59.85H503.983L503.873 60.4687L504.611 60.6ZM494.051 120V120.75H494.68L494.79 120.131L494.051 120ZM469.211 120L468.473 119.87L468.318 120.75H469.211V120ZM479.651 60.6L480.39 60.7298L480.545 59.85H479.651V60.6ZM441.971 60.6L441.429 60.0823L440.219 61.35H441.971V60.6ZM461.891 40.47H553.091V38.97H461.891V40.47ZM552.549 39.2023L532.629 60.0823L533.714 61.1177L553.634 40.2377L552.549 39.2023ZM533.172 59.85H504.611V61.35H533.172V59.85ZM503.873 60.4687L493.313 119.869L494.79 120.131L505.35 60.7313L503.873 60.4687ZM494.051 119.25H469.211V120.75H494.051V119.25ZM469.95 120.13L480.39 60.7298L478.913 60.4702L468.473 119.87L469.95 120.13ZM479.651 59.85H441.971V61.35H479.651V59.85ZM442.514 61.1177L462.434 40.2377L461.349 39.2023L441.429 60.0823L442.514 61.1177ZM653.126 120V120.75H654.354L653.793 119.657L653.126 120ZM559.766 120L559.21 119.496L558.073 120.75H559.766V120ZM578.486 99.36V98.61H578.153L577.93 98.8561L578.486 99.36ZM612.806 99.6L612.759 100.349L614.162 100.436L613.453 99.2221L612.806 99.6ZM606.686 87.96L607.356 87.6246L607.356 87.6231L606.686 87.96ZM596.006 66.72L596.676 66.3831L596.177 65.3922L595.443 66.2236L596.006 66.72ZM548.966 120V120.75H549.304L549.528 120.496L548.966 120ZM519.566 120L519.004 119.503L517.899 120.75H519.566V120ZM583.886 47.4L583.327 46.8991L583.324 46.9026L583.886 47.4ZM615.806 47.4L616.473 47.0571L616.47 47.052L615.806 47.4ZM653.126 119.25H559.766V120.75H653.126V119.25ZM560.321 120.504L579.041 99.8639L577.93 98.8561L559.21 119.496L560.321 120.504ZM578.486 100.11H598.526V98.61H578.486V100.11ZM598.526 100.11C603.455 100.11 608.948 100.11 612.759 100.349L612.852 98.8515C608.984 98.6097 603.436 98.61 598.526 98.61V100.11ZM613.453 99.2221C611.787 96.3659 609.277 91.4667 607.356 87.6246L606.015 88.2954C607.934 92.1333 610.464 97.0741 612.158 99.9779L613.453 99.2221ZM607.356 87.6231L596.676 66.3831L595.336 67.0569L606.016 88.2969L607.356 87.6231ZM595.443 66.2236L548.403 119.504L549.528 120.496L596.568 67.2164L595.443 66.2236ZM548.966 119.25H519.566V120.75H548.966V119.25ZM520.127 120.497L584.447 47.8973L583.324 46.9026L519.004 119.503L520.127 120.497ZM584.444 47.9009C588.583 43.289 594.036 39.15 601.526 39.15V37.65C593.416 37.65 587.588 42.151 583.327 46.8991L584.444 47.9009ZM601.526 39.15C605.103 39.15 607.86 40.099 610.035 41.624C612.219 43.1554 613.858 45.2984 615.141 47.748L616.47 47.052C615.113 44.4616 613.333 42.1046 610.896 40.3959C608.451 38.681 605.388 37.65 601.526 37.65V39.15ZM615.139 47.7429L652.459 120.343L653.793 119.657L616.473 47.0571L615.139 47.7429ZM760.193 99.36L760.737 99.8759L761.937 98.61H760.193V99.36ZM740.633 120V120.75H740.955L741.177 120.516L740.633 120ZM770.753 39.72L771.299 40.2344L772.49 38.97H770.753V39.72ZM751.073 60.6V61.35H751.396L751.619 61.1144L751.073 60.6ZM703.913 100.11H760.193V98.61H703.913V100.11ZM759.648 98.8441L740.088 119.484L741.177 120.516L760.737 99.8759L759.648 98.8441ZM740.633 119.25H700.313V120.75H740.633V119.25ZM700.313 119.25C675.541 119.25 659.303 104.367 659.303 84.6H657.803C657.803 105.393 674.925 120.75 700.313 120.75V119.25ZM659.303 84.6C659.303 58.7762 683.984 40.47 714.473 40.47V38.97C683.522 38.97 657.803 57.6238 657.803 84.6H659.303ZM714.473 40.47H770.753V38.97H714.473V40.47ZM770.207 39.2056L750.527 60.0856L751.619 61.1144L771.299 40.2344L770.207 39.2056ZM751.073 59.85H710.753V61.35H751.073V59.85ZM710.753 59.85C695.746 59.85 682.763 69.5164 682.763 82.8H684.263C684.263 70.6436 696.24 61.35 710.753 61.35V59.85ZM682.763 82.8C682.763 88.007 684.935 92.3613 688.697 95.3985C692.444 98.4246 697.723 100.11 703.913 100.11V98.61C697.983 98.61 693.062 96.9954 689.639 94.2315C686.23 91.4787 684.263 87.553 684.263 82.8H682.763ZM792.815 39.72V38.97H792.494L792.272 39.2023L792.815 39.72ZM884.015 39.72L884.558 40.2377L885.767 38.97H884.015V39.72ZM864.095 60.6V61.35H864.416L864.638 61.1177L864.095 60.6ZM835.535 60.6V59.85H834.907L834.797 60.4687L835.535 60.6ZM824.975 120V120.75H825.603L825.713 120.131L824.975 120ZM800.135 120L799.396 119.87L799.242 120.75H800.135V120ZM810.575 60.6L811.314 60.7298L811.468 59.85H810.575V60.6ZM772.895 60.6L772.352 60.0823L771.143 61.35H772.895V60.6ZM792.815 40.47H884.015V38.97H792.815V40.47ZM883.472 39.2023L863.552 60.0823L864.638 61.1177L884.558 40.2377L883.472 39.2023ZM864.095 59.85H835.535V61.35H864.095V59.85ZM834.797 60.4687L824.237 119.869L825.713 120.131L836.273 60.7313L834.797 60.4687ZM824.975 119.25H800.135V120.75H824.975V119.25ZM800.874 120.13L811.314 60.7298L809.836 60.4702L799.396 119.87L800.874 120.13ZM810.575 59.85H772.895V61.35H810.575V59.85ZM773.438 61.1177L793.358 40.2377L792.272 39.2023L772.352 60.0823L773.438 61.1177Z" fill="url(#paint3_linear_432_4257)"/>
</g>
<g filter="url(#filter2_b_432_4257)">
<path d="M113.319 92.36H169.599L150.039 113H109.719C84.639 113 67.959 97.88 67.959 77.6C67.959 51.2 93.159 32.72 123.879 32.72H180.159L160.479 53.6H120.159C105.399 53.6 92.919 63.08 92.919 75.8C92.919 85.76 101.199 92.36 113.319 92.36ZM249.981 31.4C284.661 31.4 302.181 42.08 302.181 65.36C302.181 98.36 280.341 114.32 235.341 114.32C200.661 114.32 183.141 103.52 183.141 80.24C183.141 47.24 204.981 31.4 249.981 31.4ZM238.941 93.44C271.221 93.44 277.221 88.4 277.221 67.88C277.221 54.92 268.101 52.28 246.261 52.28C213.981 52.28 208.101 57.2 208.101 77.84C208.101 90.8 217.341 93.44 238.941 93.44ZM392.724 114.32C389.364 114.32 386.844 113.6 383.484 110L342.084 65.84L333.804 113H311.244L322.884 46.4C324.684 35.72 331.764 31.4 339.204 31.4C342.204 31.4 345.204 32.12 348.444 35.72L389.844 79.88L398.244 32.72H420.804L408.924 99.2C407.004 109.88 399.924 114.32 392.724 114.32ZM448.891 32.72H540.091L520.172 53.6H491.611L481.051 113H456.211L466.651 53.6H428.971L448.891 32.72ZM640.126 113H546.766L565.486 92.36H585.526C590.446 92.36 595.966 92.36 599.806 92.6C598.126 89.72 595.606 84.8 593.686 80.96L583.006 59.72L535.966 113H506.566L570.886 40.4C575.086 35.72 580.726 31.4 588.526 31.4C595.966 31.4 600.166 35.36 602.806 40.4L640.126 113ZM690.913 92.36H747.193L727.633 113H687.313C662.233 113 645.553 97.88 645.553 77.6C645.553 51.2 670.753 32.72 701.473 32.72H757.753L738.073 53.6H697.753C682.993 53.6 670.513 63.08 670.513 75.8C670.513 85.76 678.793 92.36 690.913 92.36ZM779.815 32.72H871.015L851.095 53.6H822.535L811.975 113H787.135L797.575 53.6H759.895L779.815 32.72Z" fill="black"/>
<path d="M169.599 92.36L170.325 93.0479L171.924 91.36H169.599V92.36ZM150.039 113V114H150.469L150.765 113.688L150.039 113ZM180.159 32.72L180.887 33.4059L182.476 31.72H180.159V32.72ZM160.479 53.6V54.6H160.911L161.207 54.2859L160.479 53.6ZM113.319 93.36H169.599V91.36H113.319V93.36ZM168.873 91.6721L149.313 112.312L150.765 113.688L170.325 93.0479L168.873 91.6721ZM150.039 112H109.719V114H150.039V112ZM109.719 112C85.0496 112 68.959 97.196 68.959 77.6H66.959C66.959 98.564 84.2284 114 109.719 114V112ZM68.959 77.6C68.959 51.9682 93.4671 33.72 123.879 33.72V31.72C92.8509 31.72 66.959 50.4317 66.959 77.6H68.959ZM123.879 33.72H180.159V31.72H123.879V33.72ZM179.431 32.0341L159.751 52.9141L161.207 54.2859L180.887 33.4059L179.431 32.0341ZM160.479 52.6H120.159V54.6H160.479V52.6ZM120.159 52.6C105.07 52.6 91.919 62.3286 91.919 75.8H93.919C93.919 63.8314 105.728 54.6 120.159 54.6V52.6ZM91.919 75.8C91.919 81.0826 94.126 85.5084 97.9457 88.593C101.747 91.6629 107.086 93.36 113.319 93.36V91.36C107.432 91.36 102.571 89.7571 99.2023 87.037C95.852 84.3316 93.919 80.4774 93.919 75.8H91.919ZM249.981 32.4C267.253 32.4 280.072 35.066 288.547 40.4922C296.94 45.8658 301.181 54.0169 301.181 65.36H303.181C303.181 53.4231 298.663 44.5942 289.625 38.8078C280.67 33.074 267.389 30.4 249.981 30.4V32.4ZM301.181 65.36C301.181 81.6164 295.818 93.5219 285.046 101.408C274.211 109.339 257.755 113.32 235.341 113.32V115.32C257.927 115.32 274.891 111.321 286.227 103.022C297.624 94.6781 303.181 82.1036 303.181 65.36H301.181ZM235.341 113.32C218.071 113.32 205.252 110.624 196.777 105.169C188.383 99.7657 184.141 91.5837 184.141 80.24H182.141C182.141 92.1763 186.659 101.034 195.695 106.851C204.65 112.616 217.932 115.32 235.341 115.32V113.32ZM184.141 80.24C184.141 63.9839 189.504 52.1092 200.275 44.2529C211.109 36.3511 227.566 32.4 249.981 32.4V30.4C227.396 30.4 210.433 34.3689 199.097 42.6371C187.698 50.9508 182.141 63.4961 182.141 80.24H184.141ZM238.941 94.44C247.028 94.44 253.516 94.125 258.694 93.32C263.868 92.5157 267.812 91.2114 270.755 89.1777C276.74 85.0416 278.221 78.1616 278.221 67.88H276.221C276.221 78.1184 274.703 84.0184 269.618 87.5323C267.026 89.3236 263.417 90.5618 258.387 91.3437C253.361 92.125 246.994 92.44 238.941 92.44V94.44ZM278.221 67.88C278.221 64.5285 277.632 61.7441 276.321 59.4746C275.002 57.1918 273.003 55.5191 270.345 54.3098C265.11 51.9274 257.158 51.28 246.261 51.28V53.28C257.205 53.28 264.732 53.9526 269.517 56.1302C271.87 57.2009 273.516 58.6182 274.589 60.4754C275.67 62.3459 276.221 64.7515 276.221 67.88H278.221ZM246.261 51.28C238.175 51.28 231.695 51.5875 226.528 52.3829C221.367 53.1776 217.436 54.4704 214.507 56.4977C208.55 60.6207 207.101 67.5049 207.101 77.84H209.101C209.101 67.5351 210.592 61.6393 215.645 58.1423C218.221 56.3596 221.813 55.1324 226.833 54.3596C231.848 53.5875 238.207 53.28 246.261 53.28V51.28ZM207.101 77.84C207.101 81.1935 207.698 83.9784 209.018 86.2477C210.345 88.5295 212.351 90.2014 215.007 91.4102C220.242 93.7924 228.164 94.44 238.941 94.44V92.44C228.119 92.44 220.621 91.7676 215.835 89.5898C213.482 88.5186 211.827 87.1005 210.747 85.2423C209.659 83.3716 209.101 80.9665 209.101 77.84H207.101ZM383.484 110L384.215 109.318L384.214 109.316L383.484 110ZM342.084 65.84L342.814 65.1561L341.445 63.6964L341.099 65.6671L342.084 65.84ZM333.804 113V114H334.644L334.789 113.173L333.804 113ZM311.244 113L310.259 112.828L310.054 114H311.244V113ZM322.884 46.4L323.869 46.5722L323.87 46.5662L322.884 46.4ZM348.444 35.72L347.701 36.389L347.708 36.3965L347.714 36.4039L348.444 35.72ZM389.844 79.88L389.114 80.5639L390.479 82.0191L390.829 80.0554L389.844 79.88ZM398.244 32.72V31.72H397.406L397.26 32.5446L398.244 32.72ZM420.804 32.72L421.788 32.8959L421.999 31.72H420.804V32.72ZM408.924 99.2L409.908 99.3769L409.908 99.3759L408.924 99.2ZM392.724 113.32C391.118 113.32 389.797 113.148 388.498 112.591C387.194 112.032 385.834 111.052 384.215 109.318L382.753 110.682C384.494 112.548 386.074 113.728 387.71 114.429C389.351 115.132 390.97 115.32 392.724 115.32V113.32ZM384.214 109.316L342.814 65.1561L341.354 66.5239L382.754 110.684L384.214 109.316ZM341.099 65.6671L332.819 112.827L334.789 113.173L343.069 66.0129L341.099 65.6671ZM333.804 112H311.244V114H333.804V112ZM312.229 113.172L323.869 46.5722L321.899 46.2278L310.259 112.828L312.229 113.172ZM323.87 46.5662C324.737 41.4236 326.855 37.9042 329.566 35.6661C332.283 33.4227 335.676 32.4 339.204 32.4V30.4C335.292 30.4 331.425 31.5373 328.292 34.1239C325.153 36.7158 322.831 40.6964 321.898 46.2338L323.87 46.5662ZM339.204 32.4C340.621 32.4 341.982 32.5699 343.353 33.1347C344.723 33.6988 346.164 34.6817 347.701 36.389L349.187 35.051C347.484 33.1583 345.805 31.9812 344.115 31.2853C342.426 30.5901 340.787 30.4 339.204 30.4V32.4ZM347.714 36.4039L389.114 80.5639L390.574 79.1961L349.174 35.0361L347.714 36.4039ZM390.829 80.0554L399.229 32.8954L397.26 32.5446L388.86 79.7046L390.829 80.0554ZM398.244 33.72H420.804V31.72H398.244V33.72ZM419.82 32.5441L407.94 99.0241L409.908 99.3759L421.788 32.8959L419.82 32.5441ZM407.94 99.0231C407.014 104.17 404.865 107.727 402.161 109.999C399.452 112.275 396.118 113.32 392.724 113.32V115.32C396.53 115.32 400.336 114.145 403.447 111.531C406.563 108.913 408.914 104.91 409.908 99.3769L407.94 99.0231ZM448.891 32.72V31.72H448.463L448.168 32.0297L448.891 32.72ZM540.091 32.72L540.815 33.4103L542.428 31.72H540.091V32.72ZM520.172 53.6V54.6H520.6L520.895 54.2903L520.172 53.6ZM491.611 53.6V52.6H490.774L490.627 53.425L491.611 53.6ZM481.051 113V114H481.889L482.036 113.175L481.051 113ZM456.211 113L455.227 112.827L455.02 114H456.211V113ZM466.651 53.6L467.636 53.7731L467.843 52.6H466.651V53.6ZM428.971 53.6L428.248 52.9097L426.635 54.6H428.971V53.6ZM448.891 33.72H540.091V31.72H448.891V33.72ZM539.368 32.0297L519.448 52.9097L520.895 54.2903L540.815 33.4103L539.368 32.0297ZM520.172 52.6H491.611V54.6H520.172V52.6ZM490.627 53.425L480.067 112.825L482.036 113.175L492.596 53.775L490.627 53.425ZM481.051 112H456.211V114H481.051V112ZM457.196 113.173L467.636 53.7731L465.667 53.4269L455.227 112.827L457.196 113.173ZM466.651 52.6H428.971V54.6H466.651V52.6ZM429.695 54.2903L449.615 33.4103L448.168 32.0297L428.248 52.9097L429.695 54.2903ZM640.126 113V114H641.764L641.015 112.543L640.126 113ZM546.766 113L546.025 112.328L544.509 114H546.766V113ZM565.486 92.36V91.36H565.043L564.745 91.6882L565.486 92.36ZM599.806 92.6L599.743 93.5981L601.614 93.715L600.669 92.0961L599.806 92.6ZM593.686 80.96L594.58 80.5128L594.579 80.5108L593.686 80.96ZM583.006 59.72L583.899 59.2708L583.235 57.9496L582.256 59.0582L583.006 59.72ZM535.966 113V114H536.417L536.715 113.662L535.966 113ZM506.566 113L505.817 112.337L504.344 114H506.566V113ZM570.886 40.4L570.141 39.7321L570.137 39.7369L570.886 40.4ZM602.806 40.4L603.695 39.9428L603.691 39.936L602.806 40.4ZM640.126 112H546.766V114H640.126V112ZM547.506 113.672L566.226 93.0318L564.745 91.6882L546.025 112.328L547.506 113.672ZM565.486 93.36H585.526V91.36H565.486V93.36ZM585.526 93.36C590.458 93.36 595.942 93.3605 599.743 93.5981L599.868 91.6019C595.99 91.3595 590.433 91.36 585.526 91.36V93.36ZM600.669 92.0961C599.008 89.2479 596.501 84.3556 594.58 80.5128L592.791 81.4072C594.71 85.2444 597.243 90.1921 598.942 93.1039L600.669 92.0961ZM594.579 80.5108L583.899 59.2708L582.112 60.1692L592.792 81.4092L594.579 80.5108ZM582.256 59.0582L535.216 112.338L536.715 113.662L583.755 60.3818L582.256 59.0582ZM535.966 112H506.566V114H535.966V112ZM507.314 113.663L571.634 41.0631L570.137 39.7369L505.817 112.337L507.314 113.663ZM571.63 41.0679C575.748 36.4786 581.139 32.4 588.526 32.4V30.4C580.312 30.4 574.423 34.9614 570.141 39.7321L571.63 41.0679ZM588.526 32.4C592.056 32.4 594.762 33.3353 596.891 34.8287C599.033 36.3305 600.649 38.4378 601.92 40.864L603.691 39.936C602.322 37.3222 600.518 34.9295 598.04 33.1913C595.549 31.4447 592.436 30.4 588.526 30.4V32.4ZM601.916 40.8572L639.236 113.457L641.015 112.543L603.695 39.9428L601.916 40.8572ZM747.193 92.36L747.919 93.0479L749.518 91.36H747.193V92.36ZM727.633 113V114H728.063L728.359 113.688L727.633 113ZM757.753 32.72L758.48 33.4059L760.069 31.72H757.753V32.72ZM738.073 53.6V54.6H738.504L738.8 54.2859L738.073 53.6ZM690.913 93.36H747.193V91.36H690.913V93.36ZM746.467 91.6721L726.907 112.312L728.359 113.688L747.919 93.0479L746.467 91.6721ZM727.633 112H687.313V114H727.633V112ZM687.313 112C662.643 112 646.553 97.196 646.553 77.6H644.553C644.553 98.564 661.822 114 687.313 114V112ZM646.553 77.6C646.553 51.9682 671.061 33.72 701.473 33.72V31.72C670.445 31.72 644.553 50.4317 644.553 77.6H646.553ZM701.473 33.72H757.753V31.72H701.473V33.72ZM757.025 32.0341L737.345 52.9141L738.8 54.2859L758.48 33.4059L757.025 32.0341ZM738.073 52.6H697.753V54.6H738.073V52.6ZM697.753 52.6C682.663 52.6 669.513 62.3286 669.513 75.8H671.513C671.513 63.8314 683.322 54.6 697.753 54.6V52.6ZM669.513 75.8C669.513 81.0826 671.72 85.5084 675.539 88.593C679.341 91.6629 684.679 93.36 690.913 93.36V91.36C685.026 91.36 680.164 89.7571 676.796 87.037C673.446 84.3316 671.513 80.4774 671.513 75.8H669.513ZM779.815 32.72V31.72H779.387L779.091 32.0297L779.815 32.72ZM871.015 32.72L871.739 33.4103L873.351 31.72H871.015V32.72ZM851.095 53.6V54.6H851.523L851.819 54.2903L851.095 53.6ZM822.535 53.6V52.6H821.697L821.55 53.425L822.535 53.6ZM811.975 113V114H812.813L812.96 113.175L811.975 113ZM787.135 113L786.15 112.827L785.944 114H787.135V113ZM797.575 53.6L798.56 53.7731L798.766 52.6H797.575V53.6ZM759.895 53.6L759.171 52.9097L757.559 54.6H759.895V53.6ZM779.815 33.72H871.015V31.72H779.815V33.72ZM870.291 32.0297L850.371 52.9097L851.819 54.2903L871.739 33.4103L870.291 32.0297ZM851.095 52.6H822.535V54.6H851.095V52.6ZM821.55 53.425L810.99 112.825L812.96 113.175L823.52 53.775L821.55 53.425ZM811.975 112H787.135V114H811.975V112ZM788.12 113.173L798.56 53.7731L796.59 53.4269L786.15 112.827L788.12 113.173ZM797.575 52.6H759.895V54.6H797.575V52.6ZM760.619 54.2903L780.539 33.4103L779.091 32.0297L759.171 52.9097L760.619 54.2903Z" fill="url(#paint4_linear_432_4257)"/>
</g>
<defs>
<filter id="filter0_b_432_4257" x="76.959" y="30.4" width="833.056" height="112.92" filterUnits="userSpaceOnUse" color-interpolation-filters="sRGB">
<feFlood flood-opacity="0" result="BackgroundImageFix"/>
<feGaussianBlur in="BackgroundImageFix" stdDeviation="7.5"/>
<feComposite in2="SourceAlpha" operator="in" result="effect1_backgroundBlur_432_4257"/>
<feBlend mode="normal" in="SourceGraphic" in2="effect1_backgroundBlur_432_4257" result="shape"/>
</filter>
<filter id="filter1_b_432_4257" x="65.959" y="23.4" width="833.056" height="112.92" filterUnits="userSpaceOnUse" color-interpolation-filters="sRGB">
<feFlood flood-opacity="0" result="BackgroundImageFix"/>
<feGaussianBlur in="BackgroundImageFix" stdDeviation="7.5"/>
<feComposite in2="SourceAlpha" operator="in" result="effect1_backgroundBlur_432_4257"/>
<feBlend mode="normal" in="SourceGraphic" in2="effect1_backgroundBlur_432_4257" result="shape"/>
</filter>
<filter id="filter2_b_432_4257" x="52.959" y="16.4" width="833.056" height="112.92" filterUnits="userSpaceOnUse" color-interpolation-filters="sRGB">
<feFlood flood-opacity="0" result="BackgroundImageFix"/>
<feGaussianBlur in="BackgroundImageFix" stdDeviation="7.5"/>
<feComposite in2="SourceAlpha" operator="in" result="effect1_backgroundBlur_432_4257"/>
<feBlend mode="normal" in="SourceGraphic" in2="effect1_backgroundBlur_432_4257" result="shape"/>
</filter>
<linearGradient id="paint0_linear_432_4257" x1="480.152" y1="32.498" x2="480.152" y2="78.3162" gradientUnits="userSpaceOnUse">
<stop stop-color="#6BC8F6"/>
<stop offset="1" stop-color="#927BFB"/>
</linearGradient>
<linearGradient id="paint1_linear_432_4257" x1="549.226" y1="31.2355" x2="549.226" y2="76.8263" gradientUnits="userSpaceOnUse">
<stop stop-color="#6BC7F5"/>
<stop offset="1" stop-color="#927AFB"/>
</linearGradient>
<linearGradient id="paint2_linear_432_4257" x1="469.152" y1="26.1403" x2="469.152" y2="73.5494" gradientUnits="userSpaceOnUse">
<stop stop-color="#6BC8F6"/>
<stop offset="1" stop-color="#927BFB"/>
</linearGradient>
<linearGradient id="paint3_linear_432_4257" x1="538.226" y1="24.834" x2="538.226" y2="72.0077" gradientUnits="userSpaceOnUse">
<stop stop-color="#6BC7F5"/>
<stop offset="1" stop-color="#927AFB"/>
</linearGradient>
<linearGradient id="paint4_linear_432_4257" x1="525.226" y1="18.5521" x2="525.226" y2="67.6255" gradientUnits="userSpaceOnUse">
<stop stop-color="#6BC7F5"/>
<stop offset="1" stop-color="#927AFB"/>
</linearGradient>
</defs>
</svg>
