<svg width="2112" height="148" viewBox="0 0 2112 148" fill="none" xmlns="http://www.w3.org/2000/svg">
<g opacity="0.25" filter="url(#filter0_b_432_4258)">
<path d="M724.819 106.36H781.099L761.539 127H721.219C696.139 127 679.459 111.88 679.459 91.6C679.459 65.2 704.659 46.72 735.379 46.72H791.659L771.979 67.6H731.659C716.899 67.6 704.419 77.08 704.419 89.8C704.419 99.76 712.699 106.36 724.819 106.36ZM861.481 45.4C896.161 45.4 913.681 56.08 913.681 79.36C913.681 112.36 891.841 128.32 846.841 128.32C812.161 128.32 794.641 117.52 794.641 94.24C794.641 61.24 816.481 45.4 861.481 45.4ZM850.441 107.44C882.721 107.44 888.721 102.4 888.721 81.88C888.721 68.92 879.601 66.28 857.761 66.28C825.481 66.28 819.601 71.2 819.601 91.84C819.601 104.8 828.841 107.44 850.441 107.44ZM1004.22 128.32C1000.86 128.32 998.344 127.6 994.984 124L953.584 79.84L945.304 127H922.744L934.384 60.4C936.184 49.72 943.264 45.4 950.704 45.4C953.704 45.4 956.704 46.12 959.944 49.72L1001.34 93.88L1009.74 46.72H1032.3L1020.42 113.2C1018.5 123.88 1011.42 128.32 1004.22 128.32ZM1060.39 46.72H1151.59L1131.67 67.6H1103.11L1092.55 127H1067.71L1078.15 67.6H1040.47L1060.39 46.72ZM1251.63 127H1158.27L1176.99 106.36H1197.03C1201.95 106.36 1207.47 106.36 1211.31 106.6C1209.63 103.72 1207.11 98.8 1205.19 94.96L1194.51 73.72L1147.47 127H1118.07L1182.39 54.4C1186.59 49.72 1192.23 45.4 1200.03 45.4C1207.47 45.4 1211.67 49.36 1214.31 54.4L1251.63 127ZM1302.41 106.36H1358.69L1339.13 127H1298.81C1273.73 127 1257.05 111.88 1257.05 91.6C1257.05 65.2 1282.25 46.72 1312.97 46.72H1369.25L1349.57 67.6H1309.25C1294.49 67.6 1282.01 77.08 1282.01 89.8C1282.01 99.76 1290.29 106.36 1302.41 106.36ZM1391.31 46.72H1482.51L1462.59 67.6H1434.03L1423.47 127H1398.63L1409.07 67.6H1371.39L1391.31 46.72Z" fill="url(#paint0_linear_432_4258)" fill-opacity="0.35"/>
<path d="M781.099 106.36L781.643 106.876L782.843 105.61H781.099V106.36ZM761.539 127V127.75H761.861L762.083 127.516L761.539 127ZM791.659 46.72L792.205 47.2344L793.396 45.97H791.659V46.72ZM771.979 67.6V68.35H772.302L772.525 68.1144L771.979 67.6ZM724.819 107.11H781.099V105.61H724.819V107.11ZM780.554 105.844L760.994 126.484L762.083 127.516L781.643 106.876L780.554 105.844ZM761.539 126.25H721.219V127.75H761.539V126.25ZM721.219 126.25C696.447 126.25 680.209 111.367 680.209 91.6H678.709C678.709 112.393 695.831 127.75 721.219 127.75V126.25ZM680.209 91.6C680.209 65.7762 704.89 47.47 735.379 47.47V45.97C704.428 45.97 678.709 64.6238 678.709 91.6H680.209ZM735.379 47.47H791.659V45.97H735.379V47.47ZM791.113 46.2056L771.433 67.0856L772.525 68.1144L792.205 47.2344L791.113 46.2056ZM771.979 66.85H731.659V68.35H771.979V66.85ZM731.659 66.85C716.652 66.85 703.669 76.5164 703.669 89.8H705.169C705.169 77.6436 717.146 68.35 731.659 68.35V66.85ZM703.669 89.8C703.669 95.007 705.841 99.3613 709.603 102.399C713.35 105.425 718.629 107.11 724.819 107.11V105.61C718.889 105.61 713.968 103.995 710.545 101.231C707.136 98.4787 705.169 94.553 705.169 89.8H703.669ZM861.481 46.15C878.77 46.15 891.647 48.817 900.181 54.2816C908.655 59.7068 912.931 67.9426 912.931 79.36H914.431C914.431 67.4974 909.947 58.7532 900.99 53.0184C892.095 47.323 878.872 44.65 861.481 44.65V46.15ZM912.931 79.36C912.931 95.6773 907.544 107.666 896.693 115.61C885.796 123.587 869.276 127.57 846.841 127.57V129.07C869.406 129.07 886.306 125.073 897.579 116.82C908.898 108.534 914.431 96.0427 914.431 79.36H912.931ZM846.841 127.57C829.553 127.57 816.677 124.873 808.142 119.379C799.668 113.924 795.391 105.658 795.391 94.24H793.891C793.891 106.102 798.374 114.876 807.33 120.641C816.225 126.367 829.449 129.07 846.841 129.07V127.57ZM795.391 94.24C795.391 77.9229 800.778 65.9644 811.628 58.0509C822.525 50.1033 839.045 46.15 861.481 46.15V44.65C838.917 44.65 822.017 48.6167 810.744 56.839C799.424 65.0956 793.891 77.5571 793.891 94.24H795.391ZM850.441 108.19C858.524 108.19 864.996 107.875 870.155 107.073C875.311 106.271 879.213 104.975 882.112 102.972C887.985 98.9137 889.471 92.1562 889.471 81.88H887.971C887.971 92.1238 886.457 98.1463 881.26 101.738C878.624 103.56 874.973 104.806 869.925 105.591C864.88 106.375 858.498 106.69 850.441 106.69V108.19ZM889.471 81.88C889.471 78.5564 888.887 75.8193 887.604 73.5997C886.316 71.3701 884.361 69.7293 881.742 68.5374C876.563 66.1805 868.663 65.53 857.761 65.53V67.03C868.699 67.03 876.279 67.6994 881.12 69.9026C883.511 70.9907 885.201 72.4399 886.305 74.3503C887.415 76.2707 887.971 78.7236 887.971 81.88H889.471ZM857.761 65.53C849.679 65.53 843.214 65.8375 838.066 66.63C832.922 67.4219 829.034 68.7066 826.149 70.7033C820.305 74.748 818.851 81.5087 818.851 91.84H820.351C820.351 81.5313 821.837 75.512 827.003 71.9367C829.623 70.1234 833.257 68.888 838.294 68.1125C843.328 67.3375 849.703 67.03 857.761 67.03V65.53ZM818.851 91.84C818.851 95.1651 819.443 97.9026 820.734 100.122C822.03 102.351 823.992 103.991 826.61 105.183C831.789 107.539 839.658 108.19 850.441 108.19V106.69C839.624 106.69 832.073 106.021 827.232 103.817C824.84 102.729 823.142 101.279 822.03 99.368C820.914 97.4474 820.351 94.9949 820.351 91.84H818.851ZM994.984 124L995.532 123.488L995.531 123.487L994.984 124ZM953.584 79.84L954.131 79.327L953.105 78.2323L952.845 79.7103L953.584 79.84ZM945.304 127V127.75H945.933L946.042 127.13L945.304 127ZM922.744 127L922.005 126.871L921.851 127.75H922.744V127ZM934.384 60.4L935.123 60.5291L935.123 60.5246L934.384 60.4ZM959.944 49.72L959.386 50.2217L959.391 50.2274L959.397 50.2329L959.944 49.72ZM1001.34 93.88L1000.8 94.393L1001.82 95.4844L1002.08 94.0115L1001.34 93.88ZM1009.74 46.72V45.97H1009.12L1009.01 46.5885L1009.74 46.72ZM1032.3 46.72L1033.04 46.8519L1033.2 45.97H1032.3V46.72ZM1020.42 113.2L1021.16 113.333L1021.16 113.332L1020.42 113.2ZM1004.22 127.57C1002.6 127.57 1001.24 127.396 999.899 126.821C998.554 126.244 997.166 125.239 995.532 123.488L994.435 124.512C996.161 126.361 997.714 127.516 999.308 128.199C1000.91 128.884 1002.49 129.07 1004.22 129.07V127.57ZM995.531 123.487L954.131 79.327L953.037 80.353L994.437 124.513L995.531 123.487ZM952.845 79.7103L944.565 126.87L946.042 127.13L954.322 79.9697L952.845 79.7103ZM945.304 126.25H922.744V127.75H945.304V126.25ZM923.483 127.129L935.123 60.5291L933.645 60.2709L922.005 126.871L923.483 127.129ZM935.123 60.5246C935.998 55.3327 938.142 51.7557 940.906 49.4733C943.675 47.187 947.128 46.15 950.704 46.15V44.65C946.839 44.65 943.032 45.773 939.951 48.3166C936.866 50.8643 934.569 54.7873 933.644 60.2754L935.123 60.5246ZM950.704 46.15C952.142 46.15 953.537 46.3224 954.948 46.9035C956.358 47.4841 957.829 48.4912 959.386 50.2217L960.501 49.2183C958.819 47.3487 957.169 46.1959 955.519 45.5165C953.871 44.8376 952.266 44.65 950.704 44.65V46.15ZM959.397 50.2329L1000.8 94.393L1001.89 93.367L960.491 49.207L959.397 50.2329ZM1002.08 94.0115L1010.48 46.8515L1009.01 46.5885L1000.61 93.7485L1002.08 94.0115ZM1009.74 47.47H1032.3V45.97H1009.74V47.47ZM1031.57 46.5881L1019.69 113.068L1021.16 113.332L1033.04 46.8519L1031.57 46.5881ZM1019.69 113.067C1018.75 118.263 1016.58 121.875 1013.82 124.191C1011.06 126.509 1007.67 127.57 1004.22 127.57V129.07C1007.98 129.07 1011.73 127.911 1014.79 125.339C1017.85 122.765 1020.18 118.817 1021.16 113.333L1019.69 113.067ZM1060.39 46.72V45.97H1060.07L1059.85 46.2023L1060.39 46.72ZM1151.59 46.72L1152.13 47.2377L1153.34 45.97H1151.59V46.72ZM1131.67 67.6V68.35H1131.99L1132.21 68.1177L1131.67 67.6ZM1103.11 67.6V66.85H1102.48L1102.37 67.4687L1103.11 67.6ZM1092.55 127V127.75H1093.18L1093.29 127.131L1092.55 127ZM1067.71 127L1066.97 126.87L1066.82 127.75H1067.71V127ZM1078.15 67.6L1078.89 67.7298L1079.04 66.85H1078.15V67.6ZM1040.47 67.6L1039.93 67.0823L1038.72 68.35H1040.47V67.6ZM1060.39 47.47H1151.59V45.97H1060.39V47.47ZM1151.05 46.2023L1131.13 67.0823L1132.21 68.1177L1152.13 47.2377L1151.05 46.2023ZM1131.67 66.85H1103.11V68.35H1131.67V66.85ZM1102.37 67.4687L1091.81 126.869L1093.29 127.131L1103.85 67.7313L1102.37 67.4687ZM1092.55 126.25H1067.71V127.75H1092.55V126.25ZM1068.45 127.13L1078.89 67.7298L1077.41 67.4702L1066.97 126.87L1068.45 127.13ZM1078.15 66.85H1040.47V68.35H1078.15V66.85ZM1041.01 68.1177L1060.93 47.2377L1059.85 46.2023L1039.93 67.0823L1041.01 68.1177ZM1251.63 127V127.75H1252.85L1252.29 126.657L1251.63 127ZM1158.27 127L1157.71 126.496L1156.57 127.75H1158.27V127ZM1176.99 106.36V105.61H1176.65L1176.43 105.856L1176.99 106.36ZM1211.31 106.6L1211.26 107.349L1212.66 107.436L1211.95 106.222L1211.31 106.6ZM1205.19 94.96L1205.86 94.6246L1205.86 94.6231L1205.19 94.96ZM1194.51 73.72L1195.18 73.3831L1194.68 72.3922L1193.94 73.2236L1194.51 73.72ZM1147.47 127V127.75H1147.8L1148.03 127.496L1147.47 127ZM1118.07 127L1117.5 126.503L1116.4 127.75H1118.07V127ZM1182.39 54.4L1181.83 53.8991L1181.82 53.9026L1182.39 54.4ZM1214.31 54.4L1214.97 54.0571L1214.97 54.052L1214.31 54.4ZM1251.63 126.25H1158.27V127.75H1251.63V126.25ZM1158.82 127.504L1177.54 106.864L1176.43 105.856L1157.71 126.496L1158.82 127.504ZM1176.99 107.11H1197.03V105.61H1176.99V107.11ZM1197.03 107.11C1201.95 107.11 1207.45 107.11 1211.26 107.349L1211.35 105.851C1207.48 105.61 1201.94 105.61 1197.03 105.61V107.11ZM1211.95 106.222C1210.29 103.366 1207.78 98.4667 1205.86 94.6246L1204.51 95.2954C1206.43 99.1333 1208.96 104.074 1210.66 106.978L1211.95 106.222ZM1205.86 94.6231L1195.18 73.3831L1193.84 74.0569L1204.52 95.2969L1205.86 94.6231ZM1193.94 73.2236L1146.9 126.504L1148.03 127.496L1195.07 74.2164L1193.94 73.2236ZM1147.47 126.25H1118.07V127.75H1147.47V126.25ZM1118.63 127.497L1182.95 54.8973L1181.82 53.9026L1117.5 126.503L1118.63 127.497ZM1182.94 54.9009C1187.08 50.289 1192.54 46.15 1200.03 46.15V44.65C1191.92 44.65 1186.09 49.151 1181.83 53.8991L1182.94 54.9009ZM1200.03 46.15C1203.6 46.15 1206.36 47.099 1208.53 48.624C1210.72 50.1554 1212.36 52.2984 1213.64 54.748L1214.97 54.052C1213.61 51.4616 1211.83 49.1046 1209.4 47.3959C1206.95 45.681 1203.89 44.65 1200.03 44.65V46.15ZM1213.64 54.7429L1250.96 127.343L1252.29 126.657L1214.97 54.0571L1213.64 54.7429ZM1358.69 106.36L1359.24 106.876L1360.44 105.61H1358.69V106.36ZM1339.13 127V127.75H1339.46L1339.68 127.516L1339.13 127ZM1369.25 46.72L1369.8 47.2344L1370.99 45.97H1369.25V46.72ZM1349.57 67.6V68.35H1349.9L1350.12 68.1144L1349.57 67.6ZM1302.41 107.11H1358.69V105.61H1302.41V107.11ZM1358.15 105.844L1338.59 126.484L1339.68 127.516L1359.24 106.876L1358.15 105.844ZM1339.13 126.25H1298.81V127.75H1339.13V126.25ZM1298.81 126.25C1274.04 126.25 1257.8 111.367 1257.8 91.6H1256.3C1256.3 112.393 1273.42 127.75 1298.81 127.75V126.25ZM1257.8 91.6C1257.8 65.7762 1282.48 47.47 1312.97 47.47V45.97C1282.02 45.97 1256.3 64.6238 1256.3 91.6H1257.8ZM1312.97 47.47H1369.25V45.97H1312.97V47.47ZM1368.71 46.2056L1349.03 67.0856L1350.12 68.1144L1369.8 47.2344L1368.71 46.2056ZM1349.57 66.85H1309.25V68.35H1349.57V66.85ZM1309.25 66.85C1294.25 66.85 1281.26 76.5164 1281.26 89.8H1282.76C1282.76 77.6436 1294.74 68.35 1309.25 68.35V66.85ZM1281.26 89.8C1281.26 95.007 1283.44 99.3613 1287.2 102.399C1290.94 105.425 1296.22 107.11 1302.41 107.11V105.61C1296.48 105.61 1291.56 103.995 1288.14 101.231C1284.73 98.4787 1282.76 94.553 1282.76 89.8H1281.26ZM1391.31 46.72V45.97H1390.99L1390.77 46.2023L1391.31 46.72ZM1482.51 46.72L1483.06 47.2377L1484.27 45.97H1482.51V46.72ZM1462.59 67.6V68.35H1462.92L1463.14 68.1177L1462.59 67.6ZM1434.03 67.6V66.85H1433.41L1433.3 67.4687L1434.03 67.6ZM1423.47 127V127.75H1424.1L1424.21 127.131L1423.47 127ZM1398.63 127L1397.9 126.87L1397.74 127.75H1398.63V127ZM1409.07 67.6L1409.81 67.7298L1409.97 66.85H1409.07V67.6ZM1371.39 67.6L1370.85 67.0823L1369.64 68.35H1371.39V67.6ZM1391.31 47.47H1482.51V45.97H1391.31V47.47ZM1481.97 46.2023L1462.05 67.0823L1463.14 68.1177L1483.06 47.2377L1481.97 46.2023ZM1462.59 66.85H1434.03V68.35H1462.59V66.85ZM1433.3 67.4687L1422.74 126.869L1424.21 127.131L1434.77 67.7313L1433.3 67.4687ZM1423.47 126.25H1398.63V127.75H1423.47V126.25ZM1399.37 127.13L1409.81 67.7298L1408.34 67.4702L1397.9 126.87L1399.37 127.13ZM1409.07 66.85H1371.39V68.35H1409.07V66.85ZM1371.94 68.1177L1391.86 47.2377L1390.77 46.2023L1370.85 67.0823L1371.94 68.1177Z" fill="url(#paint1_linear_432_4258)"/>
</g>
<g opacity="0.6" filter="url(#filter1_b_432_4258)">
<path d="M712.819 99.36H769.099L749.539 120H709.219C684.139 120 667.459 104.88 667.459 84.6C667.459 58.2 692.659 39.72 723.379 39.72H779.659L759.979 60.6H719.659C704.899 60.6 692.419 70.08 692.419 82.8C692.419 92.76 700.699 99.36 712.819 99.36ZM849.481 38.4C884.161 38.4 901.681 49.08 901.681 72.36C901.681 105.36 879.841 121.32 834.841 121.32C800.161 121.32 782.641 110.52 782.641 87.24C782.641 54.24 804.481 38.4 849.481 38.4ZM838.441 100.44C870.721 100.44 876.721 95.4 876.721 74.88C876.721 61.92 867.601 59.28 845.761 59.28C813.481 59.28 807.601 64.2 807.601 84.84C807.601 97.8 816.841 100.44 838.441 100.44ZM992.224 121.32C988.864 121.32 986.344 120.6 982.984 117L941.584 72.84L933.304 120H910.744L922.384 53.4C924.184 42.72 931.264 38.4 938.704 38.4C941.704 38.4 944.704 39.12 947.944 42.72L989.344 86.88L997.744 39.72H1020.3L1008.42 106.2C1006.5 116.88 999.424 121.32 992.224 121.32ZM1048.39 39.72H1139.59L1119.67 60.6H1091.11L1080.55 120H1055.71L1066.15 60.6H1028.47L1048.39 39.72ZM1239.63 120H1146.27L1164.99 99.36H1185.03C1189.95 99.36 1195.47 99.36 1199.31 99.6C1197.63 96.72 1195.11 91.8 1193.19 87.96L1182.51 66.72L1135.47 120H1106.07L1170.39 47.4C1174.59 42.72 1180.23 38.4 1188.03 38.4C1195.47 38.4 1199.67 42.36 1202.31 47.4L1239.63 120ZM1290.41 99.36H1346.69L1327.13 120H1286.81C1261.73 120 1245.05 104.88 1245.05 84.6C1245.05 58.2 1270.25 39.72 1300.97 39.72H1357.25L1337.57 60.6H1297.25C1282.49 60.6 1270.01 70.08 1270.01 82.8C1270.01 92.76 1278.29 99.36 1290.41 99.36ZM1379.31 39.72H1470.51L1450.59 60.6H1422.03L1411.47 120H1386.63L1397.07 60.6H1359.39L1379.31 39.72Z" fill="url(#paint2_linear_432_4258)" fill-opacity="0.35"/>
<path d="M769.099 99.36L769.643 99.8759L770.843 98.61H769.099V99.36ZM749.539 120V120.75H749.861L750.083 120.516L749.539 120ZM779.659 39.72L780.205 40.2344L781.396 38.97H779.659V39.72ZM759.979 60.6V61.35H760.302L760.525 61.1144L759.979 60.6ZM712.819 100.11H769.099V98.61H712.819V100.11ZM768.554 98.8441L748.994 119.484L750.083 120.516L769.643 99.8759L768.554 98.8441ZM749.539 119.25H709.219V120.75H749.539V119.25ZM709.219 119.25C684.447 119.25 668.209 104.367 668.209 84.6H666.709C666.709 105.393 683.831 120.75 709.219 120.75V119.25ZM668.209 84.6C668.209 58.7762 692.89 40.47 723.379 40.47V38.97C692.428 38.97 666.709 57.6238 666.709 84.6H668.209ZM723.379 40.47H779.659V38.97H723.379V40.47ZM779.113 39.2056L759.433 60.0856L760.525 61.1144L780.205 40.2344L779.113 39.2056ZM759.979 59.85H719.659V61.35H759.979V59.85ZM719.659 59.85C704.652 59.85 691.669 69.5164 691.669 82.8H693.169C693.169 70.6436 705.146 61.35 719.659 61.35V59.85ZM691.669 82.8C691.669 88.007 693.841 92.3613 697.603 95.3985C701.35 98.4246 706.629 100.11 712.819 100.11V98.61C706.889 98.61 701.968 96.9954 698.545 94.2315C695.136 91.4787 693.169 87.553 693.169 82.8H691.669ZM849.481 39.15C866.77 39.15 879.647 41.817 888.181 47.2816C896.655 52.7068 900.931 60.9426 900.931 72.36H902.431C902.431 60.4974 897.947 51.7532 888.99 46.0184C880.095 40.323 866.872 37.65 849.481 37.65V39.15ZM900.931 72.36C900.931 88.6773 895.544 100.666 884.693 108.61C873.796 116.587 857.276 120.57 834.841 120.57V122.07C857.406 122.07 874.306 118.073 885.579 109.82C896.898 101.534 902.431 89.0427 902.431 72.36H900.931ZM834.841 120.57C817.553 120.57 804.677 117.873 796.142 112.379C787.668 106.924 783.391 98.6578 783.391 87.24H781.891C781.891 99.1022 786.374 107.876 795.33 113.641C804.225 119.367 817.449 122.07 834.841 122.07V120.57ZM783.391 87.24C783.391 70.9229 788.778 58.9644 799.628 51.0509C810.525 43.1033 827.045 39.15 849.481 39.15V37.65C826.917 37.65 810.017 41.6167 798.744 49.839C787.424 58.0956 781.891 70.5571 781.891 87.24H783.391ZM838.441 101.19C846.524 101.19 852.996 100.875 858.155 100.073C863.311 99.2715 867.213 97.9754 870.112 95.972C875.985 91.9137 877.471 85.1562 877.471 74.88H875.971C875.971 85.1238 874.457 91.1463 869.26 94.738C866.624 96.5596 862.973 97.806 857.925 98.5908C852.88 99.375 846.498 99.69 838.441 99.69V101.19ZM877.471 74.88C877.471 71.5564 876.887 68.8193 875.604 66.5997C874.316 64.3701 872.361 62.7293 869.742 61.5374C864.563 59.1805 856.663 58.53 845.761 58.53V60.03C856.699 60.03 864.279 60.6994 869.12 62.9026C871.511 63.9907 873.201 65.4399 874.305 67.3503C875.415 69.2707 875.971 71.7236 875.971 74.88H877.471ZM845.761 58.53C837.679 58.53 831.214 58.8375 826.066 59.63C820.922 60.4219 817.034 61.7066 814.149 63.7033C808.305 67.748 806.851 74.5087 806.851 84.84H808.351C808.351 74.5313 809.837 68.512 815.003 64.9367C817.623 63.1234 821.257 61.888 826.294 61.1125C831.328 60.3375 837.703 60.03 845.761 60.03V58.53ZM806.851 84.84C806.851 88.1651 807.443 90.9026 808.734 93.122C810.03 95.3509 811.992 96.991 814.61 98.1826C819.789 100.539 827.658 101.19 838.441 101.19V99.69C827.624 99.69 820.073 99.0207 815.232 96.8174C812.84 95.729 811.142 94.2791 810.03 92.368C808.914 90.4474 808.351 87.9949 808.351 84.84H806.851ZM982.984 117L983.532 116.488L983.531 116.487L982.984 117ZM941.584 72.84L942.131 72.327L941.105 71.2323L940.845 72.7103L941.584 72.84ZM933.304 120V120.75H933.933L934.042 120.13L933.304 120ZM910.744 120L910.005 119.871L909.851 120.75H910.744V120ZM922.384 53.4L923.123 53.5291L923.123 53.5246L922.384 53.4ZM947.944 42.72L947.386 43.2217L947.391 43.2274L947.397 43.2329L947.944 42.72ZM989.344 86.88L988.797 87.393L989.82 88.4844L990.082 87.0115L989.344 86.88ZM997.744 39.72V38.97H997.115L997.005 39.5885L997.744 39.72ZM1020.3 39.72L1021.04 39.8519L1021.2 38.97H1020.3V39.72ZM1008.42 106.2L1009.16 106.333L1009.16 106.332L1008.42 106.2ZM992.224 120.57C990.599 120.57 989.241 120.396 987.899 119.821C986.554 119.244 985.166 118.239 983.532 116.488L982.435 117.512C984.161 119.361 985.714 120.516 987.308 121.199C988.906 121.884 990.489 122.07 992.224 122.07V120.57ZM983.531 116.487L942.131 72.327L941.037 73.353L982.437 117.513L983.531 116.487ZM940.845 72.7103L932.565 119.87L934.042 120.13L942.322 72.9697L940.845 72.7103ZM933.304 119.25H910.744V120.75H933.304V119.25ZM911.483 120.129L923.123 53.5291L921.645 53.2709L910.005 119.871L911.483 120.129ZM923.123 53.5246C923.998 48.3327 926.142 44.7557 928.906 42.4733C931.675 40.187 935.128 39.15 938.704 39.15V37.65C934.839 37.65 931.032 38.773 927.951 41.3166C924.866 43.8643 922.569 47.7873 921.644 53.2754L923.123 53.5246ZM938.704 39.15C940.142 39.15 941.537 39.3224 942.948 39.9035C944.358 40.4841 945.829 41.4912 947.386 43.2217L948.501 42.2183C946.819 40.3487 945.169 39.1959 943.519 38.5165C941.871 37.8376 940.266 37.65 938.704 37.65V39.15ZM947.397 43.2329L988.797 87.393L989.891 86.367L948.491 42.207L947.397 43.2329ZM990.082 87.0115L998.482 39.8515L997.005 39.5885L988.605 86.7485L990.082 87.0115ZM997.744 40.47H1020.3V38.97H997.744V40.47ZM1019.57 39.5881L1007.69 106.068L1009.16 106.332L1021.04 39.8519L1019.57 39.5881ZM1007.69 106.067C1006.75 111.263 1004.58 114.875 1001.82 117.191C999.062 119.509 995.669 120.57 992.224 120.57V122.07C995.978 122.07 999.725 120.911 1002.79 118.339C1005.85 115.765 1008.18 111.817 1009.16 106.333L1007.69 106.067ZM1048.39 39.72V38.97H1048.07L1047.85 39.2023L1048.39 39.72ZM1139.59 39.72L1140.13 40.2377L1141.34 38.97H1139.59V39.72ZM1119.67 60.6V61.35H1119.99L1120.21 61.1177L1119.67 60.6ZM1091.11 60.6V59.85H1090.48L1090.37 60.4687L1091.11 60.6ZM1080.55 120V120.75H1081.18L1081.29 120.131L1080.55 120ZM1055.71 120L1054.97 119.87L1054.82 120.75H1055.71V120ZM1066.15 60.6L1066.89 60.7298L1067.04 59.85H1066.15V60.6ZM1028.47 60.6L1027.93 60.0823L1026.72 61.35H1028.47V60.6ZM1048.39 40.47H1139.59V38.97H1048.39V40.47ZM1139.05 39.2023L1119.13 60.0823L1120.21 61.1177L1140.13 40.2377L1139.05 39.2023ZM1119.67 59.85H1091.11V61.35H1119.67V59.85ZM1090.37 60.4687L1079.81 119.869L1081.29 120.131L1091.85 60.7313L1090.37 60.4687ZM1080.55 119.25H1055.71V120.75H1080.55V119.25ZM1056.45 120.13L1066.89 60.7298L1065.41 60.4702L1054.97 119.87L1056.45 120.13ZM1066.15 59.85H1028.47V61.35H1066.15V59.85ZM1029.01 61.1177L1048.93 40.2377L1047.85 39.2023L1027.93 60.0823L1029.01 61.1177ZM1239.63 120V120.75H1240.85L1240.29 119.657L1239.63 120ZM1146.27 120L1145.71 119.496L1144.57 120.75H1146.27V120ZM1164.99 99.36V98.61H1164.65L1164.43 98.8561L1164.99 99.36ZM1199.31 99.6L1199.26 100.349L1200.66 100.436L1199.95 99.2221L1199.31 99.6ZM1193.19 87.96L1193.86 87.6246L1193.86 87.6231L1193.19 87.96ZM1182.51 66.72L1183.18 66.3831L1182.68 65.3922L1181.94 66.2236L1182.51 66.72ZM1135.47 120V120.75H1135.8L1136.03 120.496L1135.47 120ZM1106.07 120L1105.5 119.503L1104.4 120.75H1106.07V120ZM1170.39 47.4L1169.83 46.8991L1169.82 46.9026L1170.39 47.4ZM1202.31 47.4L1202.97 47.0571L1202.97 47.052L1202.31 47.4ZM1239.63 119.25H1146.27V120.75H1239.63V119.25ZM1146.82 120.504L1165.54 99.8639L1164.43 98.8561L1145.71 119.496L1146.82 120.504ZM1164.99 100.11H1185.03V98.61H1164.99V100.11ZM1185.03 100.11C1189.95 100.11 1195.45 100.11 1199.26 100.349L1199.35 98.8515C1195.48 98.6097 1189.94 98.61 1185.03 98.61V100.11ZM1199.95 99.2221C1198.29 96.3659 1195.78 91.4667 1193.86 87.6246L1192.51 88.2954C1194.43 92.1333 1196.96 97.0741 1198.66 99.9779L1199.95 99.2221ZM1193.86 87.6231L1183.18 66.3831L1181.84 67.0569L1192.52 88.2969L1193.86 87.6231ZM1181.94 66.2236L1134.9 119.504L1136.03 120.496L1183.07 67.2164L1181.94 66.2236ZM1135.47 119.25H1106.07V120.75H1135.47V119.25ZM1106.63 120.497L1170.95 47.8973L1169.82 46.9026L1105.5 119.503L1106.63 120.497ZM1170.94 47.9009C1175.08 43.289 1180.54 39.15 1188.03 39.15V37.65C1179.92 37.65 1174.09 42.151 1169.83 46.8991L1170.94 47.9009ZM1188.03 39.15C1191.6 39.15 1194.36 40.099 1196.53 41.624C1198.72 43.1554 1200.36 45.2984 1201.64 47.748L1202.97 47.052C1201.61 44.4616 1199.83 42.1046 1197.4 40.3959C1194.95 38.681 1191.89 37.65 1188.03 37.65V39.15ZM1201.64 47.7429L1238.96 120.343L1240.29 119.657L1202.97 47.0571L1201.64 47.7429ZM1346.69 99.36L1347.24 99.8759L1348.44 98.61H1346.69V99.36ZM1327.13 120V120.75H1327.46L1327.68 120.516L1327.13 120ZM1357.25 39.72L1357.8 40.2344L1358.99 38.97H1357.25V39.72ZM1337.57 60.6V61.35H1337.9L1338.12 61.1144L1337.57 60.6ZM1290.41 100.11H1346.69V98.61H1290.41V100.11ZM1346.15 98.8441L1326.59 119.484L1327.68 120.516L1347.24 99.8759L1346.15 98.8441ZM1327.13 119.25H1286.81V120.75H1327.13V119.25ZM1286.81 119.25C1262.04 119.25 1245.8 104.367 1245.8 84.6H1244.3C1244.3 105.393 1261.42 120.75 1286.81 120.75V119.25ZM1245.8 84.6C1245.8 58.7762 1270.48 40.47 1300.97 40.47V38.97C1270.02 38.97 1244.3 57.6238 1244.3 84.6H1245.8ZM1300.97 40.47H1357.25V38.97H1300.97V40.47ZM1356.71 39.2056L1337.03 60.0856L1338.12 61.1144L1357.8 40.2344L1356.71 39.2056ZM1337.57 59.85H1297.25V61.35H1337.57V59.85ZM1297.25 59.85C1282.25 59.85 1269.26 69.5164 1269.26 82.8H1270.76C1270.76 70.6436 1282.74 61.35 1297.25 61.35V59.85ZM1269.26 82.8C1269.26 88.007 1271.44 92.3613 1275.2 95.3985C1278.94 98.4246 1284.22 100.11 1290.41 100.11V98.61C1284.48 98.61 1279.56 96.9954 1276.14 94.2315C1272.73 91.4787 1270.76 87.553 1270.76 82.8H1269.26ZM1379.31 39.72V38.97H1378.99L1378.77 39.2023L1379.31 39.72ZM1470.51 39.72L1471.06 40.2377L1472.27 38.97H1470.51V39.72ZM1450.59 60.6V61.35H1450.92L1451.14 61.1177L1450.59 60.6ZM1422.03 60.6V59.85H1421.41L1421.3 60.4687L1422.03 60.6ZM1411.47 120V120.75H1412.1L1412.21 120.131L1411.47 120ZM1386.63 120L1385.9 119.87L1385.74 120.75H1386.63V120ZM1397.07 60.6L1397.81 60.7298L1397.97 59.85H1397.07V60.6ZM1359.39 60.6L1358.85 60.0823L1357.64 61.35H1359.39V60.6ZM1379.31 40.47H1470.51V38.97H1379.31V40.47ZM1469.97 39.2023L1450.05 60.0823L1451.14 61.1177L1471.06 40.2377L1469.97 39.2023ZM1450.59 59.85H1422.03V61.35H1450.59V59.85ZM1421.3 60.4687L1410.74 119.869L1412.21 120.131L1422.77 60.7313L1421.3 60.4687ZM1411.47 119.25H1386.63V120.75H1411.47V119.25ZM1387.37 120.13L1397.81 60.7298L1396.34 60.4702L1385.9 119.87L1387.37 120.13ZM1397.07 59.85H1359.39V61.35H1397.07V59.85ZM1359.94 61.1177L1379.86 40.2377L1378.77 39.2023L1358.85 60.0823L1359.94 61.1177Z" fill="url(#paint3_linear_432_4258)"/>
</g>
<g filter="url(#filter2_b_432_4258)">
<path d="M699.819 92.36H756.099L736.539 113H696.219C671.139 113 654.459 97.88 654.459 77.6C654.459 51.2 679.659 32.72 710.379 32.72H766.659L746.979 53.6H706.659C691.899 53.6 679.419 63.08 679.419 75.8C679.419 85.76 687.699 92.36 699.819 92.36ZM836.481 31.4C871.161 31.4 888.681 42.08 888.681 65.36C888.681 98.36 866.841 114.32 821.841 114.32C787.161 114.32 769.641 103.52 769.641 80.24C769.641 47.24 791.481 31.4 836.481 31.4ZM825.441 93.44C857.721 93.44 863.721 88.4 863.721 67.88C863.721 54.92 854.601 52.28 832.761 52.28C800.481 52.28 794.601 57.2 794.601 77.84C794.601 90.8 803.841 93.44 825.441 93.44ZM979.224 114.32C975.864 114.32 973.344 113.6 969.984 110L928.584 65.84L920.304 113H897.744L909.384 46.4C911.184 35.72 918.264 31.4 925.704 31.4C928.704 31.4 931.704 32.12 934.944 35.72L976.344 79.88L984.744 32.72H1007.3L995.424 99.2C993.504 109.88 986.424 114.32 979.224 114.32ZM1035.39 32.72H1126.59L1106.67 53.6H1078.11L1067.55 113H1042.71L1053.15 53.6H1015.47L1035.39 32.72ZM1226.63 113H1133.27L1151.99 92.36H1172.03C1176.95 92.36 1182.47 92.36 1186.31 92.6C1184.63 89.72 1182.11 84.8 1180.19 80.96L1169.51 59.72L1122.47 113H1093.07L1157.39 40.4C1161.59 35.72 1167.23 31.4 1175.03 31.4C1182.47 31.4 1186.67 35.36 1189.31 40.4L1226.63 113ZM1277.41 92.36H1333.69L1314.13 113H1273.81C1248.73 113 1232.05 97.88 1232.05 77.6C1232.05 51.2 1257.25 32.72 1287.97 32.72H1344.25L1324.57 53.6H1284.25C1269.49 53.6 1257.01 63.08 1257.01 75.8C1257.01 85.76 1265.29 92.36 1277.41 92.36ZM1366.31 32.72H1457.51L1437.59 53.6H1409.03L1398.47 113H1373.63L1384.07 53.6H1346.39L1366.31 32.72Z" fill="black"/>
<path d="M756.099 92.36L756.825 93.0479L758.424 91.36H756.099V92.36ZM736.539 113V114H736.969L737.265 113.688L736.539 113ZM766.659 32.72L767.386 33.4059L768.975 31.72H766.659V32.72ZM746.979 53.6V54.6H747.41L747.706 54.2859L746.979 53.6ZM699.819 93.36H756.099V91.36H699.819V93.36ZM755.373 91.6721L735.813 112.312L737.265 113.688L756.825 93.0479L755.373 91.6721ZM736.539 112H696.219V114H736.539V112ZM696.219 112C671.549 112 655.459 97.196 655.459 77.6H653.459C653.459 98.564 670.728 114 696.219 114V112ZM655.459 77.6C655.459 51.9682 679.967 33.72 710.379 33.72V31.72C679.351 31.72 653.459 50.4317 653.459 77.6H655.459ZM710.379 33.72H766.659V31.72H710.379V33.72ZM765.931 32.0341L746.251 52.9141L747.706 54.2859L767.386 33.4059L765.931 32.0341ZM746.979 52.6H706.659V54.6H746.979V52.6ZM706.659 52.6C691.569 52.6 678.419 62.3286 678.419 75.8H680.419C680.419 63.8314 692.228 54.6 706.659 54.6V52.6ZM678.419 75.8C678.419 81.0826 680.626 85.5084 684.445 88.593C688.247 91.6629 693.585 93.36 699.819 93.36V91.36C693.932 91.36 689.07 89.7571 685.702 87.037C682.352 84.3316 680.419 80.4774 680.419 75.8H678.419ZM836.481 32.4C853.753 32.4 866.572 35.066 875.047 40.4922C883.439 45.8658 887.681 54.0169 887.681 65.36H889.681C889.681 53.4231 885.162 44.5942 876.125 38.8078C867.17 33.074 853.889 30.4 836.481 30.4V32.4ZM887.681 65.36C887.681 81.6164 882.318 93.5219 871.545 101.408C860.711 109.339 844.255 113.32 821.841 113.32V115.32C844.427 115.32 861.391 111.321 872.727 103.022C884.124 94.6781 889.681 82.1036 889.681 65.36H887.681ZM821.841 113.32C804.57 113.32 791.752 110.624 783.277 105.169C774.883 99.7657 770.641 91.5837 770.641 80.24H768.641C768.641 92.1763 773.159 101.034 782.195 106.851C791.15 112.616 804.431 115.32 821.841 115.32V113.32ZM770.641 80.24C770.641 63.9839 776.004 52.1092 786.775 44.2529C797.609 36.3511 814.066 32.4 836.481 32.4V30.4C813.896 30.4 796.933 34.3689 785.597 42.6371C774.198 50.9508 768.641 63.4961 768.641 80.24H770.641ZM825.441 94.44C833.528 94.44 840.016 94.125 845.194 93.32C850.367 92.5157 854.311 91.2114 857.254 89.1777C863.24 85.0416 864.721 78.1616 864.721 67.88H862.721C862.721 78.1184 861.202 84.0184 856.117 87.5323C853.525 89.3236 849.917 90.5618 844.887 91.3437C839.861 92.125 833.494 92.44 825.441 92.44V94.44ZM864.721 67.88C864.721 64.5285 864.132 61.7441 862.82 59.4746C861.501 57.1918 859.502 55.5191 856.845 54.3098C851.61 51.9274 843.657 51.28 832.761 51.28V53.28C843.704 53.28 851.232 53.9526 856.017 56.1302C858.369 57.2009 860.016 58.6182 861.089 60.4754C862.17 62.3459 862.721 64.7515 862.721 67.88H864.721ZM832.761 51.28C824.675 51.28 818.195 51.5875 813.028 52.3829C807.866 53.1776 803.936 54.4704 801.007 56.4977C795.05 60.6207 793.601 67.5049 793.601 77.84H795.601C795.601 67.5351 797.092 61.6393 802.145 58.1423C804.721 56.3596 808.313 55.1324 813.332 54.3596C818.347 53.5875 824.707 53.28 832.761 53.28V51.28ZM793.601 77.84C793.601 81.1935 794.198 83.9784 795.518 86.2477C796.845 88.5295 798.851 90.2014 801.507 91.4102C806.741 93.7924 814.663 94.44 825.441 94.44V92.44C814.619 92.44 807.121 91.7676 802.335 89.5898C799.981 88.5186 798.327 87.1005 797.247 85.2423C796.159 83.3716 795.601 80.9665 795.601 77.84H793.601ZM969.984 110L970.715 109.318L970.713 109.316L969.984 110ZM928.584 65.84L929.313 65.1561L927.945 63.6964L927.599 65.6671L928.584 65.84ZM920.304 113V114H921.143L921.289 113.173L920.304 113ZM897.744 113L896.759 112.828L896.554 114H897.744V113ZM909.384 46.4L910.369 46.5722L910.37 46.5662L909.384 46.4ZM934.944 35.72L934.2 36.389L934.207 36.3965L934.214 36.4039L934.944 35.72ZM976.344 79.88L975.614 80.5639L976.978 82.0191L977.328 80.0554L976.344 79.88ZM984.744 32.72V31.72H983.906L983.759 32.5446L984.744 32.72ZM1007.3 32.72L1008.29 32.8959L1008.5 31.72H1007.3V32.72ZM995.424 99.2L996.408 99.3769L996.408 99.3759L995.424 99.2ZM979.224 113.32C977.617 113.32 976.297 113.148 974.998 112.591C973.694 112.032 972.334 111.052 970.715 109.318L969.253 110.682C970.994 112.548 972.574 113.728 974.21 114.429C975.851 115.132 977.47 115.32 979.224 115.32V113.32ZM970.713 109.316L929.313 65.1561L927.854 66.5239L969.254 110.684L970.713 109.316ZM927.599 65.6671L919.319 112.827L921.289 113.173L929.569 66.0129L927.599 65.6671ZM920.304 112H897.744V114H920.304V112ZM898.729 113.172L910.369 46.5722L908.399 46.2278L896.759 112.828L898.729 113.172ZM910.37 46.5662C911.237 41.4236 913.355 37.9042 916.065 35.6661C918.783 33.4227 922.176 32.4 925.704 32.4V30.4C921.791 30.4 917.925 31.5373 914.792 34.1239C911.653 36.7158 909.331 40.6964 908.398 46.2338L910.37 46.5662ZM925.704 32.4C927.121 32.4 928.481 32.5699 929.853 33.1347C931.223 33.6988 932.664 34.6817 934.2 36.389L935.687 35.051C933.984 33.1583 932.304 31.9812 930.614 31.2853C928.926 30.5901 927.286 30.4 925.704 30.4V32.4ZM934.214 36.4039L975.614 80.5639L977.073 79.1961L935.673 35.0361L934.214 36.4039ZM977.328 80.0554L985.728 32.8954L983.759 32.5446L975.359 79.7046L977.328 80.0554ZM984.744 33.72H1007.3V31.72H984.744V33.72ZM1006.32 32.5441L994.439 99.0241L996.408 99.3759L1008.29 32.8959L1006.32 32.5441ZM994.439 99.0231C993.514 104.17 991.365 107.727 988.66 109.999C985.952 112.275 982.618 113.32 979.224 113.32V115.32C983.03 115.32 986.836 114.145 989.947 111.531C993.063 108.913 995.413 104.91 996.408 99.3769L994.439 99.0231ZM1035.39 32.72V31.72H1034.96L1034.67 32.0297L1035.39 32.72ZM1126.59 32.72L1127.31 33.4103L1128.93 31.72H1126.59V32.72ZM1106.67 53.6V54.6H1107.1L1107.39 54.2903L1106.67 53.6ZM1078.11 53.6V52.6H1077.27L1077.13 53.425L1078.11 53.6ZM1067.55 113V114H1068.39L1068.54 113.175L1067.55 113ZM1042.71 113L1041.73 112.827L1041.52 114H1042.71V113ZM1053.15 53.6L1054.14 53.7731L1054.34 52.6H1053.15V53.6ZM1015.47 53.6L1014.75 52.9097L1013.14 54.6H1015.47V53.6ZM1035.39 33.72H1126.59V31.72H1035.39V33.72ZM1125.87 32.0297L1105.95 52.9097L1107.39 54.2903L1127.31 33.4103L1125.87 32.0297ZM1106.67 52.6H1078.11V54.6H1106.67V52.6ZM1077.13 53.425L1066.57 112.825L1068.54 113.175L1079.1 53.775L1077.13 53.425ZM1067.55 112H1042.71V114H1067.55V112ZM1043.7 113.173L1054.14 53.7731L1052.17 53.4269L1041.73 112.827L1043.7 113.173ZM1053.15 52.6H1015.47V54.6H1053.15V52.6ZM1016.19 54.2903L1036.11 33.4103L1034.67 32.0297L1014.75 52.9097L1016.19 54.2903ZM1226.63 113V114H1228.26L1227.51 112.543L1226.63 113ZM1133.27 113L1132.52 112.328L1131.01 114H1133.27V113ZM1151.99 92.36V91.36H1151.54L1151.24 91.6882L1151.99 92.36ZM1186.31 92.6L1186.24 93.5981L1188.11 93.715L1187.17 92.0961L1186.31 92.6ZM1180.19 80.96L1181.08 80.5128L1181.08 80.5108L1180.19 80.96ZM1169.51 59.72L1170.4 59.2708L1169.73 57.9496L1168.76 59.0582L1169.51 59.72ZM1122.47 113V114H1122.92L1123.22 113.662L1122.47 113ZM1093.07 113L1092.32 112.337L1090.84 114H1093.07V113ZM1157.39 40.4L1156.64 39.7321L1156.64 39.7369L1157.39 40.4ZM1189.31 40.4L1190.19 39.9428L1190.19 39.936L1189.31 40.4ZM1226.63 112H1133.27V114H1226.63V112ZM1134.01 113.672L1152.73 93.0318L1151.24 91.6882L1132.52 112.328L1134.01 113.672ZM1151.99 93.36H1172.03V91.36H1151.99V93.36ZM1172.03 93.36C1176.96 93.36 1182.44 93.3605 1186.24 93.5981L1186.37 91.6019C1182.49 91.3595 1176.93 91.36 1172.03 91.36V93.36ZM1187.17 92.0961C1185.51 89.2479 1183 84.3556 1181.08 80.5128L1179.29 81.4072C1181.21 85.2444 1183.74 90.1921 1185.44 93.1039L1187.17 92.0961ZM1181.08 80.5108L1170.4 59.2708L1168.61 60.1692L1179.29 81.4092L1181.08 80.5108ZM1168.76 59.0582L1121.72 112.338L1123.22 113.662L1170.26 60.3818L1168.76 59.0582ZM1122.47 112H1093.07V114H1122.47V112ZM1093.81 113.663L1158.13 41.0631L1156.64 39.7369L1092.32 112.337L1093.81 113.663ZM1158.13 41.0679C1162.25 36.4786 1167.64 32.4 1175.03 32.4V30.4C1166.81 30.4 1160.92 34.9614 1156.64 39.7321L1158.13 41.0679ZM1175.03 32.4C1178.56 32.4 1181.26 33.3353 1183.39 34.8287C1185.53 36.3305 1187.15 38.4378 1188.42 40.864L1190.19 39.936C1188.82 37.3222 1187.02 34.9295 1184.54 33.1913C1182.05 31.4447 1178.94 30.4 1175.03 30.4V32.4ZM1188.42 40.8572L1225.74 113.457L1227.51 112.543L1190.19 39.9428L1188.42 40.8572ZM1333.69 92.36L1334.42 93.0479L1336.02 91.36H1333.69V92.36ZM1314.13 113V114H1314.56L1314.86 113.688L1314.13 113ZM1344.25 32.72L1344.98 33.4059L1346.57 31.72H1344.25V32.72ZM1324.57 53.6V54.6H1325L1325.3 54.2859L1324.57 53.6ZM1277.41 93.36H1333.69V91.36H1277.41V93.36ZM1332.97 91.6721L1313.41 112.312L1314.86 113.688L1334.42 93.0479L1332.97 91.6721ZM1314.13 112H1273.81V114H1314.13V112ZM1273.81 112C1249.14 112 1233.05 97.196 1233.05 77.6H1231.05C1231.05 98.564 1248.32 114 1273.81 114V112ZM1233.05 77.6C1233.05 51.9682 1257.56 33.72 1287.97 33.72V31.72C1256.94 31.72 1231.05 50.4317 1231.05 77.6H1233.05ZM1287.97 33.72H1344.25V31.72H1287.97V33.72ZM1343.52 32.0341L1323.84 52.9141L1325.3 54.2859L1344.98 33.4059L1343.52 32.0341ZM1324.57 52.6H1284.25V54.6H1324.57V52.6ZM1284.25 52.6C1269.16 52.6 1256.01 62.3286 1256.01 75.8H1258.01C1258.01 63.8314 1269.82 54.6 1284.25 54.6V52.6ZM1256.01 75.8C1256.01 81.0826 1258.22 85.5084 1262.04 88.593C1265.84 91.6629 1271.18 93.36 1277.41 93.36V91.36C1271.53 91.36 1266.66 89.7571 1263.3 87.037C1259.95 84.3316 1258.01 80.4774 1258.01 75.8H1256.01ZM1366.31 32.72V31.72H1365.89L1365.59 32.0297L1366.31 32.72ZM1457.51 32.72L1458.24 33.4103L1459.85 31.72H1457.51V32.72ZM1437.59 53.6V54.6H1438.02L1438.32 54.2903L1437.59 53.6ZM1409.03 53.6V52.6H1408.2L1408.05 53.425L1409.03 53.6ZM1398.47 113V114H1399.31L1399.46 113.175L1398.47 113ZM1373.63 113L1372.65 112.827L1372.44 114H1373.63V113ZM1384.07 53.6L1385.06 53.7731L1385.27 52.6H1384.07V53.6ZM1346.39 53.6L1345.67 52.9097L1344.06 54.6H1346.39V53.6ZM1366.31 33.72H1457.51V31.72H1366.31V33.72ZM1456.79 32.0297L1436.87 52.9097L1438.32 54.2903L1458.24 33.4103L1456.79 32.0297ZM1437.59 52.6H1409.03V54.6H1437.59V52.6ZM1408.05 53.425L1397.49 112.825L1399.46 113.175L1410.02 53.775L1408.05 53.425ZM1398.47 112H1373.63V114H1398.47V112ZM1374.62 113.173L1385.06 53.7731L1383.09 53.4269L1372.65 112.827L1374.62 113.173ZM1384.07 52.6H1346.39V54.6H1384.07V52.6ZM1347.12 54.2903L1367.04 33.4103L1365.59 32.0297L1345.67 52.9097L1347.12 54.2903Z" fill="url(#paint4_linear_432_4258)"/>
</g>
<defs>
<filter id="filter0_b_432_4258" x="664.459" y="30.4" width="833.056" height="112.92" filterUnits="userSpaceOnUse" color-interpolation-filters="sRGB">
<feFlood flood-opacity="0" result="BackgroundImageFix"/>
<feGaussianBlur in="BackgroundImageFix" stdDeviation="7.5"/>
<feComposite in2="SourceAlpha" operator="in" result="effect1_backgroundBlur_432_4258"/>
<feBlend mode="normal" in="SourceGraphic" in2="effect1_backgroundBlur_432_4258" result="shape"/>
</filter>
<filter id="filter1_b_432_4258" x="652.459" y="23.4" width="833.056" height="112.92" filterUnits="userSpaceOnUse" color-interpolation-filters="sRGB">
<feFlood flood-opacity="0" result="BackgroundImageFix"/>
<feGaussianBlur in="BackgroundImageFix" stdDeviation="7.5"/>
<feComposite in2="SourceAlpha" operator="in" result="effect1_backgroundBlur_432_4258"/>
<feBlend mode="normal" in="SourceGraphic" in2="effect1_backgroundBlur_432_4258" result="shape"/>
</filter>
<filter id="filter2_b_432_4258" x="639.459" y="16.4" width="833.056" height="112.92" filterUnits="userSpaceOnUse" color-interpolation-filters="sRGB">
<feFlood flood-opacity="0" result="BackgroundImageFix"/>
<feGaussianBlur in="BackgroundImageFix" stdDeviation="7.5"/>
<feComposite in2="SourceAlpha" operator="in" result="effect1_backgroundBlur_432_4258"/>
<feBlend mode="normal" in="SourceGraphic" in2="effect1_backgroundBlur_432_4258" result="shape"/>
</filter>
<linearGradient id="paint0_linear_432_4258" x1="1067.37" y1="32.1126" x2="1067.37" y2="76.9763" gradientUnits="userSpaceOnUse">
<stop stop-color="#6BC8F6"/>
<stop offset="1" stop-color="#927BFB"/>
</linearGradient>
<linearGradient id="paint1_linear_432_4258" x1="1191.48" y1="30.8764" x2="1191.48" y2="75.5174" gradientUnits="userSpaceOnUse">
<stop stop-color="#6BC7F5"/>
<stop offset="1" stop-color="#927AFB"/>
</linearGradient>
<linearGradient id="paint2_linear_432_4258" x1="1055.37" y1="25.498" x2="1055.37" y2="71.3162" gradientUnits="userSpaceOnUse">
<stop stop-color="#6BC8F6"/>
<stop offset="1" stop-color="#927BFB"/>
</linearGradient>
<linearGradient id="paint3_linear_432_4258" x1="1179.48" y1="24.2355" x2="1179.48" y2="69.8263" gradientUnits="userSpaceOnUse">
<stop stop-color="#6BC7F5"/>
<stop offset="1" stop-color="#927AFB"/>
</linearGradient>
<linearGradient id="paint4_linear_432_4258" x1="1166.48" y1="17.7143" x2="1166.48" y2="64.5714" gradientUnits="userSpaceOnUse">
<stop stop-color="#6BC7F5"/>
<stop offset="1" stop-color="#927AFB"/>
</linearGradient>
</defs>
</svg>
