<?xml version="1.0" standalone="no"?>
<!DOCTYPE svg PUBLIC "-//W3C//DTD SVG 20010904//EN"
 "http://www.w3.org/TR/2001/REC-SVG-20010904/DTD/svg10.dtd">
<svg version="1.0" xmlns="http://www.w3.org/2000/svg"
 width="1000.000000pt" height="1000.000000pt" viewBox="0 0 1000.000000 1000.000000"
 preserveAspectRatio="xMidYMid meet">
<metadata>
Created by potrace 1.14, written by Peter Selinger 2001-2017
</metadata>
<g transform="translate(0.000000,1000.000000) scale(0.100000,-0.100000)"
fill="#000000" stroke="none">
<path d="M0 5000 l0 -5000 5000 0 5000 0 0 5000 0 5000 -5000 0 -5000 0 0
-5000z m4273 3573 c-7 -2 -19 -2 -25 0 -7 3 -2 5 12 5 14 0 19 -2 13 -5z
m-396 -79 c-3 -3 -12 -4 -19 -1 -8 3 -5 6 6 6 11 1 17 -2 13 -5z m-237 -64
c-8 -5 -19 -10 -25 -10 -5 0 -3 5 5 10 8 5 20 10 25 10 6 0 3 -5 -5 -10z
m1073 -7 c-7 -2 -19 -2 -25 0 -7 3 -2 5 12 5 14 0 19 -2 13 -5z m-1133 -13
c-8 -5 -19 -10 -25 -10 -5 0 -3 5 5 10 8 5 20 10 25 10 6 0 3 -5 -5 -10z
m1007 4 c-3 -3 -12 -4 -19 -1 -8 3 -5 6 6 6 11 1 17 -2 13 -5z m-520 -80 c-3
-3 -12 -4 -19 -1 -8 3 -5 6 6 6 11 1 17 -2 13 -5z m-737 -14 c-8 -5 -19 -10
-25 -10 -5 0 -3 5 5 10 8 5 20 10 25 10 6 0 3 -5 -5 -10z m-130 -50 c-8 -5
-19 -10 -25 -10 -5 0 -3 5 5 10 8 5 20 10 25 10 6 0 3 -5 -5 -10z m-40 -15 c0
-5 -89 -45 -99 -45 -8 1 81 49 92 50 4 0 7 -2 7 -5z m3710 -5 c8 -5 11 -10 5
-10 -5 0 -17 5 -25 10 -8 5 -10 10 -5 10 6 0 17 -5 25 -10z m45 -28 c-3 -3
-11 0 -18 7 -9 10 -8 11 6 5 10 -3 15 -9 12 -12z m45 -12 c8 -5 11 -10 5 -10
-5 0 -17 5 -25 10 -8 5 -10 10 -5 10 6 0 17 -5 25 -10z m-4000 -50 c-52 -27
-99 -49 -105 -49 -5 0 33 22 85 49 52 27 100 49 105 49 6 0 -33 -22 -85 -49z
m1917 34 c-3 -3 -12 -4 -19 -1 -8 3 -5 6 6 6 11 1 17 -2 13 -5z m2172 -30 c14
-12 -19 -1 -35 12 -18 14 -18 14 6 3 14 -6 27 -13 29 -15z m-2484 6 c3 -6 -1
-7 -9 -4 -18 7 -21 14 -7 14 6 0 13 -4 16 -10z m68 3 c-7 -2 -19 -2 -25 0 -7
3 -2 5 12 5 14 0 19 -2 13 -5z m80 0 c-7 -2 -19 -2 -25 0 -7 3 -2 5 12 5 14 0
19 -2 13 -5z m-228 -13 c3 -5 1 -10 -4 -10 -6 0 -11 5 -11 10 0 6 2 10 4 10 3
0 8 -4 11 -10z m42 4 c-3 -3 -12 -4 -19 -1 -8 3 -5 6 6 6 11 1 17 -2 13 -5z
m-102 -14 c3 -5 1 -10 -4 -10 -6 0 -11 5 -11 10 0 6 2 10 4 10 3 0 8 -4 11
-10z m2675 -5 c14 -8 21 -14 15 -14 -5 0 -21 6 -35 14 -14 8 -20 14 -15 14 6
0 21 -6 35 -14z m-2721 1 c-2 -2 -17 -6 -34 -10 -22 -5 -26 -4 -15 4 14 9 59
15 49 6z m-989 -16 c-8 -5 -22 -9 -30 -9 -10 0 -8 3 5 9 27 12 43 12 25 0z
m900 0 c-20 -13 -33 -13 -25 0 3 6 14 10 23 10 15 0 15 -2 2 -10z m-65 -10 c3
-5 1 -10 -4 -10 -6 0 -11 5 -11 10 0 6 2 10 4 10 3 0 8 -4 11 -10z m-45 -17
c0 -3 -6 -3 -12 -1 -7 3 -32 -1 -55 -8 -24 -7 -43 -9 -43 -5 0 10 80 29 98 23
6 -2 12 -6 12 -9z m1707 1 c-3 -3 -12 -4 -19 -1 -8 3 -5 6 6 6 11 1 17 -2 13
-5z m-2607 -19 c-14 -8 -29 -14 -35 -14 -5 0 1 6 15 14 14 8 30 14 35 14 6 0
-1 -6 -15 -14z m765 -4 c-6 -5 -28 -12 -50 -15 l-40 -6 35 14 c42 16 68 20 55
7z m3263 -48 c35 -20 61 -37 58 -40 -4 -5 -166 86 -166 93 0 5 18 -4 108 -53z
m-4128 7 c-30 -16 -59 -29 -65 -29 -5 0 15 13 45 29 30 16 60 29 65 29 6 0
-15 -13 -45 -29z m733 13 c-13 -2 -23 -8 -23 -13 0 -5 -8 -6 -17 -3 -15 6 -15
7 3 14 10 4 28 7 39 7 17 -1 16 -1 -2 -5z m557 -28 c0 -5 -5 -3 -10 5 -5 8
-10 20 -10 25 0 6 5 3 10 -5 5 -8 10 -19 10 -25z m-620 11 c0 -11 -19 -15 -25
-6 -3 5 1 10 9 10 9 0 16 -2 16 -4z m-73 -23 c-12 -11 -167 -62 -167 -55 0 5
17 13 38 19 20 6 55 18 77 27 43 16 62 20 52 9z m40 1 c-3 -3 -12 -4 -19 -1
-8 3 -5 6 6 6 11 1 17 -2 13 -5z m-845 -74 c-163 -86 -303 -170 -446 -267 -59
-41 -110 -72 -113 -70 -5 6 197 142 319 215 102 62 348 192 363 192 6 0 -50
-32 -123 -70z m1501 55 c-3 -9 -8 -14 -10 -11 -3 3 -2 9 2 15 9 16 15 13 8 -4z
m2457 5 c8 -5 11 -10 5 -10 -5 0 -17 5 -25 10 -8 5 -10 10 -5 10 6 0 17 -5 25
-10z m-3107 -20 c3 -11 1 -20 -4 -20 -5 0 -9 9 -9 20 0 11 2 20 4 20 2 0 6 -9
9 -20z m3207 -36 c0 -2 -13 2 -30 11 -16 9 -30 18 -30 21 0 2 14 -2 30 -11 17
-9 30 -18 30 -21z m-2553 4 c-3 -8 -6 -5 -6 6 -1 11 2 17 5 13 3 -3 4 -12 1
-19z m-892 -1 c-10 -8 -15 -19 -11 -25 4 -7 3 -12 -3 -12 -5 0 -11 5 -13 11
-3 8 -37 -1 -98 -26 -52 -21 -101 -38 -107 -38 -7 0 -13 -4 -13 -9 0 -4 -5 -8
-11 -8 -18 0 -277 -128 -399 -197 -114 -65 -425 -267 -434 -282 -8 -12 56
-141 89 -179 15 -18 25 -36 22 -39 -12 -11 -63 54 -97 123 -19 38 -35 71 -37
73 -4 6 -138 -99 -249 -195 -365 -317 -700 -730 -925 -1141 -70 -129 -77 -155
-47 -190 14 -17 74 -33 126 -33 42 0 44 2 80 60 84 137 243 372 324 481 99
131 282 328 294 316 4 -4 -21 -38 -57 -75 -144 -148 -298 -353 -454 -602 -103
-165 -142 -210 -179 -210 -53 0 -130 23 -153 46 -13 13 -26 24 -28 24 -4 0
-61 -118 -97 -202 -11 -26 -18 -53 -15 -60 2 -7 34 -31 71 -52 63 -37 81 -56
53 -56 -8 0 -42 18 -77 41 -34 22 -66 37 -70 32 -5 -7 -31 -71 -66 -165 -4
-13 13 -29 78 -71 45 -30 90 -62 98 -72 24 -28 15 -88 -34 -243 -58 -183 -102
-380 -116 -518 -6 -60 -11 -226 -11 -369 0 -143 -3 -268 -5 -278 -7 -24 -44
-41 -153 -67 l-94 -23 7 -91 c13 -187 26 -259 54 -299 58 -87 96 -100 216 -76
55 12 84 6 57 -10 -7 -5 -46 -14 -86 -21 -90 -15 -130 -4 -176 48 -29 33 -32
34 -26 12 3 -14 9 -43 12 -65 13 -80 58 -283 65 -295 12 -20 74 -1 162 50 77
44 113 55 89 26 -14 -17 -180 -102 -213 -110 -16 -3 -28 -11 -28 -17 0 -29
126 -424 162 -508 10 -24 17 -45 15 -47 -10 -10 -72 140 -126 301 -114 344
-172 630 -202 999 -15 190 -7 646 15 816 84 658 281 1220 617 1761 86 139 96
153 232 333 117 156 192 243 341 394 431 440 928 769 1481 981 61 24 117 47
125 51 26 15 46 12 25 -3z m3518 -33 c157 -80 444 -267 632 -413 185 -144 436
-371 409 -371 -5 0 -30 21 -54 46 -223 229 -645 540 -985 725 -79 44 -81 53
-2 13z m-3242 -39 c9 -25 14 -45 10 -45 -3 0 -13 20 -22 45 -9 25 -14 45 -10
45 3 0 13 -20 22 -45z m626 3 c-3 -7 -5 -2 -5 12 0 14 2 19 5 13 2 -7 2 -19 0
-25z m-845 -102 c21 -43 37 -81 34 -83 -3 -3 -25 35 -50 85 -25 49 -42 92 -39
96 4 3 1 6 -6 6 -7 0 -9 5 -5 12 5 8 11 4 17 -13 6 -13 28 -59 49 -103z m909
14 c7 0 10 -3 7 -6 -10 -9 -47 15 -59 39 -10 18 -7 17 14 -5 14 -16 32 -28 38
-28z m-2171 35 c0 -4 -122 -93 -183 -134 -12 -8 -32 -24 -44 -35 -13 -10 -26
-17 -29 -13 -3 3 18 23 47 44 29 21 85 61 124 90 65 49 85 60 85 48z m1510
-15 c0 -5 -4 -10 -10 -10 -5 0 -10 5 -10 10 0 6 5 10 10 10 6 0 10 -4 10 -10z
m2875 0 c3 -6 -1 -7 -9 -4 -18 7 -21 14 -7 14 6 0 13 -4 16 -10z m-2025 -20
c20 -6 21 -8 5 -8 -11 0 -29 3 -40 8 -25 11 1 11 35 0z m2100 -10 c0 -5 -5
-10 -11 -10 -5 0 -7 5 -4 10 3 6 8 10 11 10 2 0 4 -4 4 -10z m122 -64 c4 -6 8
-7 8 -3 0 5 26 -6 58 -24 31 -17 73 -41 92 -52 259 -144 566 -370 801 -590
640 -599 1095 -1416 1263 -2269 156 -788 90 -1602 -187 -2323 -56 -144 -69
-175 -79 -175 -11 0 -11 -2 18 70 33 81 134 379 134 394 -1 10 -142 84 -203
106 -39 14 -25 31 16 19 18 -5 69 -27 112 -50 65 -33 80 -38 87 -26 9 18 60
228 56 233 -2 1 -33 18 -68 36 -51 25 -60 33 -43 36 12 2 43 -6 69 -17 26 -12
49 -20 51 -18 6 7 33 157 53 297 21 145 48 526 38 535 -3 4 -48 10 -99 15 -53
5 -98 14 -106 22 -9 10 -16 69 -23 213 -20 412 -61 673 -146 926 -38 114 -43
178 -16 201 9 8 47 29 84 46 l68 31 -29 78 c-79 214 -195 457 -213 451 -7 -3
-38 -13 -68 -23 -30 -10 -60 -21 -65 -26 -6 -4 -29 -11 -51 -14 -51 -9 -78 12
-142 108 -113 170 -299 419 -434 580 -90 108 -114 144 -89 135 15 -5 217 -250
315 -383 50 -66 102 -136 116 -155 15 -19 50 -70 79 -112 70 -106 109 -148
135 -148 29 0 196 63 196 74 0 16 -109 204 -198 340 -186 287 -386 525 -658
785 l-96 93 -29 -49 c-35 -61 -105 -140 -114 -131 -4 4 10 29 32 55 36 43 93
127 93 136 0 5 -210 172 -300 239 -144 106 -361 241 -537 333 -51 27 -93 52
-93 57 0 10 102 -40 112 -56z m-3057 44 c3 -5 1 -10 -4 -10 -6 0 -11 5 -11 10
0 6 2 10 4 10 3 0 8 -4 11 -10z m0 -30 c3 -5 1 -10 -4 -10 -6 0 -11 5 -11 10
0 6 2 10 4 10 3 0 8 -4 11 -10z m4000 -100 c39 -30 99 -79 135 -110 35 -30 80
-68 100 -85 136 -116 391 -387 545 -580 146 -182 332 -459 430 -640 21 -38 51
-93 66 -121 28 -50 39 -88 20 -68 -5 5 -42 70 -82 144 -299 556 -750 1086
-1260 1480 -52 39 -96 77 -98 83 -4 11 32 -15 144 -103z m-4190 -12 c9 -22 11
-38 5 -38 -5 0 -10 6 -10 14 0 8 -10 32 -22 53 -14 26 -16 33 -5 23 9 -8 23
-32 32 -52z m-1695 -62 c0 -2 -42 -40 -92 -84 -245 -213 -485 -471 -680 -734
-44 -60 -85 -108 -90 -108 -18 0 115 175 277 365 196 229 585 602 585 561z
m1691 -40 c-13 -14 -37 -30 -54 -37 -18 -6 -65 -27 -106 -46 -51 -23 -78 -30
-85 -23 -7 7 -5 10 7 10 31 0 219 89 234 110 8 12 18 19 21 16 3 -4 -5 -17
-17 -30z m-1401 10 c0 -2 -64 -57 -142 -122 -137 -114 -376 -343 -488 -469
-85 -95 -243 -295 -331 -421 -90 -128 -121 -150 -38 -27 184 273 465 593 713
812 188 165 286 243 286 227z m2090 -116 c0 -5 -4 -10 -10 -10 -5 0 -10 5 -10
10 0 6 5 10 10 10 6 0 10 -4 10 -10z m-945 -10 c4 -6 3 -9 -2 -8 -4 1 -27 -8
-50 -20 -24 -12 -43 -20 -43 -18 0 3 -26 -10 -57 -27 -61 -35 -78 -64 -69
-124 3 -18 1 -33 -3 -33 -17 0 -20 71 -5 105 12 31 28 42 117 85 56 27 103 49
104 49 1 1 5 -4 8 -9z m3330 -38 c-4 -5 -75 37 -75 44 0 3 18 -5 40 -17 22
-12 38 -25 35 -27z m-2376 -17 l0 -20 -9 20 c-5 11 -9 27 -9 35 -1 13 0 13 9
0 5 -8 9 -24 9 -35z m2431 -7 c0 -6 -6 -5 -15 2 -8 7 -15 14 -15 16 0 2 7 1
15 -2 8 -4 15 -11 15 -16z m-2019 -6 c-7 -2 -18 1 -23 6 -8 8 -4 9 13 5 13 -4
18 -8 10 -11z m2272 -41 c-44 -62 -66 -70 -118 -42 -24 12 -52 31 -63 41 -11
10 -23 16 -26 13 -3 -4 -6 -1 -6 6 0 7 -5 9 -12 5 -7 -4 -8 -3 -4 4 8 14 21 8
90 -38 64 -43 87 -40 127 19 19 27 35 45 37 40 2 -5 -9 -27 -25 -48z m-2376
43 c-3 -3 -12 -4 -19 -1 -8 3 -5 6 6 6 11 1 17 -2 13 -5z m480 0 c-3 -3 -12
-4 -19 -1 -8 3 -5 6 6 6 11 1 17 -2 13 -5z m-558 -8 c-2 -2 -22 -6 -44 -9 -28
-5 -34 -4 -20 3 19 8 73 14 64 6z m768 -2 c-3 -3 -12 -4 -19 -1 -8 3 -5 6 6 6
11 1 17 -2 13 -5z m-983 -20 c5 -14 4 -15 -9 -4 -17 14 -19 20 -6 20 5 0 12
-7 15 -16z m123 10 c-3 -3 -12 -4 -19 -1 -8 3 -5 6 6 6 11 1 17 -2 13 -5z
m-74 -11 c-7 -2 -19 -2 -25 0 -7 3 -2 5 12 5 14 0 19 -2 13 -5z m-73 -7 c0 -3
-4 -8 -10 -11 -5 -3 -10 -1 -10 4 0 6 5 11 10 11 6 0 10 -2 10 -4z m-43 -12
c-3 -3 -12 -4 -19 -1 -8 3 -5 6 6 6 11 1 17 -2 13 -5z m-57 -14 c-8 -5 -22 -9
-30 -9 -10 0 -8 3 5 9 27 12 43 12 25 0z m-53 -16 c-3 -3 -12 -4 -19 -1 -8 3
-5 6 6 6 11 1 17 -2 13 -5z m-91 -19 c-11 -8 -25 -15 -30 -15 -6 1 0 7 14 15
32 19 40 18 16 0z m-56 -15 c0 -5 -4 -10 -10 -10 -5 0 -10 5 -10 10 0 6 5 10
10 10 6 0 10 -4 10 -10z m-33 -6 c-3 -3 -12 -4 -19 -1 -8 3 -5 6 6 6 11 1 17
-2 13 -5z m-42 -13 c-11 -9 -75 -23 -75 -16 0 2 15 9 33 14 43 12 53 13 42 2z
m-120 -41 c-22 -10 -46 -19 -53 -19 -7 -1 -30 -10 -50 -20 -45 -23 -164 -63
-170 -57 -2 3 20 12 48 20 29 9 59 21 66 27 8 6 14 8 14 5 0 -4 10 -1 23 5 29
16 139 58 152 58 6 0 -8 -9 -30 -19z m4425 -219 c0 -13 -113 104 -118 122 -2
7 24 -16 57 -50 34 -33 61 -66 61 -72z m-4730 101 c0 -12 -46 -32 -54 -24 -5
4 25 22 52 31 1 1 2 -3 2 -7z m-74 -40 c-10 -2 -39 -17 -64 -33 -25 -15 -49
-26 -54 -23 -5 3 19 21 54 39 34 18 67 30 73 27 5 -4 2 -8 -9 -10z m-142 -75
c-11 -5 -39 -21 -64 -35 -25 -15 -48 -25 -52 -24 -5 1 -8 -3 -8 -9 0 -5 -4 -7
-10 -4 -5 3 -10 1 -10 -5 0 -6 -7 -13 -16 -17 -8 -3 -45 -26 -82 -50 -523
-351 -925 -813 -1197 -1375 -372 -771 -437 -1666 -179 -2490 28 -88 115 -331
139 -385 8 -18 12 -33 10 -33 -7 0 -68 131 -104 224 -62 158 -124 369 -160
551 -16 79 -61 394 -61 427 0 4 -42 9 -92 10 -106 3 -99 14 16 23 l78 7 -6 86
c-8 103 8 415 28 561 17 116 17 117 -49 141 -78 30 -104 44 -109 57 -18 45
122 523 205 704 33 71 67 109 100 109 14 0 75 -24 121 -48 4 -2 20 25 37 60
85 183 248 445 384 619 l75 97 -31 30 c-18 16 -42 35 -55 41 -12 7 -29 22 -37
35 -21 32 -8 62 63 151 102 127 334 345 366 345 15 0 3 -17 -23 -33 -44 -26
-261 -243 -329 -330 -72 -91 -77 -116 -29 -148 17 -12 44 -33 59 -47 l26 -24
179 180 c188 190 347 323 528 440 61 39 115 75 120 79 20 17 150 87 158 85 4
-1 7 3 7 9 0 5 5 7 11 3 8 -4 5 -10 -7 -17z m2736 -67 c0 -5 -4 -10 -10 -10
-5 0 -10 5 -10 10 0 6 5 10 10 10 6 0 10 -4 10 -10z m662 -8 c2 -5 32 -26 68
-48 36 -21 99 -63 140 -91 41 -29 80 -53 87 -53 17 0 70 68 101 130 17 34 28
48 30 38 5 -26 -23 -78 -75 -137 l-47 -54 24 -16 c42 -28 194 -157 228 -195
19 -20 37 -36 41 -36 5 0 42 29 84 65 71 60 78 64 104 54 38 -14 243 -223 281
-286 41 -69 24 -77 -20 -10 -70 104 -241 277 -276 277 -11 0 -152 -108 -152
-116 0 -1 23 -26 51 -55 256 -270 448 -539 599 -839 29 -58 54 -106 55 -108 1
-1 26 11 56 28 67 37 82 37 114 3 49 -54 172 -369 182 -470 l6 -52 -78 -36
c-69 -31 -77 -37 -71 -57 3 -13 18 -81 33 -153 14 -71 27 -131 28 -133 1 -1
31 4 66 13 79 18 112 19 107 3 -3 -7 -28 -16 -57 -19 -53 -7 -111 -27 -111
-38 0 -3 7 -60 15 -126 7 -66 17 -177 21 -246 l7 -127 68 -4 c100 -5 103 -11
108 -164 7 -261 -60 -665 -120 -725 -16 -16 -28 -19 -52 -14 -50 11 -56 25
-10 25 22 0 45 6 51 13 12 14 46 134 62 217 46 244 59 575 23 611 -10 10 -59
14 -109 11 -20 -2 -21 -10 -27 -129 -16 -302 -65 -587 -147 -852 -48 -159
-119 -342 -171 -441 -40 -77 -36 -47 7 52 123 286 216 622 259 933 23 161 31
563 16 734 -56 627 -266 1190 -642 1716 -64 89 -369 447 -369 432 0 -2 -24 18
-52 45 -79 73 -201 176 -303 253 -49 37 -93 73 -97 79 -4 6 -8 7 -8 1 0 -6 -3
-5 -8 1 -4 6 -40 30 -79 54 -40 24 -73 45 -73 47 0 7 29 3 32 -5z m-2912 -32
c0 -28 -25 -85 -47 -108 -47 -50 -115 -64 -179 -37 -35 14 -39 38 -6 34 34 -3
53 1 47 11 -3 6 0 10 8 10 18 0 157 89 157 101 0 5 5 9 10 9 6 0 10 -9 10 -20z
m4678 -134 c300 -388 541 -841 702 -1317 59 -174 150 -510 150 -553 0 -45 -18
6 -48 135 -145 617 -424 1210 -804 1707 -74 97 -97 132 -85 132 2 0 41 -47 85
-104z m-3446 12 c14 -5 29 -19 33 -31 4 -14 8 -17 12 -9 8 21 23 13 23 -12 0
-45 13 -86 26 -86 8 0 14 -10 14 -23 0 -32 10 -40 25 -20 10 13 13 6 17 -45 5
-46 14 -72 38 -106 17 -26 36 -61 42 -79 6 -17 14 -36 18 -42 4 -5 11 -23 14
-40 l8 -30 24 30 c27 33 29 25 13 -37 -9 -34 -9 -52 3 -86 l15 -44 41 70 c82
138 181 212 291 218 l66 3 -54 -10 c-79 -14 -134 -45 -197 -111 -73 -76 -107
-152 -112 -245 -5 -84 2 -123 22 -123 8 0 16 -6 19 -12 6 -19 61 15 65 41 2
11 10 25 18 31 19 17 18 1 -4 -35 -10 -16 -24 -45 -30 -64 -11 -30 -9 -36 13
-63 14 -16 25 -35 25 -41 0 -7 4 -6 10 3 5 8 10 10 10 5 0 -6 -4 -15 -10 -21
-18 -18 120 -192 147 -186 6 1 14 -2 18 -8 9 -14 58 -13 78 3 12 9 19 41 27
134 5 67 7 128 4 136 -3 8 -22 17 -43 21 -49 7 -114 55 -131 95 -7 18 -11 52
-8 82 4 42 12 57 43 87 l37 37 -16 -32 c-21 -42 -20 -49 7 -85 41 -55 91 -98
114 -98 13 0 23 -4 23 -10 0 -5 9 -10 20 -10 16 0 18 -4 12 -22 -5 -13 -6 -94
-4 -182 4 -142 6 -157 20 -143 9 10 16 37 17 69 4 102 4 104 15 88 5 -8 10
-24 10 -36 0 -29 46 -50 69 -32 9 7 32 22 51 32 19 11 40 26 45 34 9 11 14 10
28 -6 12 -13 26 -18 43 -14 19 3 27 0 30 -14 3 -11 20 -28 37 -40 19 -12 31
-27 29 -37 -2 -9 1 -17 6 -17 10 0 92 -155 92 -174 0 -6 9 -19 20 -29 11 -9
20 -23 20 -30 0 -7 11 -21 25 -31 14 -10 25 -28 25 -40 0 -28 15 -50 28 -42 6
3 17 -1 25 -9 9 -8 20 -15 25 -15 9 0 24 -24 26 -42 1 -3 13 -18 29 -32 15
-14 27 -35 27 -48 0 -19 2 -20 10 -8 8 12 10 11 10 -6 0 -25 23 -53 65 -80 17
-10 38 -29 48 -41 10 -12 33 -25 52 -29 20 -3 35 -12 35 -20 0 -8 7 -14 15
-14 7 0 18 -7 23 -16 5 -8 17 -16 28 -18 10 -1 32 -22 48 -45 19 -29 33 -40
44 -36 8 3 23 -3 33 -14 17 -18 105 -37 134 -30 6 1 26 -1 45 -4 19 -4 52 -9
72 -11 48 -6 108 -27 108 -39 0 -18 35 -36 68 -37 39 0 92 -28 92 -48 0 -9 -6
-12 -16 -8 -8 3 -13 2 -10 -3 11 -17 63 -20 169 -9 119 12 128 9 129 -40 1
-26 7 -33 42 -46 23 -9 48 -16 55 -16 7 0 11 -6 8 -14 -4 -10 11 -17 53 -26
32 -7 61 -19 64 -27 3 -8 10 -12 15 -8 15 9 31 -30 31 -76 0 -102 33 -209 57
-185 8 8 7 75 -2 196 -7 77 -6 84 8 70 13 -12 17 -44 21 -152 2 -76 7 -142 10
-147 4 -5 -3 -12 -14 -16 -29 -9 -54 -65 -52 -117 1 -25 -11 -22 -23 4 -15 33
-41 34 -58 2 -8 -15 -16 -23 -19 -18 -2 5 -1 61 2 124 5 81 3 119 -5 130 -7 8
-15 23 -18 32 -8 23 -83 72 -100 65 -18 -7 -27 -74 -27 -202 0 -100 0 -102
-28 -122 -16 -12 -33 -18 -38 -15 -5 4 -16 32 -23 62 -7 30 -19 65 -27 76 -7
12 -11 30 -8 41 3 11 -2 25 -10 32 -9 8 -16 19 -16 26 0 18 -41 149 -50 158
-4 5 -15 -13 -24 -40 -9 -26 -27 -70 -40 -97 -13 -27 -22 -55 -19 -62 3 -7 -5
-19 -16 -26 -12 -7 -21 -22 -21 -34 0 -18 -26 -54 -32 -43 -1 2 -4 92 -7 199
-5 172 -8 195 -23 198 -14 3 -16 -5 -14 -50 2 -29 2 -39 -1 -21 -5 34 -28 50
-49 32 -9 -8 -14 -34 -14 -78 0 -55 -3 -68 -20 -79 -17 -10 -20 -23 -20 -77 0
-64 -12 -86 -24 -42 -3 12 -6 87 -6 168 0 80 -4 149 -9 155 -5 5 -13 28 -18
52 l-8 44 -25 -24 c-64 -59 -62 -51 -69 -273 -5 -157 -9 -208 -20 -214 -9 -6
-10 -10 -2 -16 9 -5 9 -10 1 -20 -14 -17 -5 -35 18 -35 21 0 5 -15 -25 -25
-18 -5 -23 -2 -23 11 0 23 -39 104 -51 104 -4 0 -7 -35 -5 -77 l3 -78 42 2
c28 2 41 -2 40 -10 -5 -26 14 -67 37 -82 13 -8 24 -20 24 -25 0 -16 43 -110
50 -110 4 0 11 17 17 38 l10 37 2 -35 c2 -19 6 -44 11 -55 7 -19 8 -18 13 5 3
14 9 63 12 109 5 57 12 89 23 100 15 15 15 15 9 -1 -4 -12 -2 -18 8 -18 8 0
14 5 12 11 -1 6 4 14 12 17 8 3 11 0 7 -7 -5 -7 -1 -9 8 -5 9 3 14 9 12 13 -7
11 12 36 20 28 4 -4 2 -24 -4 -46 -17 -56 -16 -138 3 -144 13 -5 13 -12 0 -54
-8 -26 -15 -58 -15 -70 0 -16 -6 -23 -21 -23 -13 0 -23 -10 -30 -30 -9 -25
-16 -30 -45 -30 -23 0 -34 5 -34 14 0 8 -5 16 -11 18 -6 2 -12 19 -13 37 -3
40 -35 67 -81 69 -43 2 -51 -10 -59 -88 -4 -41 -11 -67 -21 -73 -8 -4 -15 -17
-15 -28 0 -13 -6 -19 -17 -17 -15 2 -19 -5 -21 -39 -4 -57 -17 -55 -19 2 -1
32 2 45 12 45 9 0 15 24 20 85 4 47 11 85 16 85 12 0 11 47 -1 71 -6 11 -21
19 -35 19 -24 0 -25 3 -25 54 0 30 -5 58 -11 62 -21 13 -34 -17 -32 -72 3 -49
0 -57 -17 -61 -11 -3 -20 -9 -20 -13 0 -5 14 -4 32 1 18 5 35 5 39 1 12 -12
15 -145 4 -144 -5 1 -13 16 -16 34 -6 30 -6 30 -8 6 -3 -69 -41 -102 -41 -37
0 24 -4 30 -17 27 -16 -3 -18 -13 -15 -73 2 -64 1 -68 -13 -51 -8 11 -15 16
-15 11 0 -4 -3 -6 -6 -3 -3 4 -1 15 5 27 6 11 7 22 2 25 -5 3 -11 -8 -15 -24
-6 -33 -21 -37 -50 -15 -15 12 -17 17 -7 29 10 12 8 21 -9 44 -19 26 -31 31
-86 37 -68 7 -83 17 -63 41 9 11 9 20 0 41 -10 22 -16 25 -46 20 -35 -6 -57 6
-30 17 25 9 18 36 -9 36 -16 0 -27 7 -31 20 -4 13 -14 19 -28 17 -16 -1 -21 3
-19 15 2 12 -7 19 -31 23 -18 4 -37 6 -42 5 -31 -6 -38 0 -21 19 22 24 13 41
-20 41 -15 0 -24 6 -24 15 0 9 -11 20 -24 25 -18 7 -23 14 -19 29 5 21 -11 29
-22 11 -3 -5 -15 -10 -27 -10 -17 0 -18 2 -8 15 7 8 22 15 33 15 11 0 25 8 32
17 11 15 15 15 29 4 9 -7 16 -20 16 -27 0 -8 5 -14 10 -14 6 0 10 5 10 10 0
19 22 10 51 -21 16 -17 29 -26 29 -19 0 6 4 9 9 6 4 -3 6 6 3 19 -3 18 0 25
10 25 13 0 15 24 17 136 2 127 13 196 28 180 4 -3 12 6 18 21 17 42 25 14 9
-32 -9 -25 -14 -83 -14 -157 0 -67 -4 -119 -10 -123 -5 -3 -10 -11 -10 -17 0
-7 4 -7 14 1 18 15 26 -25 26 -135 0 -49 4 -84 10 -84 6 0 10 5 10 11 0 5 4 8
9 5 5 -3 15 2 22 11 11 13 11 17 1 20 -20 7 -3 23 24 23 27 0 34 20 7 21 -14
0 -14 2 3 9 21 8 22 16 23 132 1 112 3 125 22 141 27 22 53 23 45 1 -3 -9 -6
-22 -6 -30 0 -8 -8 -15 -17 -15 -16 -1 -17 -2 -1 -6 15 -4 17 -21 17 -138 0
-74 4 -141 9 -151 8 -15 11 -14 24 5 8 11 17 18 21 15 16 -16 26 45 24 153 -2
96 -4 117 -13 101 -14 -26 -20 -16 -28 45 -5 31 -14 52 -27 60 -10 6 -19 16
-19 22 0 22 -62 140 -85 161 -14 13 -25 34 -25 47 0 12 -4 27 -8 33 -5 5 -18
34 -30 64 -18 49 -21 84 -26 319 -3 164 -9 268 -15 274 -8 8 -11 -28 -13 -119
-2 -242 -4 -269 -15 -288 -10 -18 -13 -16 -37 22 -14 23 -26 47 -26 53 0 6
-28 68 -61 138 -34 69 -94 198 -134 286 -42 94 -77 160 -86 160 -16 0 -99
-236 -130 -370 -12 -49 -25 -99 -29 -110 -20 -50 -53 -191 -52 -219 0 -17 4
-66 8 -108 6 -81 -2 -98 -26 -53 -7 14 -19 25 -27 25 -7 0 -13 7 -13 15 0 8
-6 15 -12 15 -7 0 -21 17 -30 38 -10 20 -39 61 -64 91 -41 46 -46 56 -36 72 7
10 12 23 12 28 0 4 -62 102 -138 217 -76 115 -148 226 -161 247 -12 20 -31 42
-42 47 -10 6 -16 16 -13 23 2 7 -21 50 -52 96 -50 75 -55 86 -45 109 10 22 7
33 -30 94 -44 73 -49 77 -94 82 -26 3 -45 20 -45 41 0 5 5 4 12 -3 19 -19 50
-15 46 6 -2 11 -14 18 -35 20 -34 3 -57 24 -68 61 -7 22 -5 23 20 17 20 -5 26
-3 23 6 -3 7 -13 15 -24 17 -28 5 -41 18 -72 72 -22 41 -30 47 -50 42 -14 -3
-30 1 -42 12 -18 16 -20 15 -42 -22 -13 -21 -29 -50 -37 -64 -9 -19 -25 -29
-54 -35 -53 -12 -65 -38 -13 -29 40 8 41 7 24 -30 -8 -17 -24 -29 -52 -36 -23
-6 -47 -13 -53 -15 -7 -2 -13 -11 -13 -20 0 -11 5 -14 18 -9 34 13 72 17 72 8
0 -20 -42 -47 -82 -52 -39 -6 -44 -11 -87 -79 -36 -60 -43 -77 -34 -91 9 -15
1 -33 -48 -105 -33 -48 -57 -92 -53 -97 3 -5 -7 -22 -23 -37 -15 -16 -60 -76
-98 -133 -39 -57 -110 -162 -159 -233 l-88 -128 23 -24 c25 -27 28 -18 -39
-93 -40 -43 -45 -59 -22 -66 32 -10 23 -24 -19 -31 -31 -5 -41 -11 -43 -28 -2
-12 -11 -22 -24 -24 -12 -2 -41 -30 -68 -67 -26 -36 -52 -65 -57 -65 -5 0 -9
108 -10 258 -1 141 -3 273 -5 292 -3 41 -6 134 -5 173 1 18 6 27 18 27 12 0
14 3 6 11 -6 6 -44 13 -84 15 -41 3 -76 8 -79 10 -12 13 31 24 83 21 35 -2 57
1 57 8 -1 5 -24 44 -53 85 -43 62 -58 76 -92 86 l-39 11 32 6 c18 4 32 12 32
19 0 7 -20 44 -44 81 -31 51 -53 74 -82 87 -38 18 -38 18 -10 19 23 1 27 4 21
19 -13 36 -156 302 -165 307 -8 5 -28 -27 -151 -236 -22 -36 -39 -70 -39 -76
0 -7 -17 -38 -38 -70 -22 -32 -50 -78 -64 -103 -14 -25 -76 -128 -138 -230
-62 -102 -143 -234 -180 -295 -67 -110 -132 -231 -144 -271 -5 -16 -2 -23 11
-27 10 -2 27 -8 38 -12 15 -5 17 -5 6 3 -25 18 69 3 114 -18 22 -10 48 -21 58
-24 28 -9 20 -32 -24 -73 l-41 -38 -6 -120 c-4 -66 -5 -194 -2 -285 5 -160 2
-185 -25 -177 -5 2 -11 35 -13 74 -2 50 -7 73 -17 77 -10 3 -16 -9 -23 -47
l-10 -52 -1 45 c-9 219 -21 391 -31 418 -13 34 -35 41 -71 22 -16 -9 -19 -7
-19 12 0 28 -8 39 -41 60 -23 15 -27 25 -33 95 -7 88 -23 155 -39 165 -9 5
-19 121 -27 313 -1 11 -7 26 -14 35 -9 10 -14 45 -14 110 0 52 -2 102 -5 110
-16 45 -17 70 -3 70 8 0 17 -13 21 -30 4 -16 11 -32 16 -35 5 -4 9 -31 9 -61
0 -62 -1 -61 92 -42 33 7 58 17 58 24 0 7 10 20 23 30 15 11 17 15 4 10 -15
-5 -16 -3 -7 15 9 16 14 18 26 8 12 -10 13 -9 9 3 -10 25 24 50 59 45 21 -3
35 1 42 12 10 13 15 13 27 2 19 -15 37 -7 37 17 0 9 12 28 25 41 14 13 25 27
25 33 0 5 5 6 10 3 12 -8 86 67 95 96 6 17 9 19 16 8 13 -21 34 4 22 26 -6 9
-8 28 -5 41 3 19 12 25 44 30 22 4 43 14 48 25 14 26 13 29 -12 26 -38 -4 -27
24 25 64 54 40 77 77 77 121 0 17 4 27 10 23 6 -3 10 0 10 8 0 8 -7 18 -16 21
-18 7 -16 47 3 54 7 2 18 -8 24 -22 12 -25 13 -25 29 -9 10 10 16 21 13 26 -2
4 0 7 5 7 4 0 18 18 31 40 12 22 26 40 31 40 5 0 16 14 25 30 14 27 14 30 0
30 -19 0 -20 19 -1 26 13 5 59 -21 94 -53 7 -7 20 -13 28 -13 8 0 17 -13 21
-31 4 -22 8 -27 14 -17 6 9 9 3 9 -17 0 -30 35 -90 78 -135 12 -13 22 -31 22
-39 1 -21 39 -64 70 -79 37 -19 66 -36 84 -51 9 -7 31 -14 48 -15 24 -2 32 -6
30 -18 -2 -11 7 -17 32 -20 24 -3 32 0 29 9 -3 7 -9 13 -14 13 -15 0 -10 30 6
36 8 4 15 15 15 25 0 12 7 19 20 19 14 0 20 -7 20 -21 0 -18 2 -19 15 -9 8 7
26 10 40 8 25 -5 30 3 27 44 -3 29 -31 56 -164 155 -71 52 -128 98 -128 100 0
3 6 1 13 -4 6 -5 28 -16 47 -23 62 -24 154 -88 203 -140 48 -52 69 -61 47 -21
-14 26 0 27 33 1 30 -24 37 -25 37 -5 0 21 30 52 63 64 15 6 27 17 27 25 0 15
16 16 38 3 7 -5 12 -3 12 6 0 14 41 47 57 47 4 0 1 -5 -7 -10 -13 -8 -12 -10
3 -10 10 0 27 9 39 20 12 11 24 17 27 14 3 -4 0 -9 -7 -11 -6 -3 -10 -9 -6
-14 12 -20 30 18 32 67 3 76 -40 230 -97 346 -34 70 -42 93 -26 73 14 -16 25
-33 25 -38 0 -4 10 -24 23 -45 23 -37 71 -146 103 -234 9 -27 20 -48 25 -48
14 0 22 68 17 148 l-5 77 19 -42 c10 -23 19 -53 20 -67 4 -42 16 -30 23 22 7
53 -10 143 -45 233 -27 73 -25 85 6 26 14 -27 27 -47 30 -45 2 3 -3 27 -11 54
-8 27 -15 51 -14 54 0 10 38 -72 50 -108 15 -48 49 -125 54 -120 19 20 45 86
45 113 0 37 13 46 28 19 12 -21 17 -13 36 64 17 63 48 127 58 117 7 -7 59 42
81 77 17 28 20 28 79 6z m598 -19 c0 -24 -23 -21 -28 4 -2 10 3 17 12 17 10 0
16 -9 16 -21z m891 3 c-9 -3 -4 -9 15 -18 l29 -14 -40 6 c-58 8 -117 26 -106
33 5 3 33 4 63 2 29 -2 47 -6 39 -9z m-2027 -38 c5 -14 4 -15 -9 -4 -17 14
-19 20 -6 20 5 0 12 -7 15 -16z m40 -59 c9 -14 13 -25 8 -25 -5 0 -14 11 -20
25 -6 14 -10 25 -8 25 2 0 11 -11 20 -25z m876 -25 c0 -5 -7 -10 -16 -10 -8 0
-12 5 -9 10 3 6 10 10 16 10 5 0 9 -4 9 -10z m-1162 -67 c14 -12 14 -13 0 -13
-26 0 -41 27 -32 57 l8 28 4 -30 c2 -16 11 -36 20 -42z m-3290 -75 c-97 -155
-138 -228 -220 -393 -152 -305 -250 -559 -342 -887 -9 -32 -21 -58 -26 -58
-17 0 98 365 185 585 95 240 262 564 403 783 29 46 56 82 59 79 3 -3 -24 -52
-59 -109z m2092 73 c0 -13 -28 -22 -35 -11 -3 4 1 11 7 13 20 8 28 8 28 -2z
m2595 -32 c-68 -23 -113 -45 -159 -78 -27 -19 -45 -28 -40 -19 17 30 86 78
128 89 22 5 46 12 51 14 6 2 19 3 30 3 13 0 10 -3 -10 -9z m-1904 -54 c-1 -15
-24 -12 -29 3 -3 9 2 13 12 10 10 -1 17 -7 17 -13z m1666 -32 c-9 -9 -19 -14
-23 -11 -10 10 6 28 24 28 15 0 15 -1 -1 -17z m652 -2 c6 -10 7 -21 4 -25 -9
-8 -44 25 -37 35 9 14 23 10 33 -10z m522 -16 c-1 -15 -24 -12 -29 3 -3 9 2
13 12 10 10 -1 17 -7 17 -13z m-3308 -2 c11 -10 -13 -33 -34 -33 -24 0 -25 27
-1 33 27 7 28 7 35 0z m622 -23 c3 -5 -1 -10 -10 -10 -9 0 -13 5 -10 10 3 6 8
10 10 10 2 0 7 -4 10 -10z m-2745 -4 c0 -12 -64 -106 -72 -106 -6 0 0 15 12
33 11 17 26 42 32 55 10 19 28 31 28 18z m2870 -16 c0 -5 -4 -10 -10 -10 -5 0
-10 5 -10 10 0 6 5 10 10 10 6 0 10 -4 10 -10z m-565 -10 c3 -5 1 -10 -4 -10
-6 0 -11 5 -11 10 0 6 2 10 4 10 3 0 8 -4 11 -10z m2401 -32 c56 -61 59 -73 6
-23 -28 27 -52 51 -52 52 0 11 21 -2 46 -29z m-2481 -8 c4 -6 -6 -10 -24 -10
-16 0 -33 5 -36 10 -4 6 6 10 24 10 16 0 33 -4 36 -10z m1022 -16 c3 -8 1 -20
-6 -27 -14 -14 -47 15 -37 32 10 16 36 13 43 -5z m-1177 -4 c0 -5 -2 -10 -4
-10 -3 0 -8 5 -11 10 -3 6 -1 10 4 10 6 0 11 -4 11 -10z m1077 -11 c16 -16 5
-39 -17 -39 -23 0 -34 16 -26 35 6 18 28 19 43 4z m2332 -66 c-12 -24 -18 -51
-15 -77 5 -56 13 -71 43 -85 19 -9 23 -14 14 -25 -8 -10 -8 -16 1 -23 26 -20
90 -44 103 -40 16 7 55 -20 55 -37 0 -8 7 -17 16 -20 13 -5 14 -9 4 -22 -10
-11 -15 -12 -20 -3 -13 19 -22 -8 -10 -30 5 -11 10 -32 10 -46 l0 -27 68 4
c45 2 86 13 127 31 l59 28 -24 -27 c-48 -50 -97 -68 -190 -69 -96 0 -149 18
-213 74 -53 47 -97 141 -97 207 0 82 18 147 51 187 17 20 32 37 34 37 1 0 -6
-17 -16 -37z m-2904 -13 c3 -5 -1 -10 -9 -10 -9 0 -16 5 -16 10 0 6 4 10 9 10
6 0 13 -4 16 -10z m2105 -12 c11 -12 20 -27 20 -32 0 -6 -7 -2 -16 9 -8 11
-22 26 -31 33 -9 6 -12 12 -5 12 6 0 20 -10 32 -22z m-2107 -28 c48 -16 89
-30 92 -30 3 0 5 8 5 19 0 21 33 34 48 19 12 -12 6 -35 -16 -60 -21 -24 -39
-22 -74 7 -34 29 -48 32 -48 10 0 -17 -2 -18 -24 -9 -12 5 -14 10 -6 19 9 10
-1 18 -42 34 -82 31 -31 25 65 -9z m2415 0 c13 -16 29 -30 37 -30 24 0 27 -18
5 -40 -42 -42 -114 -11 -112 48 0 18 3 36 7 42 12 19 41 10 63 -20z m-1670
-42 c3 -22 -2 -30 -22 -40 -22 -9 -29 -8 -46 7 -36 33 -16 68 35 63 24 -2 31
-8 33 -30z m-3562 -192 c-36 -75 -91 -201 -121 -279 -74 -188 -77 -194 -82
-180 -2 6 21 76 52 155 63 159 207 466 213 450 1 -5 -27 -71 -62 -146z m2934
134 c0 -5 -2 -10 -4 -10 -3 0 -8 5 -11 10 -3 6 -1 10 4 10 6 0 11 -4 11 -10z
m2640 -21 c0 -5 -7 -9 -15 -9 -15 0 -20 12 -9 23 8 8 24 -1 24 -14z m-1002 -1
c-3 -7 -13 -13 -23 -13 -10 0 -20 6 -22 13 -3 7 5 12 22 12 17 0 25 -5 23 -12z
m-1429 -43 c57 -46 44 -46 -16 0 -25 19 -42 35 -37 35 5 0 29 -16 53 -35z
m276 5 c0 -8 -8 -16 -17 -18 -13 -2 -18 3 -18 18 0 15 5 20 18 18 9 -2 17 -10
17 -18z m4928 -152 c104 -233 205 -536 271 -810 54 -225 112 -594 96 -611 -8
-9 -12 12 -31 153 -55 432 -182 875 -383 1333 -9 20 -12 37 -7 37 4 0 29 -46
54 -102z m-5343 17 c0 -8 -7 -15 -15 -15 -8 0 -15 7 -15 15 0 8 7 15 15 15 8
0 15 -7 15 -15z m-1280 -5 c0 -5 -9 -10 -21 -10 -11 0 -17 5 -14 10 3 6 13 10
21 10 8 0 14 -4 14 -10z m3287 -42 c-3 -7 -5 -2 -5 12 0 14 2 19 5 13 2 -7 2
-19 0 -25z m-1967 -3 c10 -12 10 -21 2 -40 -22 -47 -81 -21 -68 30 7 29 46 35
66 10z m1640 -53 c0 -24 -8 -32 -26 -25 -22 8 -17 43 6 43 13 0 20 -7 20 -18z
m326 -29 c-10 -10 -19 5 -10 18 6 11 8 11 12 0 2 -7 1 -15 -2 -18z m109 7 c3
-5 1 -10 -4 -10 -6 0 -11 5 -11 10 0 6 2 10 4 10 3 0 8 -4 11 -10z m-3821
-103 c7 -19 5 -32 -8 -52 -17 -26 -64 -51 -74 -40 -7 7 26 66 46 82 8 7 12 19
8 28 -4 11 -2 15 6 13 7 -3 17 -16 22 -31z m5526 -70 c0 -2 -7 -27 -16 -56
-10 -35 -13 -68 -9 -95 9 -55 58 -156 91 -190 24 -24 29 -25 44 -11 24 22 37
19 44 -10 4 -14 11 -25 16 -25 6 0 10 -7 10 -15 0 -9 6 -18 14 -21 8 -3 12
-13 9 -25 -3 -12 0 -19 8 -19 11 0 11 -2 -1 -10 -18 -12 -91 -3 -138 16 -101
41 -172 149 -172 260 0 72 21 136 58 177 22 23 42 35 42 24z m-4980 -78 c0 -5
-4 -9 -10 -9 -5 0 -10 7 -10 16 0 8 5 12 10 9 6 -3 10 -10 10 -16z m-275 -80
c10 -32 -12 -48 -24 -18 -10 24 -10 24 -10 2 -1 -13 -5 -23 -9 -23 -12 0 -9
43 3 52 18 14 34 8 40 -13z m265 -19 c0 -5 -5 -10 -11 -10 -5 0 -7 5 -4 10 3
6 8 10 11 10 2 0 4 -4 4 -10z m3811 -100 c26 -14 24 -32 -3 -28 -13 2 -24 11
-26 21 -4 20 2 21 29 7z m-3931 -16 c0 -9 -5 -14 -12 -12 -18 6 -21 28 -4 28
9 0 16 -7 16 -16z m-1970 0 c0 -24 -45 -164 -53 -164 -5 0 -7 8 -4 18 2 9 13
47 23 85 10 37 22 67 26 67 4 0 8 -3 8 -6z m1591 -27 c-13 -13 -26 -3 -16 12
3 6 11 8 17 5 6 -4 6 -10 -1 -17z m59 3 c0 -5 -4 -10 -10 -10 -5 0 -10 5 -10
10 0 6 5 10 10 10 6 0 10 -4 10 -10z m24 -117 c-8 -28 -27 -35 -50 -19 -20 15
-12 34 20 46 27 10 37 1 30 -27z m-315 -138 c0 -5 -6 1 -14 15 -8 14 -14 30
-14 35 0 6 6 -1 14 -15 8 -14 14 -29 14 -35z m353 43 c6 -16 1 -278 -5 -284
-2 -3 -5 37 -6 88 -1 108 -10 176 -22 184 -5 3 -9 9 -9 15 0 14 37 11 42 -3z
m-1803 -130 c-109 -514 -129 -1074 -58 -1588 24 -178 79 -449 118 -590 29
-101 33 -131 13 -93 -19 36 -101 381 -126 530 -48 284 -60 436 -60 763 -1 378
25 650 94 976 26 123 29 134 39 134 5 0 -5 -60 -20 -132z m1948 48 c-2 -5 -8
-11 -14 -13 -12 -4 -25 36 -16 50 7 12 35 -23 30 -37z m-456 -44 c7 -12 18
-21 23 -19 5 2 34 -2 65 -8 37 -8 68 -9 90 -3 25 7 36 6 43 -4 16 -24 -4 -438
-28 -571 -5 -30 -10 -37 -23 -32 -9 4 -23 8 -31 10 -53 14 -74 23 -78 35 -4
10 4 12 34 7 22 -4 46 -2 54 3 13 8 13 10 -2 10 -26 0 -68 22 -68 35 0 7 19
15 41 19 52 8 45 16 -21 25 -58 7 -66 22 -20 35 43 13 33 32 -25 51 -16 5 -17
8 -5 15 8 5 17 7 21 4 4 -2 10 0 14 6 8 14 -45 25 -64 13 -9 -5 -25 -28 -36
-51 -11 -22 -28 -43 -38 -45 -14 -4 -17 -11 -12 -26 8 -25 -14 -103 -32 -114
-7 -4 -13 -19 -13 -32 0 -14 -4 -25 -10 -25 -5 0 -12 0 -15 0 -3 0 -8 85 -10
190 -3 109 -1 190 4 190 5 0 12 -19 16 -42 9 -61 15 -78 26 -78 16 0 10 52 -8
72 -13 15 -14 21 -5 27 22 13 23 54 2 73 -11 10 -17 24 -14 32 3 8 -1 18 -8
22 -15 9 -17 10 -73 20 -50 9 -60 23 -33 46 14 12 36 17 67 17 26 -1 56 1 67
5 25 8 54 59 47 84 -2 11 0 23 6 26 6 4 11 17 11 29 0 21 1 21 13 -3 8 -14 20
-35 28 -48z m5171 -11 c-2 -23 -8 -41 -13 -41 -10 0 -12 50 -3 74 11 28 20 9
16 -33z m-3702 -32 c0 -20 7 -42 15 -49 10 -8 15 -30 15 -60 0 -64 7 -82 28
-71 10 5 28 7 42 6 19 -2 26 2 27 16 1 10 -2 19 -8 19 -5 0 -9 7 -9 15 0 12 8
14 38 9 34 -5 41 -3 55 20 25 38 22 64 -9 72 -24 6 -23 8 22 24 31 10 51 13
55 7 7 -11 1 -644 -6 -664 -10 -30 -33 -11 -39 31 -6 37 -12 46 -36 54 -15 6
-31 8 -34 5 -3 -4 -6 -65 -6 -137 l0 -131 -45 -20 c-28 -12 -45 -26 -45 -37 0
-15 -36 -36 -46 -26 -2 2 -4 194 -4 425 -1 354 -3 423 -16 433 -9 8 -14 32
-14 69 0 40 3 52 10 41 5 -8 10 -31 10 -51z m-998 -76 c-3 -99 -1 -122 12
-132 13 -11 16 -34 15 -115 0 -66 -3 -94 -9 -81 -5 11 -9 53 -9 93 -1 40 -8
89 -16 109 -20 46 -22 257 -2 250 9 -3 11 -35 9 -124z m5006 29 c2 -7 -3 -12
-12 -12 -9 0 -16 7 -16 16 0 17 22 14 28 -4z m-293 -4 c14 -6 24 -17 21 -25
-3 -7 3 -17 12 -23 24 -14 0 -28 -42 -25 -29 2 -31 5 -34 44 -3 44 2 48 43 29z
m-1735 -8 c0 -5 -13 -10 -29 -10 -17 0 -33 5 -36 10 -4 6 8 10 29 10 20 0 36
-4 36 -10z m-2315 -6 c25 -10 42 -54 44 -119 2 -55 22 -95 29 -60 2 8 8 15 13
15 6 0 8 -9 4 -19 -7 -22 22 -36 54 -26 11 3 22 1 26 -5 10 -16 45 7 45 30 0
10 5 22 10 25 7 4 10 -56 10 -172 0 -98 3 -241 5 -317 5 -147 0 -166 -39 -166
-17 0 -24 11 -39 58 -9 31 -17 87 -17 125 0 65 -1 67 -25 67 -20 0 -25 5 -25
25 0 18 -5 25 -19 25 -21 0 -31 -34 -31 -106 0 -24 -4 -44 -10 -44 -6 0 -10
55 -10 144 0 86 -4 147 -10 151 -6 4 -10 69 -10 162 0 168 -7 192 -54 194 -12
0 -30 4 -41 9 -15 6 -9 9 27 9 25 1 54 -2 63 -5z m271 -72 c-11 -10 -14 3 -8
33 l7 30 3 -28 c2 -16 1 -31 -2 -35z m771 32 c-3 -3 -12 -4 -19 -1 -8 3 -5 6
6 6 11 1 17 -2 13 -5z m5152 -174 c32 -233 42 -380 42 -645 0 -292 -29 -665
-52 -665 -11 0 -12 -9 6 140 39 318 36 780 -6 1100 -32 239 -33 246 -22 235 6
-5 20 -80 32 -165z m-1804 150 c-3 -5 -10 -10 -16 -10 -5 0 -9 5 -9 10 0 6 7
10 16 10 8 0 12 -4 9 -10z m-1463 -23 c-19 -20 -22 -39 -28 -165 l-7 -142 -29
0 c-15 0 -28 5 -28 10 0 6 9 10 20 10 19 0 20 7 20 129 0 115 2 131 21 155 11
14 28 26 36 26 14 0 13 -4 -5 -23z m1954 -34 c-11 -12 -36 7 -36 29 l0 22 21
-23 c12 -12 19 -25 15 -28z m-5276 -13 c0 -5 -7 -10 -15 -10 -8 0 -15 5 -15
10 0 6 7 10 15 10 8 0 15 -4 15 -10z m1528 -57 c-10 -2 -28 -2 -40 0 -13 2 -5
4 17 4 22 1 32 -1 23 -4z m-1951 -50 c-3 -10 -5 -2 -5 17 0 19 2 27 5 18 2
-10 2 -26 0 -35z m3226 30 c-7 -2 -19 -2 -25 0 -7 3 -2 5 12 5 14 0 19 -2 13
-5z m-816 -50 c-3 -10 -5 -4 -5 12 0 17 2 24 5 18 2 -7 2 -21 0 -30z m-4512
-35 c-3 -24 -10 -86 -16 -138 -15 -132 -22 -589 -12 -737 9 -128 1 -166 -14
-65 -12 89 -9 643 5 772 21 194 24 210 33 210 5 0 6 -19 4 -42z m4460 -60 c5
-57 8 -115 7 -129 -1 -20 5 -27 31 -35 l32 -9 3 -137 c2 -90 -1 -138 -8 -138
-6 0 -10 45 -10 123 0 82 -4 127 -12 135 -17 17 -83 15 -98 -3 -6 -8 -9 -23
-5 -35 5 -14 2 -20 -9 -20 -11 0 -16 9 -16 29 0 32 22 61 46 61 11 0 14 24 14
130 0 72 4 130 9 130 4 0 12 -46 16 -102z m-2896 -65 c0 -34 6 -65 11 -68 6
-4 10 -82 10 -200 0 -199 8 -252 36 -241 18 7 44 -16 44 -38 0 -12 -11 -16
-49 -16 -27 0 -58 -3 -68 -6 -15 -5 -15 -4 -3 5 8 6 17 23 19 38 9 72 9 346 0
408 -14 92 -21 251 -10 210 5 -16 9 -58 10 -92z m3465 -63 c-1 -119 -3 -133
-23 -154 -21 -22 -21 -29 -21 -329 0 -218 -3 -307 -11 -307 -7 0 -9 -9 -5 -24
4 -16 1 -26 -9 -30 -8 -3 -15 -9 -14 -13 1 -4 1 -21 0 -38 -1 -22 -4 -26 -10
-15 -13 21 -9 385 4 385 15 0 23 77 24 235 1 80 5 150 9 156 4 6 15 13 25 17
15 6 17 21 17 127 0 66 3 120 8 120 4 0 7 -59 6 -130z m-2735 40 c1 -13 0 -13
-9 0 -5 8 -9 26 -9 40 l1 25 8 -25 c4 -14 8 -32 9 -40z m-152 28 c-3 -8 -6 -5
-6 6 -1 11 2 17 5 13 3 -3 4 -12 1 -19z m0 -55 c-3 -10 -5 -4 -5 12 0 17 2 24
5 18 2 -7 2 -21 0 -30z m1762 11 c2 -2 -19 -4 -47 -4 -29 0 -52 4 -52 10 0 9
88 3 99 -6z m1571 -45 c0 -5 -4 -9 -10 -9 -5 0 -10 7 -10 16 0 8 5 12 10 9 6
-3 10 -10 10 -16z m3905 -80 c6 -90 3 -121 -9 -108 -10 10 -18 209 -9 209 6 0
14 -45 18 -101z m-7238 59 c-3 -7 -5 -2 -5 12 0 14 2 19 5 13 2 -7 2 -19 0
-25z m3473 23 c0 -12 -41 -21 -68 -14 -38 9 -24 23 23 23 25 0 45 -4 45 -9z
m-3284 -28 c-3 -8 -6 -22 -7 -31 -1 -10 -4 -7 -9 8 -13 40 -11 50 6 43 8 -3
13 -12 10 -20z m1619 -13 c-3 -5 -10 -10 -16 -10 -5 0 -9 5 -9 10 0 6 7 10 16
10 8 0 12 -4 9 -10z m-1985 -26 c0 -12 -10 -14 -57 -10 -73 6 -75 7 -33 16 62
13 90 11 90 -6z m1843 -1 c-13 -2 -33 -2 -45 0 -13 2 -3 4 22 4 25 0 35 -2 23
-4z m1752 -13 c14 -6 5 -9 -35 -9 -40 0 -49 3 -35 9 11 5 27 9 35 9 8 0 24 -4
35 -9z m-3238 -47 c-3 -10 -5 -2 -5 17 0 19 2 27 5 18 2 -10 2 -26 0 -35z
m1751 40 c-10 -2 -28 -2 -40 0 -13 2 -5 4 17 4 22 1 32 -1 23 -4z m1555 0 c-7
-2 -21 -2 -30 0 -10 3 -4 5 12 5 17 0 24 -2 18 -5z m-553 -23 c0 -11 -7 -20
-15 -20 -8 0 -15 9 -15 20 0 11 7 20 15 20 8 0 15 -9 15 -20z m630 -10 c22
-14 12 -17 -67 -22 -82 -6 -99 0 -51 18 41 14 98 17 118 4z m68 -29 c3 -8 -1
-12 -9 -9 -7 2 -15 10 -17 17 -3 8 1 12 9 9 7 -2 15 -10 17 -17z m-1389 -126
c-6 -66 -8 -135 -5 -152 2 -18 1 -33 -5 -33 -5 0 -9 41 -9 90 0 85 -9 111 -25
73 -4 -10 -9 -51 -11 -91 -2 -51 -8 -77 -20 -89 -16 -16 -16 -16 -11 2 7 20
16 124 17 182 0 25 5 32 23 35 15 2 23 11 25 28 7 64 14 92 22 84 5 -5 4 -62
-1 -129z m1344 109 c30 -11 19 -34 -15 -35 -18 0 -44 -2 -57 -3 -13 -2 -32 5
-43 16 -10 10 -18 14 -18 9 0 -6 -12 -8 -27 -7 -16 2 -34 4 -41 5 -7 0 -11 5
-8 10 7 10 185 15 209 5z m-573 -24 c0 -5 -4 -10 -10 -10 -5 0 -10 5 -10 10 0
6 5 10 10 10 6 0 10 -4 10 -10z m654 -6 c4 -11 1 -14 -11 -12 -9 2 -18 9 -21
16 -6 18 25 15 32 -4z m-3534 -65 c0 -52 -2 -60 -17 -57 -14 3 -17 11 -15 37
4 38 18 81 27 81 3 0 5 -27 5 -61z m2035 51 c3 -5 -3 -10 -14 -10 -12 0 -21 5
-21 10 0 6 6 10 14 10 8 0 18 -4 21 -10z m2822 -32 c-3 -7 -5 -2 -5 12 0 14 2
19 5 13 2 -7 2 -19 0 -25z m-3297 2 c0 -5 -14 -7 -32 -3 -46 8 -48 13 -5 13
21 0 37 -4 37 -10z m1470 0 c0 -5 -16 -10 -36 -10 -21 0 -33 4 -29 10 3 6 19
10 36 10 16 0 29 -4 29 -10z m171 -13 c-11 -14 -111 -10 -111 3 0 9 97 18 113
12 4 -2 4 -9 -2 -15z m-601 5 c0 -13 -12 -22 -22 -16 -10 6 -1 24 13 24 5 0 9
-4 9 -8z m690 -12 c0 -19 -31 -23 -48 -6 -15 15 -14 16 16 16 18 0 32 -5 32
-10z m-800 -31 c6 -10 10 -46 11 -81 0 -35 4 -85 8 -113 6 -48 7 -49 14 -17
16 75 25 21 25 -153 1 -148 -2 -185 -12 -185 -17 0 -29 -44 -21 -71 7 -20 25
-26 25 -8 0 5 5 7 10 4 6 -3 10 -15 10 -27 0 -14 5 -18 15 -14 25 9 65 -11 65
-34 0 -11 5 -20 10 -20 6 0 10 11 10 25 0 15 6 26 15 27 8 0 21 1 28 2 6 1 11
-7 9 -17 -2 -9 2 -25 7 -35 6 -9 11 -11 11 -4 0 17 20 15 20 -2 0 -10 24 -15
95 -21 52 -4 97 -10 99 -13 2 -4 -161 -8 -362 -9 -345 -3 -366 -4 -383 -22
-10 -10 -22 -21 -27 -22 -5 -2 -13 -14 -16 -26 -7 -22 -5 -23 44 -23 31 0 52
5 55 13 7 17 453 12 471 -6 4 -4 31 -7 61 -7 46 0 53 2 53 20 0 26 16 26 23 0
5 -20 12 -20 274 -18 l268 3 5 35 5 35 70 1 c67 2 68 1 17 -5 -55 -7 -72 -20
-72 -58 0 -22 4 -23 71 -23 42 0 68 -4 64 -10 -3 -5 -12 -7 -21 -3 -13 5 -275
-7 -519 -22 -427 -28 -737 -27 -1211 5 -78 6 -231 10 -340 11 -110 0 -190 4
-179 8 11 5 106 11 210 15 266 10 260 9 259 24 -1 6 -2 25 -2 42 -2 21 -10 33
-29 43 -32 17 -32 21 -32 210 0 142 -1 147 -21 147 -21 0 -24 4 -35 53 -4 21
-2 28 7 25 7 -3 14 -10 14 -16 1 -7 2 -19 3 -27 1 -9 11 -15 27 -15 19 0 28
-7 35 -30 13 -35 7 -34 70 -14 55 18 63 31 22 36 -16 2 -28 8 -27 13 0 14 47
22 132 24 70 1 72 2 72 26 0 25 -5 28 -50 26 -14 -1 -38 3 -55 8 l-30 9 35 1
c19 1 52 4 73 7 33 6 37 10 37 35 0 16 5 29 11 29 8 0 9 -28 5 -97 -8 -107
-22 -133 -73 -133 -48 0 -61 -15 -68 -85 -6 -50 -12 -69 -29 -83 -13 -9 -21
-23 -18 -30 2 -6 -3 -12 -11 -12 -10 0 -15 -12 -15 -41 -1 -30 2 -39 10 -31 7
7 18 8 27 3 9 -5 27 -8 41 -7 14 1 30 -2 37 -6 7 -6 14 -2 18 11 3 12 13 21
21 21 11 0 14 -10 12 -40 -2 -49 7 -62 15 -20 4 18 13 30 22 30 8 0 15 4 15 9
0 14 63 23 71 10 4 -7 15 -8 30 -3 13 4 29 7 35 6 29 -6 64 18 64 42 0 27 15
42 25 26 5 -8 22 -3 55 18 4 3 7 29 9 105 0 26 6 47 11 47 6 0 10 -8 10 -17 0
-15 2 -16 10 -3 5 8 10 32 10 53 0 20 5 37 10 37 6 0 10 -9 10 -19 0 -11 4
-22 9 -25 15 -9 21 63 21 252 0 168 2 184 20 202 22 22 45 18 60 -11z m980 20
c71 -15 60 -34 -18 -33 -111 2 -132 4 -132 12 0 13 41 31 72 31 15 1 50 -4 78
-10z m2167 -51 c2 -58 -6 -77 -30 -78 -4 0 -5 17 -1 38 4 20 9 51 10 67 2 36
2 35 12 35 4 0 8 -28 9 -62z m-3917 43 c0 -12 -48 -17 -122 -13 -92 6 -67 22
32 22 50 0 90 -4 90 -9z m1998 -9 c2 -7 -3 -12 -12 -12 -9 0 -16 7 -16 16 0
17 22 14 28 -4z m-4553 -219 c6 -18 40 -16 59 2 24 24 30 1 34 -117 4 -95 2
-108 -12 -108 -21 0 -39 46 -31 81 7 32 -12 50 -30 26 -6 -8 -16 -13 -21 -9
-16 11 -25 42 -12 42 7 0 7 4 -1 14 -8 10 -9 16 -1 21 6 4 7 13 1 23 -4 9 -8
71 -9 137 l0 120 9 -110 c5 -60 11 -115 14 -122z m2265 177 c-8 -5 -42 -9 -75
-9 -48 1 -54 3 -30 9 46 12 123 12 105 0z m-1990 -81 c0 -33 -4 -59 -10 -59
-6 0 -10 29 -10 66 0 41 4 63 10 59 6 -3 10 -33 10 -66z m106 54 c12 -16 15
-16 25 -3 8 12 12 12 16 2 3 -9 9 -10 17 -3 8 7 16 4 24 -10 11 -17 9 -19 -20
-19 -63 0 -107 -12 -101 -26 3 -8 -1 -14 -11 -14 -12 0 -16 10 -16 35 0 24 5
35 15 35 8 0 15 5 15 10 0 16 22 12 36 -7z m172 -20 c23 -4 31 -10 28 -20 -3
-7 1 -16 10 -20 8 -3 13 -11 10 -19 -3 -8 4 -14 17 -16 17 -2 22 -9 20 -31 -1
-18 2 -27 10 -24 7 2 11 18 11 36 -2 37 13 42 22 7 8 -34 1 -61 -16 -61 -11 0
-14 -11 -13 -38 2 -27 -2 -37 -12 -37 -10 0 -15 11 -15 34 0 18 -6 39 -14 45
-8 7 -17 23 -20 36 -4 16 -13 25 -26 25 -14 0 -20 7 -20 23 0 28 -17 47 -42
47 -10 0 -18 7 -18 16 0 11 5 14 18 9 9 -4 32 -9 50 -12z m156 3 c-6 -16 -34
-30 -34 -18 0 10 22 32 32 32 4 0 5 -6 2 -14z m636 -12 c0 -16 -16 -19 -25 -4
-8 13 4 32 16 25 5 -4 9 -13 9 -21z m3044 1 c27 -11 53 -15 77 -11 39 6 72 -1
64 -14 -2 -4 -89 -8 -192 -8 -151 -1 -184 1 -170 11 10 7 28 20 39 29 26 22
125 18 182 -7z m1876 -2 c0 -22 -2 -25 -10 -13 -13 20 -13 40 0 40 6 0 10 -12
10 -27z m-370 7 c0 -4 -13 -13 -29 -18 l-30 -11 -4 -108 c-5 -130 -14 -219
-22 -233 -3 -6 -13 -10 -21 -10 -21 0 -20 145 2 154 12 5 15 24 15 103 -1 138
-4 130 46 131 24 0 43 -3 43 -8z m-5156 -33 c-7 -18 -24 -23 -24 -8 0 22 13
42 22 33 5 -5 6 -16 2 -25z m-44 -7 c0 -5 -4 -10 -10 -10 -5 0 -10 5 -10 10 0
6 5 10 10 10 6 0 10 -4 10 -10z m767 -10 c1 -8 5 -41 8 -73 7 -61 19 -66 33
-14 l9 32 13 -42 c7 -24 18 -44 24 -45 6 0 18 -1 26 -2 14 -1 16 -7 12 -36 -1
-5 -11 -10 -22 -10 -10 0 -23 -8 -28 -17 -11 -18 -97 -29 -107 -13 -3 6 -16 5
-31 0 -20 -8 -25 -7 -22 2 3 7 14 14 26 16 23 3 31 32 10 32 -6 0 -4 6 6 13
15 11 17 26 14 95 -2 69 -1 82 12 80 8 -2 16 -10 17 -18z m5008 -3 c4 -13 5
-50 3 -82 -2 -49 -6 -60 -22 -63 -15 -3 -17 0 -11 14 17 39 17 80 1 93 -9 8
-16 24 -16 37 0 33 37 33 45 1z m-5835 3 c0 -5 -2 -10 -4 -10 -3 0 -8 5 -11
10 -3 6 -1 10 4 10 6 0 11 -4 11 -10z m5460 -25 c0 -8 -4 -15 -10 -15 -5 0
-10 7 -10 15 0 8 5 15 10 15 6 0 10 -7 10 -15z m-4773 -22 c22 -25 23 -34 22
-170 0 -79 -4 -143 -8 -143 -9 0 -21 133 -21 236 0 64 -2 72 -21 77 -12 3 -18
10 -14 16 10 16 17 14 42 -16z m458 7 c25 -6 20 -8 -28 -9 -37 -1 -56 3 -52 9
7 11 36 11 80 0z m700 0 c-3 -5 -13 -10 -21 -10 -8 0 -14 5 -14 10 0 6 9 10
21 10 11 0 17 -4 14 -10z m712 -45 c1 -19 -3 -35 -8 -35 -10 0 -12 53 -2 63 9
10 9 10 10 -28z m-2757 -12 c0 -43 -5 -41 -13 5 -4 18 -2 32 3 32 6 0 10 -16
10 -37z m625 -30 c0 -6 4 -15 8 -20 5 -4 8 -3 7 2 -5 22 1 27 15 15 12 -10 15
-34 13 -114 -1 -55 -3 -79 -5 -52 -3 37 -11 56 -29 73 l-25 23 -11 -28 -12
-27 -4 30 c-2 17 -12 38 -23 48 -18 17 -25 48 -13 59 10 11 79 3 79 -9z m5020
-22 c3 -5 -3 -12 -14 -16 -22 -7 -30 -32 -32 -100 -1 -39 -3 -45 -9 -25 l-7
25 -8 -30 c-5 -16 -16 -36 -26 -43 -10 -7 -19 -22 -21 -35 -3 -17 -5 -14 -9
12 -5 27 -2 35 13 39 15 4 18 15 18 79 0 66 2 75 20 80 10 3 22 14 25 24 5 15
10 17 25 9 10 -6 21 -14 25 -19z m-5175 -1 c13 -8 12 -11 -5 -25 -17 -14 -17
-16 -2 -11 19 6 21 -2 8 -38 -9 -23 -13 -24 -61 -19 -46 5 -52 3 -57 -16 -8
-33 -23 -14 -23 30 0 26 -5 42 -15 45 -18 7 -20 24 -2 24 7 0 25 -14 39 -30
26 -30 28 -30 47 -13 18 15 19 19 6 26 -29 16 -15 29 40 35 6 1 17 -3 25 -8z
m5460 -9 c0 -10 -7 -21 -15 -25 -11 -4 -15 -23 -15 -81 0 -65 -2 -75 -17 -75
-23 0 -38 11 -46 33 -8 22 1 47 19 47 10 0 14 12 12 46 -1 35 3 50 17 60 26
20 45 17 45 -5z m-3154 -28 c-10 -10 -19 5 -10 18 6 11 8 11 12 0 2 -7 1 -15
-2 -18z m854 17 c0 -6 -7 -13 -15 -16 -12 -5 -15 -32 -15 -160 0 -143 -1 -154
-19 -154 -15 0 -19 11 -25 72 -4 40 -12 76 -19 80 -9 6 -9 10 0 16 6 4 14 30
18 57 12 88 24 115 51 115 13 0 24 -5 24 -10z m-2255 -10 c-3 -5 -13 -10 -21
-10 -8 0 -14 5 -14 10 0 6 9 10 21 10 11 0 17 -4 14 -10z m-234 -111 c3 -41 2
-84 -2 -96 -7 -20 -5 -22 37 -25 62 -4 55 -23 -8 -23 l-53 0 -3 114 c-3 91 -1
112 10 109 8 -3 15 -30 19 -79z m1639 71 c0 -5 -5 -10 -11 -10 -5 0 -7 5 -4
10 3 6 8 10 11 10 2 0 4 -4 4 -10z m-3033 -47 c-3 -10 -5 -2 -5 17 0 19 2 27
5 18 2 -10 2 -26 0 -35z m3714 -25 c1 -103 -2 -192 -7 -197 -2 -2 -10 2 -19 9
-9 8 -15 29 -15 56 0 36 -3 44 -19 44 -14 0 -20 10 -24 43 -2 23 -8 49 -11 58
-5 12 0 18 20 23 14 4 33 14 41 21 26 27 33 16 34 -57z m4035 -45 c-12 -194
-54 -461 -107 -688 -37 -158 -120 -434 -149 -495 -11 -25 -18 -36 -15 -25 3
11 24 78 46 150 105 340 174 688 200 1005 12 144 15 160 25 160 4 0 4 -48 0
-107z m-3259 91 c-3 -3 -12 -4 -19 -1 -8 3 -5 6 6 6 11 1 17 -2 13 -5z m-1497
-29 c0 -8 -4 -15 -10 -15 -5 0 -10 7 -10 15 0 8 5 15 10 15 6 0 10 -7 10 -15z
m2360 -1 c0 -17 -22 -14 -28 4 -2 7 3 12 12 12 9 0 16 -7 16 -16z m-1255 -14
c3 -5 -5 -12 -18 -15 -36 -9 -90 -2 -95 13 -5 15 103 17 113 2z m-1105 -20 c0
-5 -4 -10 -10 -10 -5 0 -10 5 -10 10 0 6 5 10 10 10 6 0 10 -4 10 -10z m-1690
-20 c0 -5 -2 -10 -4 -10 -3 0 -8 5 -11 10 -3 6 -1 10 4 10 6 0 11 -4 11 -10z
m1615 1 c3 -5 1 -12 -5 -16 -5 -3 -10 1 -10 9 0 18 6 21 15 7z m-1450 -21 c3
-5 -1 -10 -9 -10 -9 0 -16 5 -16 10 0 6 4 10 9 10 6 0 13 -4 16 -10z m536 -40
c3 -85 1 -115 -8 -106 -4 3 -7 32 -8 62 -1 36 -7 59 -16 65 -11 7 -9 9 9 9 18
0 22 -6 23 -30z m329 20 c0 -5 -5 -10 -11 -10 -5 0 -7 5 -4 10 3 6 8 10 11 10
2 0 4 -4 4 -10z m577 -37 c-3 -10 -5 -2 -5 17 0 19 2 27 5 18 2 -10 2 -26 0
-35z m-1577 17 c0 -21 -24 -28 -35 -10 -8 14 3 30 21 30 8 0 14 -9 14 -20z
m3780 -21 c0 -9 -4 -8 -15 1 -8 7 -15 19 -15 27 0 12 2 12 15 -1 8 -8 15 -20
15 -27z m437 -19 c27 0 12 -15 -17 -17 -32 -2 -33 -1 -23 37 l6 24 10 -22 c6
-12 16 -22 24 -22z m-4757 10 c0 -5 -4 -10 -10 -10 -5 0 -10 5 -10 10 0 6 5
10 10 10 6 0 10 -4 10 -10z m1360 -10 c0 -26 -16 -31 -59 -22 -64 14 -47 37
32 41 21 1 27 -3 27 -19z m435 10 c3 -5 1 -10 -4 -10 -6 0 -11 5 -11 10 0 6 2
10 4 10 3 0 8 -4 11 -10z m-1232 -32 c2 -18 3 -35 1 -37 -7 -8 -128 -4 -131 5
-5 18 23 41 62 51 60 16 62 16 68 -19z m2298 19 c-1 -12 -15 -9 -19 4 -3 6 1
10 8 8 6 -3 11 -8 11 -12z m384 3 c3 -5 -1 -10 -9 -10 -9 0 -16 5 -16 10 0 6
4 10 9 10 6 0 13 -4 16 -10z m1105 -30 c0 -28 -16 -33 -45 -14 -19 12 -23 19
-14 25 7 4 16 6 20 3 4 -2 10 0 14 6 9 15 25 2 25 -20z m-6766 -52 c3 -27 2
-48 -3 -48 -9 0 -21 48 -21 88 0 41 17 12 24 -40z m4836 52 c0 -5 -5 -10 -11
-10 -5 0 -7 5 -4 10 3 6 8 10 11 10 2 0 4 -4 4 -10z m974 0 c56 0 40 -9 -28
-14 -61 -5 -86 0 -86 16 0 7 15 8 38 4 20 -3 55 -6 76 -6z m-2050 -20 c11 -11
-10 -40 -30 -40 -7 0 -14 -12 -16 -27 -5 -41 -28 -42 -28 -1 0 19 -5 39 -12
46 -8 8 -8 15 2 27 14 17 65 14 84 -5z m-719 -10 c-7 -12 21 -18 104 -23 36
-2 66 -8 68 -14 2 -5 14 -8 27 -6 22 5 23 1 30 -59 7 -72 -1 -131 -17 -125 -6
2 -18 17 -26 35 l-16 31 -90 -4 -90 -4 75 13 c87 16 86 22 -5 25 -33 1 -45 5
-45 16 0 13 -24 15 -152 16 l-153 1 85 16 c87 16 107 27 88 49 -8 10 -4 13 18
14 43 1 65 6 77 18 14 14 30 14 22 1z m2245 -10 c0 -5 -4 -10 -10 -10 -5 0
-10 5 -10 10 0 6 5 10 10 10 6 0 10 -4 10 -10z m680 -7 c8 -4 19 -5 24 -4 5 1
6 -5 3 -14 -5 -12 5 -15 66 -17 l72 -2 -65 -3 c-113 -5 -147 -12 -153 -32 -5
-21 -68 -34 -116 -25 -24 5 -31 12 -31 30 0 15 -6 24 -16 24 -10 0 -14 7 -12
23 2 18 11 23 43 27 47 6 163 1 185 -7z m1375 -3 c3 -5 -3 -10 -14 -10 -12 0
-21 5 -21 10 0 6 6 10 14 10 8 0 18 -4 21 -10z m-4515 -10 c0 -6 -11 -8 -27
-4 -40 10 -41 14 -5 14 18 0 32 -5 32 -10z m-1320 -10 c0 -5 -7 -10 -16 -10
-8 0 -12 5 -9 10 3 6 10 10 16 10 5 0 9 -4 9 -10z m3525 -20 c-5 -8 -11 -8
-17 -2 -6 6 -7 16 -3 22 5 8 11 8 17 2 6 -6 7 -16 3 -22z m73 9 c-20 -13 -38
-11 -38 5 0 9 8 12 26 8 19 -3 22 -7 12 -13z m310 -51 c2 -12 -3 -18 -17 -18
-13 0 -21 -8 -23 -22 -4 -27 -32 -35 -126 -37 -47 -1 -63 2 -59 12 2 8 26 12
70 12 37 0 67 3 67 7 0 4 9 10 20 13 30 9 14 25 -25 25 -34 0 -51 11 -38 24 4
4 34 6 67 4 49 -2 61 -7 64 -20z m39 -20 c-3 -7 -5 -2 -5 12 0 14 2 19 5 13 2
-7 2 -19 0 -25z m1366 5 c-7 -2 -19 -2 -25 0 -7 3 -2 5 12 5 14 0 19 -2 13 -5z
m-1710 -54 c-9 -9 -53 -1 -53 10 0 4 14 6 31 3 17 -2 27 -8 22 -13z m-1933
-19 c0 -5 -4 -10 -10 -10 -5 0 -10 5 -10 10 0 6 5 10 10 10 6 0 10 -4 10 -10z
m130 -30 c0 -5 -4 -10 -10 -10 -5 0 -10 5 -10 10 0 6 5 10 10 10 6 0 10 -4 10
-10z m-3251 -152 c28 -146 88 -389 130 -524 17 -54 29 -99 27 -101 -13 -13
-125 382 -167 586 -32 160 -32 161 -21 161 4 0 18 -55 31 -122z m6375 47 c4
-42 4 -80 1 -85 -17 -27 -25 -2 -25 75 0 47 4 85 9 85 4 0 11 -34 15 -75z
m2646 13 c0 -14 -28 -135 -35 -157 -3 -8 -8 -11 -11 -8 -8 8 27 177 37 177 5
0 9 -6 9 -12z m-4166 -123 c37 -2 70 -6 72 -8 3 -2 -24 -10 -58 -17 -35 -7
-55 -15 -45 -17 9 -3 17 -9 17 -14 0 -5 39 -9 87 -9 70 0 84 -2 74 -12 -9 -10
-82 -13 -289 -14 -516 -3 -483 -1 -489 -24 -4 -14 -14 -20 -35 -20 -25 0 -28
-3 -23 -20 5 -16 2 -20 -19 -20 -20 0 -68 -15 -85 -27 -2 -1 5 -15 15 -30 10
-15 20 -37 21 -48 1 -19 -4 -21 -55 -20 -59 0 -69 -5 -105 -55 -15 -21 -17
-22 -13 -5 12 45 0 182 -20 229 -5 13 -2 23 11 32 21 16 18 17 -65 32 -53 10
-51 10 50 11 58 1 182 1 275 1 254 0 380 13 305 33 -11 3 -20 10 -20 16 0 18
163 20 394 6z m1524 -59 c2 -46 -13 -63 -39 -44 -11 7 -11 11 -1 15 6 2 12 20
12 39 0 53 25 44 28 -10z m-5182 -4 c6 -4 27 -58 48 -120 43 -133 102 -267
138 -313 23 -31 27 -32 44 -19 18 13 18 13 2 -5 -15 -16 -19 -16 -33 -5 -24
20 -78 101 -78 117 0 7 -3 13 -7 13 -10 0 -65 134 -96 232 -27 85 -25 83 -83
67 -27 -8 -21 19 6 29 35 13 45 14 59 4z m2007 1 c-7 -2 -21 -2 -30 0 -10 3
-4 5 12 5 17 0 24 -2 18 -5z m23 -44 c3 -6 0 -17 -8 -26 -22 -21 -247 -24
-270 -3 -15 14 -14 16 6 27 28 16 262 18 272 2z m1544 -18 c113 -4 206 -9 208
-10 10 -6 -2 -21 -17 -21 -11 0 -26 -9 -34 -20 -8 -11 -17 -17 -20 -13 -4 3
-7 2 -8 -3 -4 -49 -19 -70 -19 -26 0 18 -4 32 -10 32 -5 0 -10 -5 -10 -11 0
-6 -9 -8 -21 -4 -30 10 -69 -3 -69 -23 0 -32 -17 -44 -71 -52 l-54 -8 45 0
c63 0 70 -1 70 -10 0 -4 -28 -9 -62 -10 -49 -2 -67 -7 -80 -23 -10 -12 -16
-25 -13 -29 3 -5 1 -11 -5 -15 -6 -4 -10 6 -10 23 0 16 -6 35 -14 42 -8 6 -12
18 -10 25 3 7 -6 21 -20 30 -13 9 -26 26 -28 38 -2 14 -9 21 -20 19 -10 -1
-36 6 -60 18 -23 11 -49 20 -57 21 -12 0 -11 3 4 10 11 5 31 16 45 25 18 10
41 13 80 9 30 -3 147 -9 260 -14z m-370 -1 c-8 -5 -28 -10 -45 -11 -26 0 -27
-2 -10 -9 l20 -8 -20 -7 c-11 -5 -27 -14 -36 -22 -14 -12 -19 -12 -33 2 -20
21 -21 35 -1 35 8 0 15 4 15 9 0 9 34 16 95 19 23 1 26 -1 15 -8z m4530 -120
c-36 -126 -127 -391 -139 -403 -5 -5 7 36 26 90 19 54 55 168 79 253 53 184
53 184 60 177 3 -3 -9 -55 -26 -117z m-5250 87 c33 -29 25 -57 -14 -50 -33 7
-49 27 -41 53 8 26 21 25 55 -3z m1743 3 c12 -11 -35 -19 -106 -18 -42 0 -63
5 -80 19 -22 19 -21 19 78 13 55 -3 104 -9 108 -14z m-219 1 c3 -5 -1 -12 -10
-15 -24 -9 -31 -7 -31 9 0 16 32 21 41 6z m674 0 c9 -5 -12 -11 -57 -15 -74
-7 -116 -1 -106 15 8 11 145 12 163 0z m-1658 -11 c0 -5 -9 -10 -20 -10 -11 0
-20 5 -20 10 0 6 9 10 20 10 11 0 20 -4 20 -10z m1065 -59 c3 -5 1 -12 -4 -15
-4 -3 -7 -32 -4 -63 l4 -58 -20 25 c-25 31 -30 80 -11 103 16 19 26 21 35 8z
m135 -10 c0 -10 -6 -24 -14 -30 -11 -9 -15 -6 -18 14 -6 27 -1 35 19 35 7 0
13 -8 13 -19z m-1143 -43 c-3 -7 -5 -2 -5 12 0 14 2 19 5 13 2 -7 2 -19 0 -25z
m660 0 c-3 -7 -5 -2 -5 12 0 14 2 19 5 13 2 -7 2 -19 0 -25z m-27 -18 c0 -5
-7 -10 -15 -10 -8 0 -15 5 -15 10 0 6 7 10 15 10 8 0 15 -4 15 -10z m-3365
-120 c3 -5 1 -10 -4 -10 -6 0 -11 5 -11 10 0 6 2 10 4 10 3 0 8 -4 11 -10z
m6320 -89 c-28 -57 -43 -69 -21 -18 29 69 40 89 44 79 2 -6 -8 -33 -23 -61z
m-214 2 c-12 -20 -14 -14 -5 12 4 9 9 14 11 11 3 -2 0 -13 -6 -23z m-7242 -73
c0 -10 -3 -8 -9 5 -12 27 -12 43 0 25 5 -8 9 -22 9 -30z m-230 -50 c0 -9 -4
-8 -9 5 -5 11 -9 27 -9 35 0 9 4 8 9 -5 5 -11 9 -27 9 -35z m641 20 c0 -5 -5
-10 -11 -10 -5 0 -7 5 -4 10 3 6 8 10 11 10 2 0 4 -4 4 -10z m54 1 c3 -4 -6
-6 -19 -3 -14 2 -25 6 -25 8 0 8 39 4 44 -5z m7644 -52 c-6 -16 -12 -29 -13
-27 -6 6 8 58 16 58 4 0 3 -14 -3 -31z"/>
<path d="M982 5285 c-16 -35 -86 -281 -111 -393 -29 -123 -57 -281 -75 -423
-30 -232 -45 -694 -22 -716 6 -7 187 36 202 48 8 6 13 114 17 332 7 404 25
518 133 861 24 77 44 154 44 173 0 34 -5 38 -141 121 l-36 22 -11 -25z"/>
<path d="M8945 5294 c-105 -44 -109 -60 -55 -219 87 -250 130 -522 149 -943 5
-95 12 -177 17 -181 5 -5 48 -11 97 -14 l87 -5 0 82 c0 170 -31 478 -71 699
-33 183 -136 577 -157 599 -4 3 -34 -5 -67 -18z"/>
<path d="M1685 5277 c-76 -160 -193 -540 -198 -645 l-2 -45 57 -21 c31 -12 60
-25 64 -29 18 -18 32 -4 39 41 24 162 152 581 217 709 6 12 8 28 5 36 -7 20
-69 47 -107 47 -30 0 -33 -5 -75 -93z"/>
<path d="M8185 5386 c-72 -33 -71 -30 -22 -151 48 -116 127 -348 127 -370 0
-8 4 -16 9 -19 9 -6 105 29 127 46 22 16 -15 157 -82 318 -79 188 -95 205
-159 176z"/>
<path d="M7036 4282 c-9 -15 -12 -460 -3 -468 4 -5 12 -3 16 5 9 15 20 14 40
-2 12 -10 13 7 8 121 -4 72 -11 141 -17 151 -5 11 -13 58 -16 105 -7 81 -15
108 -28 88z"/>
<path d="M6936 4189 c-14 -17 -26 -40 -26 -52 0 -18 2 -19 10 -7 8 12 10 8 9
-15 -1 -40 20 -256 27 -275 5 -12 8 -11 14 5 12 28 12 362 1 369 -5 4 -21 -8
-35 -25z"/>
<path d="M7200 3829 c0 -5 5 -7 10 -4 6 3 10 8 10 11 0 2 -4 4 -10 4 -5 0 -10
-5 -10 -11z"/>
<path d="M7070 3611 c0 -6 5 -13 10 -16 6 -3 10 1 10 9 0 9 -4 16 -10 16 -5 0
-10 -4 -10 -9z"/>
<path d="M5286 3272 c-3 -6 -1 -14 5 -17 15 -10 25 3 12 16 -7 7 -13 7 -17 1z"/>
<path d="M4418 3135 c-3 -14 -3 -27 1 -29 13 -7 81 7 75 15 -3 5 -10 7 -15 4
-5 -4 -9 3 -9 14 0 33 -46 29 -52 -4z"/>
<path d="M4590 3120 c-50 -6 -51 -7 -15 -8 22 -1 70 -5 108 -9 55 -5 67 -3 62
8 -6 16 -70 20 -155 9z"/>
<path d="M2105 3870 c-3 -5 -1 -10 4 -10 6 0 11 5 11 10 0 6 -2 10 -4 10 -3 0
-8 -4 -11 -10z"/>
<path d="M7780 3629 c0 -5 5 -7 10 -4 6 3 10 8 10 11 0 2 -4 4 -10 4 -5 0 -10
-5 -10 -11z"/>
</g>
</svg>
